<svg id="Capa_1" enable-background="new 0 0 511.81 511.81" height="512" viewBox="0 0 511.81 511.81" width="512" xmlns="http://www.w3.org/2000/svg"><g><g><path d="m338.195 194v60.645h-28.677v-60.645h-30v90.645h58.677v56.355h30v-147z" fill="#343941"/><path d="m169.185 225.175h58v29.47h-58.677v89.468h88.198v-30h-58.198v-29.468h58.677v-89.47h-88z" fill="#4c5c72"/></g><path d="m326.341 149.8 32.46-32.46c-26.79-17.48-58.34-26.97-90.45-26.97-3.3 0-6.58.1-9.84.3-86.77 5.1-155.79 77.3-155.79 165.33s69.02 160.23 155.79 165.33v90.48c-64.69-2.42-125.16-28.77-171.18-74.79-48.35-48.35-74.98-112.64-74.98-181.02s26.63-132.67 74.98-181.02c46.02-46.02 106.49-72.37 171.18-74.79 3.27-.13 6.55-.19 9.84-.19 56.32 0 110.94 18.54 155.32 52.47l32.45-32.46 38.01 167.8z" fill="#73efff"/><g><path d="m305.707 488.009-5.469-29.498c8.216-1.522 16.421-3.568 24.385-6.079l9.02 28.612c-9.126 2.877-18.524 5.22-27.936 6.965zm54.812-17.276-12.43-27.305c7.589-3.454 15.056-7.418 22.191-11.781l15.648 25.596c-8.168 4.994-16.717 9.533-25.409 13.49zm49-29.949-18.619-23.523c6.554-5.187 12.861-10.829 18.748-16.771l21.311 21.115c-6.733 6.794-13.946 13.248-21.44 19.179zm40.42-40.798-23.691-18.402c5.13-6.604 9.907-13.59 14.201-20.763l25.74 15.408c-4.912 8.208-10.38 16.201-16.25 23.757zm29.513-49.314-27.42-12.172c3.394-7.644 6.349-15.571 8.783-23.563l28.697 8.742c-2.789 9.156-6.173 18.238-10.06 26.993zm16.758-54.994-29.549-5.184c1.441-8.217 2.397-16.625 2.841-24.988l29.957 1.588c-.507 9.564-1.6 19.181-3.249 28.584zm-26.876-55.346c-.557-8.364-1.626-16.759-3.179-24.951l29.475-5.588c1.777 9.377 3.002 18.981 3.638 28.549z" fill="#ff6826"/></g><path d="m326.341 149.8 32.46-32.46c-26.79-17.48-58.34-26.97-90.45-26.97-3.3 0-6.58.1-9.84.3v-90.48c3.27-.13 6.55-.19 9.84-.19 56.32 0 110.94 18.54 155.32 52.47l32.45-32.46 38.01 167.8z" fill="#8fbaff"/></g></svg>