<?xml version="1.0" encoding="iso-8859-1"?>
<!-- Generator: Adobe Illustrator 19.0.0, SVG Export Plug-In . SVG Version: 6.00 Build 0)  -->
<svg version="1.1" id="Capa_1" xmlns="http://www.w3.org/2000/svg" xmlns:xlink="http://www.w3.org/1999/xlink" x="0px" y="0px"
	 viewBox="0 0 512 512" style="enable-background:new 0 0 512 512;" xml:space="preserve">
<g>
	<path style="fill:#B06328;" d="M356.073,424.727c-11.636,8.145-23.273,15.127-36.073,20.945l23.273,51.2
		c3.491,8.145,12.8,13.964,22.109,13.964l0,0c10.473,0,18.618-8.145,18.618-18.618c0-2.327,0-5.818-1.164-8.145L356.073,424.727z"/>
	<path style="fill:#B06328;" d="M109.382,424.727l-26.764,59.345c-1.164,3.491-1.164,5.818-1.164,9.309
		c0,10.473,8.145,18.618,18.618,18.618l0,0c9.309,0,18.618-5.818,22.109-13.964l23.273-51.2
		C132.655,441.018,121.018,434.036,109.382,424.727z"/>
	<path style="fill:#B06328;" d="M256,58.182h-46.545V34.909c0-12.8,10.473-23.273,23.273-23.273l0,0
		c12.8,0,23.273,10.473,23.273,23.273V58.182z"/>
</g>
<path style="fill:#9F5223;" d="M256,58.182h-23.273V34.909c0-6.982,4.655-11.636,11.636-11.636l0,0
	c6.982,0,11.636,4.655,11.636,11.636V58.182z"/>
<circle style="fill:#F04B4D;" cx="232.727" cy="256" r="209.455"/>
<g>
	<path style="fill:#9F5223;" d="M356.073,424.727c-11.636,8.145-23.273,15.127-36.073,20.945l10.473,23.273
		c5.818-2.327,11.636-5.818,16.291-8.145c5.818-3.491,13.964-1.164,16.291,5.818l8.145,17.455c1.164,2.327,1.164,4.655,1.164,8.145
		c0,8.145-5.818,16.291-13.964,18.618c2.327,0,3.491,1.164,5.818,1.164l0,0c10.473,0,18.618-8.145,18.618-18.618
		c0-2.327,0-5.818-1.164-8.145L356.073,424.727z"/>
	<path style="fill:#9F5223;" d="M109.382,424.727l-4.655,10.473c4.655,3.491,9.309,8.145,13.964,11.636s5.818,9.309,3.491,13.964
		l-11.636,25.6c-3.491,8.145-11.636,13.964-22.109,13.964l0,0c-2.327,0-4.655,0-5.818-1.164c2.327,6.982,9.309,12.8,17.455,12.8l0,0
		c9.309,0,18.618-5.818,22.109-13.964l23.273-51.2C132.655,441.018,121.018,434.036,109.382,424.727z"/>
</g>
<path style="fill:#DE333F;" d="M437.527,210.618c-1.164-8.145-3.491-15.127-5.818-22.109l-202.473,55.855
	c-5.818,1.164-9.309,8.145-8.145,13.964c1.164,3.491,2.327,5.818,5.818,6.982c2.327,2.327,5.818,2.327,9.309,2.327L437.527,210.618z
	"/>
<g>
	<path style="fill:#ECEFF9;" d="M232.727,93.091c-89.6,0-162.909,73.309-162.909,162.909s73.309,162.909,162.909,162.909
		S395.636,345.6,395.636,256S322.327,93.091,232.727,93.091z M232.727,372.364c-64,0-116.364-52.364-116.364-116.364
		s52.364-116.364,116.364-116.364S349.091,192,349.091,256S296.727,372.364,232.727,372.364z"/>
	<path style="fill:#ECEFF9;" d="M232.727,186.182c-38.4,0-69.818,31.418-69.818,69.818s31.418,69.818,69.818,69.818
		S302.545,294.4,302.545,256S271.127,186.182,232.727,186.182z M232.727,290.909c-19.782,0-34.909-15.127-34.909-34.909
		s15.127-34.909,34.909-34.909s34.909,15.127,34.909,34.909S252.509,290.909,232.727,290.909z"/>
</g>
<path style="fill:#F6B545;" d="M395.636,93.091l33.745,8.145c8.145,2.327,16.291,0,22.109-5.818l37.236-37.236l-46.545-11.636
	L430.545,0l-37.236,37.236c-5.818,5.818-8.145,13.964-5.818,22.109L395.636,93.091z"/>
<polygon style="fill:#F19920;" points="427.055,101.236 473.6,54.691 448,47.709 401.455,94.255 "/>
<path style="fill:#7F4122;" d="M232.727,267.636c-3.491,0-5.818-1.164-8.145-3.491c-4.655-4.655-4.655-11.636,0-16.291
	L457.309,15.127c4.655-4.655,11.636-4.655,16.291,0c4.655,4.655,4.655,11.636,0,16.291L240.873,264.145
	C238.545,266.473,236.218,267.636,232.727,267.636z"/>
<g>
	<path style="fill:#C4D7E5;" d="M386.327,201.309l-45.382,12.8c2.327,6.982,4.655,15.127,5.818,22.109l45.382-12.8
		C390.982,216.436,388.655,208.291,386.327,201.309z"/>
	<path style="fill:#C4D7E5;" d="M302.545,249.018c-1.164-8.145-3.491-15.127-5.818-22.109l-34.909,9.309
		c3.491,5.818,5.818,12.8,5.818,19.782c0,1.164,0,1.164,0,2.327L302.545,249.018z"/>
</g>
<path style="fill:#73371B;" d="M232.727,267.636c3.491,0,5.818-1.164,8.145-3.491L473.6,31.418c4.655-4.655,4.655-11.636,0-16.291
	L224.582,264.145C226.909,266.473,229.236,267.636,232.727,267.636z"/>
<g>
</g>
<g>
</g>
<g>
</g>
<g>
</g>
<g>
</g>
<g>
</g>
<g>
</g>
<g>
</g>
<g>
</g>
<g>
</g>
<g>
</g>
<g>
</g>
<g>
</g>
<g>
</g>
<g>
</g>
</svg>
