<svg id="Capa_1" enable-background="new 0 0 512 512" height="512" viewBox="0 0 512 512" width="512" xmlns="http://www.w3.org/2000/svg"><g><g><path d="m348.628 0h-185.256c-8.587 0-16.821 3.411-22.893 9.483l-130.996 130.996c-6.072 6.071-9.483 14.306-9.483 22.893v185.256c0 8.587 3.411 16.821 9.483 22.893l130.996 130.996c6.072 6.072 14.306 9.483 22.893 9.483h185.256c8.587 0 16.821-3.411 22.893-9.483l130.996-130.996c6.072-6.072 9.483-14.306 9.483-22.893v-185.256c0-8.587-3.411-16.821-9.483-22.893l-130.996-130.996c-6.071-6.072-14.306-9.483-22.893-9.483z" fill="#fd4755"/><path d="m371.521 9.483c-6.071-6.072-14.306-9.483-22.893-9.483h-68.547c3.068 4.748 6.737 10.118 11.054 15.884 1.085 1.448 2.168 2.858 3.251 4.247h-.658c14.061 17.268 77.544 98.997 66.17 213.256-15.685 157.559-159.186 231.021-168.484 235.583-11.803 6.114-22.439 10.742-31.213 14.212-9.451 3.248-17.77 8.296-24.557 14.502l4.834 4.834c6.072 6.072 14.307 9.483 22.893 9.483h185.256c8.587 0 16.822-3.411 22.893-9.483l130.996-130.996c6.072-6.072 9.482-14.306 9.482-22.893v-185.257c0-8.587-3.411-16.821-9.482-22.893z" fill="#fb2b3a"/><path d="m341.887 30.98h-171.774c-4.687 0-9.181 1.862-12.495 5.176l-121.462 121.462c-3.314 3.314-5.176 7.808-5.176 12.495v171.774c0 4.687 1.862 9.181 5.176 12.495l121.462 121.462c3.314 3.314 7.808 5.176 12.495 5.176h171.774c4.687 0 9.181-1.862 12.495-5.176l121.462-121.462c3.314-3.314 5.176-7.808 5.176-12.495v-171.774c0-4.687-1.862-9.181-5.176-12.495l-121.462-121.462c-3.314-3.314-7.809-5.176-12.495-5.176z" fill="#fed402"/><path d="m354.382 36.156c-3.314-3.314-7.809-5.176-12.495-5.176h-39.768c21.867 29.762 67.572 104.023 57.778 202.407-15.684 157.559-159.185 231.021-168.483 235.583-9.127 4.727-17.543 8.558-24.953 11.661 1.192.252 2.414.39 3.651.39h171.774c4.686 0 9.181-1.862 12.495-5.176l121.463-121.462c3.314-3.314 5.176-7.808 5.176-12.495v-171.775c0-4.687-1.862-9.181-5.176-12.495z" fill="#f7bc09"/></g><g><path d="m185.961 148.349h-40.588c-8.581 0-15.538 6.957-15.538 15.538s6.957 15.538 15.538 15.538h25.05v171.588c0 8.581 6.957 15.538 15.538 15.538s15.538-6.957 15.538-15.538v-187.126c0-8.581-6.957-15.538-15.538-15.538z" fill="#685e68"/><path d="m346.019 238.768c9.123-9.904 14.708-23.117 14.708-37.612 0-30.642-24.929-55.572-55.572-55.572s-55.572 24.93-55.572 55.572c0 14.496 5.585 27.708 14.708 37.612-17.891 12.789-29.586 33.714-29.586 57.334 0 38.846 31.604 70.45 70.45 70.45s70.45-31.604 70.45-70.45c0-23.62-11.695-44.545-29.586-57.334zm-65.36-37.612c0-13.507 10.989-24.496 24.496-24.496s24.495 10.989 24.495 24.496-10.988 24.495-24.495 24.495-24.496-10.988-24.496-24.495zm24.496 134.32c-21.711 0-39.374-17.663-39.374-39.374s17.663-39.374 39.374-39.374 39.374 17.663 39.374 39.374-17.663 39.374-39.374 39.374z" fill="#685e68"/><path d="m344.202 301.09c-.917 7.219-3.794 13.831-8.083 19.289-7.816 16.839-16.995 32.18-26.888 46.046 36.956-2.12 66.374-32.846 66.374-70.324 0-17.915-6.733-34.277-17.791-46.718-2.942 18.46-7.627 35.693-13.612 51.707z" fill="#554e56"/></g><path d="m500.816 69.848h-55.912c-1.707 0-3.091-1.384-3.091-3.091v-55.911c0-3.507-2.843-6.349-6.349-6.349h-18.281c-3.507 0-6.35 2.843-6.35 6.35v55.912c0 1.707-1.384 3.091-3.091 3.091h-55.912c-3.507 0-6.349 2.843-6.349 6.349v18.281c0 3.507 2.843 6.349 6.349 6.349h55.912c1.707 0 3.091 1.384 3.091 3.091v55.912c0 3.507 2.843 6.35 6.35 6.35h18.281c3.507 0 6.35-2.843 6.35-6.35v-55.912c0-1.707 1.384-3.091 3.091-3.091h55.912c3.507 0 6.349-2.843 6.349-6.349v-18.282c0-3.507-2.843-6.35-6.35-6.35z" fill="#685e68"/><g fill="#554e56"><path d="m426.361 51.665c0 8.534 6.918 15.453 15.453 15.453v-56.272c0-3.507-2.843-6.349-6.349-6.349h-9.103v47.168z"/><path d="m500.816 69.848h-9.103v9.178c0 3.507-2.843 6.349-6.349 6.349h-42.497c-9.116 0-16.506 7.39-16.506 16.506v42.497c0 3.507-2.843 6.349-6.349 6.349h-9.178v9.103c0 3.507 2.843 6.349 6.349 6.349h18.281c3.507 0 6.349-2.843 6.349-6.349v-55.912c0-1.707 1.384-3.091 3.091-3.091h55.912c3.507 0 6.349-2.843 6.349-6.349v-18.28c.001-3.507-2.842-6.35-6.349-6.35z"/></g></g></svg>