<svg id="Layer_1" enable-background="new 0 0 256 256" height="512" viewBox="0 0 256 256" width="512" xmlns="http://www.w3.org/2000/svg"><g><g><g><circle cx="128" cy="56.785" fill="#67beeb" r="49.118"/></g></g><g><g><path d="m128 105.903c14.371 0 27.298-6.173 36.28-16.011-6.886-12.995-20.547-21.849-36.28-21.849-15.734 0-29.394 8.855-36.28 21.849 8.982 9.837 21.909 16.011 36.28 16.011z" fill="#f46275"/></g></g><g><g><path d="m87.382 56.785c0-25.694 19.732-46.767 44.868-48.923-1.402-.12-2.817-.195-4.25-.195-27.127 0-49.118 21.991-49.118 49.118s21.991 49.118 49.118 49.118c1.433 0 2.848-.074 4.25-.195-25.135-2.156-44.868-23.229-44.868-48.923z" fill="#6377e7"/></g></g><g><g><path d="m95.583 83.954c-1.445 1.863-2.751 3.839-3.863 5.938 8.982 9.838 21.91 16.011 36.28 16.011 1.425 0 2.832-.078 4.226-.197-15.296-1.319-28.585-9.641-36.643-21.752z" fill="#f43075"/></g></g><g><g><path d="m168.618 56.785c0-25.694-19.732-46.767-44.868-48.923 1.402-.12 2.817-.195 4.25-.195 27.127 0 49.118 21.991 49.118 49.118s-21.991 49.118-49.118 49.118c-1.433 0-2.848-.074-4.25-.195 25.135-2.156 44.868-23.229 44.868-48.923z" fill="#67dceb"/></g></g><g><g><path d="m160.417 83.954c1.445 1.863 2.751 3.839 3.863 5.938-8.982 9.838-21.91 16.011-36.28 16.011-1.425 0-2.832-.078-4.226-.197 15.296-1.319 28.585-9.641 36.643-21.752z" fill="#f48875"/></g></g><g><g><ellipse cx="128" cy="49.987" fill="#f46275" rx="18.055" ry="18.055" transform="matrix(.924 -.383 .383 .924 -9.386 52.789)"/></g></g><g><g><path d="m80.486 175.495c0-11.682-9.47-21.153-21.153-21.153-11.682 0-21.153 9.47-21.153 21.153 0 9.081 5.724 16.824 13.76 19.822 2.302.859 4.792 1.331 7.392 1.331 2.601 0 5.091-.472 7.392-1.331 8.038-2.998 13.762-10.74 13.762-19.822z" fill="#f8af23"/></g></g><g><g><g><path d="m67.955 175.485v5.917c0 .461-.173.861-.519 1.2s-.756.508-1.23.508h-5.205v4.168c0 .475-.169.878-.508 1.21s-.739.498-1.2.498c-.488 0-.902-.166-1.24-.498-.339-.332-.508-.735-.508-1.21v-4.209h-5.165c-.461 0-.861-.166-1.2-.498s-.508-.735-.508-1.21c0-.474.166-.878.498-1.21s.735-.498 1.21-.498h12.078v-2.46h-12.038c-.475 0-.878-.163-1.21-.488-.333-.325-.498-.732-.498-1.22v-5.896c0-.475.166-.878.498-1.21s.735-.498 1.21-.498h5.124v-4.168c0-.461.159-.861.478-1.2s.749-.508 1.291-.508c.461 0 .857.166 1.189.498s.498.735.498 1.21v4.168h5.246c.474 0 .884.17 1.23.508.346.339.519.739.519 1.2 0 .475-.173.884-.519 1.23s-.756.519-1.23.519h-12.077v2.44h12.037c.474 0 .884.17 1.23.508s.519.738.519 1.199z" fill="#3f3679"/></g></g></g><g><g><path d="m101.62 236.163h-84.573c1.468-22.071 19.84-39.515 42.286-39.515s40.818 17.444 42.287 39.515z" fill="#67beeb"/></g></g><g><g><path d="m46.68 175.495c0-10.227 7.258-18.758 16.903-20.725-1.373-.28-2.794-.428-4.25-.428-11.682 0-21.153 9.47-21.153 21.153 0 9.082 5.724 16.824 13.76 19.822 2.302.859 4.792 1.331 7.392 1.331 1.458 0 2.875-.163 4.25-.444-1.078-.221-2.131-.509-3.142-.886-8.035-2.999-13.76-10.741-13.76-19.823z" fill="#f87023"/></g></g><g><g><path d="m63.583 196.861c-1.398-.139-2.815-.213-4.25-.213-22.446 0-40.818 17.444-42.286 39.515h8.5c1.374-20.661 17.561-37.264 38.036-39.302z" fill="#6377e7"/></g></g><g><g><path d="m217.82 175.495c0-11.682-9.47-21.153-21.153-21.153-11.682 0-21.153 9.47-21.153 21.153 0 9.081 5.724 16.824 13.76 19.822 2.302.859 4.792 1.331 7.392 1.331 2.601 0 5.091-.472 7.392-1.331 8.037-2.998 13.762-10.74 13.762-19.822z" fill="#f8af23"/></g></g><g><g><g><path d="m205.288 175.485v5.917c0 .461-.173.861-.519 1.2s-.756.508-1.23.508h-5.205v4.168c0 .475-.169.878-.508 1.21s-.739.498-1.2.498c-.488 0-.902-.166-1.24-.498-.339-.332-.508-.735-.508-1.21v-4.209h-5.164c-.461 0-.861-.166-1.2-.498s-.508-.735-.508-1.21c0-.474.166-.878.498-1.21s.735-.498 1.21-.498h12.078v-2.46h-12.037c-.475 0-.878-.163-1.21-.488-.333-.325-.498-.732-.498-1.22v-5.896c0-.475.166-.878.498-1.21s.735-.498 1.21-.498h5.124v-4.168c0-.461.159-.861.478-1.2s.749-.508 1.291-.508c.461 0 .857.166 1.189.498s.498.735.498 1.21v4.168h5.246c.474 0 .884.17 1.23.508.346.339.519.739.519 1.2 0 .475-.173.884-.519 1.23s-.756.519-1.23.519h-12.078v2.44h12.037c.474 0 .884.17 1.23.508.345.338.518.738.518 1.199z" fill="#3f3679"/></g></g></g><g><g><path d="m238.953 236.163h-84.573c1.468-22.071 19.84-39.515 42.286-39.515s40.819 17.444 42.287 39.515z" fill="#f46275"/></g></g><g><g><path d="m196.667 154.342c-1.456 0-2.877.148-4.25.428 9.645 1.968 16.903 10.499 16.903 20.725 0 9.082-5.724 16.824-13.76 19.822-1.011.377-2.065.666-3.142.886 1.375.282 2.792.444 4.25.444 2.601 0 5.091-.472 7.392-1.331 8.036-2.998 13.76-10.741 13.76-19.822 0-11.681-9.471-21.152-21.153-21.152z" fill="#f8d323"/></g></g><g><g><path d="m196.667 196.648c-1.435 0-2.852.073-4.25.213 20.475 2.038 36.662 18.642 38.036 39.302h8.5c-1.468-22.071-19.84-39.515-42.286-39.515z" fill="#f48875"/></g></g><g><g><path d="m149.153 144.91c0-11.682-9.47-21.153-21.153-21.153-11.682 0-21.153 9.47-21.153 21.153 0 9.081 5.724 16.824 13.76 19.822 2.302.859 4.792 1.331 7.392 1.331 2.601 0 5.091-.472 7.392-1.331 8.038-2.998 13.762-10.741 13.762-19.822z" fill="#f8af23"/></g></g><g><g><g><path d="m136.621 144.9v5.917c0 .461-.173.861-.519 1.2s-.756.508-1.23.508h-5.205v4.168c0 .475-.17.878-.508 1.21-.339.332-.739.498-1.2.498-.488 0-.902-.166-1.24-.498-.339-.332-.508-.735-.508-1.21v-4.209h-5.164c-.461 0-.861-.166-1.2-.498s-.508-.735-.508-1.21c0-.474.166-.878.498-1.21s.735-.498 1.21-.498h12.078v-2.46h-12.037c-.475 0-.878-.163-1.21-.488-.333-.325-.498-.732-.498-1.22v-5.896c0-.475.166-.878.498-1.21s.735-.498 1.21-.498h5.124v-4.168c0-.461.159-.861.478-1.2s.749-.508 1.291-.508c.461 0 .857.166 1.189.498s.498.735.498 1.21v4.168h5.246c.474 0 .884.169 1.23.508s.519.739.519 1.2c0 .475-.173.884-.519 1.23s-.756.519-1.23.519h-12.078v2.44h12.037c.474 0 .884.17 1.23.508.345.338.518.738.518 1.199z" fill="#3f3679"/></g></g></g><g><g><path d="m170.286 205.578h-84.572c1.468-22.071 19.84-39.515 42.286-39.515s40.818 17.443 42.286 39.515z" fill="#9e9e9e"/></g></g><g><g><path d="m115.347 144.91c0-10.227 7.258-18.758 16.903-20.725-1.373-.28-2.794-.428-4.25-.428-11.682 0-21.153 9.47-21.153 21.153 0 9.081 5.724 16.824 13.76 19.822 2.302.859 4.792 1.331 7.392 1.331 1.458 0 2.875-.163 4.25-.444-1.078-.221-2.131-.509-3.142-.886-8.036-2.999-13.76-10.742-13.76-19.823z" fill="#f87023"/></g></g><g><g><path d="m132.25 166.275c-1.398-.139-2.815-.212-4.25-.212-22.446 0-40.818 17.444-42.286 39.515h8.5c1.374-20.661 17.561-37.264 38.036-39.303z" fill="#707070"/></g></g><g><g><g><path d="m205.945 196.153c8.054-3.626 13.374-11.744 13.374-20.658 0-11.986-9.359-21.822-21.152-22.597v-23.897c0-.44-.193-.858-.529-1.144l-37.614-31.906c11.341-9.29 18.593-23.396 18.593-39.166 0-27.911-22.707-50.618-50.617-50.618s-50.617 22.707-50.617 50.618c0 15.77 7.252 29.875 18.593 39.166l-37.614 31.907c-.336.285-.529.703-.529 1.144v23.897c-11.793.775-21.152 10.611-21.152 22.597 0 8.915 5.32 17.032 13.374 20.658-18.715 4.063-33.189 20.134-34.505 39.91-.027.414.118.821.401 1.124.284.304.681.476 1.096.476h84.573c.415 0 .812-.172 1.096-.476.283-.303.429-.71.401-1.124-.761-11.434-5.921-21.631-13.754-28.986h77.273c-7.833 7.355-12.992 17.553-13.754 28.986-.027.414.118.821.401 1.124.284.304.681.476 1.096.476h84.573c.415 0 .812-.172 1.096-.476.283-.303.429-.71.401-1.124-1.315-19.776-15.789-35.847-34.504-39.911zm-7.778-40.234c10.135.771 18.152 9.247 18.152 19.576 0 8.163-5.138 15.564-12.784 18.417-4.4 1.641-9.336 1.641-13.736 0-7.647-2.854-12.785-10.254-12.785-18.417 0-10.33 8.017-18.805 18.153-19.576 0 0 1.401-.19 3 0zm-70.167-146.752c26.256 0 47.617 21.361 47.617 47.618 0 11.602-4.176 22.244-11.097 30.514-6.149-10.308-16.234-17.438-27.765-19.851 6.394-3.219 10.801-9.827 10.801-17.461 0-10.783-8.772-19.556-19.556-19.556s-19.556 8.772-19.556 19.556c0 7.633 4.407 14.241 10.801 17.461-11.531 2.413-21.616 9.543-27.765 19.851-6.921-8.27-11.097-18.912-11.097-30.514 0-26.257 21.361-47.618 47.617-47.618zm0 57.375c-9.129 0-16.556-7.427-16.556-16.555 0-9.129 7.427-16.556 16.556-16.556s16.556 7.427 16.556 16.556c0 9.128-7.427 16.555-16.556 16.555zm-34.411 23.104c7.023-12.421 20.096-20.104 34.411-20.104s27.388 7.684 34.411 20.104c-8.676 9.081-20.89 14.756-34.411 14.756s-25.735-5.674-34.411-14.756zm34.411 77.916c20.913 0 38.467 15.912 40.651 36.515h-81.302c2.184-20.602 19.738-36.515 40.651-36.515zm-6.868-4.235c-7.647-2.854-12.785-10.255-12.785-18.417 0-10.837 8.816-19.653 19.653-19.653s19.653 8.816 19.653 19.653c0 8.162-5.138 15.563-12.785 18.417-4.396 1.639-9.34 1.639-13.736 0zm-81.451 12.168c0-10.727 8.643-19.46 19.328-19.636.105.023.212.037.324.037s.219-.014.324-.037c10.687.176 19.329 8.909 19.329 19.636 0 8.163-5.138 15.563-12.785 18.417-4.4 1.641-9.336 1.641-13.736 0-7.647-2.852-12.784-10.254-12.784-18.417zm60.304 59.168h-81.303c2.186-20.603 19.739-36.515 40.651-36.515 20.913 0 38.467 15.913 40.652 36.515zm-31.374-38.51c8.055-3.626 13.375-11.745 13.375-20.658 0-11.986-9.359-21.822-21.153-22.597v-23.203l37.581-31.878c7.949 5.748 17.623 9.24 28.086 9.547v14.948c-11.794.775-21.153 10.611-21.153 22.598 0 8.912 5.32 17.03 13.374 20.657-17.953 3.898-31.998 18.847-34.273 37.516-4.701-3.292-10.068-5.677-15.837-6.93zm68.669-30.585c8.054-3.627 13.374-11.745 13.374-20.657 0-11.987-9.359-21.823-21.153-22.598v-14.948c10.464-.307 20.137-3.8 28.086-9.547l37.581 31.878v23.203c-11.794.775-21.153 10.611-21.153 22.597 0 8.914 5.32 17.032 13.375 20.658-5.768 1.252-11.135 3.638-15.836 6.93-2.277-18.67-16.322-33.618-34.274-37.516zm18.735 69.095c2.186-20.603 19.739-36.515 40.652-36.515 20.912 0 38.466 15.912 40.651 36.515z" fill="#3f3679"/></g></g><g><g><path d="m207.172 246.833h-158.344c-.828 0-1.5.672-1.5 1.5s.672 1.5 1.5 1.5h158.344c.828 0 1.5-.672 1.5-1.5s-.672-1.5-1.5-1.5z" fill="#3f3679"/></g></g><g><g><path d="m232.003 246.833h-12.75c-.828 0-1.5.672-1.5 1.5s.672 1.5 1.5 1.5h12.75c.828 0 1.5-.672 1.5-1.5s-.672-1.5-1.5-1.5z" fill="#3f3679"/></g></g><g><g><path d="m36.747 246.833h-12.75c-.828 0-1.5.672-1.5 1.5s.672 1.5 1.5 1.5h12.75c.828 0 1.5-.672 1.5-1.5s-.672-1.5-1.5-1.5z" fill="#3f3679"/></g></g></g></g></svg>