<svg id="Layer_1" enable-background="new 0 0 256 256" height="512" viewBox="0 0 256 256" width="512" xmlns="http://www.w3.org/2000/svg"><g><g><g><g><g><g><path d="m160.777 129.674c-19.53 0-35.362-15.832-35.362-35.362v-11.323c0-3.22 2.61-5.829 5.829-5.829h64.895v17.152c0 19.53-15.832 35.362-35.362 35.362z" fill="#4671c6"/></g><g><path d="m160.777 131.674c-20.602 0-37.362-16.761-37.362-37.362v-11.323c0-4.317 3.512-7.829 7.829-7.829h64.896c1.104 0 2 .896 2 2v17.152c0 20.602-16.761 37.362-37.363 37.362zm-29.533-52.514c-2.111 0-3.829 1.718-3.829 3.829v11.323c0 18.396 14.966 33.362 33.362 33.362s33.362-14.966 33.362-33.362v-15.152z" fill="#3762cc"/></g><g><path d="m190.895 98.16v-2.82c0-16.484-13.484-29.847-30.118-29.847-16.634 0-30.118 13.363-30.118 29.847v2.82c-5.23-.106-9.379 4.06-9.379 9.096 0 5.378 4.695 9.631 10.175 9.052 3.108 13.205 15.053 23.043 29.323 23.043 14.271 0 26.215-9.839 29.323-23.043 5.472.579 10.174-3.667 10.174-9.052-.001-5.038-4.153-9.202-9.38-9.096z" fill="#f9cfcf"/></g><g><path d="m176.413 113.458c-2.102 0-3.807-1.704-3.807-3.807v-4.061c0-2.102 1.704-3.807 3.807-3.807 2.102 0 3.807 1.704 3.807 3.807v4.061c0 2.103-1.704 3.807-3.807 3.807z" fill="#3762cc"/></g><g><path d="m145.133 113.458c-2.102 0-3.807-1.704-3.807-3.807v-4.061c0-2.102 1.704-3.807 3.807-3.807 2.102 0 3.807 1.704 3.807 3.807v4.061c0 2.103-1.704 3.807-3.807 3.807z" fill="#3762cc"/></g><g><path d="m160.777 141.351c-14.452 0-26.913-9.38-30.855-23.005-2.57-.126-5.04-1.127-6.966-2.86-2.336-2.102-3.676-5.102-3.676-8.23 0-2.994 1.183-5.802 3.33-7.906 1.672-1.639 3.771-2.688 6.049-3.05v-.96c0-17.561 14.408-31.847 32.118-31.847s32.118 14.287 32.118 31.847v.959c2.278.362 4.376 1.412 6.049 3.051 2.147 2.104 3.33 4.912 3.33 7.906 0 3.128-1.34 6.128-3.675 8.229-1.927 1.733-4.396 2.735-6.967 2.861-3.942 13.625-16.403 23.005-30.855 23.005zm-29.321-27.043c.917 0 1.73.631 1.945 1.542 2.979 12.66 14.237 21.501 27.376 21.501s24.396-8.842 27.375-21.501c.231-.981 1.152-1.645 2.158-1.531 2.073.218 4.072-.421 5.613-1.808 1.494-1.344 2.351-3.259 2.351-5.255 0-1.91-.756-3.703-2.13-5.049-1.388-1.36-3.23-2.074-5.208-2.048-.553.011-1.057-.195-1.44-.571-.384-.376-.601-.891-.601-1.429v-2.82c0-15.355-12.613-27.847-28.118-27.847s-28.118 12.492-28.118 27.847v2.82c0 .538-.217 1.052-.601 1.429-.384.376-.951.585-1.439.571-2.008-.042-3.821.688-5.21 2.047-1.373 1.346-2.129 3.139-2.129 5.049 0 1.996.857 3.912 2.352 5.256 1.538 1.384 3.526 2.029 5.612 1.807.07-.007.142-.01.212-.01z" fill="#3762cc"/></g><g><path d="m144.636 93.071h41.099c5.746 0 10.405-4.658 10.405-10.405v-8.991c0-10.19-8.261-18.451-18.451-18.451h-29.977c-10.19 0-18.451 8.261-18.451 18.451v4.019c-.001 8.493 6.883 15.377 15.375 15.377z" fill="#4671c6"/></g><g><path d="m185.735 95.071h-41.099c-9.581 0-17.376-7.795-17.376-17.376v-4.02c0-11.277 9.175-20.451 20.451-20.451h29.977c11.276 0 20.451 9.174 20.451 20.451v8.991c.001 6.84-5.564 12.405-12.404 12.405zm-38.023-37.847c-9.071 0-16.451 7.38-16.451 16.451v4.02c0 7.375 6 13.376 13.376 13.376h41.099c4.634 0 8.404-3.771 8.404-8.405v-8.991c0-9.071-7.38-16.451-16.451-16.451z" fill="#3762cc"/></g><g><path d="m160.764 125.766c-1.235 0-2.315-.146-3.304-.446-1.638-.498-3.076-1.338-4.159-2.431-.583-.588-.579-1.538.009-2.121.589-.583 1.537-.58 2.122.009.733.74 1.737 1.319 2.901 1.673.7.213 1.495.316 2.431.316s1.73-.104 2.431-.316c1.163-.354 2.167-.933 2.902-1.673.583-.587 1.534-.592 2.121-.008.588.583.592 1.533.008 2.121-1.084 1.092-2.521 1.932-4.158 2.43-.989.3-2.069.446-3.304.446z" fill="#3762cc"/></g></g><g><g><path d="m98.958 103.309v-2.468c0-14.424-11.799-26.116-26.353-26.116-14.555 0-26.353 11.693-26.353 26.116v2.468c-4.576-.093-8.207 3.553-8.207 7.959 0 4.705 4.108 8.427 8.903 7.92 2.72 11.555 13.171 20.163 25.657 20.163 12.487 0 22.938-8.609 25.657-20.163 4.788.506 8.903-3.208 8.903-7.92-.001-4.409-3.634-8.052-8.207-7.959z" fill="#f9cfcf"/></g><g><path d="m86.286 117.716c-2.208 0-3.997-1.79-3.997-3.997v-4.264c0-2.208 1.79-3.997 3.997-3.997 2.208 0 3.997 1.79 3.997 3.997v4.264c0 2.208-1.79 3.997-3.997 3.997z" fill="#3762cc"/></g><g><path d="m58.916 117.716c-2.208 0-3.997-1.79-3.997-3.997v-4.264c0-2.208 1.79-3.997 3.997-3.997 2.208 0 3.997 1.79 3.997 3.997v4.264c0 2.208-1.79 3.997-3.997 3.997z" fill="#3762cc"/></g><g><path d="m72.604 141.351c-12.698 0-23.655-8.203-27.189-20.14-2.242-.15-4.389-1.042-6.072-2.557-2.097-1.886-3.299-4.579-3.299-7.386 0-2.688 1.062-5.208 2.989-7.097 1.449-1.42 3.255-2.347 5.218-2.702v-.629c0-15.503 12.72-28.116 28.354-28.116s28.354 12.613 28.354 28.116v.629c1.963.354 3.768 1.281 5.218 2.702 1.927 1.889 2.988 4.409 2.988 7.097 0 2.808-1.202 5.5-3.298 7.386-1.684 1.515-3.831 2.407-6.073 2.557-3.535 11.937-14.492 20.14-27.19 20.14zm-25.656-24.163c.917 0 1.73.63 1.945 1.542 2.58 10.964 12.331 18.621 23.711 18.621s21.13-7.657 23.71-18.621c.231-.98 1.157-1.646 2.157-1.53 1.747.181 3.424-.354 4.719-1.519 1.272-1.145 1.974-2.712 1.974-4.413 0-1.604-.635-3.11-1.788-4.24-1.166-1.143-2.713-1.753-4.377-1.72-.523.013-1.057-.195-1.44-.571-.384-.376-.601-.891-.601-1.429v-2.468c0-13.297-10.925-24.116-24.354-24.116s-24.354 10.818-24.354 24.116v2.468c0 .538-.217 1.052-.601 1.429-.384.376-.907.587-1.44.571-1.657-.044-3.212.578-4.378 1.72-1.153 1.13-1.788 2.636-1.788 4.24 0 1.675.72 3.284 1.975 4.413 1.294 1.165 2.972 1.699 4.718 1.519.071-.008.142-.012.212-.012z" fill="#3762cc"/></g><g><path d="m75.593 88.992c-1.657 0-3-1.343-3-3 0-.934-.384-1.375-1.908-2.633-1.63-1.343-4.092-3.373-4.092-7.261 0-3.887 2.463-5.917 4.093-7.259 1.523-1.256 1.907-1.696 1.907-2.628 0-1.657 1.343-3 3-3s3 1.343 3 3c0 3.887-2.463 5.916-4.092 7.259-1.524 1.256-1.908 1.696-1.908 2.628 0 .934.384 1.375 1.908 2.632 1.63 1.344 4.092 3.374 4.092 7.262 0 1.657-1.343 3-3 3z" fill="#4671c6"/></g><g><circle cx="72.777" cy="125.297" fill="#f9a7a7" r="8.827"/></g><g><path d="m72.777 128.671c-1.86 0-3.373-1.514-3.373-3.374s1.514-3.373 3.373-3.373c1.86 0 3.373 1.513 3.373 3.373s-1.513 3.374-3.373 3.374z" fill="#4671c6"/></g><g><path d="m72.777 136.124c-5.97 0-10.827-4.857-10.827-10.827s4.857-10.827 10.827-10.827 10.826 4.857 10.826 10.827c.001 5.97-4.856 10.827-10.826 10.827zm0-17.654c-3.765 0-6.827 3.063-6.827 6.827 0 3.765 3.063 6.827 6.827 6.827s6.826-3.063 6.826-6.827c.001-3.764-3.062-6.827-6.826-6.827z" fill="#3762cc"/></g></g></g><g><g><g><path d="m120.553 213.52v-58.877h19.982c9.41 0 17.039 7.629 17.039 17.039v4.817c0 20.446-16.575 37.021-37.021 37.021z" fill="#e0ebfc"/></g><g><path d="m117.765 213.52v-58.877h-19.982c-9.41 0-17.039 7.629-17.039 17.039v4.817c0 20.446 16.575 37.021 37.021 37.021z" fill="#e0ebfc"/></g></g><g><g><path d="m120.554 215.52c-1.104 0-2-.896-2-2v-58.877c0-1.104.896-2 2-2h19.981c10.498 0 19.039 8.541 19.039 19.039v4.817c0 21.516-17.505 39.021-39.02 39.021zm2-58.877v54.82c18.384-1.039 33.021-16.324 33.021-34.964v-4.817c0-8.292-6.746-15.039-15.039-15.039z" fill="#3762cc"/></g><g><path d="m117.765 215.52c-21.516 0-39.021-17.505-39.021-39.021v-4.817c0-10.498 8.541-19.039 19.039-19.039h19.981c1.104 0 2 .896 2 2v58.877c.001 1.104-.895 2-1.999 2zm-19.982-58.877c-8.293 0-15.039 6.747-15.039 15.039v4.817c0 18.64 14.637 33.925 33.021 34.964v-54.82z" fill="#3762cc"/></g></g><g><path d="m150.179 179.769v-2.905c0-16.978-13.888-30.741-31.02-30.741-17.132 0-31.02 13.763-31.02 30.741v2.905c-5.386-.109-9.66 4.182-9.66 9.369 0 5.539 4.835 9.92 10.479 9.323 3.201 13.601 15.504 23.733 30.201 23.733 14.698 0 27-10.134 30.201-23.733 5.636.596 10.479-3.777 10.479-9.323 0-5.19-4.277-9.478-9.66-9.369z" fill="#f9cfcf"/></g><g><path d="m119.166 208.155c-2.376 0-4.591-.859-6.076-2.356-.583-.588-.579-1.538.009-2.121.589-.583 1.537-.58 2.122.009.911.919 2.387 1.468 3.945 1.468 1.568 0 2.999-.535 3.924-1.468.585-.589 1.533-.592 2.122-.009.588.583.592 1.533.009 2.121-1.486 1.497-3.693 2.356-6.055 2.356z" fill="#3762cc"/></g><g><path d="m135.264 195.526c-2.165 0-3.921-1.755-3.921-3.921v-4.182c0-2.165 1.755-3.921 3.921-3.921 2.165 0 3.921 1.755 3.921 3.921v4.182c0 2.165-1.756 3.921-3.921 3.921z" fill="#3762cc"/></g><g><path d="m103.047 195.526c-2.165 0-3.921-1.755-3.921-3.921v-4.182c0-2.165 1.755-3.921 3.921-3.921 2.165 0 3.921 1.755 3.921 3.921v4.182c0 2.165-1.756 3.921-3.921 3.921z" fill="#3762cc"/></g><g><path d="m119.159 224.194c-14.872 0-27.694-9.661-31.734-23.692-2.648-.12-5.195-1.147-7.18-2.933-2.394-2.153-3.766-5.227-3.766-8.431 0-3.068 1.212-5.945 3.412-8.101 1.726-1.691 3.894-2.769 6.247-3.133v-1.04c0-18.053 14.813-32.741 33.021-32.741s33.021 14.688 33.021 32.741v1.04c2.354.364 4.521 1.442 6.247 3.133 2.2 2.156 3.412 5.033 3.412 8.101 0 3.205-1.372 6.278-3.765 8.431-1.984 1.786-4.532 2.813-7.181 2.933-4.039 14.031-16.861 23.692-31.734 23.692zm-30.199-27.734c.917 0 1.73.63 1.944 1.542 3.077 13.066 14.695 22.192 28.255 22.192 13.561 0 25.179-9.125 28.254-22.192.231-.98 1.165-1.645 2.157-1.53 2.163.229 4.229-.438 5.828-1.876 1.551-1.396 2.44-3.385 2.44-5.458 0-1.984-.785-3.846-2.211-5.243-1.404-1.375-3.262-2.127-5.247-2.127-.068 0-.137.001-.201.002-.522 0-1.025-.205-1.399-.571-.384-.376-.601-.891-.601-1.429v-2.904c0-15.848-13.019-28.741-29.021-28.741s-29.021 12.893-29.021 28.741v2.904c0 .538-.217 1.052-.601 1.429-.384.376-.9.583-1.44.571-2.002-.024-3.965.713-5.406 2.125-1.427 1.397-2.212 3.26-2.212 5.244 0 2.073.89 4.062 2.441 5.458 1.599 1.438 3.665 2.103 5.827 1.876.072-.009.144-.013.214-.013z" fill="#3762cc"/></g><g><g><path d="m135.533 203.684c-.091 0-.182-.008-.275-.023l-13.019-2.192c-.895-.151-1.499-.999-1.349-1.895.151-.896.997-1.502 1.895-1.349l13.019 2.192c.895.151 1.499.999 1.349 1.895-.135.803-.832 1.372-1.62 1.372z" fill="#e0ebfc"/></g></g><g><g><path d="m102.778 203.684c.091 0 .182-.008.275-.023l13.019-2.192c.895-.151 1.499-.999 1.349-1.895-.151-.896-.997-1.502-1.895-1.349l-13.019 2.192c-.895.151-1.499.999-1.349 1.895.135.803.831 1.372 1.62 1.372z" fill="#e0ebfc"/></g></g></g></g></g><g><g><path d="m120.645 232.839c-57.808 0-104.839-47.031-104.839-104.839s47.03-104.839 104.839-104.839 104.839 47.031 104.839 104.839c0 .978-.016 1.952-.043 2.924h12.006c.024-.972.037-1.946.037-2.924 0-64.425-52.414-116.839-116.839-116.839-64.426 0-116.839 52.414-116.839 116.839s52.414 116.839 116.839 116.839z" fill="#a4c9ff"/></g><g><path d="m237.446 130.924h-12.006c-1.554 56.461-47.965 101.915-104.796 101.915v12c63.448 0 115.245-50.836 116.802-113.915z" fill="#e0ebfc"/></g><g><g><path d="m249.972 120.984h-12.192-13.929-12.249c-1.836 0-2.877 2.102-1.765 3.563l19.184 25.179c.888 1.165 2.641 1.165 3.529 0l19.185-25.179c1.114-1.46.073-3.563-1.763-3.563z" fill="#4671c6"/></g></g><g><path d="m120.645 11.161v12c57.809 0 104.839 47.031 104.839 104.839 0 .978-.016 1.952-.043 2.924h12.006c.024-.972.037-1.946.037-2.924-.001-64.425-52.415-116.839-116.839-116.839z" fill="#4671c6"/></g></g></g></svg>