<svg height="469pt" viewBox="0 0 469 469.33336" width="469pt" xmlns="http://www.w3.org/2000/svg"><path d="m320.167969 149.332031v-106.664062c0-23.566407-19.105469-42.667969-42.667969-42.667969h-234.667969c-23.5625 0-42.664062 19.101562-42.664062 42.667969v320h277.332031c23.5625 0 42.667969-19.105469 42.667969-42.667969zm0 0" fill="#f56054"/><path d="m320.167969 320h-21.335938v-277.332031c-.011719-11.777344-9.554687-21.324219-21.332031-21.335938h-234.667969v-21.332031h234.667969c23.554688.0273438 42.640625 19.113281 42.667969 42.667969zm0 0" fill="#f78980"/><path d="m85.5 42.667969h256v341.332031h-256zm0 0" fill="#cfdbf2"/><path d="m106.832031 64h213.335938v298.667969h-213.335938zm0 0" fill="#afc3e9"/><path d="m213.5 85.332031h256v341.335938h-256zm0 0" fill="#e6ecf8"/><path d="m234.832031 106.667969h213.335938v298.664062h-213.335938zm0 0" fill="#0053b1"/><path d="m405.5 309.332031c0 29.457031-23.878906 53.335938-53.332031 53.335938-29.457031 0-53.335938-23.878907-53.335938-53.335938 0-29.453125 23.878907-53.332031 53.335938-53.332031 29.453125 0 53.332031 23.878906 53.332031 53.332031zm0 0" fill="#cfdbf2"/><path d="m448.167969 277.332031c-70.695313 0-128 57.308594-128 128h128zm0 0" fill="#669ede"/><path d="m256.167969 161.3125c0-19.578125-13.324219-36.644531-32.320313-41.390625l-207.523437-51.882813c-9.496094-2.375-16.15625-10.90625-16.15625-20.695312v327.238281c0 18.363281 11.75 34.667969 29.171875 40.476563l179 52.753906c11.273437 3.324219 23.457031 1.132812 32.871094-5.90625 9.414062-7.039062 14.957031-18.105469 14.957031-29.859375zm0 0" fill="#f78980"/><path d="m29.339844 415.058594 13.492187 3.976562v-344.367187l-26.507812-6.628907c-9.496094-2.375-16.15625-10.90625-16.15625-20.695312v327.238281c0 18.363281 11.75 34.667969 29.171875 40.476563zm0 0" fill="#f6766b"/><path d="m21.5 106.667969h21.332031v277.332031h-21.332031zm0 0" fill="#f56054"/><path d="m42.832031 128h21.335938v277.332031h-21.335938zm0 0" fill="#f9a29b"/><path d="m218.875 469.332031h-5.375v-21.332031h5.375c8.808594-.011719 15.945312-7.148438 15.957031-15.957031v-270.730469c.007813-9.796875-6.660156-18.339844-16.164062-20.707031l-186.1875-46.679688c-19-4.734375-32.328125-21.804687-32.3125-41.382812v-9.875c.027343-23.554688 19.113281-42.6406252 42.664062-42.667969v21.332031c-11.777343.011719-21.320312 9.558594-21.332031 21.335938v9.875c-.007812 9.792969 6.664062 18.332031 16.167969 20.695312l186.1875 46.679688c19 4.738281 32.324219 21.8125 32.3125 41.394531v270.730469c-.023438 20.585937-16.707031 37.265625-37.292969 37.289062zm0 0" fill="#f9a29b"/><path d="m426.832031 192c0 11.78125-9.550781 21.332031-21.332031 21.332031s-21.332031-9.550781-21.332031-21.332031 9.550781-21.332031 21.332031-21.332031 21.332031 9.550781 21.332031 21.332031zm0 0" fill="#f78980"/><g fill="#cfdbf2"><path d="m298.832031 224c0 5.890625-4.773437 10.667969-10.664062 10.667969s-10.667969-4.777344-10.667969-10.667969 4.777344-10.667969 10.667969-10.667969 10.664062 4.777344 10.664062 10.667969zm0 0"/><path d="m341.5 160c0 5.890625-4.777344 10.667969-10.667969 10.667969s-10.664062-4.777344-10.664062-10.667969 4.773437-10.667969 10.664062-10.667969 10.667969 4.777344 10.667969 10.667969zm0 0"/><path d="m201.039062 289.777344c-14-13.984375-34.09375-16.5625-44.882812-5.761719s-8.191406 30.890625 5.804688 44.875c14 13.980469 34.09375 16.5625 44.882812 5.761719 10.789062-10.800782 8.191406-30.890625-5.804688-44.875zm0 0"/></g><path d="m183.078125 307.746094c-9.648437-9.640625-22.949219-11.96875-29.714844-5.203125-6.761719 6.769531-4.421875 20.070312 5.226563 29.710937 9.644531 9.640625 22.949218 11.96875 29.710937 5.203125 6.765625-6.769531 4.425781-20.070312-5.222656-29.710937zm0 0" fill="#afc3e9"/></svg>