<?xml version="1.0" encoding="iso-8859-1"?>
<!-- Generator: Adobe Illustrator 19.0.0, SVG Export Plug-In . SVG Version: 6.00 Build 0)  -->
<svg version="1.1" id="Capa_1" xmlns="http://www.w3.org/2000/svg" xmlns:xlink="http://www.w3.org/1999/xlink" x="0px" y="0px"
	 viewBox="0 0 512 512" style="enable-background:new 0 0 512 512;" xml:space="preserve">
<path style="fill:#576D7E;" d="M395.636,407.273c0-12.8-10.473-23.273-23.273-23.273H139.636c-12.8,0-23.273,10.473-23.273,23.273
	v58.182h279.273V407.273z"/>
<path style="fill:#35495C;" d="M407.273,465.455c5.818,0,11.636,5.818,11.636,11.636v23.273c0,5.818-5.818,11.636-11.636,11.636
	H104.727c-5.818,0-11.636-5.818-11.636-11.636v-23.273c0-5.818,5.818-11.636,11.636-11.636H407.273z"/>
<path style="fill:#F6B545;" d="M325.818,360.727c-6.982,0-11.636-4.655-11.636-11.636v-38.4c-6.982,2.327-15.127,3.491-23.273,3.491
	h-69.818c-8.145,0-16.291-1.164-23.273-3.491v38.4c0,6.982-4.655,11.636-11.636,11.636s-11.636,4.655-11.636,11.636V384h162.909
	v-11.636C337.455,365.382,332.8,360.727,325.818,360.727z"/>
<path style="fill:#35495C;" d="M395.636,465.455v-58.182c0-12.8-10.473-23.273-23.273-23.273h-58.182v81.455H395.636z"/>
<path style="fill:#FFCB5B;" d="M302.545,453.818h-93.091c-12.8,0-23.273-10.473-23.273-23.273l0,0
	c0-12.8,10.473-23.273,23.273-23.273h93.091c12.8,0,23.273,10.473,23.273,23.273l0,0
	C325.818,443.345,315.345,453.818,302.545,453.818z"/>
<g>
	<polygon style="fill:#F6B545;" points="267.636,453.818 244.364,453.818 267.636,407.273 290.909,407.273 	"/>
	<path style="fill:#F6B545;" d="M325.818,430.545c0-12.8-10.473-23.273-23.273-23.273l-23.273,46.545h23.273
		C315.345,453.818,325.818,443.345,325.818,430.545z"/>
</g>
<path style="fill:#123247;" d="M407.273,465.455h-81.455v11.636c0,12.8-10.473,23.273-23.273,23.273H116.364
	c-6.982,0-11.636-4.655-11.636-11.636v-23.273c-6.982,0-11.636,4.655-11.636,11.636v23.273c0,5.818,4.655,11.636,11.636,11.636H256
	h151.273c5.818,0,11.636-5.818,11.636-11.636v-23.273C418.909,471.273,413.091,465.455,407.273,465.455z"/>
<path style="fill:#FFCB5B;" d="M192,360.727h34.909c3.491,0,5.818,2.327,5.818,5.818l0,0c0,3.491-2.327,5.818-5.818,5.818H192
	c-3.491,0-5.818-2.327-5.818-5.818l0,0C186.182,363.055,188.509,360.727,192,360.727z"/>
<path style="fill:#F6B545;" d="M151.273,256h-26.764c-15.127,0-30.255-5.818-40.727-17.455L64,218.764
	c-11.636-10.473-17.455-24.436-17.455-40.727v-73.309c0-19.782,15.127-34.909,34.909-34.909h58.182
	c6.982,0,11.636,4.655,11.636,11.636c0,6.982-4.655,11.636-11.636,11.636H81.455c-6.982,0-11.636,4.655-11.636,11.636v73.309
	c0,9.309,3.491,18.618,10.473,24.436l19.782,19.782c6.982,6.982,15.127,10.473,24.436,10.473h26.764
	c6.982,0,11.636,4.655,11.636,11.636C162.909,251.345,158.255,256,151.273,256z"/>
<g>
	<path style="fill:#FFCA5D;" d="M58.182,110.545v46.545c0,3.491-2.327,5.818-5.818,5.818l0,0c-3.491,0-5.818-2.327-5.818-5.818
		v-46.545c0-3.491,2.327-5.818,5.818-5.818l0,0C55.855,104.727,58.182,107.055,58.182,110.545z"/>
	<circle style="fill:#FFCA5D;" cx="52.364" cy="180.364" r="5.818"/>
</g>
<path style="fill:#F6B545;" d="M387.491,256h-26.764c-6.982,0-11.636-4.655-11.636-11.636c0-6.982,4.655-11.636,11.636-11.636
	h26.764c9.309,0,18.618-3.491,24.436-10.473l19.782-19.782c6.982-6.982,10.473-15.127,10.473-24.436v-73.309
	c0-6.982-4.655-11.636-11.636-11.636h-58.182c-6.982,0-11.636-4.655-11.636-11.636c0-6.982,4.655-11.636,11.636-11.636h58.182
	c19.782,0,34.909,15.127,34.909,34.909v73.309c0,15.127-5.818,30.255-17.455,40.727l-19.782,19.782
	C417.745,250.182,403.782,256,387.491,256z"/>
<g>
	<path style="fill:#F19920;" d="M395.636,231.564c-2.327,0-4.655,1.164-8.145,1.164h-26.764c-6.982,0-11.636,4.655-11.636,11.636
		c0,6.982,4.655,11.636,11.636,11.636h26.764c1.164,0,2.327,0,4.655,0C394.473,247.855,395.636,240.873,395.636,231.564
		L395.636,231.564z"/>
	<path style="fill:#F19920;" d="M360.727,81.455c0,6.982,4.655,11.636,11.636,11.636h23.273V69.818h-23.273
		C365.382,69.818,360.727,74.473,360.727,81.455z"/>
</g>
<path style="fill:#FFCA5D;" d="M290.909,314.182h-69.818c-45.382,0-81.455-36.073-81.455-81.455V46.545h232.727v186.182
	C372.364,278.109,336.291,314.182,290.909,314.182z"/>
<g>
	<path style="fill:#F19920;" d="M325.818,360.727c-5.818,0-11.636-5.818-11.636-11.636v-26.764v-9.309v-2.327
		c-6.982,2.327-15.127,3.491-23.273,3.491h-69.818c-8.145,0-16.291-1.164-23.273-3.491v11.636
		c6.982,2.327,15.127,3.491,23.273,3.491H256c12.8,0,23.273,10.473,23.273,23.273l0,0c0,5.818,4.655,11.636,11.636,11.636
		c6.982,0,11.636,4.655,11.636,11.636V384h11.636h23.273v-11.636C337.455,365.382,331.636,360.727,325.818,360.727z"/>
	<path style="fill:#F19920;" d="M465.455,110.545v46.545c0,3.491-2.327,5.818-5.818,5.818l0,0c-3.491,0-5.818-2.327-5.818-5.818
		v-46.545c0-3.491,2.327-5.818,5.818-5.818l0,0C463.127,104.727,465.455,107.055,465.455,110.545z"/>
</g>
<g>
	<path style="fill:#F6B545;" d="M139.636,46.545v11.636h162.909c12.8,0,23.273,10.473,23.273,23.273v151.273
		c0,45.382-24.436,81.455-69.818,81.455h34.909c45.382,0,81.455-36.073,81.455-81.455V46.545H139.636z"/>
	<path style="fill:#F6B545;" d="M372.364,46.545H139.636c-12.8,0-23.273-10.473-23.273-23.273l0,0
		c0-12.8,10.473-23.273,23.273-23.273h232.727c12.8,0,23.273,10.473,23.273,23.273l0,0
		C395.636,36.073,385.164,46.545,372.364,46.545z"/>
</g>
<g>
	<path style="fill:#FFCA5D;" d="M145.455,0H192c3.491,0,5.818,2.327,5.818,5.818l0,0c0,3.491-2.327,5.818-5.818,5.818h-46.545
		c-3.491,0-5.818-2.327-5.818-5.818l0,0C139.636,2.327,141.964,0,145.455,0z"/>
	<path style="fill:#FFCA5D;" d="M238.545,11.636h-23.273c-3.491,0-5.818-2.327-5.818-5.818l0,0c0-3.491,2.327-5.818,5.818-5.818
		h23.273c3.491,0,5.818,2.327,5.818,5.818l0,0C244.364,9.309,242.036,11.636,238.545,11.636z"/>
	<path style="fill:#FFCA5D;" d="M110.545,81.455H87.273c-3.491,0-5.818-2.327-5.818-5.818l0,0c0-3.491,2.327-5.818,5.818-5.818
		h23.273c3.491,0,5.818,2.327,5.818,5.818l0,0C116.364,79.127,114.036,81.455,110.545,81.455z"/>
	<path style="fill:#FFCA5D;" d="M436.364,81.455h-23.273c-3.491,0-5.818-2.327-5.818-5.818l0,0c0-3.491,2.327-5.818,5.818-5.818
		h23.273c3.491,0,5.818,2.327,5.818,5.818l0,0C442.182,79.127,439.855,81.455,436.364,81.455z"/>
</g>
<path style="fill:#F19920;" d="M372.364,0L372.364,0c0,12.8-10.473,23.273-23.273,23.273H116.364
	c0,12.8,10.473,23.273,23.273,23.273H371.2c11.636,0,22.109-8.145,24.436-19.782C397.964,12.8,386.327,0,372.364,0z"/>
<circle style="fill:#FFCA5D;" cx="261.818" cy="5.818" r="5.818"/>
<path style="fill:#F19920;" d="M282.764,209.455H281.6L256,195.491l-25.6,13.964c-1.164,0-2.327,0-3.491,0
	c-1.164-1.164-1.164-2.327-1.164-3.491l4.655-30.255l-20.945-20.945c0-1.164,0-2.327,0-3.491c0-1.164,1.164-2.327,2.327-2.327
	l29.091-4.655l12.8-26.764c0-1.164,1.164-1.164,2.327-1.164l0,0c1.164,0,2.327,1.164,2.327,1.164l12.8,26.764l29.091,4.655
	c1.164,0,2.327,1.164,2.327,2.327s0,2.327-1.164,3.491l-20.945,20.945l4.655,30.255c0,1.164,0,2.327-1.164,3.491
	C283.927,209.455,283.927,209.455,282.764,209.455z"/>
<g>
	<path style="fill:#FFE27A;" d="M174.545,174.545L174.545,174.545c-6.982,0-11.636-4.655-11.636-11.636V93.091
		c0-6.982,4.655-11.636,11.636-11.636l0,0c6.982,0,11.636,4.655,11.636,11.636v69.818
		C186.182,169.891,181.527,174.545,174.545,174.545z"/>
	<circle style="fill:#FFE27A;" cx="174.545" cy="197.818" r="11.636"/>
</g>
<path style="fill:#35495C;" d="M139.636,384c-12.8,0-23.273,10.473-23.273,23.273v58.182h23.273V384z"/>
<g>
</g>
<g>
</g>
<g>
</g>
<g>
</g>
<g>
</g>
<g>
</g>
<g>
</g>
<g>
</g>
<g>
</g>
<g>
</g>
<g>
</g>
<g>
</g>
<g>
</g>
<g>
</g>
<g>
</g>
</svg>
