<svg id="Layer_1" height="512" viewBox="0 0 512 512" width="512" xmlns="http://www.w3.org/2000/svg" data-name="Layer 1"><path d="m479.69 205.28a18.457 18.457 0 0 1 0 26.11l-231.01 231.01c-50.32 50.32-132.26 51.89-183.07 2.06a129.41 129.41 0 0 1 -.9-183.71l133.93-133.93 50.76-50.76 60.53-60.53a18.887 18.887 0 1 1 26.71 26.71l-36.2 36.2a18.045 18.045 0 1 0 25.52 25.52l107.43-107.43a18.887 18.887 0 1 1 26.71 26.71l-169.75 169.76a18.045 18.045 0 1 0 25.52 25.52l45.11-45.11a18.887 18.887 0 0 1 26.71 26.71l-88.59 88.59a18.049 18.049 0 1 0 25.53 25.52l128.95-128.95a18.463 18.463 0 0 1 26.11 0z" fill="#ed6337"/><path d="m105.61 464.46a129.41 129.41 0 0 1 -.9-183.71l133.93-133.93 50.76-50.76 52.109-52.109a18.876 18.876 0 0 0 -31.579-8.421l-60.53 60.53-50.76 50.76-133.93 133.93a129.41 129.41 0 0 0 .9 183.71c30.077 29.5 71.061 40.979 109.938 35a127.233 127.233 0 0 1 -69.938-35z" fill="#c24e38"/><path d="m243.76 329.89a97.575 97.575 0 0 1 1.27 81.79 21.9 21.9 0 1 0 -21.38 30.49 97.29 97.29 0 0 1 -159.91-100.58l.07.02a21.008 21.008 0 0 0 1.5 1.66 21.888 21.888 0 1 0 19.27-37.04c.88-.97 1.8-1.92 2.74-2.86a97.287 97.287 0 0 1 130.67-6.28l-.13.16a21.245 21.245 0 0 0 -3.28 2.68 20.913 20.913 0 0 0 29.18 29.96z" fill="#fadf4a"/><path d="m245.03 411.68v.01a96.716 96.716 0 0 1 -20.13 29.26c-.41.41-.83.82-1.25 1.22a21.883 21.883 0 1 1 21.38-30.49z" fill="#dcbe3f"/><path d="m243.76 329.89a20.913 20.913 0 0 1 -29.18-29.96 21.245 21.245 0 0 1 3.28-2.68l.13-.16q3.57 2.94 6.91 6.28a97.008 97.008 0 0 1 18.86 26.52z" fill="#dcbe3f"/><path d="m96.26 312.31a21.888 21.888 0 0 1 -30.95 30.96 21.008 21.008 0 0 1 -1.5-1.66l-.07-.02a96.5 96.5 0 0 1 20.84-35.36 21.8 21.8 0 0 1 11.68 6.08z" fill="#dcbe3f"/><circle cx="162.645" cy="375.945" fill="#dcbe3f" r="14.107"/><g fill="#ffa766"><path d="m230.459 162.46a6 6 0 0 1 -4.242-10.242l9.515-9.516a6 6 0 0 1 8.485 8.486l-9.517 9.512a5.978 5.978 0 0 1 -4.241 1.76z"/><path d="m153.113 239.806a6 6 0 0 1 -4.242-10.243l56.707-56.707a6 6 0 1 1 8.484 8.486l-56.707 56.707a5.98 5.98 0 0 1 -4.242 1.757z"/><path d="m132.55 260.37a6.012 6.012 0 0 1 -4.24-1.76 5.406 5.406 0 0 1 -.75-.91 6.051 6.051 0 0 1 -.55-1.04 6.206 6.206 0 0 1 -.34-1.12 5.809 5.809 0 0 1 -.12-1.17 6 6 0 0 1 12 0 5.809 5.809 0 0 1 -.12 1.17 5.692 5.692 0 0 1 -.34 1.12 6.122 6.122 0 0 1 -.55 1.04 5.606 5.606 0 0 1 -.75.91 6.012 6.012 0 0 1 -4.24 1.76z"/><path d="m249.4 271.677a6 6 0 0 1 -4.242-10.243l15.077-15.077a6 6 0 1 1 8.485 8.485l-15.08 15.077a5.979 5.979 0 0 1 -4.24 1.758z"/><path d="m234.077 287a6 6 0 0 1 -4.234-10.251l.244-.243a6 6 0 0 1 8.469 8.5l-.244.243a5.985 5.985 0 0 1 -4.235 1.751z"/><path d="m287.864 167.248a6 6 0 0 1 -4.236-10.248l.169-.169a6 6 0 0 1 8.473 8.5l-.169.168a5.982 5.982 0 0 1 -4.237 1.749z"/><path d="m201.34 253.773a6 6 0 0 1 -4.24-10.243l67.242-67.242a6 6 0 0 1 8.484 8.485l-67.242 67.243a5.982 5.982 0 0 1 -4.244 1.757z"/><path d="m290.485 381.36a6 6 0 0 1 -4.242-10.243l8.856-8.855a6 6 0 1 1 8.484 8.485l-8.855 8.856a5.982 5.982 0 0 1 -4.243 1.757z"/><path d="m275.782 396.062a6 6 0 0 1 -4.24-10.245l.525-.525a6 6 0 0 1 8.481 8.49l-.526.525a5.979 5.979 0 0 1 -4.24 1.755z"/></g><path d="m273.9 490.293a6 6 0 0 1 -4.243-10.242l9.116-9.117a6 6 0 0 1 8.487 8.485l-9.116 9.117a5.982 5.982 0 0 1 -4.244 1.757z" fill="#ccd3df"/><path d="m311.453 452.739a6 6 0 0 1 -4.242-10.243l80.234-80.234a6 6 0 0 1 8.485 8.485l-80.23 80.234a5.979 5.979 0 0 1 -4.247 1.758z" fill="#ccd3df"/><path d="m422.556 341.636a6 6 0 0 1 -4.244-10.242l15.305-15.306a6 6 0 0 1 8.487 8.486l-15.304 15.305a5.986 5.986 0 0 1 -4.244 1.757z" fill="#ccd3df"/><path d="m201.34 93.581a6 6 0 0 1 -4.24-10.243l19.789-19.789a6 6 0 0 1 8.486 8.485l-19.789 19.79a5.986 5.986 0 0 1 -4.246 1.757z" fill="#ccd3df"/><path d="m76.236 218.685a6 6 0 0 1 -4.242-10.243l94.576-94.576a6 6 0 0 1 8.485 8.486l-94.576 94.575a5.981 5.981 0 0 1 -4.243 1.758z" fill="#ccd3df"/><path d="m36.436 258.485a6 6 0 0 1 -4.244-10.242l9.63-9.631a6 6 0 0 1 8.487 8.486l-9.63 9.63a5.986 5.986 0 0 1 -4.243 1.757z" fill="#ccd3df"/><path d="m427.435 121.909a6 6 0 0 1 -4.243-10.242l19.059-19.059a6 6 0 1 1 8.484 8.486l-19.058 19.058a5.982 5.982 0 0 1 -4.242 1.757z" fill="#ccd3df"/><path d="m475.553 73.792a6 6 0 0 1 -4.242-10.243l9.543-9.543a6 6 0 0 1 8.484 8.485l-9.538 9.543a5.979 5.979 0 0 1 -4.247 1.758z" fill="#ccd3df"/><circle cx="159.686" cy="310.564" fill="#dcbe3f" r="8.564"/><circle cx="93.686" cy="392.564" fill="#dcbe3f" r="8.564"/><circle cx="152.936" cy="436.564" fill="#dcbe3f" r="11.564"/></svg>