<?xml version="1.0" encoding="iso-8859-1"?>
<!-- Generator: Adobe Illustrator 19.0.0, SVG Export Plug-In . SVG Version: 6.00 Build 0)  -->
<svg version="1.1" id="Capa_1" xmlns="http://www.w3.org/2000/svg" xmlns:xlink="http://www.w3.org/1999/xlink" x="0px" y="0px"
	 viewBox="0 0 496 496" style="enable-background:new 0 0 496 496;" xml:space="preserve">
<polygon style="fill:#FFA64D;" points="400,224 384,184 248,236.888 112,184 96,224 188.568,260 96,296 112,336 248,283.112 
	247.912,283.08 384,336 400,296 307.432,260 "/>
<g>
	<path style="fill:#333333;" d="M424.504,411.608c-11.16-35.688-42.24-62.424-79.192-68.112L304,337.136v-8.224
		c5-2.896,9.768-6.208,14.304-9.872l70.176,27.288l21.944-54.856l-56.848-22.104c2.376-6.72,4.064-13.648,5.12-20.72l51.728-20.112
		L392,182.456v-59.864c0-32.392-19.832-61.176-49.752-72.84C330.584,19.832,301.8,0,269.408,0H248c-79.4,0-144,64.6-144,144v38.456
		L85.568,228.52l51.736,20.12c1.056,7.064,2.736,14,5.12,20.72l-56.848,22.104l21.944,54.856l70.184-27.288
		c4.536,3.672,9.304,6.992,14.304,9.88v8.216l-41.312,6.352c-36.952,5.688-68.04,32.424-79.192,68.112L45.12,496h405.76
		L424.504,411.608z M409.24,416.376L429.12,480h-62.056l-7.128-56.992l-15.872,1.984L350.936,480H256v-10.584l88.184-35.28
		l-33.864-25.4l35.64-21.384l-11.752-29.384l8.664,1.336C373.84,364.072,399.888,386.472,409.24,416.376z M180.16,355.144
		l14.768-2.272l37.864,94.656l-48.264-17.92l29.792-22.344l-44.36-26.616L180.16,355.144z M208,336.608
		c12.656,4.84,26.192,7.392,40,7.392c13.808,0,27.344-2.544,40-7.376v1.776c-8.808,13.296-23.864,21.6-40,21.6
		s-31.192-8.304-40-21.6V336.608z M326.04,380.648l-44.36,26.616l30.136,22.6l-49.448,19.776l38.704-96.768l14.768,2.272
		L326.04,380.648z M248,442.456l-29.584-73.96C227.432,373.24,237.512,376,248,376s20.568-2.76,29.584-7.504L248,442.456z
		 M338.688,263.568L329.504,260l11.592-4.504C340.408,258.216,339.608,260.912,338.688,263.568z M248,16h21.408
		c26.816,0,50.52,17.088,59.008,42.528l1.256,3.792l3.8,1.264C358.912,72.064,376,95.776,376,122.592v55.928l-16,6.224v-28.976
		c0-25.12-13.952-47.696-36.424-58.936l-4.16-2.072l-3.856,2.576c-14.384,9.6-31.112,14.664-48.4,14.664H184
		c-26.472,0-48,21.528-48,48v24.752l-16-6.224V144C120,73.424,177.424,16,248,16z M152,190.968V160c0-17.648,14.352-32,32-32h83.16
		c18.808,0,37.072-5.072,53.12-14.704c14.736,9.04,23.72,24.944,23.72,42.48v35.192l-95.992,37.336L152,190.968z M116.488,194.328
		l159.2,61.912l5.8-14.912l-11.408-4.432l109.44-42.56l10.056,25.144l-82.144,31.944l-11.512-4.48l-5.8,14.912l99.456,38.672
		l-10.056,25.144l-273.088-106.2L116.488,194.328z M154.912,255.496L166.496,260l-9.176,3.568
		C156.392,260.912,155.6,258.216,154.912,255.496z M106.432,300.528l82.144-31.944l37.36,14.528l-109.448,42.56L106.432,300.528z
		 M248,291.696l52.648,20.472C285.096,322.4,266.864,328,248,328c-18.856,0-37.088-5.608-52.64-15.832L248,291.696z M86.76,416.376
		c9.352-29.904,35.4-52.312,66.368-57.072l8.664-1.336l-11.752,29.384l35.64,21.384l-34.208,25.656L240,467.28V480h-94.936
		l6.872-55.008l-15.872-1.984L128.936,480H66.88L86.76,416.376z"/>
	<path style="fill:#333333;" d="M192,152c-13.232,0-24,10.768-24,24s10.768,24,24,24s24-10.768,24-24S205.232,152,192,152z M192,184
		c-4.416,0-8-3.592-8-8s3.584-8,8-8s8,3.592,8,8S196.416,184,192,184z"/>
	<path style="fill:#333333;" d="M304,152c-13.232,0-24,10.768-24,24s10.768,24,24,24s24-10.768,24-24S317.232,152,304,152z M304,184
		c-4.416,0-8-3.592-8-8s3.584-8,8-8s8,3.592,8,8S308.416,184,304,184z"/>
</g>
<g>
</g>
<g>
</g>
<g>
</g>
<g>
</g>
<g>
</g>
<g>
</g>
<g>
</g>
<g>
</g>
<g>
</g>
<g>
</g>
<g>
</g>
<g>
</g>
<g>
</g>
<g>
</g>
<g>
</g>
</svg>
