<svg height="512" viewBox="0 0 512 512" width="512" xmlns="http://www.w3.org/2000/svg"><g><g fill="#57a4ff"><path d="m248 48a31.715 31.715 0 0 1 -.2 3.53h-63.6a32 32 0 1 1 63.8-3.53z"/><path d="m333.68 172.23-5.55-14.29-33.37-85.94h-46.76a16 16 0 0 0 -16 16v136a16 16 0 0 0 16 16h16v56l56-56h40zm-53.68 3.77a16 16 0 1 1 16-16 16 16 0 0 1 -16 16zm-64.07-128a143.345 143.345 0 0 0 -31.57 3.53h63.44a144.252 144.252 0 0 0 -31.87-3.53z"/><path d="m264 448a48 48 0 0 1 -96 0z"/><path d="m440 72h-192a16 16 0 0 0 -16 16v136a16 16 0 0 0 16 16h16v56l56-56h120a16 16 0 0 0 16-16v-136a16 16 0 0 0 -16-16zm-160 104a16 16 0 1 1 16-16 16 16 0 0 1 -16 16zm64 0a15.948 15.948 0 0 1 -10.32-3.77l-5.55-14.29a16 16 0 1 1 15.87 18.06zm64 0a16 16 0 1 1 16-16 16 16 0 0 1 -16 16z"/><path d="m333.68 172.23a15.982 15.982 0 0 1 -5.68-12.23 15.609 15.609 0 0 1 .13-2.06z"/></g><g fill="#004fac"><path d="m248 416h-168a8 8 0 0 0 0 16h168a8 8 0 0 0 0-16z"/><path d="m288 416h-16a8 8 0 0 0 0 16h16a8 8 0 0 0 0-16z"/><path d="m440 64h-142.04a151.122 151.122 0 0 0 -42.06-18.68 39.987 39.987 0 0 0 -79.8.06c-64.52 17.73-112.1 77.37-112.1 148v183.74a16.007 16.007 0 0 1 -2.43 8.48l-13.4 21.44a31.991 31.991 0 0 0 27.13 48.96h85.28a55.994 55.994 0 0 0 110.84 0h85.28a31.991 31.991 0 0 0 27.13-48.96l-13.4-21.44a16.007 16.007 0 0 1 -2.43-8.48v-129.12h72a24.032 24.032 0 0 0 24-24v-136a24.032 24.032 0 0 0 -24-24zm-224-40a24.044 24.044 0 0 1 23.18 17.78 153.017 153.017 0 0 0 -23.2-1.78h-.05a150.561 150.561 0 0 0 -23.11 1.78 24.044 24.044 0 0 1 23.18-17.78zm0 464a40.069 40.069 0 0 1 -39.2-32h78.4a40.069 40.069 0 0 1 -39.2 32zm154.27-72.48a16 16 0 0 1 -13.57 24.48h-281.4a16 16 0 0 1 -13.57-24.48l13.4-21.44a31.883 31.883 0 0 0 4.87-16.96v-183.74c0-75.71 60.98-137.34 135.93-137.38h.05a136.022 136.022 0 0 1 46.01 8h-13.99a24.032 24.032 0 0 0 -24 24v136a24.032 24.032 0 0 0 24 24h8v48a8 8 0 0 0 13.66 5.66l53.65-53.66h28.69v129.12a31.883 31.883 0 0 0 4.87 16.96zm77.73-191.52a8.011 8.011 0 0 1 -8 8h-120a8.008 8.008 0 0 0 -5.66 2.34l-42.34 42.35v-36.69a8 8 0 0 0 -8-8h-16a8.011 8.011 0 0 1 -8-8v-136a8.011 8.011 0 0 1 8-8h192a8.011 8.011 0 0 1 8 8z"/><path d="m344 136a24 24 0 1 0 24 24 24.027 24.027 0 0 0 -24-24zm0 32a8 8 0 1 1 8-8 8.009 8.009 0 0 1 -8 8z"/><path d="m280 136a24 24 0 1 0 24 24 24.027 24.027 0 0 0 -24-24zm0 32a8 8 0 1 1 8-8 8.009 8.009 0 0 1 -8 8z"/><path d="m408 136a24 24 0 1 0 24 24 24.027 24.027 0 0 0 -24-24zm0 32a8 8 0 1 1 8-8 8.009 8.009 0 0 1 -8 8z"/></g></g></svg>