<svg id="Capa_1" enable-background="new 0 0 512 512" height="512" viewBox="0 0 512 512" width="512" xmlns="http://www.w3.org/2000/svg"><g><path d="m406.972 254.307c10.906 0 21.424 1.663 31.314 4.748v-196.025c0-8.467-6.927-15.394-15.394-15.394h-407.498c-8.467 0-15.394 6.927-15.394 15.394v277.079c0 8.467 6.927 15.394 15.394 15.394h286.626c2.018-56.229 48.23-101.196 104.952-101.196z" fill="#ffc20c"/><path d="m63.236 340.109v-277.079c0-8.467 6.927-15.394 15.394-15.394h-63.236c-8.467 0-15.394 6.928-15.394 15.394v277.079c0 8.467 6.927 15.394 15.394 15.394h63.236c-8.467 0-15.394-6.927-15.394-15.394z" fill="#ffa90f"/><path d="m347.958 272.446-80.834-73.522-22.006 19.666c-14.793 13.221-37.158 13.221-51.952 0l-22.006-19.666-166.882 151.788c2.808 2.942 6.753 4.791 11.116 4.791h286.626c1.24-34.54 19.152-64.829 45.938-83.057z" fill="#ffd301"/><path d="m78.63 355.503c-8.467 0-15.394-6.927-15.394-15.394v-43.022l-58.958 53.625c2.801 2.934 6.718 4.764 11.039 4.787.026 0 .052.004.078.004z" fill="#ffc20c"/><path d="m422.891 47.636h-407.497c-4.363 0-8.308 1.849-11.117 4.791l188.889 168.809c14.793 13.221 37.158 13.221 51.951 0l188.89-168.809c-2.807-2.942-6.752-4.791-11.116-4.791z" fill="#fee55a"/><path d="m63.236 63.03c0-8.467 6.927-15.394 15.394-15.394h-63.236c-4.363 0-8.309 1.849-11.116 4.791l58.958 52.691z" fill="#ffd301"/><circle cx="403.139" cy="355.503" fill="#ff656f" r="108.861"/><path d="m338.919 355.503c0-52.472 37.125-96.268 86.54-106.566-7.205-1.502-14.67-2.295-22.321-2.295-60.122 0-108.861 48.738-108.861 108.861s48.739 108.861 108.861 108.861c7.651 0 15.116-.793 22.321-2.294-49.414-10.299-86.54-54.095-86.54-106.567z" fill="#ff4756"/><path d="m454.342 362.177c-3.681 0-6.675-2.994-6.675-6.674 0-24.553-19.975-44.528-44.528-44.528s-44.528 19.975-44.528 44.528 19.975 44.528 44.528 44.528c17.696 0 33.011-10.378 40.187-25.366 14.83 8.56 33.143-2.351 33.143-19.162 0-40.434-32.896-73.33-73.33-73.33s-73.33 32.896-73.33 73.33 32.896 73.33 73.33 73.33c24.329 0 47.023-12.032 60.707-32.185 2.397-3.53 1.478-8.335-2.052-10.732-3.531-2.396-8.335-1.478-10.732 2.052-10.804 15.912-28.718 25.412-47.922 25.412-31.913 0-57.877-25.964-57.877-57.877s25.964-57.877 57.877-57.877 57.877 25.964 57.877 57.877c-.001 3.681-2.995 6.674-6.675 6.674zm-51.203 22.401c-16.032 0-29.075-13.043-29.075-29.075s13.043-29.075 29.075-29.075 29.075 13.043 29.075 29.075-13.043 29.075-29.075 29.075z" fill="#dfebfa"/></g></svg>