<?xml version="1.0" encoding="iso-8859-1"?>
<!-- Generator: Adobe Illustrator 19.0.0, SVG Export Plug-In . SVG Version: 6.00 Build 0)  -->
<svg version="1.1" id="Capa_1" xmlns="http://www.w3.org/2000/svg" xmlns:xlink="http://www.w3.org/1999/xlink" x="0px" y="0px"
	 viewBox="0 0 512 512" style="enable-background:new 0 0 512 512;" xml:space="preserve">
<path style="fill:#303C42;" d="M437.107,74.891c-99.853-99.854-262.26-99.854-362.113,0C26.63,123.265,0,187.583,0,255.987
	s26.63,132.722,74.994,181.096C123.712,485.812,188.079,512,254.988,512c20.712,0,41.675-2.511,62.471-7.639
	c3.522-0.865,6.355-3.46,7.543-6.888c1.188-3.418,0.542-7.211-1.688-10.067c-9.106-11.578-13.919-25.188-13.919-39.339
	c0-13.235,4.147-26.042,11.982-37.047c1.896-2.657,2.459-6.044,1.542-9.181c-1.938-6.69-2.855-12.349-2.855-17.799
	c0-35.306,28.714-64.027,64.013-64.027c5.418,0,11.086,0.917,17.816,2.876c3.126,0.927,6.522,0.333,9.189-1.563
	c22.692-16.215,53.927-15.684,76.348,1.928c2.834,2.251,6.605,2.907,10.065,1.699c3.417-1.178,6.022-4.023,6.876-7.534
	C526.041,229.372,500.911,138.709,437.107,74.891z"/>
<path style="fill:#7D665F;" d="M486.708,297.781c-26.146-13.698-58.667-12.313-83.833,3.542c-6.729-1.646-12.813-2.417-18.875-2.417
	c-47.063,0-85.333,38.281-85.333,85.333c0,6.083,0.771,12.177,2.396,18.875C292.5,416.75,288,432.25,288,448.24
	c0,13.563,3.271,26.708,9.542,38.719c-75.979,13.75-152.563-9.875-207.479-64.781c-91.5-91.5-91.5-240.375,0-331.875
	C135.813,44.552,195.896,21.688,256,21.688c60.083,0,120.188,22.875,165.938,68.615C476.833,145.208,500.5,221.813,486.708,297.781z
	"/>
<path style="opacity:0.8;fill:#FAB13B;enable-background:new    ;" d="M486.708,297.781c-26.146-13.698-58.667-12.313-83.833,3.542
	c-6.729-1.646-12.813-2.417-18.875-2.417c-47.063,0-85.333,38.281-85.333,85.333c0,6.083,0.771,12.177,2.396,18.875
	C292.5,416.75,288,432.25,288,448.24c0,13.563,3.271,26.708,9.542,38.719c-75.979,13.75-152.563-9.875-207.479-64.781
	c-91.5-91.5-91.5-240.375,0-331.875C135.813,44.552,195.896,21.688,256,21.688c60.083,0,120.188,22.875,165.938,68.615
	C476.833,145.208,500.5,221.813,486.708,297.781z"/>
<path style="fill:#6D4C41;" d="M85.333,170.906C73.563,170.906,64,180.479,64,192.24c0,11.76,9.563,21.333,21.333,21.333
	s21.333-9.573,21.333-21.333C106.667,180.479,97.104,170.906,85.333,170.906z"/>
<circle style="fill:#303C42;" cx="202.795" cy="138.795" r="31.872"/>
<circle style="fill:#8D6E63;" cx="202.795" cy="138.795" r="10.539"/>
<circle style="fill:#303C42;" cx="341.333" cy="149.333" r="42.667"/>
<g>
	<circle style="fill:#6D4C41;" cx="341.333" cy="149.333" r="21.333"/>
	<path style="fill:#6D4C41;" d="M405.333,213.573c0,11.76,9.563,21.333,21.333,21.333S448,225.333,448,213.573
		s-9.563-21.333-21.333-21.333S405.333,201.813,405.333,213.573z"/>
</g>
<circle style="fill:#303C42;" cx="181.333" cy="266.667" r="53.333"/>
<circle style="fill:#8D6E63;" cx="181.333" cy="266.667" r="32"/>
<path style="fill:#5D4037;" d="M213.333,362.667C201.563,362.667,192,372.24,192,384c0,11.76,9.563,21.333,21.333,21.333
	s21.333-9.573,21.333-21.333C234.667,372.24,225.104,362.667,213.333,362.667z"/>
<linearGradient id="SVGID_1_" gradientUnits="userSpaceOnUse" x1="-45.5862" y1="639.5573" x2="-24.0294" y2="629.5053" gradientTransform="matrix(21.3333 0 0 -21.3333 996.3333 13791.667)">
	<stop  offset="0" style="stop-color:#FFFFFF;stop-opacity:0.2"/>
	<stop  offset="1" style="stop-color:#FFFFFF;stop-opacity:0"/>
</linearGradient>
<path style="fill:url(#SVGID_1_);" d="M437.107,74.891c-99.853-99.854-262.26-99.854-362.113,0C26.63,123.265,0,187.583,0,255.987
	s26.63,132.722,74.994,181.096C123.712,485.812,188.079,512,254.988,512c20.712,0,41.675-2.511,62.471-7.639
	c3.522-0.865,6.355-3.46,7.543-6.888c1.188-3.418,0.542-7.211-1.688-10.067c-9.106-11.578-13.919-25.188-13.919-39.339
	c0-13.235,4.147-26.042,11.982-37.047c1.896-2.657,2.459-6.044,1.542-9.181c-1.938-6.69-2.855-12.349-2.855-17.799
	c0-35.306,28.714-64.027,64.013-64.027c5.418,0,11.086,0.917,17.816,2.876c3.126,0.927,6.522,0.333,9.189-1.563
	c22.692-16.215,53.927-15.684,76.348,1.928c2.834,2.251,6.605,2.907,10.065,1.699c3.417-1.178,6.022-4.023,6.876-7.534
	C526.041,229.372,500.911,138.709,437.107,74.891z"/>
<g>
</g>
<g>
</g>
<g>
</g>
<g>
</g>
<g>
</g>
<g>
</g>
<g>
</g>
<g>
</g>
<g>
</g>
<g>
</g>
<g>
</g>
<g>
</g>
<g>
</g>
<g>
</g>
<g>
</g>
</svg>
