<svg height="512" viewBox="0 0 36 58" width="512" xmlns="http://www.w3.org/2000/svg"><g id="Page-1" fill="none" fill-rule="evenodd"><g id="011---Cafe-App" fill-rule="nonzero"><path id="Shape" d="m30 0h1c1.3260824 0 2.597852.5267842 3.5355339 1.46446609.9376819.9376819 1.4644661 2.20945146 1.4644661 3.53553391v48c0 2.7614237-2.2385763 5-5 5h-26c-2.76142375 0-5-2.2385763-5-5v-48c0-2.76142375 2.23857625-5 5-5z" fill="#df4d60"/><path id="Shape" d="m36 5v1s-34.07 0-35.92 47.88c-.05186304-.2904951-.07862846-.5849148-.08-.88v-48c0-2.76142375 2.23857625-5 5-5h1l2.17 4.34c.507189 1.01593301 1.54450093 1.65844711 2.68 1.66h14.3c1.1354991-.00155289 2.172811-.64406699 2.68-1.66l2.17-4.34h1c1.3260824 0 2.597852.5267842 3.5355339 1.46446609.9376819.9376819 1.4644661 2.20945146 1.4644661 3.53553391z" fill="#ff5364"/><path id="Shape" d="m30 0-2.17 4.34c-.507189 1.01593301-1.5445009 1.65844711-2.68 1.66h-14.3c-1.13549907-.00155289-2.172811-.64406699-2.68-1.66l-2.17-4.34z" fill="#464f5d"/><path id="Shape" d="m29 53h-22c-.55228475 0-1-.4477153-1-1s.44771525-1 1-1h22c.5522847 0 1 .4477153 1 1s-.4477153 1-1 1z" fill="#464f5d"/><path id="Shape" d="m26 39c-.5522847 0-1-.4477153-1-1s.4477153-1 1-1c3.318 0 4.011-1.2 4.712-3.745.0812701-.295718.0186665-.6124403-.169-.855-.189471-.2510659-.4854647-.3990627-.8-.4h-3.743c-.5522847 0-1-.4477153-1-1s.4477153-1 1-1h3.738c.9354788-.0015807 1.8181507.4333133 2.3869104 1.176035s.7584986 1.7082482.5130896 2.610965c-.724 2.637-1.838 5.213-6.638 5.213z" fill="#bdc3c7"/><g fill="#603e26"><path id="Shape" d="m9 25c-.55228475 0-1-.4477153-1-1 .01826515-1.0160719.5074633-1.9660178 1.324-2.571.481-.441.676-.638.676-1.1s-.2-.657-.676-1.1c-.83090323-.5922319-1.32421508-1.5496379-1.32421508-2.57s.49331185-1.9777681 1.32421508-2.57c.48-.44.675-.636.675-1.094 0-.5522847.4477153-1 1-1s1 .4477153 1 1c-.0188138 1.0156161-.508398 1.9648551-1.325 2.569-.48.44-.675.637-.675 1.094s.2.656.676 1.1c.8309154.5926703 1.3241726 1.5503734 1.3241726 2.571s-.4932572 1.9783297-1.3241726 2.571c-.475.443-.675.641-.675 1.1 0 .5522847-.44771525 1-1 1z"/><path id="Shape" d="m15 25c-.5522847 0-1-.4477153-1-1 .0182651-1.0160719.5074633-1.9660178 1.324-2.571.481-.441.676-.638.676-1.1s-.2-.657-.676-1.1c-.8309032-.5922319-1.3242151-1.5496379-1.3242151-2.57s.4933119-1.9777681 1.3242151-2.57c.48-.44.675-.636.675-1.094 0-.5522847.4477153-1 1-1s1 .4477153 1 1c-.0188138 1.0156161-.508398 1.9648551-1.325 2.569-.48.44-.675.637-.675 1.094s.2.656.676 1.1c.8309154.5926703 1.3241726 1.5503734 1.3241726 2.571s-.4932572 1.9783297-1.3241726 2.571c-.475.443-.675.641-.675 1.1 0 .5522847-.4477153 1-1 1z"/><path id="Shape" d="m21 25c-.5522847 0-1-.4477153-1-1 .0182651-1.0160719.5074633-1.9660178 1.324-2.571.481-.441.676-.638.676-1.1s-.2-.657-.676-1.1c-.8309032-.5922319-1.3242151-1.5496379-1.3242151-2.57s.4933119-1.9777681 1.3242151-2.57c.48-.44.675-.636.675-1.094 0-.5522847.4477153-1 1-1s1 .4477153 1 1c-.0188138 1.0156161-.508398 1.9648551-1.325 2.569-.48.44-.675.637-.675 1.094s.2.656.676 1.1c.8309154.5926703 1.3241726 1.5503734 1.3241726 2.571s-.4932572 1.9783297-1.3241726 2.571c-.475.443-.675.641-.675 1.1 0 .5522847-.4477153 1-1 1z"/></g><path id="Shape" d="m26 30v8c0 3.3137085-2.6862915 6-6 6h-8c-3.3137085 0-6-2.6862915-6-6v-8c0-.5522847.44771525-1 1-1h18c.5522847 0 1 .4477153 1 1z" fill="#ecf0f1"/><path id="Shape" d="m11 34c0 .5522847-.4477153 1-1 1h-4v-2h4c.5522847 0 1 .4477153 1 1z" fill="#bdc3c7"/><path id="Shape" d="m26 33v2h-12c-.5522847 0-1-.4477153-1-1s.4477153-1 1-1z" fill="#bdc3c7"/></g></g></svg>