<svg height="512" viewBox="0 0 58 58" width="512" xmlns="http://www.w3.org/2000/svg"><g id="Page-1" fill="none" fill-rule="evenodd"><g id="009---message-alert" fill-rule="nonzero"><path id="Shape" d="m43.62 9.49h-.01c-2.5680286-5.77145649-8.2930006-9.49023228-14.61-9.49023228s-12.0419714 3.71877579-14.61 9.49023228h-.01v.01l-14.38 10.5v34c0 2.209139 1.790861 4 4 4h50c2.209139 0 4-1.790861 4-4v-34z" fill="#f3d55b"/><path id="Shape" d="m57.19 56.41c-.7535327 1.0028755-1.9355811 1.592047-3.19 1.59h-50c-1.25441889.002047-2.43646727-.5871245-3.19-1.59l24.51-17.91.84.61c1.7063673 1.1899396 3.9736327 1.1899396 5.68 0l.84-.61z" fill="#f0c419"/><path id="Shape" d="m4 39c-.55228475 0-1-.4477153-1-1v-10c0-.5522847.44771525-1 1-1s1 .4477153 1 1v10c0 .5522847-.44771525 1-1 1z" fill="#f5efca"/><path id="Shape" d="m4 46c-.55228475 0-1-.4477153-1-1v-3c0-.5522847.44771525-1 1-1s1 .4477153 1 1v3c0 .5522847-.44771525 1-1 1z" fill="#f5efca"/><path id="Shape" d="m58 20-25.32 18.5-.84.61c-1.7063673 1.1899396-3.9736327 1.1899396-5.68 0l-.84-.61-25.32-18.5h13.5c1.8273824 7.0656455 8.201872 12.0012471 15.5 12.0012471s13.6726176-4.9356016 15.5-12.0012471z" fill="#f29c1f"/><path id="Shape" d="m45 16c.0001756 6.5213287-3.9575231 12.3902039-10.0035402 14.8342593-6.046017 2.4440554-12.9703568.9741596-17.5020678-3.7153312-4.5317111-4.6894908-5.7638574-11.660064-3.114392-17.6189281v-.01h.01c2.5680286-5.77145649 8.2930006-9.49023228 14.61-9.49023228s12.0419714 3.71877579 14.61 9.49023228h.01c.9143013 2.0482833 1.3846123 4.266924 1.38 6.51z" fill="#2980ba"/><path id="Shape" d="m35 13 .0000272 6h-12.0000272v-6c.0012998-2.7029662 1.8118011-5.07054488 4.42-5.78 1.0329141-.29331416 2.1270859-.29331416 3.16 0 1.0081756.26683658 1.9265979.79855476 2.66 1.54 1.1308021 1.12061008 1.7648139 2.6480021 1.76 4.24z" fill="#f3d55b"/><path id="Shape" d="m37 21v1c0 .5522847-.4477153 1-1 1h-14c-.5522847 0-1-.4477153-1-1v-1c.0032948-1.1032019.8967981-1.9967052 2-2h12c1.1032019.0032948 1.9967052.8967981 2 2z" fill="#f0c419"/><path id="Shape" d="m32 24c0 1.6568542-1.3431458 3-3 3s-3-1.3431458-3-3c-.0021256-.3415766.0588994-.6806042.18-1h5.64c.1211006.3193958.1821256.6584234.18 1z" fill="#f29c1f"/><path id="Shape" d="m31 6c.0032961.44267535-.144905.87316424-.42 1.22-1.0329141-.29331416-2.1270859-.29331416-3.16 0-.275095-.34683576-.4232961-.77732465-.42-1.22 0-1.10456947.8954305-1.99999992 2-1.99999992s2 .89543045 2 1.99999992z" fill="#f0c419"/></g></g></svg>