<?xml version="1.0" encoding="iso-8859-1"?>
<!-- Generator: Adobe Illustrator 19.0.0, SVG Export Plug-In . SVG Version: 6.00 Build 0)  -->
<svg version="1.1" id="Capa_1" xmlns="http://www.w3.org/2000/svg" xmlns:xlink="http://www.w3.org/1999/xlink" x="0px" y="0px"
	 viewBox="0 0 512 512" style="enable-background:new 0 0 512 512;" xml:space="preserve">
<path style="fill:#69788D;" d="M260,0H20c-4.418,0-8,3.582-8,8v440c0,4.418,3.582,8,8,8h240c4.418,0,8-3.582,8-8V8
	C268,3.582,264.418,0,260,0z"/>
<path style="fill:#56677E;" d="M36,440c-4.418,0-8-3.582-8-8V0h-8c-4.418,0-8,3.582-8,8v440c0,4.418,3.582,8,8,8h240
	c4.418,0,8-3.582,8-8v-8H36z"/>
<rect x="12" y="112" style="fill:#435670;" width="256" height="16"/>
<path style="fill:#F7C14D;" d="M140,176c-22.056,0-40,17.944-40,40s17.944,40,40,40s40-17.944,40-40S162.056,176,140,176z"/>
<path style="fill:#FFDB66;" d="M140,192c-13.234,0-24,10.766-24,24s10.766,24,24,24s24-10.766,24-24S153.234,192,140,192z"/>
<path style="fill:#F7C14D;" d="M140,176c-2.739,0-5.414,0.278-8,0.805V208c0,4.418,3.582,8,8,8s8-3.582,8-8v-31.195
	C145.414,176.278,142.739,176,140,176z"/>
<g>
	<path style="fill:#69788D;" d="M204,288H76c-4.418,0-8-3.582-8-8s3.582-8,8-8h128c4.418,0,8,3.582,8,8S208.418,288,204,288z"/>
	<path style="fill:#69788D;" d="M204,328H76c-4.418,0-8-3.582-8-8s3.582-8,8-8h128c4.418,0,8,3.582,8,8S208.418,328,204,328z"/>
	<path style="fill:#69788D;" d="M204,368H76c-4.418,0-8-3.582-8-8s3.582-8,8-8h128c4.418,0,8,3.582,8,8S208.418,368,204,368z"/>
</g>
<path style="fill:#435670;" d="M228,16H52c-4.418,0-8,3.582-8,8v64c0,4.418,3.582,8,8,8h176c4.418,0,8-3.582,8-8V24
	C236,19.582,232.418,16,228,16z"/>
<rect x="60" y="32" style="fill:#56677E;" width="160" height="48"/>
<g>
	<path style="fill:#435670;" d="M204,296H52c-4.418,0-8-3.582-8-8s3.582-8,8-8h152c4.418,0,8,3.582,8,8S208.418,296,204,296z"/>
	<path style="fill:#435670;" d="M204,336H52c-4.418,0-8-3.582-8-8s3.582-8,8-8h152c4.418,0,8,3.582,8,8S208.418,336,204,336z"/>
	<path style="fill:#435670;" d="M140,376H52c-4.418,0-8-3.582-8-8s3.582-8,8-8h88c4.418,0,8,3.582,8,8S144.418,376,140,376z"/>
</g>
<path style="fill:#F7C14D;" d="M428,512H140c-4.418,0-8-3.582-8-8V328c0-4.418,3.582-8,8-8h288c4.418,0,8,3.582,8,8v176
	C436,508.418,432.418,512,428,512z"/>
<path style="fill:#F09B24;" d="M436,328c0-4.418-3.582-8-8-8H140c-4.418,0-8,3.582-8,8v20.726l135.944,122.349
	c9.01,8.111,23.1,8.112,32.11,0.001L436,348.726V328z"/>
<path style="fill:#FFDB66;" d="M132.039,327.235l146.61,131.949c3.042,2.738,7.661,2.738,10.703,0l146.61-131.949
	C435.576,323.176,432.16,320,428,320H140C135.84,320,132.424,323.176,132.039,327.235z"/>
<path style="fill:#59AD57;" d="M324,232c-17.645,0-32,14.355-32,32s14.355,32,32,32s32-14.355,32-32S341.645,232,324,232z"/>
<path style="fill:#7EC97D;" d="M324,248c-8.822,0-16,7.177-16,16s7.178,16,16,16s16-7.177,16-16S332.822,248,324,248z"/>
<g>
	<path style="fill:#B8E3A8;" d="M388,272c-4.418,0-8-3.582-8-8c0-30.878-25.121-56-56-56c-4.418,0-8-3.582-8-8s3.582-8,8-8
		c39.701,0,72,32.299,72,72C396,268.418,392.418,272,388,272z"/>
	<path style="fill:#B8E3A8;" d="M436,272c-4.418,0-8-3.582-8-8c0-57.346-46.654-104-104-104c-4.418,0-8-3.582-8-8s3.582-8,8-8
		c66.168,0,120,53.832,120,120C444,268.418,440.418,272,436,272z"/>
	<path style="fill:#B8E3A8;" d="M492,272c-4.418,0-8-3.582-8-8c0-88.224-71.775-160-160-160c-4.418,0-8-3.582-8-8s3.582-8,8-8
		c97.047,0,176,78.953,176,176C500,268.418,496.418,272,492,272z"/>
</g>
<g>
</g>
<g>
</g>
<g>
</g>
<g>
</g>
<g>
</g>
<g>
</g>
<g>
</g>
<g>
</g>
<g>
</g>
<g>
</g>
<g>
</g>
<g>
</g>
<g>
</g>
<g>
</g>
<g>
</g>
</svg>
