<svg id="Capa_1" enable-background="new 0 0 512 512" height="512" viewBox="0 0 512 512" width="512" xmlns="http://www.w3.org/2000/svg"><g><g><circle cx="256" cy="256" fill="#ffcf11" r="256"/></g><g><circle cx="256" cy="256" fill="#ffe854" r="175"/></g><g><g><path d="m321.264 411.23-65.264-21.201-65.263 21.201s-198.403-.564-160.174 79.504h225.437 225.437c38.23-80.067-160.173-79.504-160.173-79.504z" fill="#0c99e6"/></g><g><path d="m481.437 490.734c-6.154 12.65-51.236 24.381-138.16 18.021s-166.781-24.734-166.781-24.734v-14.299s162.541-16.796 223.67-15.736c61.13 1.06 87.632 23.674 81.271 36.748z" fill="#ffaea1"/></g><g><path d="m404.023 455.32c.023-.392.034-.802.039-1.223-1.289-.043-2.574-.089-3.895-.112-61.129-1.06-223.67 15.736-223.67 15.736v14.299s46.109 10.608 106.388 18.493c6.405-1.394 12.772-2.8 19.059-4.211 25.091-5.63 46.387-10.783 61.586-14.901 8.504-2.304 14.935-4.232 19.662-5.895 5.966-2.098 19.939-7.014 20.831-22.186z" fill="#f4958c"/></g><g><path d="m30.563 490.734c6.782 12.33 34.275 30.035 118.372 16.254s233.571-46.907 233.924-52.914-13.787-17.403-32.161-17.403-21.201 5.344-31.802 5.344-24.028-16.651-35.335-14.354-18.021 25.265-18.021 25.265-107.065-7.067-163.954-3.534-78.797 27.208-71.023 41.342z" fill="#ffcfc2"/></g><g><g><path d="m72.965 490.734c-7.774-14.134 14.134-37.808 71.023-41.342 5.903-.367 12.352-.618 19.159-.776-22.213-.393-44.219-.301-61.561.776-56.889 3.533-78.797 27.208-71.023 41.342 5.844 10.626 27.076 25.241 86.657 20.258-28.106-3.088-40.09-12.685-44.255-20.258z" fill="#ffaea1"/></g></g><g><path d="m20.563 417.591s0-13.074 0-16.431 4.947-3.71 6.36 0 .995 16.799 3.059 20.413v6.088z" fill="#f4958c"/></g><g><path d="m491.437 417.591s0-13.074 0-16.431-4.947-3.71-6.36 0-.995 16.799-3.059 20.413v6.088z" fill="#f4958c"/></g><g><path d="m501.199 408.448c-.795-2.253-4.24-1.325-6.89 1.59-1.852 2.037-8.878 8.472-13.442 12.572-2.229 2.002-5.588 2.05-7.876.116-3.194-2.698-2.724-7.76.923-9.807 5.191-2.913 11.271-6.882 12.445-10.037 2.12-5.698-3.048-6.36-5.83-4.373-2.783 1.988-37.853 11.661-37.853 11.661l-58.197-78.444s-3.533-113.072-17.668-124.733c-14.134-11.661-87.49-24.028-87.49-24.028v-25.441h-23.321-23.321v25.441s-73.356 12.367-87.49 24.028-17.668 124.733-17.668 124.733l-58.196 78.444s-35.07-9.673-37.853-11.661-7.95-1.325-5.83 4.373c1.174 3.156 7.254 7.124 12.445 10.037 3.646 2.046 4.117 7.108.923 9.807-2.289 1.933-5.648 1.886-7.876-.116-4.563-4.1-11.59-10.536-13.442-12.572-2.65-2.915-6.095-3.843-6.89-1.59s10.998 19.213 13.781 23.056 14.973 11.793 22.526 10.336 33.877-15.768 33.877-15.768 75.617-56.889 82.684-77.03 12.721-88.09 12.721-88.09h159.22s5.654 67.949 12.721 88.09 82.684 77.03 82.684 77.03 26.325 14.311 33.878 15.768 19.743-6.493 22.526-10.336c2.781-3.843 14.574-20.804 13.779-23.056z" fill="#ffaea1"/></g><g><path d="m232.679 182.966s35.688 2.827 39.222-25.441h-39.222z" fill="#f4958c"/></g><g><g><path d="m300.661 76.678s2.475-18.462-6.415-28.77c-1.332-1.544-3.862-.493-3.7 1.54l.105 1.307s-5.102-9.954-18.233-13.863c-1.823-.543-3.356 1.463-2.386 3.099l.599 1.01s-7.915-7.915-34.148-8.462c-1.927-.04-2.881 2.327-1.474 3.643l1.503 1.405c-.001 0-9.878 1.742-22.964 9.665-1.615.978-1.212 3.43.628 3.85l1.071.245c-5.065 5.824-7.865 11.89-9.293 15.798-.62 1.698 1.043 3.336 2.731 2.689s-4.019 18.651.85 34.745l46.465 10.495 46.465-10.496s2.816-13.527-1.804-27.9z" fill="#8c4f5c"/></g><g><path d="m236.994 75.747c-13.69-2.936-23.43-8.31-28.308-5.914 0 0-4.019 18.651.85 34.745l28.681 6.479z" fill="#7b3c47"/></g><g><path d="m291.459 113.468s4.567-11.12 12.708-8.538c8.141 2.581-.197 26.679-16.084 28.197z" fill="#ffaea1"/></g><g><path d="m220.541 113.468s-4.567-11.12-12.708-8.538c-8.141 2.581.197 26.679 16.084 28.197z" fill="#f4958c"/></g><g><path d="m292.597 99.436c-.465-1.134-.841-2.758-1.197-4.634l-35.4-10.267-35.4 10.267c-.356 1.876-.732 3.5-1.197 4.634-2.092 5.102-4.72 6.141-5.07 6.26-.026.798-.042 1.6-.042 2.41 0 30.713 18.674 66.734 41.709 66.734s41.709-36.02 41.709-66.734c0-.81-.016-1.612-.042-2.41-.35-.119-2.978-1.159-5.07-6.26z" fill="#ffcfc2"/></g><g><path d="m228.634 108.105c0-5.723.656-11.139 1.862-16.174l-9.897 2.87c-.356 1.876-.732 3.5-1.197 4.634-2.092 5.102-4.72 6.141-5.07 6.26-.026.798-.042 1.6-.042 2.41 0 30.713 18.674 66.734 41.709 66.734 2.446 0 4.841-.41 7.171-1.172-19.616-6.42-34.536-38.109-34.536-65.562z" fill="#ffaea1"/></g><g><path d="m256 78.902c-14.579 0-20.414-4.622-25.459-4.634h-.006c-.933-.002-1.84.155-2.769.527-4.722 1.894-5.803 12.827-7.167 20.006h70.801c-1.364-7.179-2.444-18.112-7.167-20.006-.93-.373-1.836-.529-2.769-.527h-.006c-5.044.012-10.878 4.634-25.458 4.634z" fill="#fff"/></g><g><path d="m248.05 86.852c0-4.391 3.559-7.95 7.95-7.95-14.579 0-20.414-4.622-25.459-4.634h-.006c-.933-.002-1.84.155-2.769.527-4.722 1.894-5.803 12.827-7.167 20.006h35.401c-4.391.001-7.95-3.559-7.95-7.949z" fill="#ebf0f3"/></g></g><g><path d="m335.61 260.95-12.338 42.174c-1.334 4.56-2.012 9.288-2.012 14.039v94.066h-130.52v-94.066c0-4.752-.677-9.479-2.012-14.039l-12.338-42.174c6.46 0 11.69-5.23 11.69-11.69v-57.22c10.07-2.4 20.12-4.48 28.12-6.04v27.2c0 21.981 17.819 39.8 39.8 39.8 21.981 0 39.8-17.819 39.8-39.8v-27.2c8 1.56 18.05 3.64 28.12 6.04v57.22c0 6.46 5.23 11.69 11.69 11.69z" fill="#3e4a68"/></g><g><path d="m254.568 307c-37.432 0-48.754-5.521-55.547-14.878l-22.631-31.172 12.339 42.174c1.334 4.56 2.011 9.288 2.011 14.039v94.067h21.26v-90.701c0-2.768-.371-5.503-1.059-8.15 31.619-.8 43.627-5.379 43.627-5.379z" fill="#303a59"/></g></g></g></svg>