<?xml version="1.0" encoding="iso-8859-1"?>
<!-- Generator: Adobe Illustrator 19.0.0, SVG Export Plug-In . SVG Version: 6.00 Build 0)  -->
<svg version="1.1" id="Capa_1" xmlns="http://www.w3.org/2000/svg" xmlns:xlink="http://www.w3.org/1999/xlink" x="0px" y="0px"
	 viewBox="0 0 512 512" style="enable-background:new 0 0 512 512;" xml:space="preserve">
<circle style="fill:#5C9CEE;" cx="291.951" cy="271.423" r="171.025"/>
<path style="fill:#3580D3;" d="M345.493,108.968c51.904,29.362,86.942,85.059,86.942,148.948c0,94.452-76.568,171.02-171.02,171.02
	c-18.703,0-36.7-3.013-53.545-8.562c24.829,14.046,53.515,22.072,84.078,22.072c94.452,0,171.02-76.568,171.02-171.02
	C462.967,195.676,413.716,131.441,345.493,108.968z"/>
<g>
	<path style="fill:#1B3D66;" d="M332.636,70.074c-1.971,0-3.911-0.8-5.302-2.201c-0.351-0.34-0.66-0.73-0.93-1.14
		c-0.271-0.41-0.511-0.84-0.69-1.29c-0.19-0.46-0.33-0.93-0.43-1.411c-0.101-0.48-0.15-0.97-0.15-1.461
		c0-1.981,0.8-3.911,2.201-5.312c1.391-1.391,3.331-2.191,5.302-2.191c1.981,0,3.911,0.8,5.302,2.191
		c0.351,0.35,0.67,0.73,0.94,1.14s0.5,0.85,0.689,1.3c0.19,0.45,0.33,0.92,0.42,1.401c0.101,0.49,0.15,0.98,0.15,1.471
		c0,0.49-0.05,0.98-0.15,1.461c-0.09,0.48-0.229,0.95-0.42,1.411c-0.189,0.45-0.42,0.88-0.689,1.29c-0.271,0.41-0.59,0.8-0.94,1.14
		C336.548,69.273,334.617,70.074,332.636,70.074z"/>
	<path style="fill:#1B3D66;" d="M117.845,148.904c-3.301-2.501-3.951-7.213-1.441-10.514l0,0c2.501-3.301,7.213-3.941,10.515-1.441
		l0,0c3.301,2.511,3.94,7.213,1.44,10.514l0,0c0,0,0,0-0.01,0l0,0c-1.471,1.951-3.711,2.971-5.972,2.971l0,0
		C120.796,150.434,119.194,149.934,117.845,148.904z M136.562,125.925c-2.931-2.941-2.911-7.683,0.021-10.614l0,0
		c2.94-2.921,7.692-2.911,10.613,0.03l0,0c2.921,2.931,2.911,7.683-0.03,10.604l0,0c-1.461,1.461-3.37,2.191-5.292,2.191l0,0
		C139.952,128.136,138.022,127.395,136.562,125.925z M158.27,105.747c-2.491-3.311-1.821-8.023,1.491-10.504l0,0
		c3.311-2.491,8.013-1.821,10.504,1.491l0,0c2.49,3.311,1.82,8.013-1.491,10.504l0,0l0,0l0,0c-1.352,1.01-2.931,1.501-4.502,1.501
		l0,0C162,108.738,159.75,107.708,158.27,105.747z M182.569,88.761c-2.011-3.621-0.7-8.193,2.931-10.194l0,0
		c3.621-2.011,8.193-0.69,10.194,2.931l0,0c2.011,3.631,0.689,8.193-2.932,10.204l0,0c0,0,0,0,0-0.01l0,0
		c-1.149,0.64-2.4,0.94-3.621,0.94l0,0C186.501,92.632,183.929,91.242,182.569,88.761z M208.989,75.316
		c-1.481-3.861,0.449-8.203,4.321-9.684l0,0c3.871-1.481,8.213,0.46,9.694,4.332l0,0c1.48,3.871-0.46,8.203-4.332,9.684l0,0
		c-0.88,0.34-1.781,0.5-2.681,0.5l0,0C212.98,80.148,210.13,78.307,208.989,75.316z M237.029,65.702
		c-0.93-4.042,1.602-8.063,5.643-8.983l0,0c4.031-0.93,8.053,1.601,8.982,5.632l0,0c0.92,4.042-1.601,8.073-5.642,8.993l0,0l0,0l0,0
		c-0.561,0.13-1.13,0.19-1.681,0.19l0,0C240.91,71.534,237.819,69.173,237.029,65.702z M266.141,60.1
		c-0.351-4.132,2.701-7.763,6.833-8.113l0,0c4.132-0.36,7.763,2.701,8.112,6.833l0,0c0.36,4.132-2.7,7.763-6.833,8.113l0,0
		c-0.22,0.02-0.43,0.03-0.649,0.03l0,0C269.751,66.963,266.471,64.011,266.141,60.1z M302.844,66.472
		c-4.142-0.22-7.322-3.751-7.103-7.883l0,0c0.21-4.142,3.741-7.323,7.883-7.103l0,0c4.142,0.21,7.313,3.741,7.103,7.883l0,0
		c-0.21,4.002-3.521,7.113-7.492,7.113l0,0C303.105,66.482,302.974,66.472,302.844,66.472z"/>
	<path style="fill:#1B3D66;" d="M106.14,175.244c-0.49,0-0.979-0.05-1.471-0.15c-0.47-0.1-0.95-0.24-1.401-0.43
		c-0.449-0.19-0.89-0.42-1.29-0.69c-0.42-0.27-0.8-0.59-1.14-0.93c-1.401-1.401-2.201-3.331-2.201-5.312
		c0-0.48,0.05-0.98,0.15-1.461c0.09-0.48,0.24-0.95,0.42-1.401c0.189-0.46,0.42-0.89,0.689-1.3c0.28-0.41,0.591-0.79,0.94-1.14
		c0.34-0.34,0.72-0.66,1.14-0.93c0.4-0.27,0.841-0.5,1.29-0.69c0.45-0.19,0.931-0.33,1.401-0.43c2.44-0.49,5.032,0.31,6.773,2.051
		c1.401,1.401,2.201,3.331,2.201,5.302c0,1.981-0.8,3.911-2.201,5.312C110.052,174.433,108.11,175.244,106.14,175.244z"/>
	<path style="fill:#1B3D66;" d="M197.965,469.845c-1.971,0-3.911-0.8-5.302-2.201c-0.35-0.35-0.66-0.73-0.93-1.14
		c-0.271-0.41-0.511-0.84-0.69-1.29c-0.189-0.46-0.33-0.93-0.43-1.411c-0.101-0.48-0.15-0.97-0.15-1.461s0.05-0.98,0.15-1.471
		c0.1-0.48,0.24-0.95,0.43-1.401c0.18-0.45,0.42-0.89,0.69-1.3c0.27-0.41,0.58-0.79,0.93-1.14c1.391-1.391,3.331-2.191,5.302-2.191
		c1.981,0,3.911,0.8,5.313,2.191c0.34,0.35,0.659,0.73,0.93,1.14c0.27,0.41,0.5,0.85,0.689,1.3c0.19,0.45,0.33,0.92,0.431,1.401
		c0.09,0.49,0.14,0.98,0.14,1.471s-0.05,0.98-0.14,1.461c-0.101,0.48-0.24,0.95-0.431,1.411c-0.189,0.45-0.42,0.88-0.689,1.29
		c-0.271,0.41-0.59,0.79-0.93,1.14C201.876,469.045,199.946,469.845,197.965,469.845z"/>
	<path style="fill:#1B3D66;" d="M284.908,491.564c-4.142-0.13-7.393-3.591-7.263-7.733l0,0c0.13-4.142,3.591-7.393,7.732-7.263l0,0
		c4.143,0.12,7.394,3.591,7.264,7.733l0,0c-0.12,4.062-3.462,7.263-7.493,7.263l0,0
		C285.068,491.564,284.988,491.564,284.908,491.564z M307.806,483.72c-0.449-4.122,2.531-7.823,6.644-8.273l0,0c0,0,0,0,0.01,0l0,0
		c4.112-0.45,7.813,2.521,8.263,6.643l0,0c0.45,4.122-2.521,7.823-6.643,8.273l0,0c-0.28,0.03-0.55,0.05-0.82,0.05l0,0
		C311.477,490.413,308.226,487.562,307.806,483.72z M253.866,488.392c-4.092-0.71-6.822-4.602-6.102-8.683l0,0
		c0.71-4.082,4.592-6.813,8.673-6.102l0,0l0,0l0,0c4.082,0.71,6.813,4.602,6.102,8.683l0,0c-0.63,3.641-3.801,6.212-7.383,6.212l0,0
		C254.737,488.502,254.296,488.462,253.866,488.392z M337.658,479.379c-1.03-4.012,1.391-8.103,5.401-9.123l0,0
		c4.012-1.03,8.104,1.391,9.133,5.402l0,0c1.03,4.012-1.391,8.103-5.401,9.133l0,0c-0.63,0.16-1.261,0.23-1.871,0.23l0,0
		C341.568,485.021,338.518,482.77,337.658,479.379z M223.564,480.849c-3.94-1.29-6.092-5.522-4.802-9.464l0,0
		c1.28-3.941,5.512-6.092,9.454-4.802l0,0c0,0,0,0,0.01,0l0,0c3.931,1.28,6.082,5.522,4.802,9.454l0,0
		c-1.04,3.171-3.972,5.182-7.133,5.182l0,0C225.125,481.22,224.335,481.1,223.564,480.849z M366.609,470.846
		c-1.591-3.831,0.22-8.223,4.052-9.814l0,0c3.821-1.591,8.213,0.22,9.804,4.052l0,0c1.592,3.821-0.22,8.223-4.052,9.804l0,0
		c-0.939,0.4-1.911,0.58-2.871,0.58l0,0C370.6,475.467,367.809,473.727,366.609,470.846z M394.039,458.271
		c-2.121-3.561-0.95-8.173,2.611-10.284l0,0c3.57-2.121,8.173-0.95,10.284,2.611l0,0c2.12,3.571,0.949,8.173-2.611,10.284l0,0
		c-1.2,0.72-2.522,1.06-3.831,1.06l0,0C397.931,461.942,395.44,460.632,394.039,458.271z M419.409,441.935
		c-2.602-3.221-2.091-7.943,1.14-10.544l0,0c3.231-2.601,7.953-2.091,10.544,1.14l0,0c2.602,3.231,2.091,7.953-1.13,10.544l0,0
		c-1.391,1.12-3.051,1.661-4.702,1.661l0,0C423.059,444.736,420.888,443.785,419.409,441.935z M442.218,422.207
		c-3.021-2.841-3.181-7.583-0.35-10.614l0,0c2.831-3.021,7.572-3.181,10.604-0.35l0,0c3.031,2.831,3.181,7.583,0.36,10.604l0,0
		c-1.481,1.581-3.481,2.381-5.482,2.381l0,0C445.509,424.228,443.668,423.558,442.218,422.207z M462.025,399.459
		c-3.391-2.381-4.212-7.053-1.841-10.444l0,0c2.381-3.401,7.063-4.222,10.454-1.841l0,0c3.391,2.371,4.222,7.053,1.841,10.444l0,0
		c-1.461,2.081-3.791,3.201-6.152,3.201l0,0C464.836,400.819,463.336,400.379,462.025,399.459z M478.431,374.169
		c-3.691-1.881-5.172-6.392-3.301-10.084l0,0c1.881-3.701,6.392-5.182,10.084-3.301l0,0c3.7,1.871,5.172,6.382,3.301,10.084l0,0
		c-1.32,2.611-3.961,4.112-6.693,4.112l0,0C480.682,374.979,479.522,374.719,478.431,374.169z M491.096,346.789
		c-3.922-1.33-6.023-5.582-4.702-9.514l0,0c1.33-3.922,5.592-6.032,9.514-4.702l0,0c3.931,1.33,6.032,5.592,4.702,9.514l0,0
		c-1.061,3.131-3.982,5.102-7.104,5.102l0,0C492.707,347.189,491.896,347.059,491.096,346.789z M499.739,317.888
		c-4.072-0.75-6.763-4.672-6.012-8.743l0,0c0,0,0,0,0.01,0l0,0c0.75-4.072,4.672-6.763,8.743-6.002l0,0
		c4.071,0.75,6.763,4.672,6.002,8.743l0,0c-0.67,3.611-3.821,6.132-7.373,6.132l0,0C500.66,318.018,500.2,317.978,499.739,317.888z
		 M504.181,288.056c-4.143-0.17-7.354-3.671-7.184-7.813l0,0c0.181-4.142,3.671-7.353,7.814-7.173l0,0
		c4.142,0.17,7.353,3.671,7.183,7.813l0,0c-0.17,4.032-3.491,7.183-7.493,7.183l0,0
		C504.391,288.066,504.291,288.066,504.181,288.056z M496.198,251.152L496.198,251.152L496.198,251.152
		c-0.4-4.132,2.611-7.803,6.733-8.203l0,0c4.132-0.4,7.803,2.611,8.202,6.733l0,0c0.4,4.132-2.61,7.803-6.732,8.203l0,0
		c-0.25,0.02-0.5,0.03-0.74,0.03l0,0C499.838,257.915,496.578,255.024,496.198,251.152z M491.316,222.472
		c-0.98-4.022,1.48-8.083,5.502-9.073l0,0c4.032-0.98,8.093,1.481,9.073,5.512l0,0c0.979,4.022-1.481,8.083-5.502,9.073l0,0
		c-0.601,0.14-1.2,0.21-1.791,0.21l0,0C495.218,228.194,492.156,225.903,491.316,222.472z M482.403,194.791c0,0,0,0,0.01,0l0,0
		c-1.551-3.841,0.311-8.213,4.152-9.764l0,0c3.841-1.551,8.213,0.31,9.764,4.162l0,0c1.541,3.841-0.32,8.213-4.162,9.764l0,0
		c-0.92,0.36-1.871,0.54-2.801,0.54l0,0C486.394,199.493,483.582,197.712,482.403,194.791z M469.648,168.651
		c-2.081-3.581-0.86-8.173,2.731-10.254l0,0c3.581-2.071,8.173-0.85,10.243,2.731l0,0c2.081,3.591,0.86,8.173-2.721,10.254l0,0
		c-1.189,0.69-2.48,1.01-3.761,1.01l0,0C473.559,172.393,471.038,171.052,469.648,168.651z"/>
	<path style="fill:#1B3D66;" d="M459.134,147.353c-0.49,0-0.98-0.05-1.471-0.15c-0.471-0.1-0.95-0.24-1.401-0.43
		c-0.45-0.18-0.89-0.42-1.29-0.69c-0.42-0.27-0.8-0.58-1.14-0.93c-1.401-1.391-2.201-3.331-2.201-5.302
		c0-0.49,0.05-0.98,0.149-1.471c0.091-0.48,0.24-0.95,0.421-1.401c0.189-0.45,0.42-0.89,0.689-1.301c0.28-0.41,0.59-0.79,0.94-1.13
		c0.34-0.35,0.72-0.66,1.14-0.94c0.4-0.27,0.84-0.5,1.29-0.69c0.45-0.18,0.93-0.33,1.401-0.43c0.97-0.19,1.971-0.19,2.931,0
		c0.479,0.1,0.95,0.25,1.411,0.43c0.45,0.19,0.89,0.42,1.29,0.69c0.41,0.28,0.8,0.59,1.14,0.94c0.35,0.34,0.66,0.72,0.93,1.13
		c0.271,0.41,0.511,0.85,0.69,1.301c0.189,0.45,0.33,0.92,0.43,1.401c0.101,0.49,0.15,0.98,0.15,1.471
		c0,1.971-0.8,3.911-2.201,5.302c-0.34,0.35-0.729,0.66-1.14,0.93c-0.4,0.27-0.84,0.51-1.29,0.69c-0.46,0.19-0.931,0.33-1.411,0.43
		C460.113,147.303,459.624,147.353,459.134,147.353z"/>
</g>
<path style="fill:#9FD479;" d="M462.967,271.426c0-62.444-33.472-117.061-83.447-146.915c-18.146,20.835-36.292,41.67-54.438,62.505
	c-5.646,6.482-11.383,13.109-14.752,21.018c-3.369,7.91-4.039,17.461,0.374,24.839c6.791,11.354,22.142,13.445,35.37,13.699
	c15.806,0.304,32.059-0.198,46.875,5.319c14.815,5.516,28.055,18.919,27.751,34.725c-0.287,14.87-11.867,26.873-16.912,40.864
	c-5.929,16.444-2.267,35.45,7.395,50.018c2.146,3.236,4.567,6.259,7.202,9.084C446.079,356.192,462.967,315.782,462.967,271.426z"/>
<path style="fill:#7DB24F;" d="M462.88,266.185c-0.01-0.333-0.019-0.666-0.031-0.998c-0.06-1.68-0.144-3.352-0.252-5.019
	c-0.02-0.312-0.044-0.624-0.066-0.936c-0.116-1.649-0.251-3.292-0.413-4.928c-0.01-0.094-0.017-0.189-0.026-0.283
	c-0.171-1.694-0.374-3.377-0.594-5.055c-0.044-0.331-0.086-0.663-0.132-0.994c-0.225-1.639-0.47-3.271-0.741-4.895
	c-0.046-0.272-0.095-0.543-0.142-0.815c-0.269-1.568-0.557-3.128-0.869-4.681c-0.031-0.153-0.058-0.308-0.09-0.462
	c-0.332-1.632-0.693-3.253-1.071-4.868c-0.074-0.318-0.149-0.636-0.226-0.954c-0.384-1.599-0.788-3.19-1.216-4.771
	c-0.058-0.214-0.12-0.426-0.179-0.639c-0.418-1.516-0.855-3.022-1.314-4.52c-0.056-0.185-0.11-0.371-0.167-0.555
	c-0.486-1.571-0.998-3.13-1.528-4.681c-0.1-0.293-0.201-0.586-0.303-0.879c-0.54-1.555-1.098-3.1-1.682-4.634
	c-0.056-0.146-0.115-0.292-0.171-0.438c-0.567-1.478-1.155-2.945-1.763-4.404c-0.083-0.199-0.163-0.399-0.247-0.598
	c-0.633-1.505-1.289-2.997-1.964-4.479c-0.12-0.263-0.241-0.526-0.362-0.789c-0.694-1.505-1.404-3-2.139-4.481
	c-0.032-0.064-0.065-0.127-0.097-0.191c-0.725-1.455-1.474-2.895-2.239-4.326c-0.109-0.204-0.216-0.408-0.325-0.611
	c-0.773-1.433-1.568-2.851-2.38-4.259c-0.132-0.228-0.265-0.454-0.398-0.682c-1.686-2.888-3.453-5.722-5.3-8.499
	c-0.132-0.198-0.262-0.397-0.395-0.594c-0.907-1.353-1.834-2.691-2.779-4.016c-0.136-0.191-0.275-0.381-0.412-0.572
	c-1.952-2.712-3.98-5.365-6.083-7.955c-0.155-0.191-0.31-0.383-0.466-0.574c-1.033-1.261-2.083-2.508-3.151-3.739
	c-0.136-0.156-0.273-0.31-0.409-0.466c-1.086-1.243-2.188-2.474-3.309-3.684c-0.023-0.025-0.046-0.051-0.07-0.076
	c-1.13-1.218-2.282-2.417-3.446-3.602c-0.179-0.182-0.357-0.364-0.537-0.545c-1.149-1.159-2.315-2.305-3.497-3.431
	c-0.128-0.122-0.258-0.242-0.387-0.364c-1.169-1.107-2.354-2.2-3.555-3.275c-0.081-0.073-0.161-0.146-0.242-0.219
	c-1.225-1.092-2.469-2.163-3.724-3.22c-0.207-0.174-0.415-0.348-0.623-0.522c-1.253-1.044-2.52-2.075-3.803-3.084
	c-0.12-0.094-0.241-0.186-0.361-0.28c-1.244-0.972-2.503-1.928-3.773-2.867c-0.145-0.107-0.289-0.216-0.434-0.323
	c-1.302-0.955-2.621-1.89-3.952-2.809c-0.243-0.168-0.488-0.335-0.733-0.503c-1.341-0.915-2.691-1.817-4.059-2.695
	c-0.115-0.074-0.232-0.145-0.347-0.219c-1.305-0.834-2.623-1.649-3.952-2.447c-0.143-0.086-0.286-0.174-0.43-0.26
	c-1.572,1.804-3.143,3.608-4.714,5.413c35.34,31.328,57.631,77.046,57.631,127.988c0,36.174-11.24,69.715-30.406,97.347
	c1.557,7.896,4.71,15.537,9.153,22.236c2.146,3.236,4.567,6.259,7.202,9.084c0.001-0.001,0.001-0.001,0.002-0.002
	c0.589-0.646,1.165-1.302,1.745-1.958c0.298-0.338,0.602-0.672,0.898-1.012c0.525-0.603,1.038-1.215,1.555-1.826
	c0.341-0.403,0.685-0.802,1.021-1.208c0.491-0.592,0.973-1.192,1.458-1.792c0.349-0.432,0.701-0.863,1.046-1.299
	c0.469-0.592,0.929-1.191,1.391-1.79c0.349-0.453,0.699-0.905,1.044-1.362c0.448-0.594,0.889-1.193,1.33-1.793
	c0.346-0.472,0.693-0.943,1.035-1.419c0.428-0.596,0.851-1.197,1.272-1.799c0.341-0.487,0.681-0.976,1.017-1.468
	c0.412-0.602,0.819-1.207,1.223-1.816c0.333-0.499,0.663-1,0.99-1.505c0.396-0.608,0.788-1.219,1.176-1.834
	c0.324-0.512,0.645-1.027,0.964-1.544c0.379-0.614,0.756-1.229,1.127-1.849c0.315-0.525,0.626-1.054,0.936-1.583
	c0.362-0.618,0.724-1.238,1.078-1.862c0.306-0.539,0.607-1.081,0.907-1.624c0.345-0.623,0.691-1.246,1.029-1.874
	c0.297-0.552,0.587-1.109,0.878-1.665c0.329-0.627,0.659-1.253,0.98-1.886c0.286-0.563,0.563-1.131,0.843-1.698
	c0.313-0.633,0.629-1.264,0.935-1.903c0.278-0.579,0.545-1.164,0.816-1.748c0.294-0.631,0.592-1.26,0.878-1.897
	c0.277-0.615,0.541-1.236,0.811-1.855c0.267-0.612,0.54-1.221,0.8-1.838c0.51-1.207,1.006-2.423,1.489-3.644
	c0.223-0.564,0.433-1.135,0.65-1.703c0.266-0.696,0.537-1.39,0.794-2.09c0.218-0.592,0.424-1.19,0.635-1.787
	c0.242-0.683,0.488-1.365,0.722-2.051c0.205-0.603,0.4-1.211,0.599-1.818c0.225-0.686,0.452-1.372,0.669-2.061
	c0.193-0.613,0.375-1.23,0.561-1.848c0.208-0.688,0.416-1.378,0.616-2.07c0.179-0.622,0.349-1.247,0.521-1.872
	c0.191-0.695,0.383-1.391,0.565-2.09c0.164-0.625,0.321-1.253,0.477-1.882c0.176-0.704,0.349-1.409,0.516-2.116
	c0.149-0.63,0.292-1.261,0.433-1.895c0.16-0.713,0.316-1.429,0.467-2.145c0.133-0.631,0.262-1.263,0.388-1.897
	c0.144-0.725,0.283-1.452,0.417-2.179c0.117-0.632,0.232-1.266,0.342-1.902c0.127-0.736,0.248-1.474,0.366-2.213
	c0.101-0.632,0.201-1.264,0.295-1.899c0.111-0.751,0.214-1.506,0.316-2.26c0.084-0.627,0.17-1.253,0.247-1.883
	c0.095-0.77,0.18-1.543,0.264-2.316c0.068-0.619,0.138-1.238,0.2-1.86c0.079-0.798,0.146-1.601,0.213-2.402
	c0.051-0.599,0.106-1.197,0.15-1.799c0.062-0.842,0.111-1.689,0.161-2.534c0.034-0.567,0.073-1.132,0.101-1.702
	c0.047-0.945,0.077-1.895,0.108-2.844c0.015-0.47,0.039-0.939,0.05-1.411c0.035-1.426,0.054-2.854,0.054-4.288
	C462.967,269.671,462.932,267.926,462.88,266.185z"/>
<path style="fill:#9FD479;" d="M214.409,252.984c2.174-22.79,50.002-17.066,47.103-56.198
	c-2.445-33.003-54.371-39.718-100.136-35.796c-25.228,29.797-40.448,68.336-40.448,110.436c0,16.355,2.3,32.173,6.586,47.151
	c40.503,7.777,81.322,8.514,91.969,7.923c26.09-1.45,55.072,64.494,68.841,65.22c13.768,0.724,13.044-47.103,13.768-67.394
	C302.818,304.035,212.234,275.774,214.409,252.984z"/>
<path style="fill:#1B3D66;" d="M376.008,207.912c-4.145,0-7.503-3.359-7.503-7.503V27.94c0-4.144,3.358-7.503,7.503-7.503
	c4.145,0,7.503,3.359,7.503,7.503v172.469C383.511,204.553,380.153,207.912,376.008,207.912z"/>
<path style="fill:#ED5575;" d="M442.291,64.536l26.446-31.798c1.86-2.238,2.26-5.349,1.023-7.983
	c-1.234-2.634-3.882-4.317-6.793-4.317h-86.959c-4.145,0-7.503,3.359-7.503,7.503v73.191c0,4.144,3.358,7.503,7.503,7.503h86.959
	c2.91,0,5.558-1.683,6.793-4.317c1.235-2.635,0.836-5.746-1.023-7.983L442.291,64.536z"/>
<path style="fill:#CC3A60;" d="M442.291,64.536l26.446-31.798c1.86-2.238,2.26-5.349,1.023-7.983
	c-1.234-2.634-3.882-4.317-6.793-4.317h-19.039c2.91,0,5.558,1.683,6.793,4.317c1.235,2.635,0.836,5.746-1.023,7.983l-26.446,31.798
	l26.446,31.797c1.86,2.237,2.26,5.349,1.023,7.983c-1.234,2.634-3.883,4.317-6.793,4.317h19.039c2.91,0,5.558-1.683,6.793-4.317
	c1.235-2.635,0.836-5.746-1.023-7.983L442.291,64.536z"/>
<path style="fill:#ED5575;" d="M242.697,312.002c0,40.505-20.473,76.225-51.627,97.381c-18.812,12.769-41.519,20.229-65.971,20.229
	s-47.158-7.459-65.971-20.229c-31.153-21.156-51.626-56.876-51.626-97.381c0-64.945,52.652-117.597,117.597-117.597
	S242.697,247.058,242.697,312.002z"/>
<path style="fill:#1B3D66;" d="M125.1,437.115c-25.171,0-49.441-7.443-70.185-21.523C20.529,392.24,0,353.515,0,312.002
	c0-68.98,56.12-125.099,125.1-125.099s125.1,56.119,125.1,125.099c0,41.514-20.529,80.238-54.915,103.588
	C174.541,429.672,150.272,437.115,125.1,437.115z M125.1,201.909c-60.707,0-110.095,49.388-110.095,110.094
	c0,36.536,18.07,70.62,48.338,91.175c18.246,12.386,39.602,18.932,61.755,18.932s43.509-6.546,61.756-18.933
	c30.267-20.553,48.337-54.638,48.337-91.174C235.194,251.296,185.806,201.909,125.1,201.909z"/>
<path style="fill:#ED5575;" d="M235.199,312.005c0,36.534-18.077,70.617-48.338,91.175c-18.247,12.385-39.605,18.927-61.763,18.927
	c-22.148,0-43.506-6.542-61.753-18.927c-30.271-20.558-48.338-54.641-48.338-91.175c0-60.713,49.389-110.102,110.092-110.102
	C185.81,201.904,235.199,251.292,235.199,312.005z"/>
<path style="fill:#F9C295;" d="M125.099,227.513L125.099,227.513c-24.608,0-44.558,19.95-44.558,44.558v21.482
	c0,24.608,19.95,44.558,44.558,44.558l0,0c24.608,0,44.558-19.95,44.558-44.558v-21.482
	C169.658,247.462,149.709,227.513,125.099,227.513z"/>
<path style="fill:#444966;" d="M189.422,401.389c-0.85,0.6-1.701,1.2-2.561,1.791c-18.007,12.225-39.045,18.757-60.893,18.917
	c-0.29,0.01-0.58,0.01-0.87,0.01c-0.29,0-0.58,0-0.87-0.01c-21.838-0.16-42.876-6.693-60.883-18.917
	c-0.86-0.59-1.721-1.19-2.561-1.801c4.402-14.726,15.786-26.42,30.311-31.272l-0.02-0.03c0.52-0.17,1.04-0.34,1.571-0.49
	c0.12-0.04,0.24-0.08,0.35-0.11c0.05-0.02,0.1-0.03,0.16-0.05c0.5-0.13,1.01-0.27,1.521-0.4c0.66-0.16,1.331-0.32,2.001-0.45
	c0.56-0.11,1.14-0.22,1.711-0.31c0.17-0.03,0.34-0.06,0.51-0.09c0.14-0.02,0.29-0.04,0.43-0.06c0.25-0.04,0.5-0.08,0.75-0.11
	c0.04,0,0.08-0.01,0.12-0.01c0.36-0.05,0.72-0.09,1.08-0.12c0.3-0.04,0.61-0.06,0.92-0.08c0.24-0.02,0.49-0.04,0.73-0.06
	c0.25-0.02,0.49-0.03,0.73-0.04c0.12,0,0.24-0.01,0.36-0.02c0.12,0,0.24-0.01,0.36-0.01c0.57-0.02,1.14-0.03,1.711-0.03h38.014
	c0.58,0,1.15,0.01,1.711,0.03c0.12,0,0.24,0.01,0.36,0.01c0.12,0.01,0.24,0.02,0.36,0.02c0.24,0.01,0.49,0.02,0.74,0.04
	c0.24,0.02,0.48,0.04,0.73,0.06c0.31,0.02,0.62,0.04,0.92,0.08c0.33,0.03,0.66,0.07,1,0.11c0.07,0.01,0.14,0.01,0.2,0.02
	c0.25,0.04,0.5,0.07,0.75,0.11c0.11,0.01,0.23,0.03,0.35,0.05c0.19,0.03,0.39,0.07,0.58,0.1c0.61,0.1,1.22,0.21,1.821,0.33
	c0.75,0.15,1.501,0.33,2.241,0.52c0.4,0.1,0.79,0.21,1.18,0.31c0.05,0.02,0.11,0.03,0.16,0.05c0.13,0.04,0.26,0.08,0.4,0.12
	c0.43,0.13,0.87,0.27,1.3,0.41c0.07,0.02,0.14,0.04,0.21,0.07l-0.02,0.03h0.01C173.636,374.969,185.02,386.654,189.422,401.389z"/>
<path style="fill:#EBEEF2;" d="M159.13,370.077l-0.02,0.03l-33.143,51.99c-0.29,0.01-0.58,0.01-0.87,0.01c-0.29,0-0.58,0-0.87-0.01
	l-33.133-51.99l-0.02-0.03c0.52-0.17,1.04-0.34,1.571-0.49c0.12-0.04,0.24-0.08,0.35-0.11c0.56-0.16,1.12-0.31,1.681-0.45
	c0.66-0.16,1.331-0.32,2.001-0.45c0.56-0.11,1.14-0.22,1.711-0.31c0.17-0.03,0.34-0.06,0.51-0.09c0.14-0.02,0.29-0.04,0.43-0.06
	c0.29-0.05,0.58-0.09,0.87-0.12c0.36-0.05,0.72-0.09,1.08-0.12c0.3-0.04,0.61-0.06,0.92-0.08c0.24-0.02,0.49-0.04,0.73-0.06
	c0.36-0.03,0.72-0.05,1.09-0.06c0.12,0,0.24-0.01,0.36-0.01c0.063-0.002,0.127-0.001,0.19-0.003
	c0.506-0.018,1.013-0.037,1.521-0.037h38.014c0.506,0,1.014,0.019,1.52,0.037c0.063,0.002,0.128,0.001,0.191,0.003
	c0.12,0,0.24,0.01,0.36,0.01c0.37,0.01,0.74,0.03,1.1,0.06c0.24,0.02,0.48,0.04,0.73,0.06c0.31,0.02,0.62,0.04,0.92,0.08
	c0.33,0.03,0.66,0.07,1,0.11c0.31,0.04,0.63,0.08,0.95,0.13c0.11,0.01,0.23,0.03,0.35,0.05c0.19,0.03,0.39,0.07,0.58,0.1
	c0.61,0.1,1.22,0.21,1.821,0.33c0.75,0.15,1.501,0.33,2.241,0.52c0.45,0.11,0.89,0.23,1.34,0.36c0.13,0.04,0.26,0.08,0.4,0.12
	c0.43,0.13,0.87,0.27,1.3,0.41c0.07,0.02,0.14,0.04,0.21,0.07L159.13,370.077L159.13,370.077z"/>
<path style="fill:#444966;" d="M154.091,238.255c0-0.002,0.001-0.003,0.001-0.005c-0.082-0.07-0.168-0.136-0.251-0.206
	c-0.341-0.288-0.686-0.573-1.036-0.851c-0.16-0.127-0.321-0.251-0.482-0.376c-0.321-0.248-0.644-0.492-0.972-0.731
	c-0.191-0.14-0.383-0.278-0.576-0.414c-0.3-0.212-0.603-0.419-0.908-0.624c-0.225-0.15-0.449-0.3-0.676-0.447
	c-0.274-0.176-0.551-0.348-0.83-0.518c-0.263-0.162-0.526-0.323-0.792-0.48c-0.235-0.138-0.474-0.269-0.712-0.403
	c-0.313-0.176-0.626-0.353-0.944-0.521c-0.164-0.087-0.331-0.168-0.495-0.253c-6.092-3.132-12.993-4.912-20.316-4.912
	c-24.608,0-44.558,19.95-44.558,44.558v4.119c6.561,2.895,13.811,4.515,21.444,4.515c15.674,0,29.756-6.788,39.49-17.574
	c6.155,9.485,16.366,16.093,28.183,17.352v-8.411C169.658,258.537,163.617,246.424,154.091,238.255z"/>
<g>
</g>
<g>
</g>
<g>
</g>
<g>
</g>
<g>
</g>
<g>
</g>
<g>
</g>
<g>
</g>
<g>
</g>
<g>
</g>
<g>
</g>
<g>
</g>
<g>
</g>
<g>
</g>
<g>
</g>
</svg>
