<svg id="icons" enable-background="new 0 0 64 64" height="512" viewBox="0 0 64 64" width="512" xmlns="http://www.w3.org/2000/svg"><path d="m49 53v4c0 3.3-2.7 6-6 6h-22c-3.3 0-6-2.7-6-6v-4c0 3.3 2.7 6 6 6h11 11c3.3 0 6-2.7 6-6z" fill="#545c66"/><path d="m32 53c1.1 0 2 .9 2 2 0 1.11-.9 2-2 2-1.11 0-2-.89-2-2 0-1.1.89-2 2-2z" fill="#aab2bd"/><path d="m49 51v2c0 3.3-2.7 6-6 6h-11v-2c1.1 0 2-.89 2-2 0-1.1-.9-2-2-2v-2z" fill="#656d78"/><path d="m30 55c0 1.11.89 2 2 2v2h-11c-3.3 0-6-2.7-6-6v-2h17v2c-1.11 0-2 .9-2 2z" fill="#656d78"/><path d="m49 6v1h-34v-1c0-2.76 2.229-5 5-5h24c2.76 0 5 2.24 5 5z" fill="#656d78"/><path d="m49 7v44h-17-17v-44z" fill="#e6e9ed"/><path d="m29.03 5c-.553 0-1.005-.447-1.005-1s.442-1 .994-1h.011c.552 0 1 .447 1 1s-.448 1-1 1z" fill="#5d9cec"/><path d="m35 5h-3c-.553 0-1-.447-1-1s.447-1 1-1h3c.553 0 1 .447 1 1s-.447 1-1 1z" fill="#545c66"/><g fill="#ac92ec"><path d="m44 30.002c-.553 0-1-.447-1-1 0-6.065-4.935-11-11-11s-11 4.935-11 11c0 .553-.447 1-1 1s-1-.447-1-1c0-7.168 5.832-13 13-13s13 5.832 13 13c0 .553-.447 1-1 1z"/><path d="m41 30.002c-.553 0-1-.447-1-1 0-4.411-3.589-8-8-8s-8 3.589-8 8c0 .553-.447 1-1 1s-1-.447-1-1c0-5.514 4.486-10 10-10s10 4.486 10 10c0 .553-.447 1-1 1z"/><path d="m38 30.002c-.553 0-1-.447-1-1 0-2.757-2.243-5-5-5s-5 2.243-5 5c0 .553-.447 1-1 1s-1-.447-1-1c0-3.859 3.141-7 7-7s7 3.141 7 7c0 .553-.447 1-1 1z"/><path d="m35 30.002c-.553 0-1-.447-1-1 0-1.103-.897-2-2-2s-2 .897-2 2c0 .553-.447 1-1 1s-1-.447-1-1c0-2.206 1.794-4 4-4s4 1.794 4 4c0 .553-.447 1-1 1z"/><path d="m32 42.002c-.553 0-1-.447-1-1v-12c0-.553.447-1 1-1s1 .447 1 1v12c0 .553-.447 1-1 1z"/><path d="m35 41.623c-.553 0-1-.447-1-1v-11.621c0-.553.447-1 1-1s1 .447 1 1v11.621c0 .553-.447 1-1 1z"/><path d="m38 40.396c-.553 0-1-.447-1-1v-10.394c0-.553.447-1 1-1s1 .447 1 1v10.394c0 .552-.447 1-1 1z"/><path d="m41 37.998c-.553 0-1-.447-1-1v-7.996c0-.553.447-1 1-1s1 .447 1 1v7.996c0 .553-.447 1-1 1z"/><path d="m26 40.396c-.553 0-1-.447-1-1v-10.394c0-.553.447-1 1-1s1 .447 1 1v10.394c0 .552-.447 1-1 1z"/><path d="m29 41.623c-.553 0-1-.447-1-1v-11.621c0-.553.447-1 1-1s1 .447 1 1v11.621c0 .553-.447 1-1 1z"/><path d="m23 37.936c-.553 0-1-.447-1-1v-7.934c0-.553.447-1 1-1s1 .447 1 1v7.934c0 .552-.447 1-1 1z"/><path d="m44 34.998c-.553 0-1-.447-1-1v-4.996c0-.553.447-1 1-1s1 .447 1 1v4.996c0 .553-.447 1-1 1z"/><path d="m20 34.998c-.553 0-1-.447-1-1v-4.996c0-.553.447-1 1-1s1 .447 1 1v4.996c0 .553-.447 1-1 1z"/></g><path d="m19 20c-.553 0-1-.447-1-1v-3c0-.553.447-1 1-1s1 .447 1 1v3c0 .553-.447 1-1 1z" fill="#ccd1d9"/><path d="m22 17h-3c-.553 0-1-.447-1-1s.447-1 1-1h3c.553 0 1 .447 1 1s-.447 1-1 1z" fill="#ccd1d9"/><path d="m44.998 20c-.553 0-1-.447-1-1v-3c0-.553.447-1 1-1s1 .447 1 1v3c0 .553-.447 1-1 1z" fill="#ccd1d9"/><path d="m44.998 17h-3c-.553 0-1-.447-1-1s.447-1 1-1h3c.553 0 1 .447 1 1s-.447 1-1 1z" fill="#ccd1d9"/><path d="m19 42.998c-.553 0-1-.447-1-1v-3c0-.553.447-1 1-1s1 .447 1 1v3c0 .553-.447 1-1 1z" fill="#ccd1d9"/><path d="m22 42.998h-3c-.553 0-1-.447-1-1s.447-1 1-1h3c.553 0 1 .447 1 1s-.447 1-1 1z" fill="#ccd1d9"/><path d="m44.998 42.998c-.553 0-1-.447-1-1v-3c0-.553.447-1 1-1s1 .447 1 1v3c0 .553-.447 1-1 1z" fill="#ccd1d9"/><path d="m44.998 42.998h-3c-.553 0-1-.447-1-1s.447-1 1-1h3c.553 0 1 .447 1 1s-.447 1-1 1z" fill="#ccd1d9"/><path d="m15 7h2v44h-2z" fill="#656d78"/><path d="m47 7h2v44h-2z" fill="#656d78"/></svg>