<?xml version="1.0" encoding="iso-8859-1"?>
<!-- Generator: Adobe Illustrator 19.0.0, SVG Export Plug-In . SVG Version: 6.00 Build 0)  -->
<svg version="1.1" id="Capa_1" xmlns="http://www.w3.org/2000/svg" xmlns:xlink="http://www.w3.org/1999/xlink" x="0px" y="0px"
	 viewBox="0 0 512.001 512.001" style="enable-background:new 0 0 512.001 512.001;" xml:space="preserve">
<path style="fill:#75DC5E;" d="M208.276,488.894H10.235c-1.527,0-2.714-1.331-2.538-2.848l7.379-63.829
	c3.376-29.213,28.113-51.25,57.525-51.25h73.309c29.413,0,54.149,22.037,57.525,51.25l7.379,63.829
	C210.989,487.563,209.803,488.894,208.276,488.894z"/>
<g>
	<path style="fill:#2AAD52;" d="M203.434,422.216c-3.376-29.213-28.113-51.25-57.525-51.25h-20.521
		c29.412,0,54.149,22.037,57.525,51.25l7.709,66.678h17.654c1.527,0,2.714-1.331,2.538-2.848L203.434,422.216z"/>
	<path style="fill:#2AAD52;" d="M180.184,488.894v-50.727c0-4.206-3.41-7.615-7.615-7.615s-7.615,3.41-7.615,7.615v50.727H180.184z"
		/>
	<path style="fill:#2AAD52;" d="M53.559,488.894v-50.727c0-4.206-3.41-7.615-7.615-7.615s-7.615,3.41-7.615,7.615v50.727H53.559z"/>
</g>
<path style="fill:#B05A3D;" d="M82.613,326.537v46.491c0,14.714,11.928,26.642,26.642,26.642l0,0
	c14.714,0,26.642-11.928,26.642-26.642v-46.491H82.613z"/>
<path style="fill:#D7875F;" d="M196.473,245.835h-16.224v-39.118c0-28.326-22.963-51.289-51.289-51.289H89.55
	c-28.326,0-51.289,22.963-51.289,51.289v39.118H22.038c-9.158,0-16.582,7.425-16.582,16.582v7.843
	c0,9.158,7.425,16.582,16.582,16.582h16.326c1.935,37.483,32.934,67.278,70.892,67.278c18.979,0,36.215-7.446,48.952-19.581
	c12.738-12.136,20.965-28.961,21.939-47.697h16.326c9.158,0,16.582-7.425,16.582-16.582v-7.843
	C213.055,253.26,205.63,245.835,196.473,245.835z"/>
<g>
	<path style="fill:#475D6D;" d="M109.255,314.459c-9.703,0-18.836-3.78-25.716-10.642c-3.48-3.481-6.164-7.532-7.988-12.05
		c-1.574-3.9,0.312-8.337,4.212-9.912s8.337,0.312,9.912,4.212c1.053,2.61,2.611,4.956,4.628,6.975
		c3.999,3.987,9.31,6.188,14.952,6.188c8.651,0,16.339-5.171,19.585-13.175c1.581-3.898,6.023-5.777,9.919-4.195
		c3.897,1.581,5.776,6.022,4.195,9.919C137.366,305.557,124.137,314.459,109.255,314.459z"/>
	<path style="fill:#475D6D;" d="M73.716,258.049c-4.206,0-7.615-3.41-7.615-7.615v-3.429c0-4.206,3.41-7.615,7.615-7.615
		c4.206,0,7.615,3.41,7.615,7.615v3.429C81.331,254.639,77.922,258.049,73.716,258.049z"/>
	<path style="fill:#475D6D;" d="M144.794,258.049c-4.206,0-7.615-3.41-7.615-7.615v-3.429c0-4.206,3.41-7.615,7.615-7.615
		s7.615,3.41,7.615,7.615v3.429C152.41,254.639,149,258.049,144.794,258.049z"/>
	<path style="fill:#475D6D;" d="M38.26,211.909h20.411c5.775,0,11.01-3.395,13.364-8.668l5.296-11.863
		c1.44-3.226,5.524-4.246,8.313-2.077l25.106,19.527c2.569,1.998,5.731,3.083,8.985,3.083h60.513v-44.084
		c0-22.033-17.862-39.895-39.895-39.895h-48.5c-7.252,0-13.13,5.878-13.13,13.13v7.024H57.571c-10.665,0-19.31,8.645-19.31,19.31
		v44.514H38.26z"/>
</g>
<path style="fill:#F9DC6A;" d="M145.756,83.455v113.84h253.213V73.488c0-25.048-20.305-45.352-45.352-45.352h-18.413l-1.394-2.871
	C326.307,9.811,310.636,0,293.457,0H229.21C183.119,0,145.756,37.364,145.756,83.455z"/>
<path style="fill:#E5AC51;" d="M353.617,28.134h-18.413l-1.394-2.871C326.307,9.811,310.636,0,293.457,0h-24.169
	c17.179,0,32.849,9.811,40.353,25.265l1.394,2.871h18.413c25.048,0,45.352,20.305,45.352,45.352v123.807h24.169V73.488
	C398.969,48.44,378.664,28.134,353.617,28.134z"/>
<path style="fill:#2BB4F3;" d="M409.379,506.394H135.345c-2.114,0-3.755-1.842-3.512-3.942l10.211-88.322
	c4.672-40.422,38.901-70.915,79.599-70.915h101.439c40.699,0,74.927,30.493,79.599,70.915l10.211,88.322
	C413.135,504.552,411.493,506.394,409.379,506.394z"/>
<path style="fill:#1687C4;" d="M192.371,506.389v-70.188c0-4.206-3.41-7.615-7.615-7.615s-7.615,3.41-7.615,7.615v70.188
	c0,0.002,0,0.003,0,0.005h15.231C192.371,506.393,192.371,506.391,192.371,506.389z"/>
<path style="fill:#F2A077;" d="M235.497,281.738v74.308c0,20.36,16.505,36.865,36.865,36.865l0,0
	c20.36,0,36.865-16.505,36.865-36.865v-74.308H235.497z"/>
<path style="fill:#FFCCAA;" d="M415.991,193.012v10.854c0,12.67-10.271,22.941-22.941,22.941h-22.595
	c-1.342,25.928-12.726,49.214-30.353,66.009c-17.627,16.783-41.477,27.086-67.74,27.086c-52.525,0-95.42-41.218-98.093-93.094
	h-22.594c-12.67,0-22.941-10.271-22.941-22.941v-10.854c0-12.67,10.271-22.941,22.941-22.941h22.453v-41.012h82.467
	c39.233,0,71.833-28.364,78.402-65.711c0.571-3.242,4.436-4.58,6.877-2.372c17.64,15.957,28.719,39.031,28.719,64.696v44.399h22.453
	C405.719,170.071,415.991,180.343,415.991,193.012z"/>
<path style="fill:#F2A077;" d="M393.05,170.072h-22.453v-44.399c0-25.665-11.079-48.74-28.719-64.696
	c-2.441-2.208-6.308-0.87-6.877,2.372c-0.97,5.516-2.521,10.828-4.565,15.889c8.472,13.445,13.378,29.365,13.378,46.435v44.399
	l-0.141,56.735c-1.342,25.928-12.726,49.214-30.353,66.009c-14.578,13.879-33.412,23.319-54.347,26.173
	c4.379,0.597,8.848,0.912,13.392,0.912c26.263,0,50.113-10.301,67.74-27.086c17.627-16.795,29.012-40.081,30.353-66.009h22.595
	c12.67,0,22.941-10.271,22.941-22.941v-10.854C415.991,180.343,405.719,170.072,393.05,170.072z"/>
<g>
	<path style="fill:#475D6D;" d="M272.362,262.103c-12.647,0-24.551-4.928-33.519-13.874c-4.533-4.533-8.033-9.813-10.408-15.698
		c-1.574-3.9,0.312-8.337,4.212-9.912c3.9-1.574,8.337,0.313,9.912,4.212c1.605,3.977,3.976,7.551,7.047,10.622
		c6.087,6.072,14.171,9.42,22.756,9.42c13.167,0,24.867-7.871,29.808-20.054c1.581-3.898,6.024-5.776,9.919-4.195
		c3.897,1.581,5.776,6.022,4.195,9.919C309.001,250.5,291.761,262.103,272.362,262.103z"/>
	<path style="fill:#475D6D;" d="M223.186,184.046c-4.206,0-7.615-3.41-7.615-7.615v-4.745c0-4.206,3.41-7.615,7.615-7.615
		s7.615,3.41,7.615,7.615v4.745C230.801,180.636,227.391,184.046,223.186,184.046z"/>
	<path style="fill:#475D6D;" d="M321.538,184.046c-4.206,0-7.615-3.41-7.615-7.615v-4.745c0-4.206,3.41-7.615,7.615-7.615
		s7.615,3.41,7.615,7.615v4.745C329.154,180.636,325.745,184.046,321.538,184.046z"/>
</g>
<circle style="fill:#D2F5FF;" cx="415.993" cy="421.448" r="90.553"/>
<path style="fill:#75DC5E;" d="M470.86,406.116h-36.219c-1.831,0-3.315-1.484-3.315-3.315v-36.218c0-1.831-1.485-3.315-3.315-3.315
	h-24.038c-1.831,0-3.315,1.484-3.315,3.315v36.218c0,1.831-1.484,3.315-3.315,3.315h-36.219c-1.831,0-3.315,1.484-3.315,3.315
	v24.038c0,1.831,1.484,3.315,3.315,3.315h36.219c1.831,0,3.315,1.485,3.315,3.315v36.218c0,1.831,1.485,3.315,3.315,3.315h24.038
	c1.831,0,3.315-1.484,3.315-3.315v-36.217c0-1.831,1.484-3.315,3.315-3.315h36.219c1.831,0,3.315-1.485,3.315-3.315v-24.038
	C474.175,407.6,472.691,406.116,470.86,406.116z"/>
<g>
</g>
<g>
</g>
<g>
</g>
<g>
</g>
<g>
</g>
<g>
</g>
<g>
</g>
<g>
</g>
<g>
</g>
<g>
</g>
<g>
</g>
<g>
</g>
<g>
</g>
<g>
</g>
<g>
</g>
</svg>
