<svg viewBox="0 0 512 512" xmlns="http://www.w3.org/2000/svg"><path d="m503.707031 220.136719c0-117.339844-95.132812-212.464844-212.488281-212.464844s-212.492188 95.125-212.492188 212.464844c0 117.34375 95.136719 212.464843 212.492188 212.464843s212.488281-95.121093 212.488281-212.464843zm0 0" fill="#71d8fd"/><path d="m300.476562 7.886719c88.117188 30.28125 151.445313 113.867187 151.445313 212.25 0 98.386719-63.328125 181.972656-151.445313 212.253906 113.058594-4.847656 203.230469-98.011719 203.230469-212.253906 0-114.238281-90.171875-207.402344-203.230469-212.25zm0 0" fill="#60c3f7"/><path d="m446.898438 64.476562c-41.585938-41.578124-96.875-64.476562-155.679688-64.476562-58.808594 0-114.097656 22.898438-155.683594 64.476562-41.582031 41.578126-64.484375 96.859376-64.484375 155.660157s22.902344 114.085937 64.484375 155.664062c41.585938 41.578125 96.875 64.476563 155.683594 64.476563 58.804688 0 114.09375-22.898438 155.679688-64.476563 41.582031-41.578125 64.484374-96.863281 64.484374-155.664062s-22.902343-114.082031-64.484374-155.660157zm-36.21875 147.988282c-.492188-26.96875-3.578126-53.105469-9.03125-77.382813 13.015624 4.195313 25.199218 9.164063 36.320312 14.867188 33.753906 17.300781 53.828125 39.261719 57.460938 62.515625zm-15.347657 4.777344h-96.441406v-98.269532c30.308594.554688 59.449219 4.398438 85.828125 11.207032 6.429688 25.433593 10.066406 58.101562 10.613281 87.0625zm-96.441406-113.621094v-87.707032c24.074219 3.535157 46.789063 23.660157 64.636719 57.5625 6.371094 12.097657 11.847656 25.445313 16.382812 39.753907-25.292968-5.820313-52.699218-9.101563-81.019531-9.609375zm-15.347656-87.710938v87.710938c-28.320313.503906-55.726563 3.789062-81.019531 9.609375 4.535156-14.3125 10.011718-27.660157 16.378906-39.753907 17.855468-33.902343 40.566406-54.027343 64.640625-57.566406zm0 103.0625v98.269532h-96.441407c.546876-28.960938 4.183594-61.625 10.613282-87.0625 26.378906-6.808594 55.519531-10.652344 85.828125-11.207032zm-111.789063 93.492188h-84.746094c3.628907-23.253906 23.707032-45.214844 57.457032-62.515625 11.121094-5.703125 23.304687-10.671875 36.320312-14.867188-5.457031 24.277344-8.539062 50.414063-9.03125 77.382813zm0 15.347656c.492188 26.96875 3.578125 53.101562 9.03125 77.378906-13.015625-4.195312-25.199218-9.164062-36.320312-14.863281-33.75-17.300781-53.828125-39.261719-57.460938-62.515625zm15.347656 0h96.441407v93.492188c-30.308594-.554688-59.449219-4.398438-85.828125-11.207032-6.429688-25.4375-10.066406-53.324218-10.613282-82.285156zm96.441407 108.839844v87.710937c-24.074219-3.539062-46.785157-23.660156-64.640625-57.5625-6.367188-12.097656-11.84375-25.445312-16.378906-39.753906 25.296874 5.820313 52.699218 9.101563 81.019531 9.605469zm15.347656 87.710937v-87.707031c28.320313-.503906 55.722656-3.789062 81.019531-9.609375-4.535156 14.3125-10.011718 27.660156-16.382812 39.753906-17.847656 33.902344-40.5625 54.027344-64.636719 57.5625zm0-103.058593v-93.492188h96.4375c-.546875 28.960938-4.179687 56.847656-10.609375 82.285156-26.378906 6.808594-55.519531 10.652344-85.828125 11.207032zm111.789063-93.492188h84.75c-3.632813 23.253906-23.707032 45.214844-57.460938 62.515625-11.121094 5.699219-23.304688 10.667969-36.320312 14.863281 5.453124-24.277344 8.539062-50.410156 9.03125-77.378906zm78.859374-58.917969c-10.984374-12.042969-25.957031-23.0625-44.566406-32.601562-14.40625-7.386719-30.457031-13.605469-47.710937-18.574219-5.273438-18.660156-12.03125-35.964844-20.152344-51.390625-9.640625-18.308594-20.746094-33.082031-32.871094-44.007813 70.988281 19.039063 126.882813 75.347657 145.300781 146.574219zm-251.34375-146.574219c-12.125 10.925782-23.230468 25.699219-32.871093 44.007813-8.121094 15.425781-14.878907 32.730469-20.152344 51.390625-17.253906 4.96875-33.304687 11.191406-47.707031 18.574219-18.613282 9.539062-33.585938 20.558593-44.570313 32.601562 18.417969-71.226562 74.3125-127.535156 145.300781-146.574219zm-145.300781 249.058594c10.984375 12.046875 25.957031 23.066406 44.570313 32.605469 14.402344 7.382813 30.453125 13.601563 47.707031 18.574219 5.273437 18.660156 12.03125 35.964844 20.152344 51.390625 9.640625 18.308593 20.746093 33.082031 32.871093 44.007812-70.988281-19.042969-126.882812-75.347656-145.300781-146.578125zm251.34375 146.578125c12.125-10.925781 23.230469-25.699219 32.871094-44.007812 8.121094-15.425781 14.878906-32.730469 20.152344-51.390625 17.253906-4.96875 33.304687-11.191406 47.710937-18.574219 18.609375-9.539063 33.582032-20.558594 44.570313-32.601563-18.421875 71.226563-74.316407 127.535157-145.304688 146.574219zm0 0" fill="#54a1ff"/><path d="m495.007812 359.453125c-4.238281 0-7.675781 3.433594-7.675781 7.671875v64.890625c0 14.089844-11.464843 25.554687-25.554687 25.554687h-11.664063l7.425781-7.425781c2.996094-2.996093 2.996094-7.855469 0-10.851562-2.996093-2.996094-7.855468-2.996094-10.851562 0l-19.621094 19.617187c-2.019531 1.382813-3.34375 3.703125-3.34375 6.332032 0 .03125.003906.0625.003906.09375s-.003906.0625-.003906.097656c0 2.035156.808594 3.984375 2.25 5.425781l20.339844 20.335937c1.496094 1.496094 3.460938 2.246094 5.425781 2.246094 1.960938 0 3.925781-.75 5.425781-2.246094 2.996094-2.996093 2.996094-7.855468 0-10.851562l-7.429687-7.425781h12.042969c22.554687 0 40.902344-18.347657 40.902344-40.898438v-64.890625c0-4.242187-3.433594-7.675781-7.671876-7.675781zm0 0" fill="#d2555f"/><path d="m98.226562 34.109375-20.339843-20.335937c-2.996094-2.996094-7.855469-2.996094-10.855469 0-2.996094 2.996093-2.996094 7.855468 0 10.851562l7.429688 7.425781h-12.039063c-22.554687 0-40.90625 18.347657-40.90625 40.898438v64.894531c0 4.234375 3.4375 7.671875 7.675781 7.671875 4.238282 0 7.671875-3.4375 7.671875-7.671875v-64.894531c0-14.089844 11.464844-25.550781 25.558594-25.550781h11.664063l-7.429688 7.425781c-2.996094 2.996093-2.996094 7.855469 0 10.851562 1.5 1.496094 3.464844 2.246094 5.429688 2.246094 1.960937 0 3.925781-.75 5.425781-2.246094l19.621093-19.621093c2.015626-1.382813 3.339844-3.703126 3.339844-6.332032 0-.03125-.003906-.058594-.003906-.089844.023438-1.996093-.71875-4-2.242188-5.523437zm0 0" fill="#87b45f"/><path d="m446.898438 64.476562c-41.585938-41.578124-96.875-64.476562-155.679688-64.476562-5.683594 0-11.328125.21875-16.933594.640625 31.203125 6.617187 60.007813 19.71875 84.941406 37.824219-4.785156-6.070313-9.792968-11.464844-14.988281-16.144532 70.988281 19.039063 126.882813 75.347657 145.300781 146.574219-10.984374-12.042969-25.957031-23.0625-44.566406-32.601562-3.746094-1.921875-7.609375-3.757813-11.570312-5.519531 2.957031 6.800781 5.585937 13.777343 7.867187 20.910156 31.757813 17.019531 50.644531 38.296875 54.15625 60.78125h-43.648437c.085937 2.550781.144531 5.105468.144531 7.671875 0 2.570312-.058594 5.125-.144531 7.675781h43.648437c-3.511719 22.484375-22.398437 43.757812-54.15625 60.78125-2.28125 7.132812-4.910156 14.105469-7.867187 20.910156 3.960937-1.761718 7.824218-3.601562 11.570312-5.519531 18.609375-9.539063 33.582032-20.558594 44.566406-32.601563-18.417968 71.226563-74.3125 127.535157-145.300781 146.574219 5.199219-4.679687 10.203125-10.074219 14.992188-16.144531-24.9375 18.105469-53.742188 31.207031-84.945313 37.824219 5.605469.421875 11.25.640625 16.933594.640625 58.804688 0 114.09375-22.898438 155.679688-64.476563 41.582031-41.578125 64.484374-96.863281 64.484374-155.664062s-22.902343-114.082031-64.484374-155.660157zm0 0" fill="#4a7fdd"/><path d="m367.332031 512h-331.578125c-19.746094 0-35.753906-16.003906-35.753906-35.746094v-290.65625c0-3.644531 2.953125-6.597656 6.597656-6.597656h139.722656c2.203126 0 4.261719 1.101562 5.484376 2.933594l19.449218 29.132812c1.222656 1.832032 3.28125 2.933594 5.484375 2.933594h219.753907c3.640624 0 6.59375 2.953125 6.59375 6.59375v255.660156c0 19.742188-16.007813 35.746094-35.753907 35.746094zm0 0" fill="#ffcd74"/><path d="m396.488281 214h-219.75c-2.207031 0-4.261719-1.101562-5.488281-2.933594l-19.445312-29.132812c-1.222657-1.832032-3.28125-2.933594-5.484376-2.933594h-139.722656c-3.644531 0-6.597656 2.953125-6.597656 6.597656v26.199219h96.007812c13.144532 0 25.421876 6.5625 32.722657 17.496094 7.296875 10.933593 19.574219 17.5 32.722656 17.5h169.492187c21.730469 0 39.34375 17.613281 39.34375 39.335937v222.917969c0 .953125-.050781 1.894531-.125 2.828125 18.421876-1.445312 32.921876-16.835938 32.921876-35.625v-255.65625c0-3.640625-2.953126-6.59375-6.597657-6.59375zm0 0" fill="#ffb96a"/><g fill="#ff6469"><path d="m101.265625 402.597656v-91.542968c0-1.785157.796875-3.195313 2.394531-4.230469 1.601563-1.035157 3.480469-1.550781 5.644532-1.550781h49.234374c1.878907 0 3.289063.773437 4.230469 2.324218.941407 1.554688 1.414063 3.410156 1.414063 5.574219 0 2.257813-.496094 4.183594-1.484375 5.78125-.984375 1.601563-2.375 2.398437-4.160157 2.398437h-38.9375v28.210938h21.585938c1.785156 0 3.171875.703125 4.160156 2.117188.988282 1.410156 1.480469 3.148437 1.480469 5.21875 0 1.878906-.492187 3.523437-1.480469 4.9375-.988281 1.40625-2.375 2.113281-4.160156 2.113281h-21.585938v38.648437c0 1.789063-.914062 3.199219-2.75 4.234375-1.832031 1.035157-3.972656 1.550781-6.417968 1.550781-2.539063 0-4.703125-.515624-6.488282-1.550781-1.789062-1.035156-2.679687-2.445312-2.679687-4.234375zm0 0"/><path d="m166.15625 313.246094c0-2.109375.492188-3.960938 1.480469-5.566406.988281-1.605469 2.421875-2.40625 4.304687-2.40625h59.671875c1.878907 0 3.3125.800781 4.300781 2.40625.988282 1.605468 1.484376 3.457031 1.484376 5.566406 0 2.199218-.519532 4.097656-1.554688 5.703125s-2.445312 2.402343-4.230469 2.402343h-20.597656v81.21875c0 1.796876-.917969 3.214844-2.75 4.253907-1.835937 1.039062-3.976563 1.558593-6.417969 1.558593-2.539062 0-4.703125-.519531-6.492187-1.558593-1.785157-1.039063-2.679688-2.457031-2.679688-4.253907v-81.21875h-20.734375c-1.789062 0-3.199218-.777343-4.234375-2.335937-1.035156-1.554687-1.550781-3.480469-1.550781-5.769531zm0 0"/><path d="m247.410156 402.597656v-91.683594c0-1.503906.636719-2.820312 1.90625-3.949218 1.269532-1.128906 2.9375-1.691406 5.007813-1.691406h28.355469c9.683593 0 17.445312 2.5625 23.277343 7.6875 5.828125 5.125 8.746094 13.140624 8.746094 24.046874v.847657c0 11-3.035156 19.089843-9.101563 24.261719-6.066406 5.171874-14.082031 7.757812-24.050781 7.757812h-15.800781v32.722656c0 1.789063-.914062 3.199219-2.75 4.230469-1.835938 1.039063-3.972656 1.554687-6.417969 1.554687-2.539062 0-4.703125-.515624-6.488281-1.554687-1.789062-1.03125-2.683594-2.441406-2.683594-4.230469zm18.339844-47.109375h15.800781c4.703125 0 8.347657-1.363281 10.933594-4.089843 2.585937-2.726563 3.878906-6.769532 3.878906-12.132813v-1.691406c0-5.359375-1.292969-9.402344-3.878906-12.132813-2.585937-2.722656-6.230469-4.089844-10.933594-4.089844h-15.800781zm0 0"/></g></svg>