<svg id="Layer_1" enable-background="new 0 0 512 512" height="512" viewBox="0 0 512 512" width="512" xmlns="http://www.w3.org/2000/svg"><g id="XMLID_1125_"><g id="XMLID_1410_"><path id="XMLID_1408_" d="m228.884 20.233c8.046 8.046 21.091 8.046 29.137 0 13.673-13.673 35.841-13.673 49.514 0 8.046 8.046 21.091 8.046 29.137 0l.123-.123c6.002-6.002 15.985.256 13.199 8.274l-22.314 64.218h-89.567l-22.422-64.079c-2.806-8.021 7.185-14.299 13.193-8.29z" fill="#e2f1a1"/><path id="XMLID_1399_" d="m399.642 166.128-73.526-73.526h-86.442l-73.526 73.526c-64.478 64.478-64.478 169.016 0 233.494 64.477 64.478 169.016 64.478 233.494 0 64.478-64.478 64.478-169.017 0-233.494z" fill="#d8ec84"/></g><path id="XMLID_1411_" d="m98 501.98h194.231c38.565 0 75.61-15.036 103.265-41.914l97.919-95.165c16.199-15.744 8.283-43.19-13.813-47.888-8.779-1.867-17.923.55-24.633 6.51l-98.108 87.134c-16.524 14.675-37.856 22.781-59.955 22.781l-102.386-31.16 93.786 29.823c12.446 3.958 25.986-1.082 32.816-12.214 8.811-14.361 3.256-33.192-11.94-40.47l-70.595-33.812c-28.617-13.706-61.559-15.269-91.345-4.332l-49.043 18.007z" fill="#ffbf9e"/><path id="XMLID_1218_" d="m79.333 345.98h-50.666c-10.309 0-18.667 8.357-18.667 18.667v118.667c0 10.309 8.357 18.667 18.667 18.667h50.667c10.309 0 18.667-8.357 18.667-18.667v-118.667c-.001-10.31-8.358-18.667-18.668-18.667z" fill="#79b2ff"/><g id="XMLID_281_"><path id="XMLID_283_" d="m282.895 216.926c7.262 0 13.169 4.947 13.169 11.027 0 5.522 4.478 10 10 10s10-4.478 10-10c0-13.849-9.752-25.606-23.169-29.583v-1.39c0-5.522-4.478-10-10-10s-10 4.478-10 10v1.39c-13.417 3.978-23.168 15.734-23.168 29.583 0 17.108 14.879 31.026 33.168 31.026 7.262 0 13.169 4.947 13.169 11.027s-5.907 11.026-13.169 11.026c-7.261 0-13.168-4.946-13.168-11.026 0-5.522-4.478-10-10-10s-10 4.478-10 10c0 13.849 9.751 25.605 23.168 29.582v1.39c0 5.522 4.478 10 10 10s10-4.478 10-10v-1.39c13.417-3.977 23.169-15.733 23.169-29.582 0-17.108-14.88-31.027-33.169-31.027-7.261 0-13.168-4.946-13.168-11.026s5.907-11.027 13.168-11.027z"/><path id="XMLID_1217_" d="m510.478 334.044c-3.921-13.596-14.955-23.869-28.795-26.813-8.863-1.887-18.081-.51-25.953 3.674 4.558-28.345 2.164-57.666-7.215-84.997-1.793-5.224-7.482-8.001-12.705-6.213-5.224 1.793-8.005 7.481-6.213 12.705 11.078 32.277 11.168 67.685.315 100.001l-79.691 70.777c-4.917 4.366-10.309 8.068-16.04 11.074 1.62-6.555 1.51-13.496-.436-20.09-3.073-10.414-10.452-19.076-20.244-23.766l-70.596-33.813c-30.864-14.783-66.988-16.493-99.11-4.7l-7.176 2.635c-19.918-56.267-6.054-118.668 36.6-161.321l70.598-70.597h78.157l59.817 59.817c3.906 3.904 10.236 3.904 14.143 0 3.905-3.905 3.905-10.237 0-14.143l-57.154-57.15 20.661-59.458c2.77-7.971-.289-16.667-7.439-21.149-7.148-4.481-16.31-3.442-22.277 2.522l-.123.123c-4.133 4.135-10.861 4.135-14.994 0-17.551-17.549-46.106-17.549-63.657 0-2.002 2.003-4.665 3.105-7.497 3.105s-5.495-1.103-7.497-3.105c-5.973-5.973-15.14-7.007-22.294-2.512-7.153 4.494-10.2 13.202-7.409 21.176l20.751 59.304-67.928 67.927c-25.139 25.14-41.85 56.836-48.324 91.661-5.679 30.54-3.219 61.681 7.076 90.702l-15.765 5.788c-5.246-6.82-13.481-11.228-22.73-11.228h-50.667c-15.807 0-28.667 12.86-28.667 28.667v118.666c0 15.807 12.86 28.667 28.667 28.667h263.564c41.398 0 80.547-15.89 110.234-44.743l97.919-95.165c10.147-9.861 14.014-24.432 10.094-38.028zm-267.025-297.777c8.174 0 15.859-3.183 21.64-8.963 9.752-9.752 25.62-9.752 35.372 0 5.78 5.78 13.466 8.963 21.64 8.963 5.804 0 11.36-1.604 16.164-4.604l-17.7 50.938h-75.359l-17.799-50.861c4.777 2.95 10.287 4.527 16.042 4.527zm-223.453 447.046v-118.666c0-4.779 3.888-8.667 8.667-8.667h50.666c4.779 0 8.667 3.888 8.667 8.667v118.666c0 4.779-3.888 8.667-8.667 8.667h-50.666c-4.779 0-8.667-3.888-8.667-8.667zm466.445-125.583-97.919 95.165c-25.934 25.204-60.132 39.085-96.295 39.085h-185.574c.87-2.736 1.343-5.647 1.343-8.667v-116.979l42.688-15.674c27.087-9.945 57.552-8.503 83.578 3.963l70.596 33.813c4.761 2.28 8.206 6.325 9.7 11.389s.797 10.333-1.964 14.833c-4.436 7.229-13.181 10.481-21.263 7.914l-93.786-29.824c-5.262-1.672-10.886 1.236-12.561 6.5-1.673 5.263 1.236 10.887 6.5 12.561l93.786 29.823c3.863 1.228 7.796 1.818 11.679 1.818.468 0 .934-.028 1.4-.045 24.051-.346 47.136-9.274 65.147-25.271l98.109-87.134c4.317-3.833 10.268-5.405 15.913-4.205 6.703 1.426 11.839 6.208 13.738 12.793 1.9 6.583.1 13.366-4.815 18.142z"/><path id="XMLID_1298_" d="m418.739 198.989c2.63 0 5.21-1.06 7.069-2.93 1.86-1.86 2.931-4.431 2.931-7.07 0-2.63-1.07-5.2-2.931-7.07-1.859-1.859-4.439-2.93-7.069-2.93-2.631 0-5.2 1.07-7.07 2.93-1.86 1.87-2.93 4.44-2.93 7.07 0 2.64 1.069 5.21 2.93 7.07 1.859 1.87 4.439 2.93 7.07 2.93z"/></g></g></svg>