<svg id="Layer_1" enable-background="new 0 0 512 512" height="512" viewBox="0 0 512 512" width="512" xmlns="http://www.w3.org/2000/svg"><g><path d="m266.302 0h-20.604c-15.496 0-28.104 12.607-28.104 28.104s12.607 28.104 28.104 28.104h20.604c15.496 0 28.104-12.607 28.104-28.104s-12.608-28.104-28.104-28.104zm0 41.207h-20.604c-7.226 0-13.104-5.878-13.104-13.104s5.879-13.103 13.104-13.103h20.604c7.226 0 13.104 5.878 13.104 13.104s-5.879 13.103-13.104 13.103z" fill="#ffc328"/><path d="m256 90.05c-8.534 0-15.453-6.918-15.453-15.453v-24.724c0-8.534 6.918-15.453 15.453-15.453 8.534 0 15.453 6.918 15.453 15.453v24.724c0 8.535-6.919 15.453-15.453 15.453z" fill="#43809f"/><circle cx="256" cy="279.468" fill="#ffd54f" r="209.127"/><path d="m256 70.341c-5.198 0-10.35.197-15.453.569 108.281 7.91 193.674 98.258 193.674 208.557s-85.393 200.648-193.674 208.557c5.103.373 10.255.569 15.453.569 115.497 0 209.127-93.629 209.127-209.127s-93.63-209.125-209.127-209.125z" fill="#ffc328"/><circle cx="256" cy="279.468" fill="#a9dbf5" r="178.221"/><path d="m256 101.246c-5.207 0-10.358.238-15.453.678 91.062 7.859 162.769 84.479 162.769 177.544s-71.706 169.684-162.769 177.544c5.095.44 10.246.678 15.453.678 98.272 0 178.221-79.95 178.221-178.221s-79.949-178.223-178.221-178.223z" fill="#88c3e0"/><circle cx="256" cy="279.468" fill="#43809f" r="52.13"/><path d="m450.66 512h-389.32c-14.547 0-26.34-11.793-26.34-26.34v-.034c0-2.503 2.029-4.532 4.532-4.532h432.937c2.503 0 4.532 2.029 4.532 4.532v.034c-.001 14.547-11.794 26.34-26.341 26.34z" fill="#ffd54f"/><path d="m472.473 481.095h-30.837c2.5 0 4.527 2.031 4.527 4.537 0 14.563-11.78 26.369-26.31 26.369h30.837c14.53-.001 26.31-11.807 26.31-26.37 0-2.505-2.027-4.536-4.527-4.536z" fill="#ffc328"/><g fill="#43809f"><path d="m256 119.097c-4.143 0-7.5 3.358-7.5 7.5v9.278c0 4.142 3.357 7.5 7.5 7.5s7.5-3.358 7.5-7.5v-9.278c0-4.142-3.357-7.5-7.5-7.5z"/><path d="m256 408.572c-4.143 0-7.5 3.358-7.5 7.5v9.278c0 4.142 3.357 7.5 7.5 7.5s7.5-3.358 7.5-7.5v-9.278c0-4.142-3.357-7.5-7.5-7.5z"/><path d="m179.301 158.662c1.389 2.406 3.91 3.752 6.502 3.752 1.272 0 2.562-.324 3.743-1.006 3.587-2.071 4.816-6.658 2.745-10.245l-4.639-8.035c-2.07-3.587-6.656-4.818-10.245-2.746-3.587 2.071-4.816 6.658-2.745 10.245z"/><path d="m332.39 393.82c-2.07-3.587-6.657-4.817-10.245-2.746-3.587 2.071-4.816 6.658-2.745 10.245l4.639 8.035c1.389 2.406 3.91 3.752 6.502 3.752 1.272 0 2.562-.324 3.743-1.006 3.587-2.071 4.816-6.658 2.745-10.245z"/><path d="m122.731 208.357 8.035 4.639c1.182.682 2.471 1.006 3.743 1.006 2.592 0 5.113-1.346 6.502-3.752 2.071-3.587.842-8.174-2.745-10.245l-8.035-4.639c-3.589-2.073-8.176-.843-10.245 2.746-2.071 3.588-.841 8.175 2.745 10.245z"/><path d="m388.959 344.743-8.035-4.639c-3.59-2.072-8.175-.842-10.245 2.746-2.071 3.587-.842 8.174 2.745 10.245l8.035 4.639c1.182.682 2.471 1.006 3.743 1.006 2.592 0 5.113-1.346 6.502-3.752 2.071-3.587.842-8.174-2.745-10.245z"/><path d="m123.401 276.818c0-4.142-3.357-7.5-7.5-7.5h-9.277c-4.143 0-7.5 3.358-7.5 7.5s3.357 7.5 7.5 7.5h9.277c4.143 0 7.5-3.358 7.5-7.5z"/><path d="m405.376 269.318h-9.277c-4.143 0-7.5 3.358-7.5 7.5s3.357 7.5 7.5 7.5h9.277c4.143 0 7.5-3.358 7.5-7.5s-3.357-7.5-7.5-7.5z"/><path d="m131.189 340.526-8.035 4.639c-3.587 2.071-4.816 6.658-2.745 10.245 1.39 2.406 3.91 3.751 6.502 3.751 1.272 0 2.563-.324 3.743-1.006l8.035-4.639c3.587-2.071 4.816-6.658 2.745-10.245-2.072-3.587-6.659-4.816-10.245-2.745z"/><path d="m377.604 214.425c1.272 0 2.563-.324 3.743-1.006l8.034-4.639c3.588-2.071 4.816-6.658 2.745-10.246-2.072-3.587-6.659-4.816-10.245-2.745l-8.034 4.639c-3.588 2.071-4.816 6.658-2.745 10.246 1.389 2.406 3.91 3.751 6.502 3.751z"/><path d="m190.277 391.806c-3.589-2.072-8.176-.842-10.245 2.746l-4.639 8.035c-2.071 3.587-.842 8.174 2.745 10.245 1.182.682 2.471 1.006 3.743 1.006 2.592 0 5.113-1.346 6.502-3.752l4.639-8.035c2.072-3.587.842-8.174-2.745-10.245z"/><path d="m335.015 141.114c-3.589-2.072-8.175-.842-10.245 2.746l-4.639 8.035c-2.071 3.587-.842 8.174 2.745 10.245 1.182.682 2.471 1.006 3.743 1.006 2.592 0 5.113-1.346 6.502-3.752l4.639-8.035c2.071-3.588.842-8.174-2.745-10.245z"/></g><path d="m275.589 299.056-39.177-39.177 87.296-51.174c1.984-1.163 4.218 1.071 3.055 3.055z" fill="#f75632"/><path d="m236.411 259.879 39.177 39.177-87.296 51.174c-1.984 1.163-4.218-1.071-3.055-3.055z" fill="#f3f3f3"/></g></svg>