<svg id="Filled" height="512" viewBox="0 0 512 512" width="512" xmlns="http://www.w3.org/2000/svg"><path d="m392 488h-272a48 48 0 0 1 -48-48v-368a48 48 0 0 1 48-48h224l96 96v320a48 48 0 0 1 -48 48z" fill="#8690fa"/><circle cx="256" cy="200" fill="#fff" r="96"/><path d="m72 360h368a0 0 0 0 1 0 0v80a48 48 0 0 1 -48 48h-272a48 48 0 0 1 -48-48v-80a0 0 0 0 1 0 0z" fill="#cfd2fc"/><path d="m440 120h-48a48 48 0 0 1 -48-48v-48z" fill="#cfd2fc"/><path d="m232 232v-64l64 32z" fill="#5153ff"/><path d="m349.657 18.343a8 8 0 0 0 -5.657-2.343h-224a56.063 56.063 0 0 0 -56 56v368a56.063 56.063 0 0 0 56 56h272a56.063 56.063 0 0 0 56-56v-320a8 8 0 0 0 -2.343-5.657zm2.343 24.97 68.687 68.687h-28.687a40.045 40.045 0 0 1 -40-40zm-232-11.313h216v40a56.063 56.063 0 0 0 56 56h40v224h-352v-280a40.045 40.045 0 0 1 40-40zm272 448h-272a40.045 40.045 0 0 1 -40-40v-72h352v72a40.045 40.045 0 0 1 -40 40z"/><path d="m216 416h-16a8 8 0 0 0 0 16h7.049c-2.252 9.217-8.236 16-15.049 16-8.673 0-16-10.991-16-24s7.327-24 16-24a10.71 10.71 0 0 1 4.589 1.057 8 8 0 0 0 6.822-14.473 26.6 26.6 0 0 0 -11.411-2.584c-17.645 0-32 17.944-32 40s14.355 40 32 40 32-17.944 32-40a8 8 0 0 0 -8-8z"/><path d="m280 400a8 8 0 0 0 0-16h-32a8 8 0 0 0 0 16h8v48h-8a8 8 0 0 0 0 16h32a8 8 0 0 0 0-16h-8v-48z"/><path d="m344 384h-32a8 8 0 0 0 -8 8v64a8 8 0 0 0 16 0v-24h8a8 8 0 0 0 0-16h-8v-16h24a8 8 0 0 0 0-16z"/><path d="m178.765 142.42a8 8 0 0 0 11.292-.692 88.911 88.911 0 0 1 10.205-9.829 8 8 0 0 0 -10.145-12.374 105.136 105.136 0 0 0 -12.045 11.6 8 8 0 0 0 .693 11.295z"/><path d="m201.122 279.184a8 8 0 0 0 2.925 10.929 104.005 104.005 0 0 0 15.129 7.178 8 8 0 0 0 5.666-14.963 87.887 87.887 0 0 1 -12.791-6.07 8 8 0 0 0 -10.929 2.926z"/><path d="m221.819 118.266a7.971 7.971 0 0 0 2.848-.527 87.421 87.421 0 0 1 13.585-3.95 8 8 0 1 0 -3.207-15.675 103.393 103.393 0 0 0 -16.077 4.675 8 8 0 0 0 2.851 15.477z"/><path d="m181.648 247.1a8 8 0 1 0 -13.507 8.574 104.5 104.5 0 0 0 10.067 13.357 8 8 0 1 0 11.965-10.631 88.639 88.639 0 0 1 -8.525-11.3z"/><path d="m160.842 184.9a7.99 7.99 0 0 0 9.671-5.872 87.512 87.512 0 0 1 4.466-13.434 8 8 0 0 0 -14.725-6.261 103.59 103.59 0 0 0 -5.284 15.9 8 8 0 0 0 5.872 9.667z"/><path d="m155.021 224.984a8 8 0 0 0 15.536-3.831 88.218 88.218 0 0 1 -2.27-13.973 8 8 0 1 0 -15.947 1.288 104.185 104.185 0 0 0 2.681 16.516z"/><path d="m266.47 112.616a87.821 87.821 0 0 1 13.873 2.793 8 8 0 0 0 4.418-15.378 103.811 103.811 0 0 0 -16.408-3.3 8 8 0 0 0 -1.883 15.889z"/><path d="m266.665 287.361a89.709 89.709 0 0 1 -14.162.571 8 8 0 1 0 -.623 15.988c1.365.053 2.751.08 4.12.08a105.523 105.523 0 0 0 12.583-.754 8 8 0 0 0 -1.918-15.885z"/><path d="m339.438 171.951a8 8 0 0 0 15.166-5.1 103.911 103.911 0 0 0 -6.6-15.385 8 8 0 0 0 -14.147 7.476 87.753 87.753 0 0 1 5.581 13.009z"/><path d="m306.008 272.421a88.161 88.161 0 0 1 -12.246 7.09 8 8 0 1 0 6.873 14.448 104.1 104.1 0 0 0 14.478-8.382 8 8 0 1 0 -9.105-13.156z"/><path d="m344.751 237.527a8 8 0 0 0 -10.8 3.358 88.437 88.437 0 0 1 -7.579 11.966 8 8 0 1 0 12.785 9.619 104.3 104.3 0 0 0 8.956-14.139 8 8 0 0 0 -3.362-10.804z"/><path d="m344 199.786v.214a89.065 89.065 0 0 1 -1.126 14.123 8 8 0 1 0 15.8 2.544 105.119 105.119 0 0 0 1.326-16.667c0-.036 0-.073 0-.109v-.1a8 8 0 0 0 -16 0z"/><path d="m305.854 127.473a88.855 88.855 0 0 1 10.986 8.945 8 8 0 0 0 11.06-11.558 104.765 104.765 0 0 0 -12.97-10.56 8 8 0 0 0 -9.076 13.177z"/><path d="m227.794 161.2a8 8 0 0 0 -3.794 6.8v64a8 8 0 0 0 11.578 7.155l64-32a8 8 0 0 0 0-14.31l-64-32a8 8 0 0 0 -7.784.355zm12.206 19.744 38.111 19.056-38.111 19.056z"/></svg>