<svg id="Capa_1" enable-background="new 0 0 512 512" height="512" viewBox="0 0 512 512" width="512" xmlns="http://www.w3.org/2000/svg"><path d="m256 22c-135.31 0-245 109.69-245 245h490c0-135.31-109.69-245-245-245z" fill="#6edb9a"/><path d="m365.677.892c-42.976 5.856-47.06 30.221-47.079 39.161-.004 1.875-1.043 3.612-2.728 4.432-22.355 10.875-10.302 63.286-10.302 63.286 2.245.15 4.594 1.059 6.347 1.908.429-2.671 1.13-5.3 2.119-7.842.754-1.937 1.697-3.893 2.874-5.742 2.044-3.207 2.975-6.991 2.698-10.773-.803-10.934-.417-32.479 14.016-38.973 12.227-5.502 27.225-2.316 36.79.865 6.212 2.065 12.94 2.065 19.152 0 9.565-3.181 24.563-6.367 36.79-.865 14.391 6.476 14.818 27.917 14.023 38.88-.276 3.812.63 7.634 2.69 10.866 1.216 1.908 2.181 3.931 2.947 5.929.952 2.484 1.629 5.049 2.047 7.655 2.209-1.07 5.366-2.236 8.067-1.854.331-11.46 1.388-23.815 1.388-23.815 12.738-62.375-45.566-89.423-91.839-83.118z" fill="#0052a9"/><path d="m365.677.892c-42.976 5.856-47.06 30.221-47.079 39.161-.004 1.875-1.042 3.612-2.728 4.432-22.355 10.875-10.302 63.286-10.302 63.286 2.245.15 4.595 1.059 6.347 1.908.429-2.671 1.13-5.3 2.119-7.842.754-1.937 1.697-3.893 2.875-5.742 2.044-3.207 2.976-6.991 2.698-10.773-.804-10.934-.416-32.479 14.016-38.973 11.122-5.005 24.525-2.818 34.058.011-.179-.237-.341-.476-.524-.712-21.482-27.567-1.48-44.756-1.48-44.756z" fill="#003370"/><path d="m501 267c0-.891-.024-1.776-.034-2.665-45.697-19.997-51.393-19.131-56.433-20.814.159.157.302.332.408.542-.187 1.564.816 1.307-2.857 10.752-7.615 18.894-21.459 35.486-37.503 48.174-1.621 1.28-3.863 1.365-5.582.218-2.767-1.848-7.638 15.606-7.374 20.56.094 2.971.023-.565.048 39.816 0 1.591-1.318 2.885-2.938 2.885-.135 0-16.98 0-16.469 0-1.619 0-2.938-1.294-2.938-2.885.024-40.36-.046-36.853.047-39.812-.001-.033-.002-.09-.002-.123-.681-8.731-4.871-22.11-7.371-20.441-1.718 1.147-3.961 1.062-5.582-.218-16.044-12.688-29.889-29.28-37.503-48.174-3.674-9.445-2.67-9.188-2.857-10.752.106-.21.249-.384.408-.542-5.288 1.765-11.297.725-63.455 23.911-2.535.994-3.995 1.761-5.09 2.282l.006.011c-42.314 21.783-35.049 89.355-35.049 89.355-3.754 13.492-5.802 60.981-6.789 75.391-.661 9.643 7.01 17.815 16.676 17.815h193.534c51.878-44.923 84.699-111.272 84.699-185.286z" fill="#e779b5"/><path d="m262.622 361.35c-.337-15.929 1.916-54.662 30.291-69.27l-.004-.01c5.512-2.625 25.843-11.428 37.792-15.935-4.739-6.679-8.76-13.814-11.785-21.32-3.674-9.445-2.67-9.188-2.858-10.752.106-.21.248-.384.407-.542-5.288 1.765-11.297.725-63.455 23.911-2.535.994-3.995 1.76-5.09 2.282l.006.012c-42.314 21.783-35.049 89.355-35.049 89.355-3.755 13.492-5.802 60.981-6.789 75.391-.661 9.643 7.01 17.814 16.676 17.814h33.811c.666-37.206 6.349-76.751 6.047-90.936z" fill="#e25ca5"/><path d="m332.225 230.207.875 4.815c.001.001.027.113.027.113.253 1.108.542 2.222.857 3.313l.049.165c.105.363.217.733.331 1.095l.069.22c.121.38.246.766.382 1.17l.046.133c2.88 8.459 9.173 20.789 22.782 31.486 3.527 2.773 7.383 5.323 11.458 7.577 1.831 1.012 3.164 2.552 3.857 4.452.046.126.116.243.204.343 2.089 2.351 4.086 4.936 5.934 7.683.398.591 1.378.591 1.774 0 1.84-2.738 3.842-5.326 5.948-7.695.09-.1.159-.217.204-.342.696-1.896 2.028-3.432 3.852-4.441 29.266-16.187 35.559-40.046 36.898-50.262-3.582-8.201-4.726-18.34-4.994-26.122-4.322 5.035-8.858 9.245-13.193 12.611-8.445 6.558-18.865 10.119-29.598 10.119s-21.154-3.562-29.598-10.119c-4.335-3.366-8.871-7.577-13.193-12.611-.268 7.782-1.413 17.922-4.994 26.123z" fill="#fca870"/><path d="m357.642 272.717c3.527 2.773 7.383 5.323 11.458 7.577 1.831 1.012 3.164 2.552 3.857 4.452.046.126.116.243.204.343 2.089 2.351 4.086 4.936 5.934 7.683.398.591 1.378.591 1.774 0 1.84-2.738 3.842-5.326 5.948-7.695.09-.1.159-.217.204-.342.696-1.896 2.028-3.432 3.852-4.441 29.266-16.187 35.559-40.046 36.898-50.262-3.582-8.201-4.726-18.34-4.994-26.122-4.322 5.035-8.858 9.245-13.193 12.611-8.445 6.558-18.865 10.119-29.598 10.119s-21.154-3.562-29.598-10.119c-4.335-3.366-8.871-7.577-13.193-12.611-.268 7.782-1.413 17.922-4.994 26.123.596 1.566 2.432 24.597 25.441 42.684z" fill="#fca870"/><path d="m350.39 216.521c-4.334-3.366-8.871-7.577-13.193-12.611-.268 7.782-1.413 17.922-4.994 26.123 1.287 3.686 2.718 24.671 25.204 42.492.303-.211.603-.425.896-.647 21.172-15.986 21.685-45.238 21.685-45.238-10.733 0-21.153-3.562-29.598-10.119z" fill="#f9955f"/><path d="m460.96 109.313c-3.347-3.068-10.015-1.513-12.897.366.632 3.933.667 7.956.122 11.929l-3.402 24.777c0 1.997-.063 3.957-.178 5.882 8.295 2.502 12.416-4.945 13.11-10.056.299-2.2.787-4.368 1.465-6.484 2.206-6.891 10.166-18.728 1.78-26.414z" fill="#fca870"/><path d="m454.592 131.898c-2.796 0-5.377-.9-7.489-2.412l-2.321 16.9c0 1.997-.063 3.957-.178 5.882 8.295 2.502 12.416-4.945 13.11-10.056.298-2.2.787-4.368 1.464-6.484.545-1.7 1.44-3.703 2.352-5.868-2.004 1.284-4.381 2.038-6.938 2.038z" fill="#f9955f"/><path d="m299.016 109.313c3.347-3.068 10.015-1.513 12.897.366-.632 3.933-.668 7.956-.122 11.929l3.402 24.777c0 1.997.063 3.957.179 5.882-8.295 2.502-12.416-4.945-13.11-10.056-.299-2.2-.787-4.368-1.465-6.484-2.206-6.891-10.167-18.728-1.781-26.414z" fill="#fca870"/><path d="m312.873 129.485c-2.113 1.513-4.693 2.412-7.489 2.412-2.557 0-4.934-.754-6.939-2.038.913 2.166 1.808 4.168 2.353 5.868.677 2.116 1.166 4.284 1.464 6.484.694 5.111 4.815 12.558 13.11 10.056-.116-1.925-.179-3.885-.179-5.882z" fill="#f9955f"/><path d="m380.739 293.312c-5.833-9.015-11.583-13.749-11.583-13.749l-14.859 23.865c10.704 6.89 12.616 23.721 12.957 29.144.888-17.428 7.489-30.673 13.485-39.26z" fill="#c6237c"/><path d="m392.647 367.338v-33.043s.186-22.599 13.031-30.867l-14.858-23.865s-23.677 19.455-23.677 54.732v33.043z" fill="#dd3f95"/><path d="m369.618 279.358c-29.633-16.389-35.345-40.789-36.44-50.135-.194-1.655-2.11-2.473-3.454-1.488l-20.059 14.706c-1.071.785-1.584 2.139-1.261 3.427 7.98 31.766 33.636 54.96 44.945 63.901 2.878 2.276 7.077 1.616 9.126-1.428 2.897-4.306 6.995-10.395 10.377-15.421 3.158-4.692 1.716-10.824-3.234-13.562z" fill="#e25ca5"/><path d="m358.304 271.878c-19.847-15.601-24.187-34.649-25.126-42.654-.194-1.655-2.11-2.473-3.454-1.487l-20.059 14.706c-1.071.785-1.584 2.14-1.261 3.427 5.107 20.328 17.449 37.136 28.641 48.954 8.885-29.166 18.794-24.649 21.259-22.946z" fill="#dd3f95"/><path d="" fill="#dd3f95"/><g fill="#e25ca5"><path d="m450.31 242.443-20.059-14.706c-1.344-.986-3.26-.167-3.454 1.488-1.096 9.345-6.807 33.745-36.441 50.135-4.95 2.738-6.392 8.87-3.234 13.563 3.382 5.026 7.48 11.115 10.377 15.421 2.049 3.044 6.247 3.704 9.126 1.428 11.309-8.941 36.965-32.136 44.945-63.901.324-1.289-.189-2.644-1.26-3.428z"/><circle cx="381.105" cy="324.661" r="5.01"/><circle cx="379.988" cy="349.513" r="5.01"/></g><path d="m446.513 101.833c-.845-2.206-1.853-4.233-2.995-6.025-1.953-3.063-2.879-6.806-2.609-10.541.864-11.92.149-32.887-14.336-39.406-12.166-5.473-26.932-2.562-37.176.845-6.068 2.02-12.751 2.018-18.818 0-10.245-3.407-25.011-6.321-37.176-.845-6.229 2.803-16.374 11.663-14.33 39.501.27 3.667-.659 7.377-2.615 10.447-1.109 1.74-2.092 3.703-2.922 5.834-2.43 6.242-3.216 13.169-2.274 20.033l3.397 24.709c0 40.921 24.759 64.564 35.403 72.829 8.496 6.599 19.124 10.233 29.926 10.233 10.801 0 21.429-3.634 29.925-10.233 10.645-8.266 35.403-31.909 35.398-72.756l3.402-24.777c.933-6.795.173-13.659-2.2-19.848z" fill="#f9bd91"/><path d="m378.634 219.214c-7.574-8.266-25.19-31.908-25.19-72.829l-2.417-24.709c-.67-6.864-.111-13.791 1.617-20.033.591-2.131 1.29-4.094 2.079-5.834 1.392-3.069 2.052-6.78 1.861-10.447-1.455-27.838 5.764-36.697 10.196-39.501.124-.078.251-.138.375-.213-9.943-2.871-22.881-4.681-33.753.213-6.23 2.803-16.374 11.663-14.33 39.501.27 3.667-.659 7.377-2.615 10.447-1.109 1.74-2.092 3.703-2.922 5.834-2.43 6.242-3.216 13.169-2.274 20.033l3.397 24.709c0 40.921 24.759 64.564 35.404 72.829 8.496 6.599 19.124 10.233 29.926 10.233 3.938 0 7.852-.489 11.649-1.422-4.708-1.627-9.162-4.618-13.003-8.811z" fill="#fca870"/><path d="m116.677.892c-42.976 5.856-47.06 30.221-47.079 39.161-.004 1.875-1.043 3.612-2.728 4.432-22.354 10.875-10.302 63.286-10.302 63.286 2.245.15 4.594 1.059 6.347 1.908.429-2.671 1.13-5.3 2.119-7.842.754-1.937 1.696-3.893 2.874-5.742 2.045-3.207 2.975-6.991 2.698-10.773-.803-10.934-.416-32.479 14.016-38.973 12.227-5.502 27.226-2.316 36.79.865 6.212 2.065 12.94 2.065 19.152 0 9.565-3.181 24.563-6.367 36.79-.865 14.391 6.476 14.818 27.917 14.023 38.88-.276 3.812.63 7.634 2.69 10.866 1.216 1.908 2.181 3.931 2.947 5.929.952 2.484 1.629 5.049 2.047 7.655 2.209-1.07 5.366-2.236 8.067-1.854.331-11.46 1.388-23.815 1.388-23.815 12.738-62.375-45.566-89.423-91.839-83.118z" fill="#0052a9"/><path d="m116.677.892c-42.976 5.856-47.06 30.221-47.079 39.161-.004 1.875-1.042 3.612-2.728 4.432-22.355 10.875-10.302 63.286-10.302 63.286 2.245.15 4.595 1.059 6.347 1.908.429-2.671 1.13-5.3 2.119-7.842.754-1.937 1.697-3.893 2.874-5.742 2.045-3.207 2.976-6.991 2.698-10.773-.803-10.933-.416-32.478 14.016-38.972 11.123-5.005 24.525-2.818 34.058.011-.179-.237-.341-.476-.524-.712-21.481-27.568-1.479-44.757-1.479-44.757z" fill="#003370"/><path d="m299.123 359.081s7.264-67.572-35.05-89.355l.005-.011c-1.095-.521-2.554-1.288-5.089-2.282-52.158-23.186-58.168-22.147-63.455-23.911.159.157.302.332.408.542-.187 1.564.816 1.307-2.857 10.752-7.615 18.894-21.459 35.486-37.503 48.174-1.621 1.28-3.864 1.365-5.582.218-2.767-1.848-7.638 15.606-7.374 20.56.094 2.971.023-.565.048 39.816 0 1.591-1.318 2.885-2.938 2.885-.136 0-16.98 0-16.469 0-1.619 0-2.938-1.294-2.938-2.885.025-40.36-.046-36.853.048-39.812-.001-.033-.002-.09-.002-.123-.681-8.731-4.872-22.11-7.371-20.441-1.718 1.147-3.961 1.062-5.582-.218-16.044-12.688-29.889-29.28-37.503-48.174-3.674-9.445-2.67-9.188-2.857-10.752.106-.21.248-.384.408-.542-5.04 1.682-10.737.816-56.433 20.814-.013.888-.037 1.773-.037 2.664 0 74.014 32.821 140.363 84.701 185.286h193.535c9.666 0 17.337-8.171 16.675-17.815-.987-14.408-3.034-61.897-6.788-75.39z" fill="#fce453"/><path d="m18.127 325.826c4.098-13.365 11.738-26.513 25.787-33.746l-.004-.01c5.511-2.625 25.843-11.428 37.792-15.935-4.739-6.679-8.76-13.814-11.784-21.32-3.674-9.445-2.67-9.188-2.858-10.752.106-.21.248-.384.408-.542-5.04 1.682-10.736.816-56.433 20.814-.011.889-.035 1.774-.035 2.665 0 20.281 2.481 39.979 7.127 58.826z" fill="#ffc533"/><path d="m83.226 230.207.875 4.815c.001.001.027.113.027.113.254 1.108.542 2.222.857 3.313l.049.165c.105.363.217.733.331 1.095l.069.22c.121.38.246.766.382 1.17l.046.133c2.881 8.459 9.173 20.789 22.782 31.486 3.527 2.773 7.383 5.323 11.458 7.577 1.831 1.012 3.164 2.552 3.857 4.452.046.126.116.243.205.343 2.089 2.351 4.086 4.936 5.934 7.683.399.591 1.378.591 1.774 0 1.84-2.738 3.842-5.326 5.948-7.695.09-.1.159-.217.205-.342.696-1.896 2.028-3.432 3.852-4.441 29.266-16.187 35.559-40.046 36.898-50.262-3.582-8.201-4.726-18.34-4.994-26.122-4.322 5.035-8.858 9.245-13.193 12.611-8.445 6.558-18.865 10.119-29.598 10.119s-21.154-3.562-29.598-10.119c-4.335-3.366-8.871-7.577-13.193-12.611-.268 7.782-1.412 17.922-4.994 26.123z" fill="#fca870"/><path d="m108.642 272.717c3.527 2.773 7.383 5.323 11.458 7.577 1.831 1.012 3.164 2.552 3.857 4.452.046.126.116.243.205.343 2.089 2.351 4.086 4.936 5.934 7.683.399.591 1.378.591 1.774 0 1.84-2.738 3.842-5.326 5.948-7.695.09-.1.159-.217.205-.342.696-1.896 2.028-3.432 3.852-4.441 29.266-16.187 35.559-40.046 36.898-50.262-3.582-8.201-4.726-18.34-4.994-26.122-4.322 5.035-8.858 9.245-13.193 12.611-8.445 6.558-18.865 10.119-29.598 10.119s-21.154-3.562-29.598-10.119c-4.335-3.366-8.871-7.577-13.193-12.611-.268 7.782-1.412 17.922-4.994 26.123.594 1.566 2.431 24.597 25.439 42.684z" fill="#fca870"/><path d="m101.391 216.521c-4.335-3.366-8.871-7.577-13.193-12.611-.268 7.782-1.413 17.922-4.994 26.123 1.287 3.686 2.718 24.671 25.204 42.492.303-.211.603-.425.896-.647 21.172-15.986 21.685-45.238 21.685-45.238-10.733 0-21.154-3.562-29.598-10.119z" fill="#f9955f"/><path d="m211.96 109.313c-3.347-3.068-10.015-1.513-12.898.366.632 3.933.668 7.956.122 11.929l-3.402 24.777c0 1.997-.063 3.957-.178 5.882 8.295 2.502 12.416-4.945 13.11-10.056.299-2.2.787-4.368 1.465-6.484 2.207-6.891 10.167-18.728 1.781-26.414z" fill="#fca870"/><path d="m205.592 131.898c-2.796 0-5.377-.9-7.489-2.412l-2.321 16.9c0 1.997-.063 3.957-.178 5.882 8.295 2.502 12.416-4.945 13.11-10.056.298-2.2.787-4.368 1.465-6.484.545-1.7 1.44-3.703 2.352-5.868-2.004 1.284-4.381 2.038-6.939 2.038z" fill="#f9955f"/><path d="m50.017 109.313c3.347-3.068 10.015-1.513 12.897.366-.632 3.933-.667 7.956-.122 11.929l3.402 24.777c0 1.997.063 3.957.179 5.882-8.296 2.502-12.416-4.945-13.11-10.056-.299-2.2-.787-4.368-1.465-6.484-2.207-6.891-10.167-18.728-1.781-26.414z" fill="#fca870"/><path d="m63.874 129.485c-2.112 1.513-4.693 2.412-7.489 2.412-2.557 0-4.934-.754-6.939-2.038.913 2.166 1.808 4.168 2.352 5.868.677 2.116 1.166 4.284 1.465 6.484.694 5.111 4.815 12.558 13.11 10.056-.116-1.925-.179-3.885-.179-5.882z" fill="#f9955f"/><path d="m131.74 293.312c-5.833-9.015-11.583-13.749-11.583-13.749l-14.859 23.865c10.704 6.89 12.616 23.721 12.957 29.144.888-17.428 7.488-30.673 13.485-39.26z" fill="#f78c2d"/><path d="m143.647 367.338v-33.043s.186-22.599 13.031-30.867l-14.858-23.865s-23.677 19.455-23.677 54.732v33.043z" fill="#f9a52b"/><path d="m120.619 279.358c-29.633-16.389-35.345-40.789-36.44-50.135-.194-1.655-2.11-2.473-3.454-1.488l-20.058 14.706c-1.071.785-1.584 2.139-1.261 3.427 7.98 31.766 33.636 54.96 44.945 63.901 2.878 2.276 7.077 1.616 9.126-1.428 2.897-4.306 6.995-10.395 10.377-15.421 3.157-4.692 1.714-10.824-3.235-13.562z" fill="#ffc533"/><path d="m109.304 271.878c-19.847-15.601-24.187-34.649-25.126-42.654-.194-1.655-2.11-2.473-3.454-1.487l-20.059 14.706c-1.071.785-1.584 2.14-1.261 3.427 5.107 20.328 17.449 37.136 28.641 48.954 8.885-29.166 18.795-24.649 21.259-22.946z" fill="#f9a52b"/><path d="" fill="#f9a52b"/><path d="m201.311 242.443-20.059-14.706c-1.344-.986-3.26-.167-3.454 1.488-1.096 9.345-6.807 33.745-36.441 50.135-4.95 2.738-6.392 8.87-3.234 13.563 3.382 5.026 7.48 11.115 10.377 15.421 2.048 3.044 6.247 3.704 9.126 1.428 11.309-8.941 36.965-32.136 44.945-63.901.324-1.289-.19-2.644-1.26-3.428z" fill="#ffc533"/><circle cx="132.105" cy="324.661" fill="#ffc533" r="5.01"/><circle cx="130.988" cy="349.513" fill="#ffc533" r="5.01"/><path d="m197.514 101.833c-.845-2.206-1.853-4.233-2.995-6.025-1.953-3.063-2.879-6.806-2.609-10.541.864-11.92.149-32.887-14.337-39.406-12.166-5.473-26.932-2.562-37.176.845-6.068 2.02-12.751 2.018-18.818 0-10.245-3.407-25.011-6.321-37.177-.845-6.229 2.803-16.374 11.663-14.33 39.501.27 3.667-.659 7.377-2.615 10.447-1.109 1.74-2.092 3.703-2.922 5.834-2.43 6.242-3.216 13.169-2.274 20.033l3.397 24.709c0 40.921 24.759 64.564 35.403 72.829 8.496 6.599 19.124 10.233 29.925 10.233s21.429-3.634 29.925-10.233c10.645-8.266 35.403-31.909 35.398-72.756l3.402-24.777c.936-6.795.175-13.659-2.197-19.848z" fill="#f9bd91"/><path d="m129.634 219.214c-7.574-8.266-25.19-31.908-25.19-72.829l-2.417-24.709c-.67-6.864-.111-13.791 1.617-20.033.591-2.131 1.29-4.094 2.079-5.834 1.391-3.069 2.052-6.78 1.861-10.447-1.455-27.838 5.764-36.697 10.196-39.501.124-.078.251-.138.375-.213-9.943-2.871-22.881-4.681-33.753.213-6.229 2.803-16.374 11.663-14.33 39.501.27 3.667-.659 7.377-2.615 10.447-1.109 1.74-2.092 3.703-2.922 5.834-2.43 6.242-3.216 13.169-2.274 20.033l3.397 24.709c0 40.921 24.759 64.564 35.404 72.829 8.496 6.599 19.124 10.233 29.925 10.233 3.938 0 7.852-.489 11.649-1.422-4.706-1.627-9.161-4.618-13.002-8.811z" fill="#fca870"/><path d="m241.171 90.606c-42.976 5.856-47.06 30.221-47.079 39.161-.004 1.875-1.043 3.612-2.728 4.432-22.354 10.875-10.302 63.286-10.302 63.286 2.245.15 4.594 1.059 6.347 1.908.429-2.671 1.13-5.3 2.119-7.842.754-1.937 1.697-3.893 2.874-5.742 2.044-3.207 2.975-6.991 2.698-10.773-.803-10.934-.417-32.479 14.016-38.973 12.227-5.502 27.226-2.316 36.79.865 6.212 2.066 12.94 2.066 19.152 0 9.565-3.181 24.563-6.367 36.79-.865 14.391 6.476 14.818 27.917 14.023 38.88-.276 3.811.63 7.634 2.69 10.866 1.216 1.908 2.181 3.931 2.947 5.929.952 2.484 1.629 5.049 2.047 7.655 2.209-1.07 5.366-2.236 8.067-1.854.331-11.46 1.388-23.815 1.388-23.815 12.738-62.375-45.566-89.423-91.839-83.118z" fill="#0052a9"/><path d="m241.171 90.606c-42.976 5.856-47.06 30.221-47.079 39.161-.004 1.875-1.043 3.612-2.728 4.432-22.355 10.875-10.302 63.286-10.302 63.286 2.245.15 4.595 1.059 6.347 1.908.429-2.671 1.13-5.3 2.119-7.842.754-1.937 1.697-3.893 2.874-5.742 2.045-3.207 2.976-6.991 2.698-10.773-.804-10.934-.417-32.479 14.016-38.973 11.122-5.005 24.525-2.818 34.058.011-.179-.237-.34-.476-.524-.712-21.481-27.568-1.479-44.756-1.479-44.756z" fill="#003370"/><path d="m388.567 359.44.005-.012c-1.095-.522-2.554-1.288-5.089-2.282-52.158-23.186-58.168-22.147-63.455-23.911.159.157.302.332.408.542-.187 1.564.816 1.307-2.857 10.751-7.615 18.894-21.459 35.486-37.504 48.174-1.621 1.28-3.863 1.365-5.582.218-2.767-1.848-7.638 15.606-7.374 20.56.094 2.971.023-.565.048 39.816 0 1.591-1.318 2.885-2.938 2.885-.136 0-16.98 0-16.469 0-1.619 0-2.938-1.294-2.938-2.885.025-40.36-.046-36.853.048-39.812-.001-.033-.002-.09-.002-.123-.681-8.731-4.872-22.11-7.371-20.441-1.718 1.147-3.961 1.062-5.582-.218-16.044-12.688-29.889-29.28-37.503-48.174-3.674-9.444-2.67-9.188-2.857-10.751.106-.21.249-.384.408-.542-5.288 1.765-11.297.725-63.455 23.911-2.535.994-3.995 1.76-5.09 2.282l.006.012c-36.646 18.865-36.106 72.065-35.304 85.981 43.848 41.276 102.905 66.579 167.88 66.579 64.968 0 124.02-25.298 167.87-66.567.802-13.898 1.353-67.123-35.303-85.993z" fill="#65d2fc"/><path d="m194.41 344.528c-3.674-9.444-2.67-9.188-2.858-10.751.106-.21.249-.384.408-.542-5.288 1.765-11.297.725-63.455 23.911-2.535.994-3.995 1.76-5.09 2.282l.006.012c-36.646 18.865-36.106 72.065-35.304 85.981 13.985 13.164 29.512 24.709 46.29 34.32 1.79-12.886 3.896-19.896 3.709-28.677-.337-15.929 1.916-54.662 30.291-69.27l-.005-.01c5.512-2.625 25.843-11.428 37.792-15.936-4.738-6.679-8.759-13.814-11.784-21.32z" fill="#33bafe"/><path d="m207.719 319.92.875 4.815c.001.001.027.113.027.113.253 1.108.542 2.222.857 3.313l.049.165c.105.363.217.733.331 1.095l.069.22c.121.38.246.766.382 1.17l.046.133c2.881 8.459 9.173 20.789 22.782 31.487 3.527 2.773 7.383 5.323 11.458 7.577 1.831 1.012 3.164 2.552 3.857 4.452.046.126.116.243.204.343 2.089 2.351 4.086 4.936 5.934 7.683.399.591 1.378.591 1.774 0 1.84-2.737 3.842-5.326 5.948-7.695.09-.1.159-.217.204-.342.696-1.896 2.028-3.432 3.852-4.441 29.266-16.187 35.559-40.046 36.898-50.262-3.582-8.201-4.726-18.34-4.994-26.122-4.322 5.034-8.858 9.245-13.193 12.611-8.445 6.557-18.865 10.119-29.598 10.119s-21.154-3.562-29.598-10.119c-4.335-3.366-8.871-7.577-13.193-12.611-.268 7.782-1.413 17.922-4.994 26.123z" fill="#fca870"/><path d="m233.136 362.43c3.527 2.773 7.383 5.323 11.458 7.577 1.831 1.012 3.164 2.552 3.857 4.452.046.126.116.243.204.343 2.089 2.351 4.086 4.936 5.934 7.683.399.591 1.378.591 1.774 0 1.84-2.737 3.842-5.326 5.948-7.695.09-.1.159-.217.204-.342.696-1.896 2.028-3.432 3.852-4.441 29.266-16.187 35.559-40.046 36.898-50.262-3.582-8.201-4.726-18.34-4.994-26.122-4.322 5.034-8.858 9.245-13.193 12.611-8.445 6.557-18.865 10.119-29.598 10.119s-21.154-3.562-29.598-10.119c-4.335-3.366-8.871-7.577-13.193-12.611-.268 7.782-1.413 17.922-4.994 26.123.596 1.566 2.432 24.598 25.441 42.684z" fill="#fca870"/><path d="m225.885 306.234c-4.335-3.366-8.871-7.577-13.193-12.611-.268 7.782-1.413 17.921-4.994 26.123 1.287 3.686 2.718 24.671 25.204 42.492.303-.211.603-.425.896-.647 21.172-15.986 21.685-45.238 21.685-45.238-10.734.001-21.154-3.561-29.598-10.119z" fill="#f9955f"/><path d="m336.454 199.027c-3.347-3.068-10.015-1.513-12.898.366.632 3.933.668 7.956.122 11.93l-3.402 24.777c0 1.997-.063 3.957-.179 5.882 8.295 2.502 12.416-4.945 13.11-10.056.299-2.2.787-4.368 1.465-6.484 2.208-6.892 10.168-18.729 1.782-26.415z" fill="#fca870"/><path d="m330.086 221.611c-2.796 0-5.377-.9-7.489-2.412l-2.321 16.9c0 1.997-.063 3.957-.178 5.882 8.295 2.502 12.416-4.945 13.11-10.056.298-2.2.787-4.368 1.464-6.484.545-1.7 1.44-3.702 2.353-5.868-2.005 1.284-4.382 2.038-6.939 2.038z" fill="#f9955f"/><path d="m174.51 199.027c3.347-3.068 10.015-1.513 12.897.366-.632 3.933-.668 7.956-.122 11.93l3.402 24.777c0 1.997.063 3.957.179 5.882-8.295 2.502-12.416-4.945-13.11-10.056-.299-2.2-.787-4.368-1.465-6.484-2.206-6.892-10.167-18.729-1.781-26.415z" fill="#fca870"/><path d="m188.367 219.199c-2.113 1.513-4.693 2.413-7.489 2.413-2.558 0-4.934-.754-6.939-2.038.913 2.166 1.808 4.168 2.352 5.868.677 2.116 1.166 4.284 1.464 6.484.694 5.111 4.815 12.558 13.11 10.056-.116-1.925-.179-3.885-.179-5.882z" fill="#f9955f"/><path d="m256.233 383.026c-5.833-9.015-11.583-13.749-11.583-13.749l-14.859 23.865c10.704 6.89 12.616 23.721 12.957 29.144.888-17.428 7.489-30.673 13.485-39.26z" fill="#0090fc"/><path d="m268.141 457.052v-33.043s.186-22.6 13.031-30.867l-14.858-23.865s-23.677 19.455-23.677 54.732v33.043z" fill="#00a8fd"/><path d="m245.112 369.072c-29.633-16.389-35.345-40.789-36.44-50.135-.194-1.655-2.11-2.473-3.454-1.488l-20.058 14.706c-1.071.785-1.584 2.14-1.261 3.427 7.98 31.766 33.636 54.96 44.945 63.901 2.878 2.276 7.077 1.616 9.126-1.428 2.897-4.306 6.995-10.395 10.377-15.421 3.157-4.692 1.715-10.824-3.235-13.562z" fill="#33bafe"/><path d="m233.798 361.592c-19.847-15.601-24.187-34.649-25.126-42.654-.194-1.655-2.11-2.473-3.454-1.487l-20.059 14.706c-1.071.785-1.584 2.14-1.261 3.427 5.107 20.328 17.449 37.136 28.641 48.955 8.885-29.167 18.795-24.65 21.259-22.947z" fill="#00a8fd"/><path d="" fill="#00a8fd"/><path d="m325.804 332.156-20.059-14.706c-1.344-.985-3.26-.167-3.454 1.488-1.096 9.345-6.807 33.745-36.44 50.135-4.95 2.738-6.392 8.87-3.234 13.563 3.382 5.026 7.48 11.115 10.377 15.421 2.048 3.044 6.247 3.704 9.126 1.428 11.309-8.942 36.965-32.136 44.945-63.901.324-1.288-.19-2.643-1.261-3.428z" fill="#33bafe"/><circle cx="256.599" cy="414.375" fill="#33bafe" r="5.01"/><circle cx="255.482" cy="439.227" fill="#33bafe" r="5.01"/><path d="m242.637 455.935v9.362c0 2.344 1.925 4.243 4.299 4.243h16.906c2.374 0 4.299-1.9 4.299-4.243v-9.362z" fill="#0090fc"/><path d="m322.008 191.547c-.845-2.206-1.853-4.233-2.995-6.025-1.953-3.063-2.879-6.807-2.609-10.541.863-11.919.149-32.887-14.336-39.406-12.166-5.473-26.932-2.562-37.176.845-6.068 2.02-12.751 2.018-18.818 0-10.245-3.407-25.011-6.321-37.176-.845-6.23 2.803-16.374 11.663-14.33 39.501.27 3.667-.659 7.377-2.615 10.447-1.109 1.74-2.092 3.703-2.922 5.834-2.43 6.242-3.216 13.169-2.274 20.033l3.397 24.709c0 40.921 24.759 64.564 35.403 72.829 8.496 6.599 19.124 10.233 29.925 10.233s21.429-3.634 29.925-10.233c10.645-8.266 35.403-31.909 35.398-72.756l3.402-24.777c.933-6.795.173-13.659-2.199-19.848z" fill="#f9bd91"/><path d="m254.128 308.928c-7.574-8.266-25.19-31.908-25.19-72.829l-2.417-24.709c-.671-6.864-.111-13.791 1.617-20.033.591-2.131 1.29-4.094 2.079-5.834 1.391-3.069 2.052-6.779 1.861-10.447-1.455-27.838 5.764-36.698 10.196-39.501.124-.078.251-.138.375-.213-9.943-2.871-22.881-4.681-33.753.213-6.229 2.803-16.374 11.663-14.33 39.501.27 3.667-.659 7.378-2.615 10.447-1.109 1.74-2.092 3.703-2.922 5.834-2.43 6.242-3.216 13.169-2.274 20.033l3.397 24.709c0 40.921 24.759 64.564 35.404 72.829 8.496 6.599 19.124 10.233 29.925 10.233 3.938 0 7.852-.489 11.649-1.422-4.707-1.628-9.161-4.618-13.002-8.811z" fill="#fca870"/></svg>