<svg id="Layer_1" enable-background="new 0 0 496.01 496.01" height="512" viewBox="0 0 496.01 496.01" width="512" xmlns="http://www.w3.org/2000/svg"><path d="m435.995 441.62-33.99 16.27v14.12c0 13.25-10.75 24-24 24h-260c-13.25 0-24-10.75-24-24v-14.12l-33.99-16.27c-28.5-13.64-43.57-45.37-36.12-76.09l15.19-62.65c5.76-23.76 22.73-43.22 45.49-52.16 1.609-.632 87.349-32.629 87.45-32.73l-11.88-9.38c-15.37-12.15-22.24-32.15-17.56-51.18 11.076-45 6.052-24.583 22.79-92.62 9.35-38.05 43.48-64.8 82.66-64.8 39.16 0 73.26 26.7 82.65 64.72 17.693 71.596 12.18 49.285 22.65 91.66 4.67 18.91-2.07 38.81-17.26 51l-12.53 10.05.46.57 87.43 32.71c22.76 8.94 39.73 28.4 45.49 52.16l15.19 62.65c7.451 30.72-7.62 62.45-36.12 76.09z" fill="#535460"/><path d="m240.405 250.26c-5.08 23.258-18.481 41.252-41.51 52.16-27.54 13.08-61.25 14.23-84.38 36.01-17.24 16.24-33.12 48.2-23.33 117.88-.309-.148-36.286-17.32-36.53-17.56-25-14.87-37.73-44.49-30.76-73.22l15.19-62.65c5.76-23.76 22.73-43.22 45.49-52.16 1.609-.632 87.349-32.629 87.45-32.73 15.816 12.49 34.115 29.793 68.38 32.27z" fill="#5f606e"/><path d="m402.005 298.01v174c0 13.25-10.75 24-24 24h-260c-13.25 0-24-10.75-24-24v-174c0-13.25 10.75-24 24-24h260c13.25 0 24 10.75 24 24z" fill="#fff"/><path d="m402.005 463.68v8.33c0 13.25-10.75 24-24 24h-260c-13.25 0-24-10.75-24-24v-8.33z" fill="#e4e4e4"/><path d="m336.076 207.39c-15.399 12.352-9.351 7.502-26.69 21.4-35.92 28.81-86.98 28.99-123.12.45-17.384-13.733-11.5-9.086-26.12-20.63-15.37-12.15-22.24-32.15-17.56-51.18l8.75-35.55c52.272-56.172 141.37-56.104 193.52.19l8.48 34.32c4.669 18.91-2.071 38.81-17.26 51z" fill="#3e3f47"/><path d="m319.665 100.93-3.17 46.5c-1.58 23.24-13.15 44.65-31.71 58.72l-22.34 16.92c-8.566 6.499-20.434 6.419-28.88 0l-22.34-16.92c-18.56-14.07-30.13-35.48-31.71-58.72l-3.17-46.5c42.614-27.629 98.865-28.762 143.32 0z" fill="#fff"/><path d="m260.056.86c-38.621 16.046-64.058 51.039-68.59 91.64 0 .59-19.961 7.733-40.13 29.38 2.31-9.38 5-20.33 14.04-57.07 10.416-42.391 51.305-70.131 94.68-63.95z" fill="#5f606e"/><path d="m402.005 298.01v165.67h-30.03c1.486-4.412 1.03 10.522 1.03-189.67h5c13.25 0 24 10.75 24 24z" fill="#f2f2f2"/><path d="m402.005 463.68v8.33c0 13.25-10.75 24-24 24h-260c-11.42 0-20.98-7.98-23.39-18.67h258.39c8.83 0 16.32-5.72 18.97-13.66z" fill="#d9d9d9"/><g fill="#42434d"><path d="m266.805 184.02c-14.692 0-14.635.773-18.8-3.396-1.096 1.096-3 3.396-6.71 3.396-17.665 0-13.8 1.604-24.457-9.053-3.125-3.125-3.125-8.189 0-11.314 3.124-3.123 8.189-3.123 11.313 0l4.367 4.367h5.463l4.367-4.367c3.125-3.123 8.19-3.122 11.314 0l4.366 4.367h5.463l4.366-4.367c3.125-3.123 8.189-3.123 11.314 0 3.124 3.125 3.124 8.189 0 11.314-6.606 6.607-8.115 9.053-12.366 9.053z"/><path d="m204.477 123.769c1.266-3.898 5.421-6.65 10.54-4.987 1.103.367 2.264.272 3.237-.243 6.182-3.24 12.363-3.257 17.896-.801 4.039 1.793 5.859 6.52 4.067 10.558s-6.521 5.856-10.557 4.067c-1.477-.657-2.687-.329-3.949.332-9.781 5.174-24.583 1.381-21.234-8.926z"/><path d="m269.92 132.495c-1.116-.594-2.438-.637-3.57-.133-4.042 1.792-8.766-.03-10.557-4.068-4.223-9.515 9.683-16.193 21.938-9.77 1.373.727 2.482.511 3.723.107 4.201-1.362 8.716.935 10.08 5.137 3.163 9.736-10.621 14.497-21.614 8.727z"/><path d="m256.005 208.55v17.99c-5.16 1.83-10.83 1.84-16 0v-17.99c0-4.42 3.58-8 8-8s8 3.58 8 8z"/></g><path d="m286.005 404.57v20.168c0 4.262-3.218 7.982-7.471 8.255-4.66.299-8.529-3.388-8.529-7.983v-11.93c0-2.66-4-2.62-4 0v11.848c0 4.262-3.218 7.982-7.471 8.255-4.66.299-8.529-3.388-8.529-7.983v-11.62c0-3.372-5-3.266-5 0v11.348c0 4.262-3.218 7.982-7.471 8.255-4.66.299-8.529-3.388-8.529-7.983v-12.62c0-2.001-3-1.958-3 0v12.158c0 4.262-3.218 7.982-7.471 8.255-4.66.299-8.529-3.388-8.529-7.983v-20.44c-35.361-33.742-11.954-93.856 36.99-94.74 49.77-.9 75.133 60.225 39.01 94.74z" fill="#f97680"/><path d="m248.005 397.12c-4.257 0-8-3.379-8-8.11 0-4.418 3.582-8 8-8s8 3.582 8 8c0 4.73-3.742 8.11-8 8.11z" fill="#f2616a"/><path d="m226.005 381.01c-8.822 0-16-7.178-16-16s7.178-16 16-16 16 7.178 16 16-7.177 16-16 16zm0-16.011v.011c0-.008 0-.011 0-.011z" fill="#f2616a"/><path d="m270.005 381.01c-8.822 0-16-7.178-16-16s7.178-16 16-16 16 7.178 16 16-7.177 16-16 16zm0-16v.011z" fill="#f2616a"/></svg>