<?xml version="1.0" encoding="UTF-8" standalone="no"?>
<svg width="389" height="391" viewBox="0 0 389 391" fill="none" xmlns="http://www.w3.org/2000/svg">
    <g clip-path="url(#clip0_102_2)">
        <path d="M346.017 196.923L194.471 45.265L42.925 196.923V376.744C42.925 378.489 43.2908 380.149 43.9309 381.661C44.571 383.174 45.4688 384.54 46.6131 385.685C47.7574 386.829 49.1239 387.727 50.6365 388.367C52.149 389.007 53.809 389.373 55.5539 389.373H194.471H333.388C335.133 389.373 336.793 389.007 338.305 388.367C339.818 387.727 341.184 386.829 342.329 385.685C343.473 384.54 344.371 383.174 345.011 381.661C345.651 380.149 346.017 378.489 346.017 376.744V196.923Z" fill="url(#paint0_linear_102_2)"/>
        <path d="M353.17 151.101L207.77 5.47862C205.98 3.68886 203.812 2.275 201.512 1.34352C199.212 0.412032 196.779 -0.0371137 194.247 0.00239634C191.813 0.0370163 189.408 0.525187 187.207 1.45528C185.005 2.38538 183.006 3.75738 181.283 5.47862L35.7725 151.101V204.075L194.471 45.265L353.17 204.075V151.101Z" fill="#F2F2F2"/>
        <path d="M346.017 143.949L207.77 5.47862C205.98 3.68886 203.812 2.275 201.512 1.34352C199.212 0.412032 196.779 -0.0371137 194.247 0.00239634C191.813 0.0370163 189.408 0.525187 187.207 1.45528C185.005 2.38538 183.006 3.75738 181.283 5.47862L42.925 143.949V196.923L194.471 45.265L346.017 196.923V143.949Z" fill="#B3B3B3"/>
        <path d="M55.5419 25.2474C53.797 25.2474 52.1643 25.6404 50.6517 26.2805C49.1392 26.9207 47.7669 27.7879 46.6226 28.9323C45.4782 30.0766 44.5765 31.4489 43.9364 32.9614C43.2963 34.474 42.9377 36.1411 42.9377 37.886V196.918L109.988 129.8V37.886C109.988 36.1411 109.629 34.474 108.989 32.9614C108.349 31.4489 107.447 30.0766 106.303 28.9323C105.158 27.7879 103.786 26.9207 102.274 26.2805C100.761 25.6404 99.0939 25.2474 97.349 25.2474H55.5419Z" fill="#AA0000"/>
        <path d="M194.247 0.00240503C189.378 0.071685 184.728 2.03614 181.283 5.47863L5.48564 181.388C-1.82855 188.702 -1.82855 200.561 5.48564 207.875C12.7998 215.189 24.6585 215.189 31.9727 207.875L194.471 45.265L356.969 207.875C364.284 215.189 376.142 215.189 383.456 207.875C390.771 200.561 390.771 188.702 383.456 181.388L207.77 5.47863C204.189 1.8991 199.31 -0.076625 194.247 0.00240503Z" fill="#4C4C4C"/>
        <path d="M267.338 389.373H121.604V209.552C121.604 207.807 121.969 206.147 122.61 204.634C123.25 203.122 124.148 201.755 125.292 200.611C126.436 199.466 127.803 198.569 129.315 197.929C130.828 197.288 132.488 196.923 134.233 196.923H254.709C256.454 196.923 258.114 197.288 259.627 197.929C261.139 198.569 262.506 199.466 263.65 200.611C264.794 201.755 265.692 203.122 266.332 204.634C266.972 206.147 267.338 207.807 267.338 209.552V389.373Z" fill="url(#paint1_linear_102_2)"/>
        <path d="M145.252 207.938C143.507 207.938 141.84 208.297 140.327 208.937C138.814 209.577 137.442 210.479 136.298 211.623C135.154 212.768 134.286 214.14 133.646 215.652C133.006 217.165 132.613 218.832 132.613 220.577V288.178V290.21H132.923C135.822 301.218 162.261 265.759 194.463 265.759C226.665 265.759 253.138 301.218 256.037 290.21H256.313V288.178V220.577C256.313 218.832 255.954 217.165 255.314 215.652C254.674 214.14 253.772 212.768 252.628 211.623C251.483 210.479 250.111 209.577 248.599 208.937C247.086 208.297 245.419 207.938 243.674 207.938H145.252Z" fill="url(#paint2_linear_102_2)"/>
        <path d="M256.312 293.148C256.312 297.323 254.654 301.327 251.702 304.28C248.749 307.232 244.745 308.891 240.57 308.891C236.394 308.891 232.39 307.232 229.438 304.28C226.485 301.327 224.827 297.323 224.827 293.148C224.827 288.972 226.485 284.968 229.438 282.016C232.39 279.063 236.394 277.405 240.57 277.405C244.745 277.405 248.749 279.063 251.702 282.016C254.654 284.968 256.312 288.972 256.312 293.148Z" fill="#4C4C4C"/>
        <path opacity="0.5" d="M240.575 281.738C234.274 281.738 229.141 286.837 229.141 293.137C229.141 297.424 231.635 301.035 235.134 302.986C234.937 302.632 234.604 302.363 234.445 301.987C233.867 300.622 233.549 299.12 233.549 297.545C233.549 295.97 233.867 294.468 234.445 293.102C235.023 291.737 235.891 290.519 236.924 289.486C237.957 288.454 239.175 287.619 240.54 287.041C241.906 286.464 243.408 286.146 244.983 286.146C246.558 286.146 248.06 286.464 249.425 287.041C249.798 287.199 250.072 287.5 250.424 287.696C248.476 284.188 244.869 281.738 240.575 281.738Z" fill="#E6E6E6"/>
    </g>
    <defs>
        <linearGradient id="paint0_linear_102_2" x1="189.811" y1="389.494" x2="189.811" y2="45.2488" gradientUnits="userSpaceOnUse">
            <stop stop-color="#C9C9C9"/>
            <stop offset="1" stop-color="white"/>
        </linearGradient>
        <linearGradient id="paint1_linear_102_2" x1="189.528" y1="387.919" x2="189.528" y2="196.921" gradientUnits="userSpaceOnUse">
            <stop stop-color="#6A8FC6"/>
            <stop offset="1" stop-color="#97B9EC"/>
        </linearGradient>
        <linearGradient id="paint2_linear_102_2" x1="191.496" y1="209.238" x2="191.496" y2="292.382" gradientUnits="userSpaceOnUse">
            <stop stop-color="white" stop-opacity="0.392157"/>
            <stop offset="1" stop-color="white" stop-opacity="0"/>
        </linearGradient>
        <clipPath id="clip0_102_2">
            <rect width="388.942" height="390.873" fill="white"/>
        </clipPath>
    </defs>
</svg>

