<svg height="512pt" viewBox="-65 0 512 512.00125" width="512pt" xmlns="http://www.w3.org/2000/svg"><g fill-rule="evenodd"><path d="m328.429688 0c-102.21875 0-204.4375 0-306.65625 0-11.984376 0-21.773438 9.753906-21.773438 21.667969v383.019531c0 11.914062 9.789062 21.667969 21.773438 21.667969h22.296874l306.128907-354.019531v-50.667969c0-11.914063-9.816407-21.667969-21.769531-21.667969zm0 0" fill="#c4cccf"/><path d="m301.605469 38.867188h-236.585938c-11.542969 0-20.949219 9.40625-20.949219 20.941406v369.996094c0 11.503906 9.4375 20.90625 20.949219 20.90625h295.027344c11.515625 0 20.953125-9.402344 20.953125-20.90625v-296.113282c0-2.628906 0-5.023437-.027344-7.242187zm0 0" fill="#eceff1"/><path d="m301.605469 38.867188-.058594 66.640624c0 11.507813 9.4375 20.9375 20.949219 20.9375h58.476562c-.292968-17.460937-2.28125-23.15625-16.628906-38.722656l-14.144531-15.386718-13.0625-14.136719c-13.820313-15.039063-15.078125-19.332031-35.53125-19.332031zm0 0" fill="#90a4ae"/></g><path d="m297.042969 231.535156h-190.554688c-4.300781 0-7.785156-3.484375-7.785156-7.785156s3.484375-7.785156 7.785156-7.785156h190.554688c4.300781 0 7.785156 3.484375 7.785156 7.785156s-3.484375 7.785156-7.785156 7.785156zm0 0" fill="#35505c"/><path d="m297.042969 183.382812h-190.554688c-4.300781 0-7.785156-3.488281-7.785156-7.789062s3.484375-7.785156 7.785156-7.785156h190.554688c4.300781 0 7.785156 3.484375 7.785156 7.785156s-3.484375 7.789062-7.785156 7.789062zm0 0" fill="#35505c"/><path d="m350.230469 429.800781c0 11.476563-9.378907 20.882813-20.867188 20.910157h30.683594c11.515625 0 20.953125-9.402344 20.953125-20.910157v-296.113281c0-2.625 0-5.023438-.03125-7.242188h-30.769531c1.519531 100.894532.03125 202.34375.03125 303.355469zm0 0" fill="#c4cccf" fill-rule="evenodd"/><path d="m180.945312 297.601562c-6.050781 0-11.046874 4.585938-11.046874 10.222657v75.75h-14.875c-35.445313 1.753906-36.234376 29.730469-21.59375 48.535156l14.492187 18.601563 36.089844 46.375c16.367187 19.886718 42.78125 19.886718 57.042969 0l36.089843-46.375 14.496094-18.601563c14.640625-18.804687 13.851563-46.78125-21.597656-48.535156h-14.902344v-75.75c0-5.636719-4.96875-10.222657-11.046875-10.222657zm0 0" fill="#8bc34a" fill-rule="evenodd"/><path d="m266.742188 415.640625-14.496094 18.601563-12.828125 16.46875-23.261719 29.875c-8.53125 11.882812-21.359375 16.675781-33.808594 14.367187l1.664063 2.132813c16.367187 19.886718 42.78125 19.886718 57.042969 0l36.089843-46.375 14.496094-18.601563c14.027344-17.988281 13.910156-44.417969-17.242187-48.183594 3.359374 9.753907-.089844 21.960938-7.65625 31.714844zm0 0" fill="#689f38" fill-rule="evenodd"/><path d="m227.730469 135.199219h-121.242188c-4.300781 0-7.785156-3.488281-7.785156-7.789063 0-4.300781 3.484375-7.785156 7.785156-7.785156h121.242188c4.296875 0 7.78125 3.484375 7.78125 7.785156 0 4.300782-3.484375 7.789063-7.78125 7.789063zm0 0" fill="#35505c"/></svg>