<?xml version="1.0" encoding="iso-8859-1"?>
<svg width="145" height="134" viewBox="0 0 145 134" fill="none" xmlns="http://www.w3.org/2000/svg">
    <path fill-rule="evenodd" clip-rule="evenodd"
          d="M114 11H55C43.9543 11 35 19.9543 35 31V58C35 69.0457 43.9543 78 55 78H128V89V102V109.015C128.107 109.323 128.165 109.655 128.165 110V125.932C128.165 128.585 124.975 129.932 123.073 128.082L108.602 114H31C13.8792 114 0 100.121 0 83V59C0 44.2584 10.2897 31.9202 24.0786 28.7756C25.2189 12.693 38.6271 0 55 0H114C131.121 0 145 13.8792 145 31V58V66C145 68.7614 142.761 71 140 71H139C136.239 71 134 68.7614 134 66V58V31C134 19.9543 125.046 11 114 11ZM55 89L116 89V102H31C20.5066 102 12 93.4934 12 83V59C12 50.9786 16.9708 44.1182 24 41.331V58C24 75.1208 37.8792 89 55 89ZM128.035 134C127.917 134 127.859 133.857 127.943 133.775C128.026 133.695 128.165 133.753 128.165 133.869C128.165 133.941 128.107 134 128.035 134Z"
          fill="#007cd3"/>
</svg>
