<?xml version="1.0" encoding="iso-8859-1"?>
<!-- Generator: Adobe Illustrator 19.0.0, SVG Export Plug-In . SVG Version: 6.00 Build 0)  -->
<svg version="1.1" id="Capa_1" xmlns="http://www.w3.org/2000/svg" xmlns:xlink="http://www.w3.org/1999/xlink" x="0px" y="0px"
	 viewBox="0 0 512 512" style="enable-background:new 0 0 512 512;" xml:space="preserve">
<path style="fill:#595A66;" d="M372.364,0H139.636c-19.782,0-34.909,15.127-34.909,34.909v58.182v384
	c0,19.782,15.127,34.909,34.909,34.909h232.727c19.782,0,34.909-15.127,34.909-34.909v-384V34.909
	C407.273,15.127,392.145,0,372.364,0z"/>
<g>
	<path style="fill:#494A52;" d="M395.636,9.309v61.673c0,4.655-5.818,8.145-9.309,5.818l-13.964-6.982v34.909h23.273v372.364
		c0,12.8-10.473,23.273-23.273,23.273H128c-6.982,0-12.8-2.327-18.618-4.655c6.982,9.309,17.455,16.291,30.255,16.291h232.727
		c19.782,0,34.909-15.127,34.909-34.909v-384V34.909C407.273,24.436,402.618,15.127,395.636,9.309z"/>
	<path style="fill:#494A52;" d="M407.273,208.291v-45.382H104.727v45.382c16.291,3.491,33.745,0,46.545-10.473
		c19.782,15.127,50.036,15.127,69.818,0c19.782,15.127,50.036,15.127,69.818,0c19.782,15.127,50.036,15.127,69.818,0
		C373.527,208.291,390.982,211.782,407.273,208.291z"/>
</g>
<path style="fill:#70B7E5;" d="M384,93.091v337.455c0,5.818-4.655,11.636-11.636,11.636H139.636
	c-6.982,0-11.636-4.655-11.636-11.636V93.091c0-5.818,4.655-11.636,11.636-11.636h232.727C379.345,81.455,384,86.109,384,93.091z"/>
<path style="fill:#4C9CD6;" d="M128,162.909v11.636v33.745v222.255c0,5.818,4.655,11.636,11.636,11.636V219.927
	c0-9.309,4.655-17.455,11.636-22.109l0,0c19.782,15.127,50.036,15.127,69.818,0c19.782,15.127,50.036,15.127,69.818,0
	c19.782,15.127,50.036,15.127,69.818,0c6.982,5.818,15.127,8.145,23.273,10.473v-45.382H128z"/>
<circle style="fill:#35363E;" cx="256" cy="477.091" r="11.636"/>
<polygon style="fill:#F26A5F;" points="430.545,139.636 81.455,139.636 139.636,69.818 372.364,69.818 "/>
<polygon style="fill:#F04B4D;" points="372.364,69.818 363.055,69.818 418.909,139.636 430.545,139.636 "/>
<g>
	<polygon style="fill:#FFFFFF;" points="221.091,139.636 151.273,139.636 186.182,69.818 232.727,69.818 	"/>
	<polygon style="fill:#FFFFFF;" points="290.909,139.636 360.727,139.636 325.818,69.818 279.273,69.818 	"/>
</g>
<g>
	<polygon style="fill:#D4E3EE;" points="325.818,69.818 317.673,69.818 349.091,139.636 360.727,139.636 	"/>
	<polygon style="fill:#D4E3EE;" points="223.418,69.818 232.727,69.818 221.091,139.636 209.455,139.636 	"/>
</g>
<path style="fill:#F04B4D;" d="M81.455,139.636v34.909c19.782,15.127,50.036,15.127,69.818,0c19.782,15.127,50.036,15.127,69.818,0
	c19.782,15.127,50.036,15.127,69.818,0c19.782,15.127,50.036,15.127,69.818,0c19.782,15.127,50.036,15.127,69.818,0v-34.909H81.455z
	"/>
<path style="fill:#D4E3EE;" d="M290.909,139.636v34.909c19.782,15.127,50.036,15.127,69.818,0v-34.909H290.909z"/>
<path style="fill:#B0C4D9;" d="M349.091,139.636v20.945c0,9.309-5.818,18.618-15.127,22.109c-4.655,1.164-9.309,2.327-13.964,3.491
	c13.964,1.164,29.091-2.327,40.727-11.636v-34.909H349.091z"/>
<path style="fill:#D4E3EE;" d="M151.273,139.636v34.909c19.782,15.127,50.036,15.127,69.818,0v-34.909H151.273z"/>
<g>
	<polygon style="fill:#90CEF1;" points="372.364,430.545 314.182,430.545 372.364,372.364 	"/>
	<polygon style="fill:#90CEF1;" points="290.909,430.545 372.364,349.091 372.364,325.818 267.636,430.545 	"/>
</g>
<g>
	<path style="fill:#6F707E;" d="M116.364,437.527c0,10.473-4.655,20.945-11.636,27.927l0,0V239.709l0,0
		c6.982,6.982,11.636,17.455,11.636,27.927V437.527z"/>
	<path style="fill:#6F707E;" d="M179.2,11.636c-10.473,0-20.945-4.655-27.927-11.636l0,0h186.182l0,0
		C330.473,6.982,320,11.636,309.527,11.636H179.2z"/>
</g>
<g>
	<path style="fill:#35363E;" d="M285.091,46.545h-58.182c-3.491,0-5.818-2.327-5.818-5.818l0,0c0-3.491,2.327-5.818,5.818-5.818
		h58.182c3.491,0,5.818,2.327,5.818,5.818l0,0C290.909,44.218,288.582,46.545,285.091,46.545z"/>
	<path style="fill:#35363E;" d="M203.636,34.909L203.636,34.909c3.491,0,5.818,2.327,5.818,5.818l0,0
		c0,3.491-2.327,5.818-5.818,5.818l0,0c-3.491,0-5.818-2.327-5.818-5.818l0,0C197.818,37.236,200.145,34.909,203.636,34.909z"/>
</g>
<g>
	<polygon style="fill:#F04B4D;" points="290.909,139.636 279.273,139.636 269.964,69.818 279.273,69.818 	"/>
	<polygon style="fill:#F04B4D;" points="151.273,139.636 139.636,139.636 176.873,69.818 186.182,69.818 	"/>
</g>
<path style="fill:#B0C4D9;" d="M209.455,139.636v20.945c0,9.309-5.818,18.618-15.127,22.109c-4.655,1.164-9.309,2.327-13.964,3.491
	c13.964,1.164,29.091-2.327,40.727-11.636v-34.909H209.455z"/>
<g>
	<path style="fill:#DE333F;" d="M279.273,139.636v20.945c0,9.309-5.818,18.618-15.127,22.109c-4.655,1.164-9.309,2.327-13.964,3.491
		c13.964,1.164,29.091-2.327,40.727-11.636v-34.909H279.273z"/>
	<path style="fill:#DE333F;" d="M418.909,139.636v20.945c0,9.309-5.818,18.618-15.127,22.109c-4.655,1.164-9.309,2.327-13.964,3.491
		c13.964,1.164,29.091-2.327,40.727-11.636v-34.909H418.909z"/>
	<path style="fill:#DE333F;" d="M139.636,139.636v20.945c0,9.309-5.818,18.618-15.127,22.109c-4.655,1.164-9.309,2.327-13.964,3.491
		c13.964,1.164,29.091-2.327,40.727-11.636v-34.909H139.636z"/>
</g>
<g>
	<circle style="fill:#1470B8;" cx="221.091" cy="349.091" r="11.636"/>
	<circle style="fill:#1470B8;" cx="290.909" cy="349.091" r="11.636"/>
	<path style="fill:#1470B8;" d="M323.491,260.655c-2.327-3.491-5.818-4.655-9.309-4.655h-81.455
		c0-19.782-15.127-34.909-34.909-34.909c-6.982,0-11.636,4.655-11.636,11.636s4.655,11.636,11.636,11.636
		c6.982,0,11.636,4.655,11.636,11.636v11.636v46.545c0,6.982,4.655,11.636,11.636,11.636h81.455c5.818,0,10.473-3.491,11.636-9.309
		l11.636-46.545C325.818,266.473,325.818,262.982,323.491,260.655z"/>
</g>
<g>
</g>
<g>
</g>
<g>
</g>
<g>
</g>
<g>
</g>
<g>
</g>
<g>
</g>
<g>
</g>
<g>
</g>
<g>
</g>
<g>
</g>
<g>
</g>
<g>
</g>
<g>
</g>
<g>
</g>
</svg>
