<?xml version="1.0" encoding="iso-8859-1"?>
<!-- Generator: Adobe Illustrator 19.0.0, SVG Export Plug-In . SVG Version: 6.00 Build 0)  -->
<svg version="1.1" id="Capa_1" xmlns="http://www.w3.org/2000/svg" xmlns:xlink="http://www.w3.org/1999/xlink" x="0px" y="0px"
	 viewBox="0 0 512 512" style="enable-background:new 0 0 512 512;" xml:space="preserve">
<rect x="84.65" y="75.755" style="fill:#56B4DD;" width="314.93" height="314.93"/>
<path style="fill:#9DD3EC;" d="M409.8,318.567c-10.217,46.863-47.912,86.414-125.798,86.414v-39.005
	c44.126-17.898,93.372-66.665,125.798-104.917V318.567z"/>
<path style="opacity:0.1;enable-background:new    ;" d="M284.003,365.977v29.145c35.182-13.192,62.478-42.515,72.873-78.968
	C333.414,337.442,307.956,356.261,284.003,365.977z"/>
<path style="fill:#9DD3EC;" d="M74.435,318.567c10.217,46.863,47.912,86.414,125.798,86.414v-39.005
	c-44.126-17.898-93.372-66.665-125.798-104.917C74.435,261.059,74.435,318.567,74.435,318.567z"/>
<path style="opacity:0.1;enable-background:new    ;" d="M127.36,316.153c10.395,36.453,37.691,65.776,72.873,78.968v-29.145
	C176.279,356.261,150.821,337.442,127.36,316.153z"/>
<circle style="fill:#9DD3EC;" cx="242.12" cy="283.365" r="104.78"/>
<g>
	<path style="fill:#4A5058;" d="M176.008,282.676c-4.143,0-7.5-3.358-7.5-7.5v-11.275c0-4.142,3.357-7.5,7.5-7.5s7.5,3.358,7.5,7.5
		v11.275C183.508,279.318,180.15,282.676,176.008,282.676z"/>
	<path style="fill:#4A5058;" d="M308.227,282.676c-4.142,0-7.5-3.358-7.5-7.5v-11.275c0-4.142,3.358-7.5,7.5-7.5
		c4.143,0,7.5,3.358,7.5,7.5v11.275C315.727,279.318,312.37,282.676,308.227,282.676z"/>
	<path style="fill:#4A5058;" d="M261.844,283.804c0,10.742-8.899,19.405-19.726,19.02c-10.314-0.367-18.338-9.156-18.338-19.476
		v-13.387c0-2.866,2.323-5.189,5.189-5.189h27.686c2.866,0,5.189,2.323,5.189,5.189V283.804z"/>
</g>
<path id="SVGCleanerId_0" style="fill:#EEEDED;" d="M53.426,64.217v399.162c0,11.553,9.366,20.919,20.919,20.919H409.89
	c11.553,0,20.919-9.366,20.919-20.919V64.217c0-11.553-9.366-20.919-20.919-20.919H74.345
	C62.792,43.298,53.426,52.663,53.426,64.217z M365.146,375.937H119.089c-11.553,0-20.919-9.366-20.919-20.919V108.961
	c0-11.553,9.366-20.919,20.919-20.919h246.056c11.553,0,20.919,9.366,20.919,20.919v246.057
	C386.065,366.571,376.699,375.937,365.146,375.937z"/>
<g>
	<path id="SVGCleanerId_0_1_" style="fill:#EEEDED;" d="M53.426,64.217v399.162c0,11.553,9.366,20.919,20.919,20.919H409.89
		c11.553,0,20.919-9.366,20.919-20.919V64.217c0-11.553-9.366-20.919-20.919-20.919H74.345
		C62.792,43.298,53.426,52.663,53.426,64.217z M365.146,375.937H119.089c-11.553,0-20.919-9.366-20.919-20.919V108.961
		c0-11.553,9.366-20.919,20.919-20.919h246.056c11.553,0,20.919,9.366,20.919,20.919v246.057
		C386.065,366.571,376.699,375.937,365.146,375.937z"/>
</g>
<g>
	<ellipse style="fill:#9DD3EC;" cx="430.81" cy="283.805" rx="32.426" ry="38.25"/>
	<ellipse style="fill:#9DD3EC;" cx="53.43" cy="283.805" rx="32.426" ry="38.25"/>
</g>
<path style="fill:#4A5058;" d="M384.809,317.857c-4.143,0-7.5-3.358-7.5-7.5c0-16.638,7.414-26.299,15.263-36.526
	c10.984-14.313,23.434-30.536,23.434-74.586c0-4.142,3.357-7.5,7.5-7.5s7.5,3.358,7.5,7.5c0,49.142-15.336,69.126-26.534,83.717
	c-7.06,9.201-12.162,15.849-12.162,27.395C392.309,314.499,388.951,317.857,384.809,317.857z"/>
<path style="fill:#F5A85B;" d="M423.505,162.561l-18.406,36.813c-1.192,2.383-0.249,5.281,2.116,6.508l0,0
	c10.214,5.296,22.366,5.296,32.581,0l0,0c2.365-1.227,3.308-4.125,2.116-6.508L423.505,162.561z"/>
<path style="opacity:0.1;enable-background:new    ;" d="M423.505,162.561l-18.406,36.813c-1.192,2.383-0.249,5.281,2.116,6.508l0,0
	c10.214,5.296,22.366,5.296,32.581,0l0,0c2.365-1.227,3.308-4.125,2.116-6.508L423.505,162.561z"/>
<path style="opacity:0.1;enable-background:new    ;" d="M423.505,162.561l-12.488,24.976c4.081,0.577,8.248,0.881,12.488,0.881
	c4.24,0,8.407-0.305,12.488-0.881L423.505,162.561z"/>
<circle style="fill:#F5A85B;" cx="423.5" cy="92.335" r="88.5"/>
<path style="fill:#FFFFFF;" d="M482.963,70.378c-2.759,0-5.414-1.528-6.724-4.167c-3.862-7.782-9.527-14.746-16.381-20.14
	c-3.255-2.562-3.816-7.277-1.255-10.532c2.561-3.256,7.277-3.816,10.532-1.255c8.591,6.761,15.693,15.495,20.539,25.257
	c1.842,3.71,0.327,8.211-3.383,10.053C485.221,70.127,484.083,70.378,482.963,70.378z"/>
<path style="opacity:0.1;enable-background:new    ;" d="M431.277,173.061c-48.875,0-88.495-39.62-88.495-88.495
	c0-22.459,8.371-42.961,22.158-58.565c-18.353,16.215-29.93,39.922-29.93,66.337c0,48.874,39.621,88.495,88.495,88.495
	c26.415,0,50.122-11.577,66.337-29.93C474.238,164.69,453.736,173.061,431.277,173.061z"/>
<path style="opacity:0.1;enable-background:new    ;" d="M359.043,68.985c2.797,0,5.481-1.572,6.77-4.264
	c1.789-3.736,0.21-8.215-3.526-10.003l-15.084-7.221c-2.527,4.29-4.701,8.811-6.485,13.525l15.092,7.225
	C356.854,68.749,357.957,68.985,359.043,68.985z M364.802,121.415l-19.398,12.561c2.369,4.433,5.103,8.641,8.163,12.584
	l19.387-12.555c3.477-2.251,4.471-6.895,2.22-10.372C372.921,120.156,368.278,119.162,364.802,121.415z M492.631,92.907
	c-4.115-0.488-7.841,2.459-8.324,6.574c-0.482,4.114,2.461,7.841,6.574,8.324l19.34,2.271c0.984-4.835,1.569-9.814,1.729-14.9
	L492.631,92.907z M413.171,4.447c-5.041,0.586-9.952,1.596-14.698,2.993l4.107,20.065c0.727,3.551,3.852,5.998,7.34,5.998
	c0.498,0,1.005-0.05,1.512-0.154c4.058-0.831,6.675-4.793,5.844-8.851L413.171,4.447z M456.375,140.022
	c-3.41,2.351-4.27,7.021-1.918,10.432l12.925,18.751c4.36-2.494,8.488-5.348,12.343-8.522l-12.919-18.742
	C464.456,138.531,459.788,137.671,456.375,140.022z"/>
<g>
	<path style="fill:#E883AB;" d="M75.819,123.425c-2.302-16.527-7.527-30.543-11.499-39.385c-1.966-4.375-8.189-4.375-10.154,0
		c-3.973,8.843-9.197,22.859-11.499,39.385c-16.527,2.302-30.543,7.527-39.386,11.499c-4.375,1.965-4.375,8.189,0,10.154
		c8.843,3.973,22.859,9.197,39.386,11.499c2.302,16.527,7.527,30.543,11.499,39.385c1.965,4.375,8.189,4.375,10.154,0
		c3.973-8.843,9.197-22.859,11.499-39.385c16.527-2.302,30.543-7.526,39.385-11.499c4.375-1.966,4.375-8.189,0-10.154
		C106.362,130.952,92.346,125.728,75.819,123.425z"/>
	<path style="fill:#E883AB;" d="M447.386,408.958c-2.302-16.527-7.526-30.543-11.499-39.385c-1.965-4.375-8.189-4.375-10.154,0
		c-3.973,8.842-9.197,22.859-11.499,39.385c-16.527,2.302-30.543,7.527-39.386,11.499c-4.375,1.966-4.375,8.189,0,10.154
		c8.843,3.973,22.859,9.197,39.386,11.5c2.302,16.526,7.526,30.543,11.499,39.385c1.966,4.375,8.189,4.375,10.154,0
		c3.973-8.842,9.197-22.859,11.499-39.385c16.527-2.302,30.543-7.527,39.386-11.5c4.375-1.965,4.375-8.189,0-10.154
		C477.929,416.484,463.912,411.26,447.386,408.958z"/>
	<path style="fill:#E883AB;" d="M141.443,401.896c1.405,0.84,2.703,1.914,3.835,3.219c5.731,6.606,5.022,16.608-1.585,22.339
		c-19.828,17.202-32.738,41.014-36.351,67.051c-1.202,8.663-9.199,14.711-17.862,13.509c-8.664-1.202-14.711-9.199-13.509-17.862
		c4.666-33.633,21.347-64.395,46.968-86.623C128.241,398.931,135.73,398.48,141.443,401.896z"/>
</g>
<g>
	<path style="fill:#F5A85B;" d="M121.981,354.723c0.877,1.383,1.553,2.926,1.977,4.6c2.147,8.478-2.985,17.091-11.464,19.239
		c-25.447,6.444-47.688,21.904-62.627,43.533c-4.97,7.196-14.833,9.001-22.03,4.031c-7.198-4.97-9.001-14.834-4.031-22.029
		c19.296-27.939,48.032-47.911,80.912-56.237C111.524,346.136,118.416,349.102,121.981,354.723z"/>
	<path style="fill:#F5A85B;" d="M173.192,115.732c-1.337,0.945-2.844,1.698-4.495,2.205c-8.36,2.569-17.22-2.125-19.789-10.485
		c-7.712-25.091-24.268-46.53-46.619-60.365c-7.436-4.603-9.734-14.363-5.13-21.8c4.603-7.438,14.364-9.733,21.8-5.13
		c28.871,17.871,50.259,45.569,60.224,77.991C181.244,104.857,178.627,111.889,173.192,115.732z"/>
</g>
<g>
</g>
<g>
</g>
<g>
</g>
<g>
</g>
<g>
</g>
<g>
</g>
<g>
</g>
<g>
</g>
<g>
</g>
<g>
</g>
<g>
</g>
<g>
</g>
<g>
</g>
<g>
</g>
<g>
</g>
</svg>
