<?xml version="1.0" encoding="iso-8859-1"?>
<!-- Generator: Adobe Illustrator 19.0.0, SVG Export Plug-In . SVG Version: 6.00 Build 0)  -->
<svg version="1.1" id="Capa_1" xmlns="http://www.w3.org/2000/svg" xmlns:xlink="http://www.w3.org/1999/xlink" x="0px" y="0px"
	 viewBox="0 0 464.433 464.433" style="enable-background:new 0 0 464.433 464.433;" xml:space="preserve">
<circle style="fill:#4398D1;" cx="232.052" cy="232" r="232"/>
<circle style="fill:#3570AB;" cx="232.052" cy="232" r="144"/>
<path style="fill:#87CED9;" d="M232.052,0c-128.13,0-232,103.87-232,232s103.87,232,232,232s232-103.87,232-232S360.182,0,232.052,0
	z M48.052,192c0-30.928,25.072-56,56-56s56,25.072,56,56s-25.072,56-56,56S48.052,222.928,48.052,192L48.052,192z M152.052,400
	c-30.928,0-56-25.072-56-56s25.072-56,56-56s56,25.072,56,56S182.98,400,152.052,400z M176.052,96c0-30.928,25.072-56,56-56
	s56,25.072,56,56s-25.072,56-56,56S176.052,126.928,176.052,96z M312.052,400c-30.928,0-56-25.072-56-56s25.072-56,56-56
	s56,25.072,56,56S342.98,400,312.052,400z M368.052,248c-30.928,0-56-25.072-56-56s25.072-56,56-56s56,25.072,56,56
	S398.98,248,368.052,248L368.052,248z"/>
<path style="fill:#3E8CC7;" d="M232.052,272c-22.091,0-40-17.909-40-40s17.909-40,40-40s40,17.909,40,40
	C272.025,254.08,254.132,271.974,232.052,272z M232.052,208c-13.255,0-24,10.745-24,24c0,13.255,10.745,24,24,24
	c13.255,0,24-10.745,24-24C256.052,218.745,245.306,208,232.052,208z"/>
<path style="fill:#3570AB;" d="M232.052,464h232v-80h-56.8C363.252,434.86,299.302,464.061,232.052,464z"/>
<path style="fill:#78C3CF;" d="M411.772,85.32c-6.92,13.344-14.24,25.92-21.728,38.128c37.883,12.088,58.793,52.597,46.705,90.48
	c-12.088,37.883-52.597,58.793-90.48,46.705c-16.768-5.351-30.995-16.658-39.993-31.785c-28.846,28.168-60.782,52.987-95.2,73.984
	c22.866,32.533,15.029,77.442-17.504,100.308s-77.442,15.029-100.308-17.504c-5.235-7.448-9.01-15.821-11.124-24.676
	c-12.28,3.888-24.304,7.424-35.632,10.312c76.686,102.647,222.065,123.693,324.713,47.006s123.693-222.065,47.006-324.713
	C416.137,90.769,413.985,88.02,411.772,85.32z M312.052,416c-39.764,0-72-32.236-72-72s32.235-72,72-72s72,32.236,72,72l0,0
	C384.052,383.764,351.816,416,312.052,416z"/>
<g>
</g>
<g>
</g>
<g>
</g>
<g>
</g>
<g>
</g>
<g>
</g>
<g>
</g>
<g>
</g>
<g>
</g>
<g>
</g>
<g>
</g>
<g>
</g>
<g>
</g>
<g>
</g>
<g>
</g>
</svg>
