<?xml version="1.0" standalone="no"?>
<!DOCTYPE svg PUBLIC "-//W3C//DTD SVG 20010904//EN"
 "http://www.w3.org/TR/2001/REC-SVG-20010904/DTD/svg10.dtd">
<svg version="1.0" xmlns="http://www.w3.org/2000/svg"
 width="360.000000pt" height="116.000000pt" viewBox="0 0 360.000000 116.000000"
 preserveAspectRatio="xMidYMid meet">

<g transform="translate(0.000000,116.000000) scale(0.100000,-0.100000)"
fill="#000000" stroke="none">
<path d="M650 936 l-635 -223 -3 -321 -2 -321 32 -5 c18 -3 287 -17 598 -31
311 -14 584 -28 608 -31 l42 -5 0 580 c0 320 -1 580 -2 580 -2 -1 -289 -101
-638 -223z m430 -100 c7 -9 8 -21 3 -29 -4 -8 -115 -102 -245 -210 l-238 -195
-235 69 c-129 37 -240 71 -245 74 -14 9 -12 31 3 44 11 8 68 -5 237 -54 122
-36 228 -62 234 -58 6 4 88 70 181 148 209 173 275 225 285 225 4 0 13 -7 20
-14z"/>
<path d="M1550 600 c0 -16 -29 -414 -35 -492 l-6 -68 29 0 30 0 7 148 c4 81
10 194 14 252 l7 105 13 -47 c7 -26 43 -138 80 -250 58 -176 70 -203 89 -206
26 -4 20 -19 122 277 l77 223 7 -143 c3 -79 9 -192 13 -251 l6 -108 29 0 c20
0 28 5 28 18 0 42 -32 528 -35 540 -3 6 -20 12 -39 12 l-34 0 -60 -167 c-33
-93 -70 -202 -83 -243 -12 -41 -25 -68 -27 -60 -3 8 -39 116 -81 240 l-76 225
-37 3 c-23 2 -38 -1 -38 -8z"/>
<path d="M2220 588 c-57 -29 -83 -75 -77 -137 7 -61 32 -90 118 -133 133 -67
164 -135 95 -204 -30 -30 -40 -34 -85 -34 -29 0 -68 7 -88 15 -40 17 -38 18
-47 -11 -9 -28 30 -45 114 -51 54 -4 72 -1 109 19 65 34 86 67 86 138 0 77
-20 103 -121 157 -43 23 -89 54 -101 68 -32 37 -30 80 6 116 26 25 37 29 86
29 31 0 65 -5 76 -10 16 -9 21 -7 28 12 12 32 -18 47 -94 48 -44 0 -73 -6
-105 -22z"/>
<path d="M2689 594 c-63 -19 -131 -81 -160 -146 -32 -74 -32 -192 0 -265 27
-61 82 -115 137 -134 49 -17 187 -17 237 0 l37 13 0 134 0 134 -85 0 c-84 0
-85 0 -85 -25 0 -24 3 -25 55 -25 l55 0 0 -95 0 -94 -36 -7 c-64 -12 -144 2
-188 33 -132 93 -119 351 20 418 47 23 151 31 195 16 33 -11 48 -3 49 26 0 32
-147 43 -231 17z"/>
<path d="M3115 591 c-57 -25 -105 -111 -105 -187 0 -132 131 -202 241 -129
l42 27 -7 -33 c-20 -102 -95 -178 -185 -187 -46 -4 -51 -7 -51 -29 0 -24 2
-25 47 -18 104 15 173 70 221 175 33 70 37 208 9 281 -28 72 -66 102 -134 106
-32 1 -67 -1 -78 -6z m116 -41 c57 -31 82 -185 35 -229 -28 -27 -89 -45 -119
-35 -35 10 -66 45 -77 85 -15 56 4 132 42 164 32 27 84 33 119 15z"/>
<path d="M3488 562 c-36 -20 -48 -33 -48 -50 l0 -24 44 26 c25 14 47 26 50 26
3 0 6 -112 6 -250 l0 -250 25 0 25 0 0 275 0 275 -27 0 c-16 0 -49 -13 -75
-28z"/>
</g>
</svg>
