<?xml version="1.0" encoding="iso-8859-1"?>
<!-- Generator: Adobe Illustrator 19.0.0, SVG Export Plug-In . SVG Version: 6.00 Build 0)  -->
<svg version="1.1" id="Capa_1" xmlns="http://www.w3.org/2000/svg" xmlns:xlink="http://www.w3.org/1999/xlink" x="0px" y="0px"
	 viewBox="0 0 386.612 386.612" style="enable-background:new 0 0 386.612 386.612;" xml:space="preserve">
<g>
	<g>
		<path style="fill:#00EFD1;" d="M344.816,110.237v234.58c0,23.083-18.713,41.796-41.796,41.796H83.592
			c-23.083,0-41.796-18.713-41.796-41.796V41.796C41.796,18.713,60.509,0,83.592,0h150.465l3.135,3.135l-2.09,2.09v88.816
			c-0.294,8.363,6.247,15.38,14.61,15.673c0.354,0.012,0.709,0.012,1.064,0h88.816l2.612-2.612L344.816,110.237z"/>
		<path style="fill:#00ACEA;" d="M342.204,107.102l-2.612,2.612h-88.816c-8.363,0.294-15.38-6.247-15.673-14.61
			c-0.012-0.354-0.012-0.709,0-1.064V5.224l2.09-2.09L342.204,107.102z"/>
	</g>
	<g>
		<path style="fill:#3BB54A;" d="M263.314,166.139c-2.077-2.002-5.039-2.792-7.837-2.09l-95.608,19.331
			c-4.944,1.008-8.461,5.405-8.359,10.449v103.967h20.898v-65.829l73.143-15.151v60.082h20.898V173.976
			C266.791,171.002,265.613,168.056,263.314,166.139z"/>
		<g>
			<path style="fill:#00ACEA;" d="M234.58,247.118c-18.169-0.575-33.364,13.688-33.939,31.857s13.688,33.364,31.857,33.939
				s33.364-13.688,33.939-31.857c0.016-0.516,0.021-1.031,0.013-1.547l0,0c0.289-17.599-13.744-32.099-31.343-32.388
				C234.931,247.12,234.755,247.118,234.58,247.118z"/>
			<circle style="fill:#00ACEA;" cx="140.539" cy="298.318" r="32.914"/>
		</g>
	</g>
</g>
<g>
</g>
<g>
</g>
<g>
</g>
<g>
</g>
<g>
</g>
<g>
</g>
<g>
</g>
<g>
</g>
<g>
</g>
<g>
</g>
<g>
</g>
<g>
</g>
<g>
</g>
<g>
</g>
<g>
</g>
</svg>
