<svg height="512" viewBox="0 0 58 58" width="512" xmlns="http://www.w3.org/2000/svg"><g id="Page-1" fill="none" fill-rule="evenodd"><g id="092---Newsletter-Email" fill-rule="nonzero"><path id="Shape" d="m48 15 9.147 6.4c.5353595.3747875.8538455.9874904.853 1.641v31.959c0 1.6568542-1.3431458 3-3 3h-52c-1.65685425 0-3-1.3431458-3-3v-31.959c-.00084555-.6535096.31764048-1.2662125.853-1.641l9.147-6.4z" fill="#f29c1f"/><path id="Shape" d="m48 1v28.97l-12.58 10.03-3.93-3.13c-1.4575726-1.1593611-3.5224274-1.1593611-4.98 0l-3.93 3.13-12.58-10.03v-28.97c0-.55228475.4477153-1 1-1h36c.5522847 0 1 .44771525 1 1z" fill="#ecf0f1"/><path id="Shape" d="m22.58 40-21.6 17.21c-.62568946-.5640679-.98200207-1.3675892-.98-2.21v-31.96c-.00173279-.3027556.07034701-.601372.21-.87l9.79 7.8z" fill="#f0c419"/><path id="Shape" d="m57.02 57.21c-.5494462.5089175-1.2710762.7911391-2.02.79h-52c-.74892382.0011391-1.47055376-.2810825-2.02-.79l21.6-17.21 3.93-3.13c1.4575726-1.1593611 3.5224274-1.1593611 4.98 0l3.93 3.13z" fill="#f3d55b"/><path id="Shape" d="m58 23.04v31.96c.0020021.8424108-.3543105 1.6459321-.98 2.21l-21.6-17.21 12.58-10.03 9.79-7.8c.139653.268628.2117328.5672444.21.87z" fill="#f0c419"/><g fill="#35495e"><path id="Shape" d="m42 8c-.4851707-.00047298-.9000069-.34913653-.9839455-.82699124-.0839386-.47785472.1872399-.94702164.6432053-1.11281187.4559653-.16579023.9651545.01963291 1.2077402.43980311.2843876.45968211.882589.61017004 1.3506397.33977682.4680507-.27039323.6365131-.86378348.3803603-1.33977682-.7279453-1.26083818-2.2560751-1.81702464-3.6241605-1.31906917s-2.1811672 1.90629574-1.9283301 3.34006374c.252837 1.433768 1.4986001 2.47904243 2.9544906 2.47900543.4851707.000473.9000069.3491365.9839455.8269912.0839386.4778548-.1872399.9470217-.6432053 1.1128119-.4559653.1657902-.9651545-.0196329-1.2077402-.4398031-.2843876-.4596821-.882589-.61017-1.3506397-.3397768s-.6365131.8637835-.3803603 1.3397768c.7279453 1.2608382 2.2560751 1.8170246 3.6241605 1.3190692 1.3680854-.4979555 2.1811672-1.9062958 1.9283301-3.3400638-.252837-1.43376797-1.4986001-2.47904238-2.9544906-2.4790054z"/><path id="Shape" d="m36.124 4.008c-.5478221-.06832198-1.0473712.32021625-1.116.868l-.591 4.724-.517-1.047c-.187968-.31527061-.5279475-.50839059-.895-.50839059s-.707032.19311998-.895.50839059l-.527 1.047-.591-4.723c-.036479-.36107035-.265713-.67403786-.5989572-.81774159-.3332443-.14370374-.7181879-.09558579-1.0058053.12572565-.2876173.22131144-.4327598.58107601-.3792375.94001594l1 8c.0545336.4374475.3890877.7875827.8236016.8619589.434514.0743763.8664756-.1445535 1.0633984-.5389589l1.105-2.212 1.1 2.211c.1702259.3406694.5191744.5550788.9.553.0566624-.0000747.1132102-.0050937.169-.015.4339736-.0745069.7681445-.4241073.823-.861l1-8c.068322-.5478221-.3202162-1.04737125-.868-1.116z"/><path id="Shape" d="m18 4c-.5522847 0-1 .44771525-1 1v3.764l-2.1-4.211c-.2040519-.42147024-.6732513-.64490274-1.129074-.53766446-.4558226.10723828-.7761896.51642664-.770926.98466446v8c0 .5522847.4477153 1 1 1s1-.4477153 1-1v-3.764l2.105 4.211c.1694246.3390516.515974.5531766.895.553.0773827-.0003008.154503-.0090187.23-.026.4515461-.1067164.7703755-.510015.77-.974v-8c0-.55228475-.4477153-1-1-1z"/><path id="Shape" d="m26 6c.5522847 0 1-.44771525 1-1s-.4477153-1-1-1h-4c-.5522847 0-1 .44771525-1 1v8c0 .5522847.4477153 1 1 1h4c.5522847 0 1-.4477153 1-1s-.4477153-1-1-1h-3v-2h1c.5522847 0 1-.44771525 1-1s-.4477153-1-1-1h-1v-2z"/></g><rect id="Rectangle-path" fill="#3b97d3" height="6" rx="1" width="30" x="14" y="17"/><path id="Shape" d="m44 28h-30c-.5522847 0-1-.4477153-1-1s.4477153-1 1-1h30c.5522847 0 1 .4477153 1 1s-.4477153 1-1 1z" fill="#547580"/><path id="Shape" d="m41 32h-24c-.5522847 0-1-.4477153-1-1s.4477153-1 1-1h24c.5522847 0 1 .4477153 1 1s-.4477153 1-1 1z" fill="#547580"/><path id="Shape" d="m54 48c-.5522847 0-1-.4477153-1-1v-15c0-.5522847.4477153-1 1-1s1 .4477153 1 1v15c0 .5522847-.4477153 1-1 1z" fill="#f3d55b"/><path id="Shape" d="m4 48c-.55228475 0-1-.4477153-1-1v-15c0-.5522847.44771525-1 1-1s1 .4477153 1 1v15c0 .5522847-.44771525 1-1 1z" fill="#f3d55b"/><path id="Shape" d="m39 55h-20c-.5522847 0-1-.4477153-1-1s.4477153-1 1-1h20c.5522847 0 1 .4477153 1 1s-.4477153 1-1 1z" fill="#f9eab0"/></g></g></svg>