<?xml version="1.0" encoding="iso-8859-1"?>
<!-- Generator: Adobe Illustrator 19.0.0, SVG Export Plug-In . SVG Version: 6.00 Build 0)  -->
<svg version="1.1" id="Layer_1" xmlns="http://www.w3.org/2000/svg" xmlns:xlink="http://www.w3.org/1999/xlink" x="0px" y="0px"
	 viewBox="0 0 512.004 512.004" style="enable-background:new 0 0 512.004 512.004;" xml:space="preserve">
<path style="fill:#E2E7F0;" d="M479.998,0H112.004c-8.84,0-16,7.16-16,16v455.993c0,22.088-17.912,39.999-39.999,39.999h399.994
	c22.088,0,39.999-17.912,39.999-39.999V16C495.998,7.16,488.83,0,479.998,0z"/>
<path style="fill:#C9D5E3;" d="M32.005,143.998c-8.84,0-16,7.16-16,16v311.995c0,22.088,17.912,39.999,39.999,39.999
	s39.999-17.912,39.999-39.999V143.998H32.005z"/>
<path style="fill:#F6B545;" d="M136.004,175.997h135.998c4.416,0,8,3.584,8,8v95.999c0,4.416-3.584,8-8,8H136.004
	c-4.416,0-8-3.584-8-8v-95.999C128.004,179.581,131.58,175.997,136.004,175.997z"/>
<g>
	<path style="fill:#4C9CD6;" d="M136.004,327.995h55.999c4.416,0,8,3.584,8,8v95.999c0,4.416-3.584,8-8,8h-55.999
		c-4.416,0-8-3.584-8-8v-95.999C128.004,331.579,131.58,327.995,136.004,327.995z"/>
	<path style="fill:#4C9CD6;" d="M400,327.995h55.999c4.416,0,8,3.584,8,8v95.999c0,4.416-3.584,8-8,8H400c-4.416,0-8-3.584-8-8
		v-95.999C392,331.579,395.576,327.995,400,327.995z"/>
</g>
<path style="fill:#123247;" d="M376,191.997h-63.999c-4.416,0-8-3.584-8-8c0-4.416,3.584-8,8-8H376c4.416,0,8,3.584,8,8
	C384,188.413,380.416,191.997,376,191.997z"/>
<path style="fill:#576D7E;" d="M455.999,223.997H312.001c-4.416,0-8-3.584-8-8c0-4.416,3.584-8,8-8h143.998c4.416,0,8,3.584,8,8
	C463.999,220.413,460.415,223.997,455.999,223.997z"/>
<path style="fill:#C9D5E3;" d="M455.999,127.998H136.004c-4.416,0-8-3.584-8-8s3.584-8,8-8h319.995c4.416,0,8,3.584,8,8
	S460.415,127.998,455.999,127.998z"/>
<g>
	<path style="fill:#576D7E;" d="M455.999,255.996H312.001c-4.416,0-8-3.584-8-8c0-4.416,3.584-8,8-8h143.998c4.416,0,8,3.584,8,8
		C463.999,252.412,460.415,255.996,455.999,255.996z"/>
	<path style="fill:#576D7E;" d="M455.999,287.996H312.001c-4.416,0-8-3.584-8-8c0-4.416,3.584-8,8-8h143.998c4.416,0,8,3.584,8,8
		C463.999,284.412,460.415,287.996,455.999,287.996z"/>
</g>
<path style="fill:#123247;" d="M288.001,343.995h-55.999c-4.416,0-8-3.584-8-8s3.584-8,8-8h55.999c4.416,0,8,3.584,8,8
	S292.417,343.995,288.001,343.995z"/>
<g>
	<path style="fill:#576D7E;" d="M360,375.994H232.002c-4.416,0-8-3.584-8-8c0-4.416,3.584-8,8-8H360c4.416,0,8,3.584,8,8
		C368,372.41,364.416,375.994,360,375.994z"/>
	<path style="fill:#576D7E;" d="M360,407.994H232.002c-4.416,0-8-3.584-8-8c0-4.416,3.584-8,8-8H360c4.416,0,8,3.584,8,8
		C368,404.41,364.416,407.994,360,407.994z"/>
	<path style="fill:#576D7E;" d="M360,439.993H232.002c-4.416,0-8-3.584-8-8s3.584-8,8-8H360c4.416,0,8,3.584,8,8
		S364.416,439.993,360,439.993z"/>
</g>
<path style="fill:#C9D5E3;" d="M479.998,32v439.993c0,13.256-10.744,24-24,24H142.644c-25.336,0.648-50.407,5.376-74.239,14
	c-4,1.328-8.192,2-12.4,2h399.994c22.088,0,39.999-17.912,39.999-39.999V16l0,0C487.158,16,479.998,23.16,479.998,32z"/>
<path style="fill:#F19920;" d="M216.002,255.996c-27.36,6-47.359-30.64-63.999-39.999c-7.632-3.44-16.368-3.44-24,0v63.999
	c0,4.416,3.584,8,8,8h135.998c4.416,0,8-3.584,8-8v-56.959C260.482,223.997,240.002,250.716,216.002,255.996z"/>
<g>
	<circle style="fill:#3689C9;" cx="164.003" cy="371.994" r="20"/>
	<circle style="fill:#3689C9;" cx="427.991" cy="371.994" r="20"/>
	<path style="fill:#3689C9;" d="M427.999,397.354c-12.72-0.232-25.224,3.24-35.999,10v24.64c0,4.416,3.584,8,8,8h55.999
		c4.416,0,8-3.584,8-8v-24.64C453.223,400.594,440.711,397.122,427.999,397.354z"/>
	<path style="fill:#3689C9;" d="M164.003,397.354c-12.72-0.232-25.224,3.24-35.999,10v24.64c0,4.416,3.584,8,8,8h55.999
		c4.416,0,8-3.584,8-8v-24.64C189.227,400.594,176.715,397.122,164.003,397.354z"/>
</g>
<g>
	<path style="fill:#576D7E;" d="M184.003,39.999c-0.576-2.496,0.976-4.992,3.472-5.568c0.432-0.104,0.88-0.136,1.328-0.112
		c2.248-0.104,4.392,0.952,5.68,2.8l26.56,33.199v-30.96c0.024-2.856,2.2-5.232,5.04-5.52c3,0.184,5.408,2.528,5.68,5.52v45.119
		c0.136,2.632-1.664,4.976-4.24,5.52c-2.48,0.12-4.872-0.912-6.48-2.8l-26.56-33.679v30.96c0.312,2.72-1.648,5.176-4.368,5.488
		c-0.224,0.024-0.448,0.032-0.672,0.032c-2.912,0.088-5.352-2.2-5.44-5.112c-0.008-0.136,0-0.272,0-0.408L184.003,39.999
		L184.003,39.999z"/>
	<path style="fill:#576D7E;" d="M250.242,89.999c-2.696,0.048-4.912-2.104-4.96-4.8c0-0.056,0-0.104,0-0.16V39.519
		c-0.048-2.696,2.104-4.912,4.8-4.96c0.056,0,0.104,0,0.16,0h28.8c2.872,0,5.2,2.328,5.2,5.2s-2.328,5.2-5.2,5.2c0,0,0,0-0.008,0
		h-23.04v12h20.24c2.896-0.36,5.528,1.696,5.888,4.592c0.36,2.896-1.696,5.528-4.592,5.888c-0.432,0.056-0.864,0.056-1.296,0h-20.24
		v12h24c2.896-0.36,5.528,1.696,5.888,4.592c0.36,2.896-1.696,5.528-4.592,5.888c-0.432,0.056-0.864,0.056-1.296,0h-29.76v0.08
		H250.242z"/>
	<path style="fill:#576D7E;" d="M352,70.879l11.92-33.039c0.6-2.808,3.36-4.6,6.168-4c2.808,0.6,4.6,3.36,4,6.168
		c-0.096,0.472-0.264,0.928-0.488,1.352l-16,43.039c-1.44,4.56-2.8,5.92-5.52,5.92c-2.6-0.24-4.752-2.104-5.36-4.64l-13.92-32
		l-12.8,31.52c-0.488,2.84-2.816,5-5.68,5.28c-2.88-0.312-5.168-2.568-5.52-5.44l-15.76-43.679c-0.976-2.72,0.44-5.704,3.16-6.68
		s5.704,0.44,6.68,3.16l11.84,33.039l14.16-33.039c0.576-2.496,3.072-4.048,5.568-3.472c1.728,0.4,3.072,1.744,3.472,3.472
		L352,70.879z"/>
	<path style="fill:#576D7E;" d="M381.68,46.559c1.84-15.52,25.36-18.32,36.399-9.84c2.208,1.416,2.856,4.352,1.44,6.56
		s-4.352,2.856-6.56,1.44l0,0c-5.92-3.76-19.36-5.52-21.04,2.8c-2.16,13.12,32.719,5.6,32,26.96
		c-0.72,21.36-30.08,20.88-41.119,11.68c-2.416-1.96-2.904-5.456-1.12-8c1.544-2.096,4.496-2.552,6.6-1.008
		c0.184,0.136,0.352,0.288,0.52,0.448c6.56,4.48,23.52,8,24.72-3.52C412.559,62.239,379.2,69.359,381.68,46.559z"/>
</g>
<path style="fill:#B0C4D9;" d="M96.004,159.997c-8.84,0-16,7.16-16,16v255.996c0,26.512-21.488,47.999-47.999,47.999l0,0
	c-5.52,0-10,4.48-10,10c0,2.16,0.704,4.272,2,6c13.248,17.68,38.319,21.264,55.999,8.016c7.84-5.872,13.248-14.416,15.2-24.016l0,0
	c0.632-3.16,0.896-6.384,0.8-9.6V159.997z"/>
<g>
</g>
<g>
</g>
<g>
</g>
<g>
</g>
<g>
</g>
<g>
</g>
<g>
</g>
<g>
</g>
<g>
</g>
<g>
</g>
<g>
</g>
<g>
</g>
<g>
</g>
<g>
</g>
<g>
</g>
</svg>
