<svg height="512pt" viewBox="-4 0 512 512" width="512pt" xmlns="http://www.w3.org/2000/svg"><g fill="#95a5a5"><path d="m252.289062 0c-4.875 0-8.828124 3.953125-8.828124 8.828125v25.597656c0 4.878907 3.953124 8.828125 8.828124 8.828125s8.828126-3.949218 8.828126-8.828125v-25.597656c0-4.875-3.953126-8.828125-8.828126-8.828125zm0 0"/><path d="m176.042969 20.71875c-1.015625-3.046875-3.601563-5.300781-6.757813-5.886719-3.15625-.585937-6.382812.585938-8.425781 3.0625-2.042969 2.476563-2.578125 5.867188-1.402344 8.851563l8.75 24.03125c1.011719 3.042968 3.601563 5.296875 6.757813 5.886718 3.15625.585938 6.382812-.585937 8.425781-3.0625 2.042969-2.476562 2.578125-5.867187 1.402344-8.855468zm0 0"/><path d="m100.171875 60.980469c-2.027344-2.414063-5.191406-3.566407-8.296875-3.015625-3.105469.546875-5.683594 2.710937-6.761719 5.675781-1.078125 2.960937-.492187 6.277344 1.535157 8.691406l16.453124 19.589844c3.136719 3.730469 8.707032 4.214844 12.4375 1.078125 3.734376-3.136719 4.214844-8.707031 1.078126-12.4375zm0 0"/><path d="m64.789062 137.550781-22.148437-12.78125c-4.21875-2.398437-9.582031-.941406-12.007813 3.257813-2.425781 4.203125-1.003906 9.578125 3.179688 12.03125l22.148438 12.78125c2.734374 1.601562 6.117187 1.617187 8.863281.039062 2.746093-1.578125 4.4375-4.503906 4.429687-7.671875-.007812-3.167969-1.710937-6.089843-4.464844-7.65625zm0 0"/><path d="m7.339844 221.777344 25.175781 4.410156c.511719.097656 1.027344.144531 1.546875.144531 4.578125 0 8.398438-3.5 8.796875-8.0625s-2.761719-8.671875-7.269531-9.460937l-25.179688-4.414063c-3.105468-.550781-6.269531.601563-8.296875 3.015625-2.0273435 2.417969-2.613281 5.730469-1.535156 8.695313 1.078125 2.964843 3.65625 5.128906 6.761719 5.679687zm0 0"/><path d="m42.746094 292.953125c-.40625-2.316406-1.71875-4.371094-3.644532-5.714844-1.925781-1.34375-4.308593-1.863281-6.621093-1.445312l-25.175781 4.414062c-4.511719.789063-7.667969 4.898438-7.2695318 9.460938.3945318 4.5625 4.2187498 8.0625 8.7968748 8.0625.519531 0 1.035157-.046875 1.542969-.132813l25.179688-4.414062c2.3125-.398438 4.371093-1.703125 5.71875-3.621094 1.351562-1.921875 1.882812-4.300781 1.472656-6.609375zm0 0"/><path d="m55.960938 359.160156-22.148438 12.78125c-2.753906 1.566406-4.457031 4.488282-4.464844 7.65625-.003906 3.167969 1.6875 6.09375 4.433594 7.671875s6.128906 1.5625 8.859375-.039062l22.148437-12.78125c2.753907-1.566407 4.457032-4.488281 4.464844-7.65625.007813-3.167969-1.683594-6.09375-4.429687-7.671875-2.746094-1.578125-6.128907-1.5625-8.863281.039062zm0 0"/><path d="m103.101562 420.078125-16.445312 19.589844c-3.136719 3.734375-2.648438 9.300781 1.085938 12.4375 3.734374 3.132812 9.304687 2.648437 12.4375-1.085938l16.4375-19.582031c2.027343-2.414062 2.617187-5.726562 1.539062-8.691406-1.074219-2.964844-3.652344-5.128906-6.757812-5.679688-3.105469-.550781-6.265626.597656-8.296876 3.011719zm0 0"/><path d="m179.511719 455.9375c-2.199219-.800781-4.628907-.6875-6.75.304688-2.121094.992187-3.761719 2.789062-4.554688 4.992187l-8.75 24.027344c-1.175781 2.984375-.640625 6.375 1.402344 8.851562 2.042969 2.476563 5.269531 3.652344 8.425781 3.0625 3.15625-.585937 5.742188-2.839843 6.757813-5.886719l8.75-24.027343c.804687-2.203125.699219-4.632813-.292969-6.757813-.988281-2.125-2.785156-3.769531-4.988281-4.566406zm0 0"/><path d="m252.289062 468.746094c-4.875 0-8.828124 3.949218-8.828124 8.828125v25.597656c0 4.875 3.953124 8.828125 8.828124 8.828125s8.828126-3.953125 8.828126-8.828125v-25.597656c0-4.878907-3.953126-8.828125-8.828126-8.828125zm0 0"/><path d="m336.371094 461.222656c-1.015625-3.042968-3.605469-5.296875-6.761719-5.886718-3.15625-.585938-6.378906.585937-8.421875 3.0625-2.042969 2.476562-2.582031 5.867187-1.402344 8.855468l8.746094 24.027344c1.753906 4.449219 6.734375 6.695312 11.230469 5.058594 4.492187-1.632813 6.871093-6.550782 5.355469-11.085938zm0 0"/><path d="m401.472656 420.078125c-2.027344-2.414063-5.191406-3.5625-8.296875-3.011719-3.105469.550782-5.679687 2.714844-6.757812 5.679688-1.074219 2.964844-.488281 6.277344 1.542969 8.691406l16.433593 19.582031c3.136719 3.734375 8.707031 4.21875 12.441407 1.085938 3.734374-3.136719 4.21875-8.703125 1.085937-12.4375zm0 0"/><path d="m470.761719 371.941406-22.148438-12.78125c-2.734375-1.601562-6.113281-1.617187-8.859375-.039062-2.75 1.578125-4.441406 4.503906-4.433594 7.671875.007813 3.167969 1.710938 6.089843 4.464844 7.65625l22.148438 12.78125c4.21875 2.398437 9.582031.941406 12.007812-3.257813 2.425782-4.203125 1.007813-9.578125-3.179687-12.03125zm0 0"/><path d="m497.234375 290.222656-25.175781-4.410156c-3.136719-.628906-6.367188.492188-8.445313 2.929688-2.074219 2.433593-2.671875 5.804687-1.554687 8.800781 1.113281 3 3.765625 5.160156 6.929687 5.648437l25.175781 4.414063c.511719.085937 1.027344.132812 1.542969.132812 4.582031.003907 8.402344-3.5 8.800781-8.0625.398438-4.5625-2.761718-8.667969-7.273437-9.460937zm0 0"/><path d="m461.828125 219.046875c.742187 4.21875 4.402344 7.296875 8.6875 7.300781.515625 0 1.035156-.046875 1.542969-.140625l25.175781-4.414062c3.109375-.546875 5.6875-2.714844 6.761719-5.675781 1.078125-2.964844.496094-6.28125-1.535156-8.695313-2.027344-2.417969-5.191407-3.566406-8.296876-3.019531l-25.175781 4.414062c-2.308593.40625-4.355469 1.714844-5.699219 3.632813s-1.867187 4.292969-1.460937 6.597656zm0 0"/><path d="m444.207031 154.023438c1.550781.003906 3.074219-.40625 4.414063-1.183594l22.148437-12.78125c4.1875-2.453125 5.609375-7.828125 3.179688-12.03125-2.425781-4.199219-7.789063-5.65625-12.007813-3.257813l-22.15625 12.78125c-3.460937 2-5.144531 6.070313-4.113281 9.929688 1.035156 3.859375 4.53125 6.542969 8.527344 6.542969zm0 0"/><path d="m404.40625 60.980469-16.4375 19.582031c-2.128906 2.398438-2.789062 5.765625-1.722656 8.792969 1.070312 3.023437 3.695312 5.234375 6.859375 5.765625 3.164062.535156 6.367187-.691406 8.367187-3.199219l16.449219-19.589844c2.027344-2.414062 2.609375-5.730469 1.53125-8.691406-1.078125-2.964844-3.65625-5.128906-6.761719-5.675781-3.105468-.550782-6.265625.601562-8.296875 3.015625zm0 0"/><path d="m339.839844 15.4375c-2.203125-.796875-4.628906-.6875-6.75.308594-2.121094.992187-3.761719 2.789062-4.558594 4.988281l-8.746094 24.03125c-1.179687 2.984375-.640625 6.375 1.402344 8.851563 2.042969 2.476562 5.265625 3.648437 8.421875 3.0625 3.15625-.585938 5.746094-2.839844 6.761719-5.886719l8.746094-24.027344c.804687-2.203125.703124-4.632813-.289063-6.757813s-2.785156-3.769531-4.988281-4.570312zm0 0"/></g><path d="m481.804688 256c0 126.757812-102.757813 229.515625-229.515626 229.515625-126.761718 0-229.519531-102.757813-229.519531-229.515625s102.757813-229.515625 229.519531-229.515625c126.757813 0 229.515626 102.757813 229.515626 229.515625zm0 0" fill="#84b5cb"/><path d="m437.667969 256c0 102.382812-82.996094 185.378906-185.378907 185.378906-102.382812 0-185.378906-82.996094-185.378906-185.378906s82.996094-185.378906 185.378906-185.378906c102.382813 0 185.378907 82.996094 185.378907 185.378906zm0 0" fill="#41767f"/><path d="m391.851562 286.984375c-11.371093 76.316406-78.761718 131.570313-155.828124 127.769531-77.0625-3.804687-138.683594-65.425781-142.488282-142.492187-3.800781-77.0625 51.453125-144.453125 127.769532-155.824219-42.828126 27.148438-64.726563 77.703125-55.234376 127.515625 9.492188 49.8125 48.453126 88.769531 98.265626 98.265625 49.808593 9.492188 100.367187-12.40625 127.515624-55.234375zm0 0" fill="#f0c419"/><path d="m317.382812 125.738281 16.242188 34.5c.515625 1.121094 1.554688 1.910157 2.773438 2.109375l36.316406 5.535156c1.410156.273438 2.558594 1.300782 2.988281 2.675782s.066406 2.875-.941406 3.902344l-26.253907 26.859374c-.871093.90625-1.265624 2.167969-1.058593 3.410157l6.179687 37.957031c.277344 1.390625-.261718 2.816406-1.382812 3.679688-1.125.863281-2.640625 1.015624-3.914063.390624l-32.484375-17.902343c-1.066406-.589844-2.359375-.589844-3.425781 0l-32.484375 17.902343c-1.273438.625-2.789062.472657-3.914062-.390624-1.125-.863282-1.660157-2.289063-1.382813-3.679688l6.179687-37.957031c.203126-1.242188-.1875-2.503907-1.0625-3.410157l-26.285156-26.859374c-1.007812-1.027344-1.371094-2.527344-.941406-3.902344.425781-1.375 1.574219-2.402344 2.988281-2.675782l36.316407-5.535156c1.21875-.199218 2.257812-.988281 2.769531-2.109375l16.246093-34.5c.59375-1.261719 1.867188-2.070312 3.265626-2.070312 1.398437 0 2.667968.808593 3.265624 2.070312zm0 0" fill="#f0c419"/></svg>