<svg height="512" viewBox="0 0 512 512" width="512" xmlns="http://www.w3.org/2000/svg"><g><g fill="#57a4ff"><path d="m215.93 48a144.252 144.252 0 0 1 31.87 3.53h-63.44a143.345 143.345 0 0 1 31.57-3.53z"/><path d="m360 256a103.995 103.995 0 0 1 -65.53-184.75l49.53 139.64 4.65 13.11z"/><path d="m360 48a104 104 0 1 0 104 104 103.507 103.507 0 0 0 -104-104zm16 176h-27.35l-4.65-13.11v-18.89h32zm0-56h-32v-88h32z"/><path d="m248 48a31.715 31.715 0 0 1 -.2 3.53h-63.6a32 32 0 1 1 63.8-3.53z"/><path d="m264 448a48 48 0 0 1 -96 0z"/><path d="m348.65 224h-4.65v-13.11z"/></g><g fill="#004fac"><path d="m248 416h-168a8 8 0 0 0 0 16h168a8 8 0 0 0 0-16z"/><path d="m288 416h-16a8 8 0 0 0 0 16h16a8 8 0 0 0 0-16z"/><path d="m344 176h32a8 8 0 0 0 8-8v-88a8 8 0 0 0 -8-8h-32a8 8 0 0 0 -8 8v88a8 8 0 0 0 8 8zm8-88h16v72h-16z"/><path d="m344 232h32a8 8 0 0 0 8-8v-32a8 8 0 0 0 -8-8h-32a8 8 0 0 0 -8 8v32a8 8 0 0 0 8 8zm8-32h16v16h-16z"/><path d="m472 152a111.931 111.931 0 0 0 -177.96-90.45 151.148 151.148 0 0 0 -38.14-16.23 39.987 39.987 0 0 0 -79.8.06c-64.52 17.73-112.1 77.37-112.1 148v183.74a16.007 16.007 0 0 1 -2.43 8.48l-13.4 21.44a31.991 31.991 0 0 0 27.13 48.96h85.28a55.994 55.994 0 0 0 110.84 0h85.28a31.991 31.991 0 0 0 27.13-48.96l-13.4-21.44a16.007 16.007 0 0 1 -2.43-8.48v-113.41a112.141 112.141 0 0 0 104-111.71zm-256-128a24.044 24.044 0 0 1 23.18 17.78 153.017 153.017 0 0 0 -23.2-1.78h-.05a150.561 150.561 0 0 0 -23.11 1.78 24.044 24.044 0 0 1 23.18-17.78zm0 464a40.069 40.069 0 0 1 -39.2-32h78.4a40.069 40.069 0 0 1 -39.2 32zm154.27-72.48a16 16 0 0 1 -13.57 24.48h-281.4a16 16 0 0 1 -13.57-24.48l13.4-21.44a31.883 31.883 0 0 0 4.87-16.96v-183.74c0-75.71 60.98-137.34 135.93-137.38h.05a135.5 135.5 0 0 1 65.12 16.58 111.945 111.945 0 0 0 70.9 191.13v113.41a31.883 31.883 0 0 0 4.87 16.96zm-10.27-167.52a96 96 0 1 1 96-96 96.115 96.115 0 0 1 -96 96z"/></g></g></svg>