<svg id="svg" version="1.1" xmlns="http://www.w3.org/2000/svg" xmlns:xlink="http://www.w3.org/1999/xlink" width="400" height="392.1824104234528" viewBox="0, 0, 400,392.1824104234528"><g id="svgg"><path id="path0" d="M15.996 0.284 C 15.186 0.370,14.524 0.583,14.524 0.759 C 14.524 0.934,13.817 1.190,12.954 1.328 C 12.090 1.466,11.384 1.733,11.384 1.922 C 11.384 2.110,11.075 2.367,10.697 2.494 C 9.272 2.973,4.318 7.220,4.318 7.963 C 4.318 8.135,3.953 8.666,3.506 9.143 C 3.059 9.620,2.596 10.496,2.476 11.089 C 2.355 11.683,2.137 12.169,1.991 12.169 C -0.728 12.169,-0.758 65.629,1.959 68.302 C 2.069 68.410,2.496 69.161,2.908 69.971 C 3.320 70.780,3.805 71.443,3.987 71.443 C 4.169 71.443,4.318 71.669,4.318 71.947 C 4.318 72.585,8.301 76.546,8.943 76.546 C 9.206 76.546,9.421 76.722,9.421 76.938 C 9.421 77.154,9.664 77.331,9.962 77.331 C 10.259 77.331,10.722 77.596,10.991 77.920 C 11.260 78.243,11.885 78.508,12.380 78.508 C 12.876 78.508,13.349 78.712,13.432 78.960 C 13.514 79.209,14.589 79.496,15.820 79.598 C 17.050 79.700,18.057 79.938,18.057 80.127 C 18.057 80.323,91.662 80.471,189.598 80.471 C 285.251 80.471,361.138 80.322,361.138 80.133 C 361.138 79.947,362.223 79.697,363.549 79.576 C 364.874 79.456,366.067 79.194,366.198 78.994 C 366.330 78.793,366.883 78.521,367.427 78.388 C 367.971 78.255,368.803 77.786,369.275 77.346 C 369.747 76.906,370.289 76.546,370.478 76.546 C 370.667 76.546,371.285 76.060,371.852 75.466 C 372.418 74.872,373.085 74.186,373.334 73.940 C 375.002 72.294,376.324 70.504,376.701 69.382 C 376.828 69.004,377.065 68.695,377.228 68.695 C 377.391 68.695,377.638 67.988,377.776 67.125 C 377.914 66.261,378.201 65.554,378.415 65.554 C 378.628 65.554,378.803 64.858,378.803 64.007 C 378.803 63.157,378.979 62.351,379.195 62.218 C 379.736 61.884,379.736 18.057,379.195 18.057 C 378.979 18.057,378.803 17.361,378.803 16.510 C 378.803 15.659,378.649 14.868,378.462 14.752 C 378.274 14.636,378.007 13.831,377.868 12.963 C 377.729 12.094,377.441 11.384,377.228 11.384 C 377.015 11.384,376.840 11.119,376.840 10.795 C 376.840 10.471,376.675 10.206,376.474 10.206 C 376.273 10.206,375.987 9.825,375.839 9.359 C 375.373 7.892,370.219 3.072,368.499 2.494 C 368.121 2.367,367.812 2.116,367.812 1.935 C 367.812 1.754,367.149 1.484,366.340 1.335 C 365.530 1.186,364.741 0.869,364.587 0.630 C 364.321 0.217,19.866 -0.124,15.996 0.284 M17.272 104.361 C 17.272 104.547,16.402 104.802,15.339 104.928 C 13.599 105.134,11.914 105.772,11.384 106.424 C 11.276 106.557,10.790 106.790,10.304 106.941 C 9.818 107.093,9.421 107.382,9.421 107.583 C 9.421 107.784,9.237 107.949,9.012 107.949 C 8.602 107.949,7.830 108.501,6.949 109.425 C 6.689 109.697,5.815 110.604,5.005 111.440 C 4.195 112.276,3.533 113.157,3.533 113.398 C 3.533 113.640,3.375 113.837,3.183 113.837 C 2.990 113.837,2.722 114.279,2.587 114.818 C 2.451 115.358,2.167 115.800,1.955 115.800 C 1.743 115.800,1.570 116.132,1.570 116.537 C 1.570 116.942,1.261 117.958,0.883 118.794 C -0.943 122.836,0.081 172.326,1.991 172.326 C 2.137 172.326,2.355 172.812,2.476 173.405 C 2.596 173.999,3.059 174.875,3.506 175.352 C 3.953 175.828,4.319 176.358,4.321 176.529 C 4.325 176.967,7.643 180.177,8.092 180.177 C 8.296 180.177,8.717 180.529,9.027 180.960 C 9.338 181.391,10.172 181.852,10.880 181.985 C 11.589 182.118,12.169 182.384,12.169 182.576 C 12.169 182.767,12.419 182.924,12.725 182.924 C 13.031 182.924,13.340 183.099,13.412 183.313 C 13.484 183.527,14.647 183.817,15.996 183.958 C 17.345 184.099,18.449 184.365,18.449 184.551 C 18.449 184.737,99.421 184.887,200.196 184.887 C 301.556 184.887,381.943 184.738,381.943 184.549 C 381.943 184.363,382.974 184.118,384.235 184.003 C 386.263 183.819,388.030 183.207,388.616 182.487 C 388.724 182.354,389.210 182.121,389.696 181.970 C 390.182 181.818,390.579 181.529,390.579 181.328 C 390.579 181.126,390.779 180.962,391.022 180.962 C 391.601 180.962,396.467 176.095,396.467 175.517 C 396.467 175.273,396.640 175.074,396.852 175.074 C 397.064 175.074,397.348 174.632,397.484 174.092 C 397.619 173.553,397.844 173.111,397.984 173.111 C 399.606 173.111,399.995 167.561,399.995 144.455 C 399.995 121.302,399.607 115.800,397.973 115.800 C 397.827 115.800,397.591 115.270,397.449 114.623 C 397.306 113.975,396.892 113.225,396.527 112.954 C 396.163 112.684,395.526 111.933,395.113 111.286 C 394.158 109.790,393.496 109.127,392.960 109.127 C 392.727 109.127,392.153 108.685,391.683 108.145 C 391.214 107.605,390.618 107.164,390.360 107.164 C 390.102 107.164,389.670 106.899,389.401 106.575 C 389.133 106.251,388.581 105.986,388.176 105.986 C 387.770 105.986,387.439 105.816,387.439 105.607 C 387.439 105.399,386.555 105.111,385.476 104.968 C 384.396 104.825,383.513 104.554,383.513 104.366 C 383.513 104.172,304.158 104.024,200.393 104.024 C 98.330 104.024,17.272 104.173,17.272 104.361 M15.702 208.721 C 15.162 208.819,14.553 209.060,14.347 209.258 C 14.142 209.456,13.657 209.617,13.268 209.617 C 12.879 209.617,12.561 209.780,12.561 209.979 C 12.561 210.177,12.031 210.456,11.384 210.599 C 10.736 210.741,10.206 211.020,10.206 211.219 C 10.206 211.417,9.959 211.580,9.658 211.580 C 8.968 211.580,3.533 216.978,3.533 217.663 C 3.533 217.941,3.268 218.271,2.944 218.395 C 2.620 218.519,2.355 218.980,2.355 219.418 C 2.355 219.857,2.179 220.216,1.963 220.216 C 1.747 220.216,1.570 220.548,1.570 220.953 C 1.570 221.358,1.261 222.374,0.883 223.210 C -0.897 227.150,0.104 276.742,1.964 276.742 C 2.132 276.742,2.379 277.176,2.512 277.707 C 2.645 278.237,3.195 279.146,3.732 279.727 C 4.270 280.307,4.711 280.907,4.711 281.059 C 4.711 281.584,7.074 283.808,7.632 283.808 C 7.939 283.808,8.302 284.161,8.439 284.592 C 8.576 285.023,9.118 285.484,9.643 285.616 C 10.169 285.748,10.599 286.013,10.599 286.205 C 10.599 286.398,10.952 286.555,11.384 286.555 C 11.816 286.555,12.169 286.730,12.169 286.943 C 12.169 287.157,12.875 287.444,13.739 287.582 C 14.603 287.720,15.309 287.987,15.309 288.176 C 15.309 288.364,16.192 288.518,17.272 288.518 C 18.351 288.518,19.235 288.695,19.235 288.911 C 19.235 289.172,76.284 289.303,189.598 289.303 C 302.911 289.303,359.961 289.172,359.961 288.911 C 359.961 288.695,360.844 288.518,361.923 288.518 C 363.003 288.518,363.886 288.364,363.886 288.176 C 363.886 287.987,364.593 287.720,365.456 287.582 C 366.320 287.444,367.026 287.157,367.026 286.943 C 367.026 286.730,367.380 286.555,367.812 286.555 C 368.243 286.555,368.597 286.379,368.597 286.163 C 368.597 285.947,368.867 285.770,369.198 285.770 C 369.528 285.770,369.901 285.505,370.025 285.182 C 370.149 284.858,370.492 284.593,370.787 284.593 C 371.485 284.593,374.877 281.201,374.877 280.503 C 374.877 280.208,375.142 279.865,375.466 279.740 C 375.790 279.616,376.055 279.198,376.055 278.811 C 376.055 278.425,376.397 277.895,376.814 277.634 C 377.294 277.335,377.671 276.506,377.840 275.381 C 377.987 274.402,378.263 273.602,378.455 273.602 C 378.646 273.602,378.803 272.983,378.803 272.228 C 378.803 271.472,378.979 270.854,379.195 270.854 C 379.452 270.854,379.588 263.199,379.588 248.675 C 379.588 234.151,379.452 226.497,379.195 226.497 C 378.979 226.497,378.803 225.790,378.803 224.926 C 378.803 224.063,378.649 223.356,378.460 223.356 C 378.272 223.356,378.005 222.650,377.867 221.786 C 377.729 220.922,377.441 220.216,377.228 220.216 C 377.015 220.216,376.840 219.863,376.840 219.431 C 376.840 218.999,376.683 218.646,376.490 218.646 C 376.298 218.646,376.032 218.216,375.900 217.691 C 375.768 217.165,375.308 216.623,374.877 216.487 C 374.447 216.350,373.986 215.808,373.854 215.283 C 373.710 214.708,373.330 214.328,372.899 214.328 C 372.505 214.328,372.073 213.984,371.940 213.563 C 371.806 213.142,371.353 212.689,370.932 212.555 C 370.511 212.421,370.167 212.147,370.167 211.946 C 370.167 211.745,369.902 211.580,369.578 211.580 C 369.254 211.580,368.989 211.417,368.989 211.219 C 368.989 211.020,368.459 210.741,367.812 210.599 C 367.164 210.456,366.634 210.177,366.634 209.979 C 366.634 209.780,366.295 209.617,365.882 209.617 C 365.468 209.617,365.056 209.396,364.966 209.127 C 364.806 208.649,18.329 208.246,15.702 208.721 M15.211 313.134 C 14.617 313.226,14.132 313.465,14.132 313.667 C 14.132 313.868,13.690 314.033,13.150 314.033 C 12.610 314.033,12.169 314.210,12.169 314.426 C 12.169 314.642,11.810 314.818,11.371 314.818 C 10.933 314.818,10.472 315.083,10.348 315.407 C 10.224 315.731,9.880 315.996,9.584 315.996 C 9.022 315.996,4.085 320.749,3.249 322.093 C 2.519 323.269,1.721 325.014,0.920 327.184 C -0.881 332.067,0.068 381.158,1.964 381.158 C 2.132 381.158,2.373 381.555,2.499 382.041 C 2.625 382.527,3.264 383.543,3.918 384.298 C 4.572 385.054,5.194 385.943,5.301 386.274 C 5.407 386.605,6.069 387.210,6.771 387.617 C 7.473 388.025,8.194 388.603,8.373 388.902 C 8.553 389.200,9.082 389.614,9.551 389.821 C 10.019 390.027,10.944 390.526,11.607 390.929 C 14.289 392.560,13.133 392.542,116.389 392.542 C 214.390 392.542,219.823 392.478,219.823 391.332 C 219.823 391.134,220.088 390.972,220.412 390.972 C 220.736 390.972,221.001 390.795,221.001 390.579 C 221.001 390.363,221.360 390.186,221.798 390.186 C 222.237 390.186,222.697 389.921,222.822 389.598 C 222.946 389.274,223.298 389.009,223.603 389.009 C 224.169 389.009,228.459 384.818,228.459 384.265 C 228.459 384.098,228.687 383.728,228.965 383.443 C 229.718 382.671,230.815 380.175,230.815 379.234 C 230.815 378.781,230.991 378.410,231.207 378.410 C 231.423 378.410,231.600 377.880,231.600 377.233 C 231.600 376.585,231.776 376.055,231.992 376.055 C 232.249 376.055,232.385 368.073,232.385 352.895 C 232.385 337.717,232.249 329.735,231.992 329.735 C 231.776 329.735,231.600 329.117,231.600 328.361 C 231.600 327.605,231.446 326.987,231.257 326.987 C 231.069 326.987,230.802 326.281,230.664 325.417 C 230.526 324.553,230.259 323.847,230.071 323.847 C 229.882 323.847,229.625 323.538,229.498 323.160 C 229.091 321.949,228.317 320.975,225.908 318.644 C 222.874 315.708,222.272 315.211,221.748 315.211 C 221.193 315.211,218.926 313.954,218.562 313.445 C 218.289 313.063,17.665 312.757,15.211 313.134 " stroke="none" fill="#04c4f4" fill-rule="evenodd"></path><path id="path1" d="" stroke="none" fill="#08c4f4" fill-rule="evenodd"></path><path id="path2" d="" stroke="none" fill="#08c4f4" fill-rule="evenodd"></path><path id="path3" d="" stroke="none" fill="#08c4f4" fill-rule="evenodd"></path><path id="path4" d="" stroke="none" fill="#08c4f4" fill-rule="evenodd"></path></g></svg>