<?xml version="1.0" encoding="iso-8859-1"?>
<!-- Generator: Adobe Illustrator 19.0.0, SVG Export Plug-In . SVG Version: 6.00 Build 0)  -->
<svg version="1.1" id="Layer_1" xmlns="http://www.w3.org/2000/svg" xmlns:xlink="http://www.w3.org/1999/xlink" x="0px" y="0px"
	 viewBox="0 0 511.994 511.994" style="enable-background:new 0 0 511.994 511.994;" xml:space="preserve">
<circle style="fill:#7DD2F0;" cx="255.997" cy="255.997" r="255.997"/>
<path style="opacity:0.1;enable-background:new    ;" d="M23.403,279.403c0-141.384,114.615-255.999,255.999-255.999
	c64.737,0,123.85,24.041,168.931,63.666C401.417,33.696,332.648,0,255.999,0C114.615,0,0,114.615,0,255.999
	c0,76.648,33.696,145.418,87.07,192.334C47.444,403.254,23.403,344.14,23.403,279.403z"/>
<path style="fill:#FFFFFF;" d="M255.999,447.641c-105.671,0-191.64-85.97-191.64-191.641s85.97-191.64,191.64-191.64
	s191.64,85.97,191.64,191.64S361.671,447.641,255.999,447.641z"/>
<path style="opacity:0.1;enable-background:new    ;" d="M87.762,279.403c0-105.671,85.97-191.64,191.64-191.64
	c46.891,0,89.893,16.938,123.235,45.003c-35.182-41.797-87.857-68.407-146.638-68.407c-105.671,0-191.64,85.97-191.64,191.64
	c0,58.781,26.61,111.456,68.407,146.638C104.701,369.296,87.762,326.294,87.762,279.403z"/>
<g>
	<path style="fill:#515262;" d="M255.999,64.359c-2.942,0-5.866,0.077-8.776,0.209v51.096c0,4.847,3.928,8.776,8.776,8.776
		c4.848,0,8.776-3.929,8.776-8.776V64.569C261.867,64.436,258.942,64.359,255.999,64.359z"/>
	<path style="fill:#515262;" d="M385.097,114.491l-36.072,36.07c-3.427,3.427-3.427,8.985,0,12.411
		c1.714,1.714,3.96,2.571,6.207,2.571c2.246,0,4.492-0.857,6.207-2.571l36.07-36.07C393.562,122.579,389.42,118.438,385.097,114.491
		z"/>
	<path style="fill:#515262;" d="M447.431,247.223h-51.095c-4.848,0-8.776,3.929-8.776,8.776s3.928,8.776,8.776,8.776h51.095
		c0.132-2.91,0.209-5.834,0.209-8.776C447.641,253.058,447.564,250.133,447.431,247.223z"/>
	<path style="fill:#515262;" d="M397.509,385.097l-36.07-36.07c-3.429-3.427-8.985-3.427-12.412,0s-3.427,8.985,0,12.411
		l36.072,36.07C389.42,393.562,393.562,389.42,397.509,385.097z"/>
	<path style="fill:#515262;" d="M255.999,387.56c-4.848,0-8.776,3.929-8.776,8.776v51.096c2.91,0.132,5.834,0.209,8.776,0.209
		c2.942,0,5.866-0.077,8.776-0.209v-51.096C264.776,391.488,260.847,387.56,255.999,387.56z"/>
	<path style="fill:#515262;" d="M150.562,349.026l-36.07,36.07c3.947,4.323,8.089,8.465,12.412,12.412l36.072-36.07
		c3.427-3.427,3.427-8.985,0-12.411C159.547,345.599,153.991,345.599,150.562,349.026z"/>
	<path style="fill:#515262;" d="M115.664,247.223H64.569c-0.132,2.91-0.209,5.834-0.209,8.776c0,2.942,0.077,5.866,0.209,8.776
		h51.095c4.848,0,8.776-3.929,8.776-8.776S120.511,247.223,115.664,247.223z"/>
	<path style="fill:#515262;" d="M114.491,126.902l36.07,36.07c1.714,1.713,3.961,2.571,6.207,2.571c2.246,0,4.492-0.857,6.207-2.571
		c3.427-3.427,3.427-8.985,0-12.411l-36.072-36.07C122.579,118.438,118.438,122.579,114.491,126.902z"/>
	<path style="fill:#515262;" d="M303.437,320.988c-4.492,0-8.985-1.714-12.411-5.142L243.59,268.41
		c-3.292-3.292-5.142-7.756-5.142-12.411v-88.358c0-9.694,7.859-17.552,17.552-17.552c9.694,0,17.552,7.859,17.552,17.552v81.087
		l42.296,42.296c6.855,6.854,6.855,17.968,0,24.823C312.42,319.275,307.928,320.988,303.437,320.988z"/>
</g>
<g>
</g>
<g>
</g>
<g>
</g>
<g>
</g>
<g>
</g>
<g>
</g>
<g>
</g>
<g>
</g>
<g>
</g>
<g>
</g>
<g>
</g>
<g>
</g>
<g>
</g>
<g>
</g>
<g>
</g>
</svg>
