<svg id="Capa_1" enable-background="new 0 0 512 512" height="512" viewBox="0 0 512 512" width="512" xmlns="http://www.w3.org/2000/svg" xmlns:xlink="http://www.w3.org/1999/xlink"><linearGradient id="SVGID_1_" gradientUnits="userSpaceOnUse" x1="152.385" x2="207.049" y1="311.237" y2="311.237"><stop offset="0" stop-color="#cc8241"/><stop offset="1" stop-color="#dea861"/></linearGradient><linearGradient id="SVGID_2_" gradientUnits="userSpaceOnUse" x1="88.183" x2="292.897" y1="68.071" y2="186.263"><stop offset="0" stop-color="#dea861"/><stop offset="1" stop-color="#ebcba0"/></linearGradient><linearGradient id="SVGID_3_" gradientUnits="userSpaceOnUse" x1="404.356" x2="443.243" y1="319.87" y2="252.516"><stop offset="0" stop-color="#236568"/><stop offset="1" stop-color="#2f878a"/></linearGradient><linearGradient id="SVGID_4_" gradientUnits="userSpaceOnUse" x1="440.028" x2="452.163" y1="331.907" y2="310.888"><stop offset="0" stop-color="#e37a34"/><stop offset="1" stop-color="#ffc538"/></linearGradient><g><g><g><path d="m397.938 371.433v-247.932l-397.938 17.064v247.932c-.001 5.681 2.81 11.362 8.433 14.609l157.639 91.013c11.211 6.473 25.024 6.473 36.236 0l187.196-108.078c5.623-3.246 8.434-8.927 8.434-14.608z" fill="url(#SVGID_1_)"/><path d="m8.433 125.959 187.196-108.078c11.211-6.473 25.024-6.473 36.236 0l157.639 91.013c11.244 6.492 11.244 22.722 0 29.214l-187.196 108.077c-11.211 6.473-25.024 6.473-36.236 0l-157.639-91.013c-11.244-6.492-11.244-22.721 0-29.213z" fill="url(#SVGID_2_)"/><path d="m69.131 90.915 201.057 116.08 53.333-30.792-201.057-116.08z" fill="#dea861"/><g fill="#cc8241"><path d="m101.007 72.495 201.057 116.081-10.447 6.031-201.057-116.08z"/><path d="m270.188 206.995v44.045l53.333-30.792v-44.045z"/></g></g></g><g><path d="m480.41 211.727.005-.01-41.515-23.9-.003.006c-16.388-8.684-37.439-7.447-60.406 5.813-52.255 30.169-94.616 111.109-94.616 180.783 0 38.306 12.821 65.195 33.034 76.662l-.014.031 37.932 21.9.039-.081c16.673 9.966 38.546 9.247 62.517-4.593 52.256-30.17 94.617-111.109 94.617-180.783 0-37.39-12.209-63.915-31.59-75.828z" fill="url(#SVGID_3_)"/><ellipse cx="417.383" cy="342.182" fill="#06daae" rx="145.254" ry="82.176" transform="matrix(.392 -.92 .92 .392 -60.905 592.257)"/><g><path d="m476.272 337.933-24.634-14.44c-5-3.133-11.594-3.118-18.273-2.204 1.815-2.089 4.123-3.951 6.806-5.501 8.843-5.105 23.172-6.671 34.454-4.647l10.518-35.546-24.928-14.613c-2.591-.729-5.439-1.123-8.457-1.223v-9.81l-24.928-14.613-20.275 11.706v29.88c-19.514 15.535-31.709 38.227-31.709 60.789 0 15.25 5.152 21.567 12.333 23.641l18.022 10.405c5.276 5.802 13.714 5.66 22.217 4.224-2.323 3.266-5.653 6.19-9.734 8.547-11.129 6.426-27.747 7.077-38.722.81l-10.825 35.317 24.928 14.613c3.998 2.068 8.562 3.301 13.489 3.714v12.544l24.928 14.613 20.275-11.706v-31.099c19.209-14.546 33.54-37.455 33.54-62.457 0-12.992-3.623-19.729-9.025-22.944z" fill="url(#SVGID_4_)"/><g><path d="m451.757 423.334v31.099l-20.275 11.706v-31.302c-14.33 5.631-28.204 5.714-38.417.431l10.825-35.316c10.975 6.266 27.593 5.615 38.722-.81 8.232-4.753 13.416-11.811 13.416-19.331 0-24.189-56.254 22.925-56.254-27.485 0-22.562 12.196-45.254 31.709-60.789v-29.88l20.275-11.706v29.677c12.502-5.389 24.392-6.563 33.386-4.031l-10.518 35.546c-11.282-2.024-25.611-.458-34.454 4.647-6.707 3.872-11.128 9.677-11.128 16.181 0 23.578 56.254-22.315 56.254 28.908-.001 25.001-14.332 47.909-33.541 62.455z" fill="#f7e041"/></g><g fill="#e37a34"><path d="m406.554 276.922 24.928 14.613v-29.879l-24.928-14.614z"/><path d="m403.889 399.951-24.928-14.613-10.825 35.317 24.928 14.613z"/></g></g></g></g></svg>