<svg id="Capa_1" enable-background="new 0 0 512 512" height="512" viewBox="0 0 512 512" width="512" xmlns="http://www.w3.org/2000/svg"><g><g><path d="m470.374 35.459h-428.748c-22.989 0-41.626 18.637-41.626 41.626v299.707c0 22.989 18.637 41.626 41.626 41.626h153.775c6.331 0 12.311 2.911 16.216 7.894l36.275 46.282c4.125 5.262 12.092 5.262 16.216 0l36.275-46.282c3.906-4.983 9.885-7.894 16.216-7.894h153.775c22.989 0 41.626-18.637 41.626-41.626v-299.707c0-22.989-18.636-41.626-41.626-41.626z" fill="#fb636f"/><path d="m470.374 35.459h-28.098c22.989 0 41.626 18.637 41.626 41.626v20.813 258.082 20.813c0 22.989-18.637 41.626-41.626 41.626h28.098c22.989 0 41.626-18.637 41.626-41.626v-299.708c0-22.989-18.636-41.626-41.626-41.626z" fill="#fa4954"/></g><g><path d="m206.978 275.525 40.353 7.305c36.476 6.603 63 38.361 63 75.43v1.208c0 5.69-4.612 10.302-10.302 10.302h-246.69c-5.69 0-10.302-4.612-10.302-10.302v-1.207c0-37.069 26.525-68.827 63.001-75.43l40.353-7.305h60.587z" fill="#b9e4ef"/><path d="m247.331 282.831-10.471-1.896c23.145 16.872 37.846 44.139 37.846 74.36v1.45c0 6.828-5.535 12.363-12.363 12.363h-212.611c1.124.421 2.336.662 3.608.662h246.69c5.69 0 10.302-4.612 10.302-10.302v-1.208c0-37.068-26.525-68.826-63.001-75.429z" fill="#90d8f9"/><path d="m176.685 332.548c29.824 0 54.358-23.02 56.806-52.223l-26.512-4.8h-60.587l-26.512 4.8c2.446 29.203 26.98 52.223 56.805 52.223z" fill="#fff"/><path d="m176.685 305.818c-16.731 0-30.293-13.563-30.293-30.293v-21.384h60.587v21.384c-.001 16.731-13.564 30.293-30.294 30.293z" fill="#fcd0a3"/><path d="m146.391 274.033c9.352 3.83 19.579 5.947 30.293 5.947s20.942-2.118 30.293-5.947v-19.891h-60.587v19.891z" fill="#ffb983"/><path d="m114.33 155.094c-.008 0-.014-.022-.014-.014v44.712c0 34.603 28.179 62.624 62.842 62.367 34.389-.255 61.896-28.76 61.896-63.15v-43.915z" fill="#fcd0a3"/><path d="m216.779 199.792c0 30.641-22.103 56.103-51.231 61.357 3.616.652 7.334 1.011 11.137 1.011 34.445 0 62.369-27.923 62.369-62.369v-44.698h-22.275z" fill="#ffb983"/><path d="m114.316 146.449v17.297h124.738v-17.297c0-34.445-27.923-62.369-62.369-62.369-34.446.001-62.369 27.924-62.369 62.369z" fill="#595959"/><path d="m176.685 84.081c-3.808 0-7.529.36-11.149 1.013 29.122 5.258 51.22 30.718 51.22 61.355v17.297h22.297v-17.297c0-34.445-27.923-62.368-62.368-62.368z" fill="#434343"/></g><path d="m433.131 318.53v-180.685c0-5.69-4.612-10.302-10.302-10.302h-22.395c-5.69 0-10.302 4.612-10.302 10.302v14.064c0 17.988-13.323 32.923-30.62 35.454-3.007.44-5.213 3.059-5.213 6.098v30.829c0 3.598 3.065 6.472 6.651 6.169 10.434-.881 20.291-3.813 29.182-8.371v96.439c0 4.552-3.69 8.241-8.241 8.241h-17.289c-5.69 0-10.302 4.612-10.302 10.302v22.395c0 5.69 4.612 10.302 10.302 10.302h94.06c5.69 0 10.302-4.612 10.302-10.302v-22.395c0-5.69-4.612-10.302-10.302-10.302h-17.289c-4.553.003-8.242-3.687-8.242-8.238z" fill="#eff3f5"/></g></svg>