<svg id="Capa_1" enable-background="new 0 0 512 512" height="512" viewBox="0 0 512 512" width="512" xmlns="http://www.w3.org/2000/svg"><g><path d="m283.414 505.081c-16.954 9.197-37.269 9.227-54.251.081-96.365-51.9-211.69-165.754-211.833-260.463-.106-71.36 57.655-129.295 129.016-129.401 46.072-.069 86.522 24.004 109.45 60.264 22.822-36.329 63.199-60.521 109.271-60.591 71.361-.107 129.295 57.656 129.401 129.016.142 94.708-114.842 208.906-211.054 261.094z" fill="#e7889d"/><path d="m146.346 115.297c-71.36.107-129.122 58.042-129.016 129.401.143 94.709 115.468 208.562 211.833 260.463 16.981 9.146 37.297 9.117 54.251-.08 17.106-9.279 34.804-20.526 52.345-33.267-300.068-41.478-245.63-314.215-189.413-356.517z" fill="#e16e7e"/><path d="m133.327 397.656c-67.762-3.206-99.37-24.384-108.071-42.367-9.027-18.658-7.119-43.253 5.381-50.981 13.009 7.157 50.974 18.476 106.109 21.084 45.458 2.153 115.659-1.206 191.961-29.403 18.74-6.925 39.545 2.652 46.468 21.391 6.925 18.738-2.652 39.543-21.39 46.468-72.126 26.654-148.629 37.203-220.458 33.808z" fill="#eda1ab"/><path d="m162.926 382.84c-18.738-6.925-28.315-27.729-21.39-46.468 6.924-18.738 27.723-28.317 46.468-21.391 59.093 21.838 121.818 28.625 186.419 20.172 53.203-6.961 91.408-22.148 106.464-30.431 13.582 6.58 18.833 30.063 9.424 50.297-12.351 26.561-46.833 44.06-106.502 51.867-79.121 10.352-153.264.942-220.883-24.046z" fill="#f4c8d2"/><path d="m256 69.74c-10.34 0-18.723-8.382-18.723-18.723v-32.294c0-10.34 8.382-18.722 18.723-18.723 10.34 0 18.722 8.382 18.723 18.723v32.294c0 10.34-8.382 18.722-18.723 18.723z" fill="#8de1ce"/><path d="m256 69.74c6.402 0 12.047-3.217 15.423-8.118-23.467-4.628-30.123-39.12-25.293-58.787-5.308 3.305-8.853 9.175-8.853 15.888v32.294c.001 10.34 8.383 18.723 18.723 18.723z" fill="#58d1b4"/><path d="m63.005 80.515c-7.312 7.312-19.166 7.312-26.478 0l-22.835-22.835c-7.312-7.312-7.312-19.165 0-26.478 7.311-7.312 19.166-7.312 26.478 0l22.836 22.835c7.311 7.311 7.311 19.165-.001 26.478z" fill="#8daee1"/><path d="m57.061 84.512c-23.264-7.509-37.099-43.522-27.735-58.622-5.556-.713-11.367 1.045-15.634 5.311-7.312 7.313-7.312 19.166 0 26.478l22.836 22.835c5.552 5.553 13.72 6.878 20.533 3.998z" fill="#6a95d6"/><path d="m448.995 80.515c7.311 7.312 19.166 7.312 26.478 0l22.836-22.835c7.312-7.312 7.312-19.165 0-26.478-7.311-7.312-19.166-7.312-26.478 0l-22.836 22.835c-7.312 7.311-7.312 19.165 0 26.478z" fill="#b39bdb"/><path d="m466.666 36.366-17.671 17.671c-7.311 7.312-7.312 19.165 0 26.478 7.312 7.312 19.166 7.312 26.478 0l5.452-5.452c-15.369-5.28-19.093-27.937-14.259-38.697z" fill="#8f8bd5"/><g><g><ellipse cx="174.042" cy="248.795" fill="#fff" rx="30.241" ry="24.082"/><ellipse cx="337.958" cy="248.795" fill="#fff" rx="30.241" ry="24.082"/><path d="m256 223.208c-11.997 0-22.681-8.062-29.401 1.88-6.816 10.085 8.45 25.723 29.401 25.723s36.217-15.638 29.401-25.723c-6.72-9.942-17.404-1.88-29.401-1.88z" fill="#4e5660"/></g><g fill="#4e5660"><path d="m191.666 231.448c-7.281 0-14.207-3.154-19-8.652-2.722-3.122-2.397-7.86.725-10.581 3.124-2.722 7.859-2.397 10.582.725 1.944 2.23 4.748 3.509 7.693 3.509 2.946 0 5.751-1.279 7.693-3.508 2.722-3.123 7.457-3.447 10.582-.727 3.122 2.722 3.448 7.459.727 10.582-4.793 5.498-11.719 8.652-19.002 8.652z"/><path d="m320.334 231.448c-7.283 0-14.209-3.154-19.002-8.653-2.722-3.123-2.396-7.86.727-10.582 3.122-2.721 7.859-2.396 10.582.727 1.942 2.229 4.747 3.508 7.693 3.508 2.945 0 5.749-1.279 7.693-3.509 2.721-3.123 7.459-3.448 10.582-.725 3.122 2.722 3.446 7.459.725 10.581-4.793 5.499-11.719 8.653-19 8.653z"/></g></g></g></svg>