<svg id="Layer_1" enable-background="new 0 0 256 256" height="512" viewBox="0 0 256 256" width="512" xmlns="http://www.w3.org/2000/svg"><path d="m223.765 192.984h-191.53c-8.635 0-15.635-7-15.635-15.635v-144.626c0-8.635 7-15.635 15.635-15.635h191.531c8.635 0 15.635 7 15.635 15.635v144.625c0 8.636-7 15.636-15.636 15.636z" fill="#4671c6"/><path d="m28.411 140.217v-105.538c0-3.238 2.625-5.863 5.863-5.863h187.622c3.238 0 5.863 2.625 5.863 5.863v105.537c0 3.238-2.625 5.863-5.863 5.863h-187.622c-3.238.001-5.863-2.624-5.863-5.862z" fill="#a4c9ff"/><path d="m195.805 238.912h-135.61c-3.029 0-5.485-2.456-5.485-5.485v-2.712c0-3.029 2.456-5.485 5.485-5.485h135.611c3.029 0 5.485 2.456 5.485 5.485v2.712c-.001 3.03-2.457 5.485-5.486 5.485z" fill="#6bdddd"/><path d="m82.136 192.985-7.882 32.246h107.492l-7.882-32.246z" fill="#a4c9ff"/><path d="m16.599 157.804v19.544c0 8.635 7 15.635 15.635 15.635h191.531c8.635 0 15.635-7 15.635-15.635v-19.544z" fill="#6bdddd"/><path d="m128.501 185.166h-1.003c-5.099 0-9.271-4.172-9.271-9.271v-1.003c0-5.099 4.172-9.271 9.271-9.271h1.003c5.099 0 9.271 4.172 9.271 9.271v1.003c0 5.099-4.172 9.271-9.271 9.271z" fill="#e0ebfc"/><g fill="#3762cc"><path d="m223.766 194.984h-191.532c-9.724 0-17.635-7.911-17.635-17.635v-144.626c0-9.724 7.911-17.635 17.635-17.635h191.531c9.724 0 17.635 7.911 17.635 17.635v144.625c0 9.725-7.911 17.636-17.634 17.636zm-191.532-175.896c-7.519 0-13.635 6.117-13.635 13.635v144.625c0 7.519 6.117 13.635 13.635 13.635h191.531c7.519 0 13.635-6.117 13.635-13.635v-144.625c0-7.519-6.116-13.635-13.635-13.635z"/><path d="m195.806 240.912h-135.611c-4.127 0-7.485-3.357-7.485-7.484v-2.712c0-4.127 3.358-7.484 7.485-7.484h135.611c4.127 0 7.484 3.357 7.484 7.484v2.712c0 4.127-3.357 7.484-7.484 7.484zm-135.611-13.681c-1.921 0-3.485 1.563-3.485 3.484v2.712c0 1.921 1.563 3.484 3.485 3.484h135.611c1.921 0 3.484-1.563 3.484-3.484v-2.712c0-1.921-1.563-3.484-3.484-3.484z"/><path d="m181.746 227.231h-107.492c-.614 0-1.194-.282-1.573-.765s-.515-1.113-.37-1.71l7.882-32.246c.219-.895 1.021-1.525 1.943-1.525h91.727c.922 0 1.724.63 1.942 1.525l7.883 32.246c.146.597.01 1.227-.369 1.71s-.959.765-1.573.765zm-104.944-4h102.396l-6.905-28.246h-88.587z"/><path d="m223.766 194.983h-191.532c-9.724 0-17.635-7.911-17.635-17.635v-19.544c0-1.104.896-2 2-2h222.801c1.104 0 2 .896 2 2v19.544c0 9.724-7.911 17.635-17.634 17.635zm-205.167-35.179v17.544c0 7.519 6.117 13.635 13.635 13.635h191.531c7.519 0 13.635-6.117 13.635-13.635v-17.544z"/><path d="m221.896 148.08h-187.622c-4.336 0-7.863-3.527-7.863-7.863v-105.538c0-4.336 3.527-7.863 7.863-7.863h187.622c4.336 0 7.863 3.527 7.863 7.863v105.538c0 4.336-3.528 7.863-7.863 7.863zm-187.622-117.264c-2.13 0-3.863 1.733-3.863 3.863v105.538c0 2.13 1.733 3.863 3.863 3.863h187.622c2.13 0 3.863-1.733 3.863-3.863v-105.538c0-2.13-1.733-3.863-3.863-3.863z"/></g><path d="m186.79 127.627h-117.41c-2.096 0-3.795-1.699-3.795-3.795v-73.41c0-2.096 1.699-3.795 3.795-3.795h117.41c2.096 0 3.795 1.699 3.795 3.795v73.411c0 2.095-1.699 3.794-3.795 3.794z" fill="#f9a7a7"/><path d="m39.352 132.643c.365.305.822.481 1.292.558l17.346 2.845c1.479.243 2.876-.833 2.981-2.369.092-1.34-.933-2.503-2.258-2.721l-8.969-1.471 41.687-23.012c1.607-.887 2.145-2.938 1.181-4.5-.9-1.458-2.786-1.954-4.287-1.125l-41.688 23.013 3.542-8.392c.505-1.197.104-2.63-1.014-3.29-.476-.281-.993-.392-1.491-.358-.937.064-1.805.641-2.195 1.565l-6.867 16.267c-.428 1.016-.171 2.23.74 2.99z" fill="#e0ebfc"/><path d="m216.818 42.247c-.365-.305-.822-.481-1.292-.558l-17.346-2.845c-1.479-.243-2.876.833-2.981 2.369-.092 1.34.933 2.503 2.258 2.721l8.969 1.471-41.687 23.012c-1.607.887-2.145 2.938-1.181 4.5.9 1.458 2.786 1.954 4.287 1.125l41.688-23.013-3.542 8.392c-.505 1.197-.104 2.63 1.014 3.29.476.281.993.392 1.491.358.937-.064 1.805-.641 2.195-1.565l6.867-16.267c.428-1.016.171-2.23-.74-2.99z" fill="#e0ebfc"/></svg>