<svg id="Capa_1" enable-background="new 0 0 512 512" height="512" viewBox="0 0 512 512" width="512" xmlns="http://www.w3.org/2000/svg"><path d="m298.03 512h-270.778c-5.69 0-10.302-4.612-10.302-10.302v-491.396c0-5.69 4.612-10.302 10.302-10.302h270.778c5.69 0 10.302 4.612 10.302 10.302v491.396c0 5.69-4.612 10.302-10.302 10.302z" fill="#665e66"/><path d="m288.56 0v512h9.471c5.69 0 10.302-4.612 10.302-10.302v-491.396c-.001-5.69-4.613-10.302-10.303-10.302z" fill="#544f57"/><path d="m16.95 480.78v-449.56h65.644c4.04 0 7.707 2.361 9.378 6.039l6.846 15.061c3.377 7.43 10.786 12.201 18.947 12.201h44.875 44.875c8.162 0 15.57-4.77 18.947-12.201l6.846-15.061c1.672-3.678 5.339-6.039 9.378-6.039h65.644v449.56z" fill="#90d8f9"/><path d="m288.56 31.22h19.772v449.561h-19.772z" fill="#75cef9"/><path d="m326.327 207.115c-8.671 9.977-7.612 25.095 2.365 33.766l-15.896-13.815c-9.977-8.671-25.095-7.612-33.766 2.365-8.671 9.977-7.612 25.095 2.365 33.766l-15.709-13.653c-9.977-8.671-25.095-7.612-33.766 2.365-8.671 9.977-7.612 25.095 2.365 33.766l-54.983-47.784c-9.977-8.671-25.095-7.612-33.766 2.365-8.671 9.977-7.612 25.095 2.365 33.766l101.667 88.356c6.927 6.02 3.118 17.411-6.038 18.052l-6.754.473c-13.378.937-23.464 12.542-22.527 25.921.937 13.378 12.832 21.213 25.921 22.527l99.977 7.981c2.195.175 4.276 1.049 5.938 2.493l30.51 26.516c4.294 3.732 10.801 3.276 14.533-1.018l101.395-116.671c3.732-4.294 3.276-10.801-1.018-14.533l-25.214-21.913-16.13-24.249c-5.164-7.763-11.347-14.796-18.384-20.912l-71.685-62.299c-9.976-8.668-25.094-7.609-33.765 2.369z" fill="#f1d0a5"/><path d="m166.56 252.554 90.329 78.503c4.338 3.77 10.911 3.31 14.681-1.028l1.861-2.141c2.239-2.577 1.966-6.481-.611-8.72l-93.519-81.274c-9.977-8.671-25.095-7.612-33.766 2.365-2.269 2.611-3.865 5.575-4.816 8.682 8.308-3.881 18.474-2.789 25.841 3.613z" fill="#f1b986"/><path d="m252.944 264.207 35.346 30.718c4.338 3.77 10.911 3.31 14.681-1.028l1.861-2.141c2.239-2.577 1.966-6.481-.611-8.72l-38.536-33.49c-9.977-8.671-25.095-7.612-33.766 2.365-2.269 2.611-3.865 5.575-4.816 8.682 8.308-3.88 18.474-2.789 25.841 3.614z" fill="#f1b986"/><path d="m300.055 241.727 19.637 17.066c4.338 3.77 10.911 3.31 14.681-1.028l1.861-2.141c2.239-2.577 1.966-6.481-.611-8.72l-22.826-19.838c-9.977-8.671-25.095-7.612-33.766 2.365-2.269 2.611-3.865 5.575-4.816 8.682 8.306-3.879 18.473-2.788 25.84 3.614z" fill="#f1b986"/><path d="m326.327 207.115c-2.269 2.611-3.865 5.575-4.816 8.682 8.307-3.88 18.474-2.788 25.841 3.614l71.685 62.299c7.037 6.116 13.22 13.149 18.384 20.912l16.129 24.249 32.99 28.671 5.984-6.885c3.732-4.294 3.276-10.801-1.018-14.533l-25.214-21.913-16.129-24.249c-5.164-7.763-11.347-14.796-18.384-20.912l-71.685-62.299c-9.978-8.673-25.096-7.614-33.767 2.364z" fill="#f1b986"/><g fill="#544f57"><circle cx="133.503" cy="29.138" r="10.407"/><path d="m202.186 36.864h-40.586c-4.268 0-7.726-3.459-7.726-7.726s3.459-7.726 7.726-7.726h40.586c4.268 0 7.726 3.459 7.726 7.726s-3.458 7.726-7.726 7.726z"/><path d="m196.481 148.847-28.098-31.219c-2.981-3.317-8.351-3.366-11.391-.103l-29.138 31.219c-2.911 3.12-2.742 8.008.377 10.921 1.489 1.389 3.381 2.077 5.27 2.077 2.067 0 4.129-.824 5.651-2.455l15.763-16.889v53.243c0 4.268 3.459 7.726 7.726 7.726s7.726-3.459 7.726-7.726v-52.711l14.629 16.254c1.525 1.695 3.631 2.557 5.744 2.557 1.842 0 3.69-.655 5.167-1.984 3.171-2.853 3.429-7.738.574-10.91z"/><path d="m195.907 373.054c-3.17-2.855-8.056-2.599-10.911.573l-14.629 16.254v-52.711c0-4.268-3.459-7.726-7.726-7.726s-7.726 3.459-7.726 7.726v53.243l-15.763-16.889c-2.91-3.119-7.8-3.288-10.921-.377-3.12 2.912-3.289 7.801-.377 10.921l29.138 31.219c3.047 3.264 8.402 3.219 11.391-.103l28.098-31.219c2.855-3.171 2.597-8.057-.574-10.911-3.17-2.855 3.171 2.854 0 0z"/></g></svg>