<svg height="512pt" viewBox="0 0 512 512" width="512pt" xmlns="http://www.w3.org/2000/svg"><path d="m512 296.800781v-81.601562l-72.101562-23.699219c-2.097657-6.898438-5.097657-13.5-8.097657-20.101562l33.296875-66.898438-57.597656-57.597656-66.898438 33.296875c-6.601562-3-13.203124-6-20.101562-8.101563l-23.699219-72.097656h-81.601562l-23.699219 72.101562c-6.898438 2.097657-13.5 5.097657-20.101562 8.097657l-66.898438-33.296875-57.597656 57.597656 33.296875 66.898438c-3 6.601562-6 13.203124-8.101563 20.101562l-72.097656 23.699219v81.601562l72.101562 23.699219c2.097657 6.898438 5.097657 13.5 8.097657 20.101562l-33.296875 66.898438 57.597656 57.597656 66.898438-33.300781c6.601562 3.003906 13.199218 6 20.097656 8.101563l23.703125 72.101562h81.601562l23.699219-72.101562c6.898438-2.097657 13.5-5.097657 20.101562-8.097657l66.898438 33.296875 57.597656-57.597656-33.296875-66.898438c3-6.601562 6-13.203124 8.101563-20.101562zm0 0" fill="#73bcff"/><path d="m439.898438 320.5c-2.097657 6.898438-5.097657 13.5-8.097657 20.101562l33.296875 66.898438-57.597656 57.597656-66.898438-33.296875c-6.601562 3-13.203124 6-20.101562 8.101563l-23.699219 72.097656h-40.800781v-512h40.800781l23.699219 72.101562c6.898438 2.097657 13.5 5.097657 20.101562 8.097657l66.898438-33.296875 57.597656 57.597656-33.296875 66.898438c3 6.601562 6 13.203124 8.101563 20.101562l72.097656 23.699219v81.601562zm0 0" fill="#0095ff"/><path d="m256 241c-49.5 0-90 40.5-90 90v30h180v-30c0-49.5-40.5-90-90-90zm0 0" fill="#ede9e8"/><path d="m346 331v30h-90v-120c49.5 0 90 40.5 90 90zm0 0" fill="#dfd7d5"/><path d="m256 121c-33 0-60 27-60 60s27 60 60 60 60-27 60-60-27-60-60-60zm0 0" fill="#ede9e8"/><path d="m256 241v-120c33 0 60 27 60 60s-27 60-60 60zm0 0" fill="#dfd7d5"/></svg>