<?xml version="1.0" encoding="iso-8859-1"?>
<!-- Generator: Adobe Illustrator 19.0.0, SVG Export Plug-In . SVG Version: 6.00 Build 0)  -->
<svg version="1.1" id="Capa_1" xmlns="http://www.w3.org/2000/svg" xmlns:xlink="http://www.w3.org/1999/xlink" x="0px" y="0px"
	 viewBox="0 0 407.51 407.51" style="enable-background:new 0 0 407.51 407.51;" xml:space="preserve">
<g>
	<g>
		<g>
			<path style="fill:#87E680;" d="M226.743,303.543c6.523-9.521,19.53-11.952,29.051-5.428c9.521,6.523,11.952,19.53,5.428,29.051
				c-6.523,9.521-19.53,11.952-29.051,5.428c-5.627-3.855-9.019-10.214-9.085-17.035
				C223.266,311.308,224.524,307.173,226.743,303.543z"/>
			<path style="fill:#87E680;" d="M181.29,250.776c2.06,3.479,3.143,7.45,3.135,11.494c-0.093,4.103-1.362,8.092-3.657,11.494
				c-3.757,5.88-10.263,9.429-17.241,9.404c-11.54-0.172-20.756-9.667-20.584-21.207c0.172-11.54,9.667-20.756,21.207-20.584
				C171.067,241.479,177.484,244.999,181.29,250.776z"/>
			<path style="fill:#87E680;" d="M228.31,220.473c-7.501-8.771-6.472-21.963,2.299-29.465c8.771-7.501,21.963-6.472,29.465,2.299
				c7.501,8.771,6.472,21.963-2.299,29.465c-3.84,3.284-8.739,5.065-13.791,5.015C237.899,227.953,232.092,225.243,228.31,220.473z"
				/>
		</g>
		<path style="fill:#00ACEA;" d="M352.653,118.073l-2.612,2.09h-88.816c-8.363,0.294-15.38-6.247-15.673-14.61
			c-0.012-0.354-0.012-0.709,0-1.064V15.673l2.09-2.09L352.653,118.073z"/>
		<path style="fill:#00EFD1;" d="M180.767,273.763c2.295-3.402,3.564-7.391,3.657-11.494c0.009-4.044-1.074-8.014-3.135-11.494
			c-6.349-9.638-19.31-12.305-28.948-5.956c-9.638,6.349-12.305,19.31-5.956,28.948c3.806,5.777,10.223,9.296,17.14,9.399
			C170.505,283.192,177.01,279.643,180.767,273.763z M226.743,303.543c-2.219,3.63-3.477,7.766-3.657,12.016
			c0.201,11.251,9.485,20.209,20.737,20.008c11.251-0.201,20.209-9.485,20.008-20.737c-0.201-11.251-9.485-20.209-20.737-20.008
			C236.56,294.939,230.48,298.182,226.743,303.543z M228.31,220.473c3.782,4.77,9.589,7.48,15.673,7.314
			c11.828,0.249,21.617-9.138,21.866-20.965s-9.138-21.617-20.965-21.866c-11.828-0.249-21.617,9.138-21.866,20.965
			C222.906,211.262,224.793,216.452,228.31,220.473z M245.551,15.673v88.816c-0.294,8.363,6.247,15.38,14.61,15.673
			c0.354,0.012,0.709,0.012,1.064,0h88.816l2.612-2.09l2.612,2.612v234.58c0,23.083-18.713,41.796-41.796,41.796H94.041
			c-23.083,0-41.796-18.713-41.796-41.796V52.245c0-23.083,18.713-41.796,41.796-41.796h150.465l3.135,3.135L245.551,15.673z"/>
	</g>
	<g>
		<path style="fill:#083863;" d="M243.984,284.212c-6.636-0.085-13.097,2.131-18.286,6.269l-31.869-20.376
			c0.605-2.572,0.955-5.197,1.045-7.837c-0.093-2.468-0.443-4.919-1.045-7.314l33.437-21.42c5.041,3.06,10.821,4.686,16.718,4.702
			c17.312,0,31.347-14.035,31.347-31.347s-14.034-31.347-31.347-31.347s-31.347,14.035-31.347,31.347
			c-0.034,3.373,0.496,6.728,1.567,9.927l-31.347,20.898c-5.539-4.296-12.322-6.679-19.331-6.792
			c-17.312,0.014-31.336,14.059-31.322,31.372c0.014,17.293,14.029,31.308,31.322,31.322c6.795,0.078,13.419-2.13,18.808-6.269
			l31.347,20.376c-0.605,2.572-0.955,5.197-1.045,7.837c0,17.312,14.035,31.347,31.347,31.347s31.347-14.035,31.347-31.347
			C275.331,298.247,261.296,284.212,243.984,284.212z M243.984,196.441c5.771,0,10.449,4.678,10.449,10.449
			c0,5.771-4.678,10.449-10.449,10.449c-3.003-0.095-5.835-1.417-7.837-3.657c-1.656-1.878-2.583-4.288-2.612-6.792
			C233.535,201.119,238.213,196.441,243.984,196.441L243.984,196.441L243.984,196.441z M163.527,272.718
			c-5.771,0-10.449-4.678-10.449-10.449c0-5.771,4.678-10.449,10.449-10.449c3.569-0.053,6.919,1.72,8.882,4.702
			c1.069,1.723,1.614,3.72,1.567,5.747c-0.053,2.014-0.591,3.985-1.567,5.747C170.445,270.998,167.096,272.771,163.527,272.718z
			 M243.984,326.008c-5.771,0-10.449-4.678-10.449-10.449c-0.054-2.111,0.692-4.164,2.09-5.747c1.628-3.066,4.893-4.903,8.359-4.702
			c5.771,0,10.449,4.678,10.449,10.449C254.433,321.33,249.754,326.008,243.984,326.008z"/>
		<path style="fill:#083863;" d="M362.58,113.371L254.955,6.269l-3.135-3.135c-1.929-1.969-4.558-3.095-7.314-3.135H94.041
			C65.187,0,41.796,23.391,41.796,52.245l0,0v303.02c0,28.854,23.391,52.245,52.245,52.245h219.429
			c28.854,0,52.245-23.391,52.245-52.245v-234.58C365.675,117.93,364.548,115.301,362.58,113.371z M256,36.571l73.665,73.143
			h-68.441c-2.579,0.307-4.918-1.535-5.224-4.114c-0.044-0.369-0.044-0.742,0-1.111V36.571z M313.469,386.612H94.041
			c-17.312,0-31.347-14.035-31.347-31.347V52.245c0-17.312,14.035-31.347,31.347-31.347h141.061v83.592
			c0,14.427,11.695,26.122,26.122,26.122h83.592v224.653C344.816,372.578,330.782,386.612,313.469,386.612z"/>
	</g>
</g>
<g>
</g>
<g>
</g>
<g>
</g>
<g>
</g>
<g>
</g>
<g>
</g>
<g>
</g>
<g>
</g>
<g>
</g>
<g>
</g>
<g>
</g>
<g>
</g>
<g>
</g>
<g>
</g>
<g>
</g>
</svg>
