<svg width="65" height="51" viewBox="0 0 65 51" fill="none" xmlns="http://www.w3.org/2000/svg">
<path fill-rule="evenodd" clip-rule="evenodd" d="M62.7 1.80001L47.2 13.4L54.7 26.4H64.3V27.9H54.6L50.4 32.1L50.9 32.6L50.6981 32.802C51.9992 34.2095 51.9665 36.4335 50.6 37.8C49.9 38.5 49 38.8 48.1 38.8H47.6C47.7 39.9 47.4 41 46.6 41.8C45.9 42.5 45 42.8 44.1 42.8H43.6C43.7 43.9 43.4 45 42.6 45.8C41.9 46.5 41 46.8 40.1 46.8H39.6C39.7 47.9 39.4 49 38.6 49.8C37.9 50.5 37 50.8 36.1 50.8C35.2 50.8 34.3 50.5 33.6 49.8L31.1 47.3L28.6 49.8C27.9 50.5 27 50.8 26.1 50.8C25.2 50.8 24.3 50.5 23.6 49.8C22.8 49 22.5 47.9 22.6 46.8H22.1C21.2 46.8 20.3 46.5 19.6 45.8C18.8 45 18.5 43.9 18.6 42.8H18.1C17.2 42.8 16.3 42.5 15.6 41.8C14.8 41 14.5 39.9 14.6 38.8H14.1C13.2 38.8 12.3 38.5 11.6 37.8C10.2 36.4 10.2 34.1 11.6 32.7L13.1 31.2L9.90001 28H0.200012V26.4H9.80001L17.3 13.4L1.80001 1.80001L2.70001 0.600006L18.5 12.5H30.2H46L61.8 0.600006L62.7 1.80001ZM49.7 33.6L36.2 20.1L28.7 23.9C28.2 24.1 27.6 24.2 27 24.2C25.2 24.2 22.9 23.3 21.7 21.6C21.5 21.3 21.5 21 21.8 20.7L28.5 14H18.7L10.9 27L14 30.1L15.5 28.6C16.9 27.2 19.2 27.2 20.6 28.6C21.4 29.4 21.7 30.5 21.6 31.6C22.7 31.5 23.8 31.8 24.6 32.6C25.4 33.4 25.7 34.5 25.6 35.6C26.7 35.5 27.8 35.8 28.6 36.6C29.4 37.4 29.7 38.5 29.6 39.6C30.7 39.5 31.8 39.8 32.6 40.6C34 42 34 44.3 32.6 45.7L32.1 46.2L34.6 48.7C35.4 49.5 36.7 49.5 37.5 48.7C38.3 47.9 38.3 46.6 37.5 45.8L37.6332 45.6668L35.7003 43.7339L36.7609 42.6733L38.7408 44.6532L38.6477 44.7462C39.4509 45.4997 40.7157 45.4843 41.5 44.7C42.3 43.9 42.3 42.6 41.5 41.8L41.6332 41.6668L37.7101 37.7437L38.7707 36.683L42.8012 40.7135L42.7113 40.8034C43.5163 41.4984 44.7361 41.4639 45.5 40.7C46.3 39.9 46.3 38.6 45.5 37.8L45.6332 37.6668L39.7203 31.7538L40.7809 30.6932L46.7913 36.7035L46.7006 36.7942C47.5055 37.4987 48.7327 37.4673 49.5 36.7C50.3 35.9 50.3 34.6 49.5 33.8L49.7 33.6ZM31.7 41.8C31.3 41.4 30.7 41.2 30.2 41.2C29.7 41.2 29.2 41.4 28.8 41.8L24.8 45.8C24 46.6 24 47.9 24.8 48.7C25.6 49.5 26.9 49.5 27.7 48.7L31.7 44.7C32.5 43.9 32.5 42.6 31.7 41.8ZM27.7 37.8C27.3 37.4 26.7 37.2 26.2 37.2C25.7 37.2 25.2 37.4 24.8 37.8L20.8 41.8C20 42.6 20 43.9 20.8 44.7C21.6 45.5 22.9 45.5 23.7 44.7L27.7 40.7C28.5 39.9 28.5 38.6 27.7 37.8ZM23.7 33.8C23.3 33.4 22.7 33.2 22.2 33.2C21.7 33.2 21.2 33.4 20.8 33.8L16.8 37.8C16 38.6 16 39.9 16.8 40.7C17.6 41.5 18.9 41.5 19.7 40.7L23.7 36.7C24.5 35.9 24.5 34.6 23.7 33.8ZM18.3 29.2C17.7 29.2 17.2 29.4 16.8 29.8L12.9 33.8C12.1 34.6 12.1 35.9 12.9 36.7C13.7 37.5 15 37.5 15.8 36.7L19.8 32.7C20.6 31.9 20.6 30.6 19.8 29.8C19.4 29.4 18.9 29.2 18.3 29.2ZM38 20L49.2 31.2L53.3 27.1L45.8 14H30.5L23.2 21.3C24.6 22.7 27 23 27.9 22.6L35.9 18.6C36 18.5 36.1 18.5 36.2 18.5H42.2V20H38Z" fill="black"/>
</svg>
