<svg width="58" height="62" viewBox="0 0 58 62" fill="none" xmlns="http://www.w3.org/2000/svg">
<path fill-rule="evenodd" clip-rule="evenodd" d="M57.8 3V59C57.8 60.5 56.5 61.8 55 61.8H15C13.4 61.8 12.2 60.5 12.2 59V3C12.2 1.4 13.5 0.199997 15 0.199997H55C56.6 0.199997 57.8 1.5 57.8 3ZM55.1 60.2C55.7 60.2 56.3 59.7 56.3 59H56.2V3C56.2 2.4 55.7 1.8 55 1.8H15C14.4 1.8 13.8 2.3 13.8 3V59C13.8 59.6 14.3 60.2 15 60.2H55.1ZM31 6.3H37V7.8H31V6.3ZM35 52.3C33.5 52.3 32.2 53.5 32.2 55.1C32.2 56.7 33.4 57.9 35 57.9C36.6 57.9 37.8 56.7 37.8 55.1C37.8 53.5 36.5 52.3 35 52.3ZM35 56.3C34.3 56.3 33.8 55.7 33.8 55.1C33.8 54.5 34.4 53.9 35 53.9C35.6 53.9 36.2 54.5 36.2 55.1C36.2 55.7 35.7 56.3 35 56.3ZM2.29999 0.800003C2.39999 0.500003 2.69999 0.300003 2.99999 0.300003C3.29999 0.300003 3.59999 0.500003 3.89999 0.800003L5.89999 6.8V7V59C5.89999 60.6 4.69999 61.8 3.09999 61.8C1.49999 61.8 0.299988 60.5 0.299988 59V7V6.8L2.29999 0.800003ZM3.09999 60.2C3.69999 60.2 4.29999 59.7 4.29999 59V7.1L3.09999 3.3L1.89999 7.1V59C1.89999 59.6 2.49999 60.2 3.09999 60.2Z" fill="black"/>
</svg>
