<svg width="64" height="64" viewBox="0 0 64 64" fill="none" xmlns="http://www.w3.org/2000/svg">
<path fill-rule="evenodd" clip-rule="evenodd" d="M40.8 0V2C40.8 5.7 37.7 8.8 34.2 8.8H30.2C26.4 8.8 23.4 5.7 23.4 2V0H24.9V2C24.9 4.8 27.2 7.2 30.1 7.2H34.1C36.9 7.2 39.3 4.9 39.3 2V0H40.8ZM27.2 16C27.2 13.3 29.4 11.2 32 11.2C34.6 11.2 36.8 13.3 36.8 16C36.8 18.7 34.7 20.8 32 20.8C29.3 20.8 27.2 18.7 27.2 16ZM28.8 16C28.8 17.7 30.2 19.2 32 19.2C33.8 19.2 35.2 17.7 35.2 16C35.2 14.3 33.7 12.8 32 12.8C30.3 12.8 28.8 14.3 28.8 16ZM11.2 32C11.2 29.3 13.4 27.2 16 27.2C18.6 27.2 20.8 29.3 20.8 32C20.8 34.7 18.7 36.8 16 36.8C13.3 36.8 11.2 34.7 11.2 32ZM12.8 32C12.8 33.7 14.2 35.2 16 35.2C17.8 35.2 19.2 33.7 19.2 32C19.2 30.3 17.7 28.8 16 28.8C14.3 28.8 12.8 30.3 12.8 32ZM48 36.8C45.3 36.8 43.2 34.6 43.2 32C43.2 29.4 45.3 27.2 48 27.2C50.7 27.2 52.8 29.3 52.8 32C52.8 34.7 50.7 36.8 48 36.8ZM51.2 32C51.2 30.3 49.8 28.8 48 28.8C46.2 28.8 44.8 30.3 44.8 32C44.8 33.7 46.3 35.2 48 35.2C49.7 35.2 51.2 33.7 51.2 32ZM32 43.2C29.4 43.2 27.2 45.3 27.2 48C27.2 50.7 29.3 52.8 32 52.8C34.7 52.8 36.8 50.7 36.8 48C36.8 45.3 34.6 43.2 32 43.2ZM32 51.2C30.2 51.2 28.8 49.7 28.8 48C28.8 46.3 30.3 44.8 32 44.8C33.7 44.8 35.2 46.3 35.2 48C35.2 49.7 33.8 51.2 32 51.2ZM46.7 46.7C48.6 44.8 48.6 41.8 46.7 40C44.8 38.1 41.8 38.1 40 40C39.1 40.9 38.6 42.1 38.6 43.4C38.6 44.7 39.1 45.9 40 46.8C40.9 47.7 42.1 48.2 43.4 48.2C44.5 48.1 45.7 47.6 46.7 46.7ZM41 45.6C40.4 45 40 44.2 40 43.3C40 42.4 40.3 41.6 41 41C41.6 40.4 42.5 40.1 43.3 40.1C44.1 40.1 45 40.4 45.6 41C46.9 42.3 46.9 44.3 45.6 45.6C44.3 46.9 42.3 46.9 41 45.6ZM24 17.3C24.9 18.2 25.4 19.4 25.4 20.7C25.4 22 24.9 23.1 24.1 24C23.1 24.9 21.9 25.4 20.7 25.4C19.4 25.4 18.2 24.9 17.3 24C15.4 22.2 15.4 19.2 17.3 17.3C19.1 15.4 22.1 15.4 24 17.3ZM18.4 23C19.7 24.3 21.7 24.3 23 23C23.6 22.4 23.9 21.6 24 20.7C24 19.8 23.6 19 23 18.4C22.4 17.8 21.5 17.5 20.7 17.5C19.9 17.5 19 17.8 18.4 18.4C17.1 19.7 17.1 21.7 18.4 23ZM24 46.7C24.9 45.8 25.4 44.6 25.4 43.3C25.4 42 24.9 40.8 24 39.9C22.1 38 19.1 38.1 17.3 39.9C15.4 41.8 15.4 44.8 17.3 46.6C18.2 47.5 19.4 48 20.7 48C21.9 48.1 23.1 47.6 24 46.7ZM18.4 41C19 40.4 19.9 40.1 20.7 40.1C21.5 40.1 22.4 40.4 23 41C23.6 41.6 24 42.4 24 43.3C24 44.2 23.7 45 23 45.6C21.7 46.9 19.7 46.9 18.4 45.6C17.1 44.3 17.1 42.3 18.4 41ZM38.6 20.7C38.6 19.4 39.1 18.2 40 17.3C41.8 15.5 44.8 15.5 46.8 17.4C48.7 19.2 48.7 22.2 46.8 24.1C45.8 25 44.6 25.5 43.4 25.5C42.1 25.5 40.9 25 40 24.1C39.1 23.2 38.6 22 38.6 20.7ZM40 20.7C40 21.6 40.4 22.4 41 23C42.3 24.3 44.3 24.3 45.6 23C46.9 21.7 46.9 19.7 45.6 18.4C45 17.8 44.1 17.5 43.3 17.5C42.5 17.5 41.6 17.8 41 18.4C40.3 19 40 19.8 40 20.7ZM55.2 30V34C55.2 37.7 58.2 40.8 62 40.8H64V39.3H62C59.1 39.3 56.8 36.9 56.8 34.1V30.1C56.8 27.2 59.2 24.9 62 24.9H64V23.4H62C58.3 23.2 55.2 26.3 55.2 30ZM8.8 30V34C8.8 37.7 5.7 40.8 2 40.6H0V39.1H2C4.8 39.1 7.2 36.8 7.2 33.9V29.9C7.2 27.1 4.9 24.7 2 24.7H0V23.2H2C5.8 23.2 8.8 26.3 8.8 30ZM40.8 64V62C40.8 58.3 37.8 55.2 34 55.2H30C26.3 55.2 23.2 58.2 23.2 62V64H24.7V62C24.7 59.1 27.1 56.8 29.9 56.8H33.9C36.8 56.8 39.1 59.2 39.1 62V64H40.8ZM4.20001 14.5L3.10001 15.6L4.50001 17C5.80001 18.3 7.5 19 9.3 19C11 19 12.8 18.3 14.1 17L16.9 14.2C18.2 12.9 18.9 11.2 18.9 9.40001C18.9 7.60001 18.2 5.90001 16.9 4.60001L15.5 3.20001L14.4 4.30001L15.8 5.70001C16.8 6.70001 17.3 8.00001 17.3 9.40001C17.3 10.8 16.8 12.1 15.8 13.1L13 15.9C11 17.9 7.60001 17.9 5.60001 15.9L4.20001 14.5ZM58.3 48.1C56.3 46.1 52.9 46.1 50.9 48.1L48.1 51C47.1 52 46.6 53.3 46.6 54.7C46.6 56.1 47.1 57.4 48.1 58.4L49.5 59.8L48.4 60.9L47 59.5C45.7 58.2 45 56.5 45 54.7C45 52.9 45.7 51.2 47 49.9L49.9 47C52.5 44.4 56.8 44.4 59.4 47L60.8 48.4L59.7 49.5L58.3 48.1ZM14.5 59.8L15.6 60.9L17 59.5C18.3 58.2 19 56.5 19 54.7C19 52.9 18.3 51.2 17 49.9L14.1 47C11.5 44.4 7.20001 44.4 4.60001 47L3.20001 48.4L4.30001 49.5L5.70001 48.1C7.70001 46.1 11.1 46.1 13.1 48.1L15.9 50.9C16.9 51.9 17.4 53.2 17.4 54.6C17.4 56 16.9 57.3 15.9 58.3L14.5 59.8ZM59.7 14.5L60.8 15.6L59.4 17C58.1 18.3 56.4 19 54.6 19C52.8 19 51.1 18.3 49.8 17L47 14.2C45.7 12.9 45 11.2 45 9.40001C45 7.60001 45.7 5.90001 47 4.60001L48.4 3.20001L49.5 4.30001L48.1 5.70001C47.1 6.70001 46.6 8.00001 46.6 9.40001C46.6 10.8 47.1 12.1 48.1 13.1L50.9 15.9C51.9 16.9 53.2 17.4 54.6 17.4C56 17.4 57.3 16.9 58.3 15.9L59.7 14.5Z" fill="black"/>
</svg>
