<svg width="63" height="43" viewBox="0 0 63 43" fill="none" xmlns="http://www.w3.org/2000/svg">
<path d="M59.5 12.9H56.3V9.8C56.3 8.3 55.1 7 53.5 7H28.3C28 7 27.7 6.9 27.4 6.6L22.5 1.7C22 1.2 21.3 0.900002 20.6 0.900002H3.59999C2.09999 0.900002 0.799988 2.1 0.799988 3.7V39.7C0.799988 40.8 1.49999 41.8 2.39999 42.2C2.69999 42.3 2.99999 42.4 3.29999 42.4H54C55.2 42.4 56.3 41.6 56.7 40.4L62.3 15.9C62.5 15.2 62.4 14.5 61.9 14C61.4 13.3 60.5 12.9 59.5 12.9ZM2.29999 35.4V3.6C2.29999 2.9 2.89999 2.4 3.49999 2.4H20.5C20.8 2.4 21.2 2.5 21.4 2.8L26.3 7.7C26.8 8.2 27.5 8.5 28.2 8.5H53.5C54.2 8.5 54.7 9.1 54.7 9.7V12.8H9.49999C8.19999 12.8 7.19999 13.8 6.79999 15.4L2.29999 35.4ZM60.8 15.5L55.2 40C55 40.5 54.6 40.9 54 40.9H3.49999C3.29999 40.9 3.19999 40.9 3.09999 40.8C2.99999 40.8 2.89999 40.7 2.89999 40.6C2.79999 40.4 2.69999 40.2 2.79999 40L8.29999 15.8C8.39999 15.5 8.79999 14.3 9.59999 14.3H59.6C60.1 14.3 60.5 14.5 60.8 14.7C60.8 15 60.9 15.2 60.8 15.5Z" fill="black"/>
</svg>
