<svg width="63" height="62" viewBox="0 0 63 62" fill="none" xmlns="http://www.w3.org/2000/svg">
<path fill-rule="evenodd" clip-rule="evenodd" d="M44.2 5.1V15.1C44.2 16.6 43 17.8 41.5 17.9H21.5C19.9 17.9 18.7 16.6 18.7 15.1V5.1C18.7 3.5 20 2.3 21.5 2.3H25.2L27 0.499999C27.1 0.399999 27.3 0.299999 27.5 0.299999H35.5C35.7 0.299999 35.9 0.399999 36 0.499999L37.7 2.3H41.4C43 2.3 44.2 3.6 44.2 5.1ZM20.2 5.1V15.1C20.2 15.8 20.8 16.3 21.4 16.3H41.4C42 16.3 42.6 15.8 42.6 15.1V5.1C42.6 4.5 42.1 3.9 41.4 3.9H37.4C37.2 3.9 37 3.8 36.9 3.7L35.1 1.9H27.7L25.9 3.7C25.8 3.8 25.6 3.9 25.4 3.9H21.4C20.8 3.9 20.2 4.4 20.2 5.1ZM2.70001 41.1V37.4C1.60001 36.7 0.700012 35.5 0.700012 34.1V28.1C0.700012 26.7 1.50001 25.4 2.70001 24.8V21.1C2.70001 20.6 3.10001 20.3 3.50001 20.3H11.5C12 20.3 12.3 20.7 12.3 21.1V24.8C13.5 25.4 14.3 26.7 14.3 28.1V34.1C14.3 35.5 13.5 36.8 12.3 37.4V41.1C12.3 41.6 11.9 41.9 11.5 41.9H3.50001C3.00001 41.9 2.70001 41.5 2.70001 41.1ZM4.20001 40.3H10.6V37.8H10.4H4.40001H4.20001V40.3ZM10.7 21.8H4.30001V24.3H4.50001H10.5H10.7V21.8ZM4.40001 25.9C3.20001 25.9 2.20001 26.9 2.20001 28.1V34.1C2.20001 35.3 3.20001 36.3 4.40001 36.3H10.4C11.6 36.3 12.6 35.3 12.6 34.1V28.1C12.6 26.9 11.6 25.9 10.4 25.9H4.40001ZM42.3 57C42.3 57.5 41.9 57.8 41.5 57.8H32.4V60.3H35.6V61.8H27.6V60.3H30.8V57.8H21.5C21 57.8 20.7 57.4 20.7 57V45C20.7 44.5 21.1 44.2 21.5 44.2H41.5C42 44.2 42.3 44.6 42.3 45V57ZM40.7 45.8H22.2V56.3H40.7V45.8ZM62.2 33.1C62.2 31.8 61.3 30.8 60.2 30.5C59.9 26 56.1 22.4 51.5 22.4C46.9 22.4 43.1 26 42.8 30.5C41.6 30.8 40.8 31.9 40.8 33.1V35.1C40.8 36.6 42 37.9 43.6 37.9H45.6C46 37.9 46.4 37.6 46.4 37.1V31.1C46.4 30.7 46.1 30.3 45.6 30.3H44.4C44.8 26.7 47.9 23.8 51.6 23.8C55.3 23.8 58.4 26.7 58.8 30.3H57.6C57.2 30.3 56.8 30.6 56.8 31.1V37.1C56.8 37.5 57.1 37.9 57.6 37.9H59.6C61.1 37.9 62.4 36.7 62.4 35.1V33.1H62.2ZM44.7 31.9V36.3H43.5C42.8 36.3 42.3 35.7 42.3 35.1V33.1C42.3 32.4 42.9 31.9 43.5 31.9H44.7ZM60.7 35.1C60.7 35.8 60.1 36.3 59.5 36.3H58.3V31.8H59.5C60.2 31.8 60.7 32.4 60.7 33V35.1ZM31.5 4.3C28.9 4.3 26.7 6.4 26.7 9.1C26.7 11.8 28.8 13.9 31.5 13.9C34.2 13.9 36.3 11.8 36.3 9.1C36.3 6.4 34.1 4.3 31.5 4.3ZM31.5 12.3C29.7 12.3 28.3 10.8 28.3 9.1C28.3 7.4 29.8 5.9 31.5 5.9C33.2 5.9 34.7 7.4 34.7 9.1C34.7 10.8 33.3 12.3 31.5 12.3ZM38.5 7.1C38.5 6.5 38.9 6.1 39.5 6.1C40.1 6.1 40.5 6.5 40.5 7.1C40.5 7.7 40.1 8.1 39.5 8.1C38.9 8.1 38.5 7.7 38.5 7.1Z" fill="black"/>
</svg>
