<svg width="55" height="66" viewBox="0 0 55 66" fill="none" xmlns="http://www.w3.org/2000/svg">
<path fill-rule="evenodd" clip-rule="evenodd" d="M34.7 4.09999V10.7C34.7 11.7 33.9 12.5 32.8 12.5H19.5C18.5 12.5 17.7 11.7 17.7 10.7V3.99999C17.7 2.99999 18.5 2.19999 19.5 2.19999H22L23.1 0.999994C23.15 0.999994 23.225 0.974994 23.3 0.949994C23.375 0.924994 23.45 0.899994 23.5 0.899994H28.8C29 0.899994 29.1 0.899994 29.2 0.999994L30.4 2.29999H32.9C33.9 2.29999 34.7 3.09999 34.7 4.09999ZM18.7 4.09999V10.7C18.7 11.2 19.1 11.5 19.6 11.6H33C33.4 11.6 33.8 11.3 33.8 10.8V4.09999C33.8 3.69999 33.5 3.29999 33 3.29999H30.3C30.1 3.29999 30 3.29999 29.9 3.19999L28.7 1.99999H23.8L22.6 3.19999C22.55 3.19999 22.475 3.22499 22.4 3.24999C22.325 3.27499 22.25 3.29999 22.2 3.29999H19.5C19.1 3.29999 18.7 3.59999 18.7 4.09999ZM7.09999 25.6V28C7.09999 28.3 7.29999 28.5 7.59999 28.5H12.9C13.2 28.5 13.4 28.3 13.4 28V25.5C14.2 25.1 14.7 24.3 14.7 23.3V19.3C14.7 18.3 14.2 17.5 13.4 17.1V14.6C13.4 14.3 13.2 14.1 12.9 14.1H7.59999C7.29999 14.1 7.09999 14.3 7.09999 14.6V17.1C6.29999 17.5 5.79999 18.3 5.79999 19.3V23.3C5.79999 24.3 6.29999 25.1 7.09999 25.6ZM12.4 27.5H8.09999V25.8H8.29999H12.3H12.5V27.5H12.4ZM8.09999 15.2H12.4V16.9H12.2H8.19999H7.99999V15.2H8.09999ZM6.79999 19.4C6.79999 18.6 7.49999 17.9 8.29999 17.9H12.3C13.1 17.9 13.8 18.6 13.8 19.4V23.4C13.8 24.2 13.1 24.9 12.3 24.9H8.29999C7.49999 24.9 6.79999 24.2 6.79999 23.4V19.4ZM34.8 60.4H19.2C19 60.4 18.8 60.5 18.7 60.6L14.7 64.6L15.8 65.7L19.6 61.9H34.8C36.6 61.9 38.3 61.2 39.6 59.9L53.8 45.7C55.2 44.3 55.2 42 53.8 40.6C52.4 39.2 50.2 39.2 48.8 40.6L47.4 42L46.8 41.4C45.4 40.1 43.2 40.1 41.9 41.4L35 48.4C34.9 48.4 34.8 48.375 34.7 48.35C34.6 48.325 34.5 48.3 34.4 48.3H19.7C17.9 48.3 16.2 49 14.9 50.3L0.700012 64.7L1.80001 65.8L16 51.5C17 50.5 18.3 50 19.7 50H34.2C35.4 50 36.4 51 36.4 52.2C36.4 52.7 36.1 53.2 35.7 53.7L35.6 53.8C35.2 54.2 34.6 54.5 34.2 54.5H23.1V56H34.2C35.1 56 36.1 55.5 36.8 54.8L49.7 41.8C50.5 41 51.8 41 52.6 41.8C53.4 42.6 53.4 44 52.6 44.8L38.5 58.9C37.5 59.9 36.2 60.4 34.8 60.4ZM37.9 51.5C37.7 50.5 37.1 49.7 36.4 49.1L42.9 42.6C43.7 41.8 44.9 41.8 45.7 42.6L46.3 43.1L37.9 51.5ZM33.4 38.7C33.4 39 33.2 39.2 32.9 39.2H26.7V40.9H28.9V41.9H23.6V40.9H25.8V39.2H19.6C19.3 39.2 19.1 39 19.1 38.7V30.7C19.1 30.4 19.3 30.2 19.6 30.2H32.9C33.2 30.2 33.4 30.4 33.4 30.7V38.7ZM32.4 31.2H20.1V38.2H32.4V31.2ZM46.7 22.7C46.7 21.9 46.1 21.2 45.3 20.9C45.1 17.9 42.6 15.5 39.5 15.5C36.4 15.5 33.9 17.9 33.7 20.9C32.9 21.1 32.3 21.8 32.3 22.7V24C32.3 25 33.1 25.8 34.1 25.8H35.4C35.7 25.8 35.9 25.6 35.9 25.3V21.3C35.9 21 35.7 20.8 35.4 20.8H34.6C34.9 18.4 36.9 16.5 39.4 16.5C41.9 16.5 43.9 18.4 44.2 20.8H43.4C43.1 20.8 42.9 21 42.9 21.3V25.3C42.9 25.6 43.1 25.8 43.4 25.8H44.7C45.7 25.8 46.5 25 46.5 24V22.7H46.7ZM35.1 22V24.9H34.3C33.8 24.9 33.5 24.5 33.5 24.1V22.8C33.5 22.3 33.9 22 34.3 22H35.1ZM45.7 24C45.7 24.5 45.3 24.8 44.9 24.8H44V21.8H44.8C45.3 21.8 45.6 22.2 45.6 22.6V24H45.7ZM26.2 3.60001C24.5 3.60001 23 5.00001 23 6.80001C23 8.60001 24.4 10 26.2 10C27.9 10 29.4 8.60001 29.4 6.80001C29.4 5.00001 28 3.60001 26.2 3.60001ZM26.2 8.90001C25 8.90001 24 7.90001 24 6.70001C24 5.50001 25 4.50001 26.2 4.50001C27.4 4.50001 28.4 5.50001 28.4 6.70001C28.4 7.90001 27.4 8.90001 26.2 8.90001ZM30.9 5.40001C30.9 5.00001 31.2 4.70001 31.6 4.70001C31.9 4.70001 32.2 5.00001 32.3 5.40001C32.3 5.80001 32 6.10001 31.6 6.10001C31.2 6.10001 30.9 5.80001 30.9 5.40001Z" fill="black"/>
</svg>
