<?xml version="1.0" encoding="utf-8"?>
<!-- Generator: Adobe Illustrator 26.2.1, SVG Export Plug-In . SVG Version: 6.00 Build 0)  -->
<svg version="1.1" id="Layer_1" xmlns="http://www.w3.org/2000/svg" xmlns:xlink="http://www.w3.org/1999/xlink" x="0px" y="0px"
	 viewBox="0 0 80 80" style="enable-background:new 0 0 80 80;" xml:space="preserve">
<path d="M58.7,30.5c0-0.2,0-0.3,0-0.5c0-10.3-8.4-18.8-18.8-18.8c-10.3,0-18.8,8.4-18.8,18.8c0,0.2,0,0.3,0,0.5
	c-7,2.7-12,9.5-12,17.5c0,10.3,8.4,18.8,18.8,18.8c4.6,0,8.7-1.6,12-4.4c3.3,2.7,7.4,4.4,12,4.4c10.3,0,18.8-8.4,18.8-18.8
	C70.8,40,65.7,33.2,58.7,30.5 M40,12.8c9.5,0,17.2,7.7,17.2,17.2c0,0,0,0,0,0c-1.7-0.5-3.4-0.8-5.2-0.8c-4.6,0-8.7,1.6-12,4.4
	c-3.3-2.7-7.4-4.4-12-4.4c-1.8,0-3.6,0.3-5.2,0.8c0,0,0,0,0,0C22.8,20.5,30.5,12.8,40,12.8 M40,35.6c2.9,2.8,4.8,6.6,5.2,10.8
	c-1.6,0.5-3.4,0.8-5.2,0.8c-1.8,0-3.5-0.3-5.2-0.8C35.2,42.2,37.1,38.4,40,35.6 M33.4,45.9c-5.8-2.4-10-7.9-10.5-14.4
	c1.6-0.5,3.4-0.8,5.2-0.8c4.1,0,7.9,1.5,10.9,3.9C35.9,37.6,33.9,41.5,33.4,45.9 M41.1,34.6c3-2.4,6.8-3.9,10.9-3.9
	c1.8,0,3.5,0.3,5.2,0.8c-0.6,6.5-4.8,12-10.5,14.4C46.1,41.5,44.1,37.6,41.1,34.6 M28,65.2c-9.5,0-17.2-7.7-17.2-17.2
	c0-7.2,4.4-13.3,10.6-15.9c0.8,7.1,5.5,12.9,11.9,15.4c0,0.2,0,0.3,0,0.5c0,5.2,2.2,10,5.6,13.4C35.9,63.8,32.1,65.2,28,65.2
	 M34.8,48C34.8,48,34.8,48,34.8,48c1.7,0.5,3.4,0.8,5.2,0.8c1.8,0,3.6-0.3,5.2-0.8c0,0,0,0,0,0c0,4.8-2,9.2-5.2,12.4
	C36.8,57.2,34.8,52.8,34.8,48 M52,65.2c-4.1,0-7.9-1.5-10.9-3.9c3.5-3.4,5.6-8.1,5.6-13.4c0-0.2,0-0.3,0-0.5
	c6.4-2.5,11.1-8.3,11.9-15.4c6.2,2.6,10.6,8.8,10.6,15.9C69.3,57.5,61.5,65.2,52,65.2"/>
</svg>
