<svg width="43" height="62" viewBox="0 0 43 62" fill="none" xmlns="http://www.w3.org/2000/svg">
<path fill-rule="evenodd" clip-rule="evenodd" d="M0.5 61.2V1.2C0.5 0.8 0.799999 0.5 1.4 0.5H27.4C27.6 0.5 27.8 0.599999 27.9 0.7L41.9 14.7C42 14.8 42.1 15 42.1 15.2V61.2C42.1 61.7 41.7 62 41.3 62H1.3C0.799999 62 0.5 61.6 0.5 61.2ZM39.4 14.4L28 3V14.4H39.4ZM26.5 2H2V60.5H40.5V16H27.3C26.8 16 26.5 15.6 26.5 15.2V2ZM35.2 22.5H7.20001V24H35.2V22.5ZM35.2 28.5H7.20001V30H35.2V28.5ZM7.20001 34.5H35.2V36H7.20001V34.5ZM27.2 40.5H7.20001V42H27.2V40.5Z" fill="black"/>
</svg>
