<svg width="62" height="62" viewBox="0 0 62 62" fill="none" xmlns="http://www.w3.org/2000/svg">
<path fill-rule="evenodd" clip-rule="evenodd" d="M33.7 3.00001C33.7 1.50001 32.5 0.200012 30.9 0.200012C29.4 0.200012 28.1 1.40001 28.1 3.00001C28.1 4.50001 29.3 5.80001 30.9 5.80001C32.5 5.80001 33.7 4.50001 33.7 3.00001ZM29.7 3.00001C29.7 2.30001 30.3 1.80001 30.9 1.80001C31.6 1.80001 32.1 2.40001 32.1 3.00001C32.1 3.70001 31.5 4.20001 30.9 4.20001C30.3 4.30001 29.7 3.70001 29.7 3.00001ZM39.7 42.9V42.8C43.3 40.1 45.7 35.8 45.7 31C45.7 26.1 43.3 21.8 39.7 19.2V19H39.5C37.1 17.3 34.1 16.2 31 16.2C22.9 16.2 16.2 22.8 16.2 31C16.2 32.6 16.5 34.2 17 35.6V35.7C19 41.5 24.5 45.7 31 45.7C34.2 45.7 37.1 44.7 39.5 42.9H39.7ZM30.2 17.8V19C30.2 20.8 28.7 22.2 27 22.2C24.4 22.2 22.2 24.3 22.2 27C22.2 28.8 20.7 30.2 19 30.2H17.8C18.2 23.5 23.5 18.2 30.2 17.8ZM28.2 44C23.8 43.1 20.2 39.9 18.6 35.8H25C26.8 35.8 28.2 37.3 28.2 39V44ZM38.2 42.1C36.1 43.5 33.6 44.3 31 44.3C30.6 44.3 30.2 44.3 29.8 44.2V39C29.8 36.4 27.7 34.2 25 34.2H18.2C18 33.4 17.9 32.6 17.8 31.7H19C21.6 31.7 23.8 29.6 23.8 26.9C23.8 25.1 25.3 23.7 27 23.7C29.6 23.7 31.8 21.6 31.8 18.9V17.7C34.2 17.8 36.4 18.6 38.3 19.8V23C38.3 24.8 36.8 26.2 35.1 26.2C32.5 26.2 30.3 28.3 30.3 31C30.3 33.6 32.4 35.8 35.1 35.8C36.9 35.8 38.3 37.3 38.3 39V42.1H38.2ZM35 34.3C33.2 34.3 31.8 32.8 31.8 31.1C31.8 29.3 33.3 27.9 35 27.9C37.6 27.9 39.8 25.8 39.8 23.1V21.2C42.6 23.6 44.3 27.2 44.3 31.1C44.3 35.1 42.6 38.6 39.8 41V39C39.7 36.4 37.6 34.3 35 34.3ZM35.7 12V13H34V12C34 10.8 33 9.80001 31.8 9.80001H29.8C28.6 9.80001 27.6 10.8 27.6 12V13H26.1V12C26.1 9.90001 27.8 8.20001 29.9 8.20001H31.9C34 8.20001 35.7 9.90001 35.7 12ZM28.2 59C28.2 60.5 29.4 61.8 31 61.8C32.5 61.8 33.8 60.6 33.8 59C33.8 57.5 32.6 56.2 31 56.2C29.5 56.3 28.2 57.5 28.2 59ZM32.2 59C32.2 59.7 31.6 60.2 31 60.2C30.3 60.2 29.8 59.6 29.8 59C29.8 58.3 30.4 57.8 31 57.8C31.7 57.8 32.2 58.3 32.2 59ZM35.7 49V50C35.7 52.1 34.1 53.8 32.1 53.8H30.1C28 53.8 26.3 52.1 26.3 50V49H27.8V50C27.8 51.2 28.8 52.2 30 52.2H32C33.2 52.2 34.2 51.2 34.2 50V49H35.7ZM13.1 9.29999C12.1 8.29999 10.2 8.29999 9.2 9.29999C8.1 10.4 8.1 12.1 9.2 13.2C9.7 13.7 10.4 14 11.1 14C11.8 14 12.5 13.7 13 13.2C14.2 12.1 14.2 10.3 13.1 9.29999ZM10.3 12.1C9.8 11.6 9.8 10.8 10.3 10.3C10.5 10.1 10.9 9.89999 11.2 9.89999C11.5 9.89999 11.8 9.99999 12.1 10.3C12.6 10.8 12.6 11.6 12.1 12.1C11.6 12.6 10.8 12.6 10.3 12.1ZM19.9 15.3C19 14.4 17.6 14.4 16.7 15.3L15.4 16.6C14.5 17.5 14.5 18.9 15.4 19.8L16.1 20.5L15 21.6L14.3 20.9C12.8 19.4 12.8 17.1 14.3 15.6L15.7 14.2C17.2 12.7 19.5 12.7 21 14.2L21.7 14.9L20.6 16L19.9 15.3ZM50.8 53.6C51.5 53.6 52.2 53.3 52.7 52.8C53.2 52.3 53.5 51.6 53.5 50.9C53.5 50.2 53.2 49.5 52.7 49C51.7 48 49.9 48 48.8 49C48.3 49.5 48 50.2 48 50.9C48 51.6 48.3 52.3 48.8 52.8C49.4 53.3 50.1 53.6 50.8 53.6ZM49.9 49.9C50.1 49.7 50.4 49.5 50.8 49.5C51.2 49.5 51.4 49.6 51.7 49.9C51.9 50.1 52.1 50.5 52.1 50.8C52.1 51.1 52 51.4 51.7 51.7C51.2 52.2 50.4 52.2 49.9 51.7C49.7 51.5 49.5 51.1 49.5 50.8C49.5 50.5 49.7 50.2 49.9 49.9ZM46.4 47.8C45.6 48.5 44.7 48.9 43.7 48.9C42.8 48.9 41.8 48.5 41 47.8L40.3 47.1L41.4 46L42.1 46.7C43 47.6 44.4 47.6 45.3 46.7L46.7 45.3C47.6 44.4 47.6 43 46.7 42.1L46 41.4L47.1 40.4L47.8 41.1C49.3 42.6 49.3 44.9 47.8 46.4L46.4 47.8ZM0.200012 31C0.200012 32.5 1.40001 33.8 3.00001 33.8C4.50001 33.8 5.80001 32.6 5.80001 31C5.80001 29.5 4.60001 28.2 3.00001 28.2C1.50001 28.3 0.200012 29.5 0.200012 31ZM4.20001 31C4.20001 31.7 3.60001 32.2 3.00001 32.2C2.30001 32.2 1.80001 31.6 1.80001 31C1.80001 30.3 2.40001 29.8 3.00001 29.8C3.70001 29.8 4.20001 30.3 4.20001 31ZM13 35.8H12C9.90001 35.8 8.20001 34.1 8.20001 32.2V30.2C8.20001 28.1 9.90001 26.4 12 26.4H13V27.9H12C10.8 27.9 9.80001 28.9 9.80001 30.1V32.1C9.80001 33.3 10.8 34.3 12 34.3H13V35.8ZM59 28.3C57.5 28.3 56.2 29.5 56.2 31.1C56.2 32.6 57.4 33.9 59 33.9C60.5 33.9 61.8 32.7 61.8 31.1C61.7 29.5 60.5 28.3 59 28.3ZM59 32.3C58.3 32.3 57.8 31.7 57.8 31.1C57.8 30.4 58.4 29.9 59 29.9C59.7 29.9 60.2 30.5 60.2 31.1C60.2 31.7 59.7 32.3 59 32.3ZM50 27.8H49L50 26.1C52.1 26.1 53.8 27.8 53.8 29.9V31.9C53.8 34 52.1 35.7 50 35.7H49V34.2H50C51.2 34.2 52.2 33.2 52.2 32V30C52.2 28.8 51.2 27.8 50 27.8ZM11.2 53.6C11.9 53.6 12.6 53.3 13.1 52.8C13.6 52.3 13.9 51.6 13.9 50.9C13.9 50.2 13.6 49.5 13.1 49C12.1 48 10.2 48 9.2 49C8.7 49.5 8.39999 50.2 8.39999 50.9C8.39999 51.6 8.7 52.3 9.2 52.8C9.8 53.3 10.5 53.6 11.2 53.6ZM10.3 49.9C10.5 49.7 10.8 49.5 11.2 49.5C11.6 49.5 11.8 49.6 12.1 49.9C12.3 50.1 12.5 50.5 12.5 50.8C12.5 51.1 12.4 51.4 12.1 51.7C11.6 52.2 10.8 52.2 10.3 51.7C10.1 51.5 9.89999 51.1 9.89999 50.8C9.89999 50.5 10.1 50.2 10.3 49.9ZM18.3 48.9C17.3 48.9 16.3 48.5 15.6 47.8L14.2 46.3C12.7 44.8 12.7 42.5 14.2 41L14.9 40.3L16 41.4L15.3 42.1C14.4 43 14.4 44.4 15.3 45.3L16.7 46.7C17.6 47.6 19 47.6 19.9 46.7L20.6 46L21.7 47.1L21 47.8C20.2 48.5 19.3 48.9 18.3 48.9ZM52.7 13.2C53.8 12.1 53.8 10.4 52.7 9.29999C51.7 8.29999 49.9 8.29999 48.8 9.29999C47.7 10.4 47.7 12.1 48.8 13.2C49.3 13.7 50 14 50.7 14C51.4 14 52.2 13.7 52.7 13.2ZM49.9 10.3C50.1 10.1 50.4 9.89999 50.8 9.89999C51.2 9.89999 51.4 9.99999 51.7 10.3C52.2 10.8 52.2 11.6 51.7 12.1C51.2 12.6 50.4 12.6 49.9 12.1C49.4 11.6 49.4 10.8 49.9 10.3ZM47.1 21.7L46 20.6L46.8 20C47.7 19.1 47.7 17.7 46.8 16.8L45.4 15.4C44.5 14.5 43.1 14.5 42.2 15.4L41.5 16.1L40.4 15L41.1 14.3C42.6 12.8 44.9 12.8 46.4 14.3L47.8 15.7C49.3 17.2 49.3 19.5 47.8 21L47.1 21.7Z" fill="black"/>
</svg>
