<svg width="50" height="63" viewBox="0 0 50 63" fill="none" xmlns="http://www.w3.org/2000/svg">
<path fill-rule="evenodd" clip-rule="evenodd" d="M37.8 13C37.8 20.1 32 25.8 25 25.8C18 25.8 12.2 20 12.2 13C12.2 5.99999 18 0.299988 25 0.299988C32 0.299988 37.8 5.99999 37.8 13ZM36.2 13C36.2 6.79999 31.2 1.79999 25 1.79999C18.8 1.79999 13.8 6.79999 13.8 13C13.8 19.2 18.8 24.2 25 24.2C31.2 24.2 36.2 19.2 36.2 13ZM49.7 43V63H48.1V43C48.1 36.8 43.1 31.8 36.9 31.8H12.9C6.70001 31.8 1.70001 36.8 1.70001 43V63H0.200012V43C0.200012 35.9 6.00001 30.2 13 30.2H36.9C44 30.2 49.7 36 49.7 43Z" fill="#010101"/>
</svg>
