<svg width="62" height="46" viewBox="0 0 62 46" fill="none" xmlns="http://www.w3.org/2000/svg">
<path fill-rule="evenodd" clip-rule="evenodd" d="M40 9.2C40 14.1 36 18 31.2 18C26.4 18 22.4 14.1 22.4 9.2C22.4 4.3 26.3 0.400002 31.2 0.400002C36.1 0.400002 40 4.3 40 9.2ZM38.4 9.2C38.4 5.3 35.2 2 31.2 2C27.2 2 24 5.2 24 9.2C24 13.2 27.3 16.4 31.2 16.4C35.1 16.4 38.4 13.1 38.4 9.2ZM37.2 20.4C41 20.4 44 23.5 44 27.2V45.2H42.4V27.2C42.4 24.4 40.1 22 37.2 22H25.2C22.4 22 20 24.3 20 27.2V45.2H18.4V27.2C18.4 23.4 21.5 20.4 25.2 20.4H37.2ZM4.5 18.2C4.5 21.4 7.1 24 10.2 24C13.3 24 16 21.4 16 18.2C16 15 13.4 12.4 10.2 12.4C7 12.4 4.5 15.1 4.5 18.2ZM14.5 18.2C14.5 20.5 12.6 22.4 10.3 22.4C8 22.4 6 20.6 6 18.2C6 15.8 7.9 14 10.2 14C12.5 14 14.5 15.9 14.5 18.2ZM6.19999 28C3.89999 28 1.99999 29.9 1.99999 32.2V45.3H0.399994V32.3C0.399994 29.1 2.99999 26.5 6.19999 26.5H15.2V28H6.19999ZM52.2 12.5C49 12.5 46.4 15.1 46.4 18.3C46.4 21.5 49 24.1 52.2 24.1C55.4 24.1 58 21.5 58 18.3C58 15.1 55.4 12.5 52.2 12.5ZM52.2 22.5C49.9 22.5 48 20.6 48 18.3C48 16 49.9 14.1 52.2 14.1C54.5 14.1 56.5 16 56.5 18.3C56.5 20.6 54.6 22.5 52.2 22.5ZM62 32.2V45.2H60.4V32.2C60.4 29.9 58.5 28 56.2 28H47.2V26.4H56.2C59.4 26.4 62 29 62 32.2Z" fill="black"/>
</svg>
