<svg width="68" height="68" viewBox="0 0 68 68" fill="none" xmlns="http://www.w3.org/2000/svg">
<path d="M67.1 34.3C67.1 16.2 52.3 1.39999 34.2 1.39999C16.1 1.39999 1.30001 16.1 1.30001 34.3C1.30001 40 2.80001 45.7 5.60001 50.6L1.40001 64.1C1.10001 64.9 1.40001 65.8 2.00001 66.5C2.40001 67 3.10001 67.2 3.70001 67.2C3.90001 67.2 4.10001 67.2 4.40001 67.1C4.50001 67.1 10.8 65.2 18.2 63C23.1 65.8 28.7 67.2 34.3 67.2C52.4 67.2 67.1 52.4 67.1 34.3ZM21.7 21H34.2C35.5 21 36.6 22.1 36.6 23.4C36.6 24.7 35.5 25.8 34.2 25.8H21.7C20.4 25.8 19.3 24.7 19.3 23.4C19.3 22 20.4 21 21.7 21ZM46.8 47.6H21.7C20.4 47.6 19.3 46.5 19.3 45.2C19.3 43.9 20.4 42.8 21.7 42.8H46.8C48.1 42.8 49.2 43.9 49.2 45.2C49.1 46.5 48.1 47.6 46.8 47.6ZM46.8 36.6H21.7C20.4 36.6 19.3 35.5 19.3 34.2C19.3 32.9 20.4 31.8 21.7 31.8H46.8C48.1 31.8 49.2 32.9 49.2 34.2C49.1 35.6 48.1 36.6 46.8 36.6Z" stroke="black" stroke-width="1.5" stroke-miterlimit="10"/>
</svg>
