<svg width="58" height="64" viewBox="0 0 58 64" fill="none" xmlns="http://www.w3.org/2000/svg">
<path d="M0.699995 25.4C-0.100005 36.9 6.49999 47.5 17.1 51.9L17.7 50.5C7.7 46.3 1.49999 36.3 2.19999 25.4C2.99999 12.9 13.1 2.8 25.7 2C32.6 1.6 39.2 3.9 44.3 8.5C49.4 13.1 52.3 19.5 52.6 26.3C52.6 27 52.8 27.7 53.1 28.3L55.8 33.7C55.9 34 56 34.3 55.9 34.7C55.8 35 55.6 35.3 55.3 35.4L53 36.6C52.7 36.7 52.6 37 52.6 37.3V45.3C52.6 50.4 48.5 54.5 43.4 54.5H37.4V56H40.6V63.2H42.1V56H43.3C49.2 56 54.1 51.2 54.1 45.2V37.7L55.9 36.8C56.6 36.5 57 35.9 57.3 35.2C57.5 34.5 57.5 33.8 57.2 33.1L54.5 27.7C54.3 27.3 54.2 26.8 54.2 26.3C54 19 50.8 12.3 45.4 7.4C40 2.5 33 0.0999984 25.7 0.499998C12.3 1.4 1.49999 12.1 0.699995 25.4Z" fill="black"/>
<path d="M27.2 28.4C27.3 28.5 27.5 28.6 27.7 28.6C27.9 28.6 28.1 28.5 28.2 28.4L34.1 22.5C34.9 21.7 35.4 20.6 35.4 19.4C35.4 18.2 34.9 17.2 34.1 16.3C32.4 14.6 29.6 14.6 27.9 16.3L27.6 16.5L27.4 16.3C25.7 14.6 22.9 14.6 21.2 16.3C20.4 17.1 19.9 18.2 19.9 19.4C19.9 20.6 20.4 21.6 21.2 22.5L27.2 28.4ZM22.3 17.5C22.9 16.9 23.6 16.7 24.3 16.7C25.1 16.7 25.8 17 26.4 17.6L27.2 18.3C27.5 18.5 27.9 18.5 28.2 18.3L29 17.6C30.1 16.5 32 16.5 33.1 17.6C33.6 18.1 33.9 18.8 33.9 19.6C33.9 20.4 33.6 21.1 33.1 21.6L27.7 27L22.3 21.6C21.8 21.1 21.5 20.4 21.5 19.6C21.5 18.7 21.8 18 22.3 17.5Z" fill="black"/>
</svg>
