<?xml version="1.0" encoding="utf-8"?>
<!-- Generator: Adobe Illustrator 26.2.1, SVG Export Plug-In . SVG Version: 6.00 Build 0)  -->
<svg version="1.1" id="Layer_1" xmlns="http://www.w3.org/2000/svg" xmlns:xlink="http://www.w3.org/1999/xlink" x="0px" y="0px"
	 viewBox="0 0 80 80" style="enable-background:new 0 0 80 80;" xml:space="preserve">
<g>
	<path d="M39.5,66.5c0.1,0.1,0.3,0.2,0.5,0.2s0.4-0.1,0.5-0.2L66,41c6.3-6.3,6.3-16.6,0.1-23c-3-3-7-4.7-11.3-4.7h0
		c-4.2,0-8.2,1.7-11.2,4.7L40,21.5l-3.5-3.5c-3-3-7-4.7-11.2-4.7h0c-4.3,0-8.3,1.7-11.3,4.7C7.7,24.3,7.7,34.6,14,41L39.5,66.5z
		 M15,19.1c2.7-2.8,6.3-4.3,10.2-4.3h0c3.8,0,7.5,1.5,10.2,4.2l4.1,4.1c0.3,0.3,0.8,0.3,1.1,0l4.1-4.1c2.7-2.7,6.3-4.2,10.2-4.2h0
		c3.9,0,7.5,1.5,10.2,4.3c5.7,5.8,5.7,15.1-0.1,20.8l-25,25l-25-25C9.3,34.2,9.3,24.8,15,19.1"/>
</g>
</svg>
