<?xml version="1.0" encoding="utf-8"?>
<!-- Generator: Adobe Illustrator 26.2.1, SVG Export Plug-In . SVG Version: 6.00 Build 0)  -->
<svg version="1.1" id="Layer_1" xmlns="http://www.w3.org/2000/svg" xmlns:xlink="http://www.w3.org/1999/xlink" x="0px" y="0px"
	 viewBox="0 0 80 80" style="enable-background:new 0 0 80 80;" xml:space="preserve">
<g>
	<path d="M49.6,55.3H30.4H26c-0.4,0-0.8,0.3-0.8,0.8v4.4v5.2V70c0,0.4,0.3,0.8,0.8,0.8h4.4H54c0.4,0,0.8-0.3,0.8-0.8v-9.6V56
		c0-0.4-0.3-0.8-0.8-0.8H49.6z M26.7,56.8h2.8c-0.3,1.4-1.4,2.5-2.8,2.8V56.8z M26.7,69.3v-2.8c1.4,0.3,2.5,1.4,2.8,2.8H26.7z
		 M53.2,69.3h-2.8c0.3-1.4,1.4-2.5,2.8-2.8V69.3z M53.2,65c-2.2,0.3-4,2.1-4.3,4.3H31c-0.3-2.2-2.1-4-4.3-4.3v-3.9
		c2.2-0.3,4-2.1,4.3-4.3h17.9c0.3,2.2,2.1,4,4.3,4.3V65z M53.2,59.6c-1.4-0.3-2.5-1.4-2.8-2.8h2.8V59.6z"/>
	<path d="M40,60.5c0.5,0,0.9,0.4,0.9,0.9h1.5c0-1.1-0.7-1.9-1.6-2.3v-1.4h-1.5v1.4c-1,0.3-1.6,1.2-1.6,2.3c0,1.3,1.1,2.4,2.4,2.4
		c0.5,0,0.9,0.4,0.9,0.9c0,0.5-0.4,0.9-0.9,0.9c-0.5,0-0.9-0.4-0.9-0.9h-1.5c0,1.1,0.7,1.9,1.6,2.3v1.4h1.5v-1.4
		c0.9-0.3,1.6-1.2,1.6-2.3c0-1.3-1.1-2.4-2.4-2.4c-0.5,0-0.9-0.4-0.9-0.9C39.1,60.9,39.5,60.5,40,60.5"/>
	<path d="M39.2,9.3L39.2,9.3C25,9.7,13.5,21.2,13.1,35.4h0v1.5h0c0.2,6.1,2.4,11.9,6.3,16.5l0.5,0.6l1.1-1l-0.5-0.6
		c-0.9-1.1-1.7-2.2-2.4-3.4h8.9c0.3,1.1,0.7,2.2,1.1,3.2l0.3,0.7l1.4-0.6l-0.3-0.7c-0.4-0.9-0.7-1.8-0.9-2.7h10.6v3.7h1.5v-3.7h10.6
		c-0.3,0.9-0.6,1.8-0.9,2.7l-0.3,0.7l1.4,0.6l0.3-0.7c0.4-1,0.8-2.1,1.1-3.2h8.9c-0.7,1.2-1.5,2.3-2.4,3.4L58.9,53l1.1,1l0.5-0.6
		c3.9-4.6,6.1-10.5,6.3-16.5h0v-1.5h0C66.5,21.2,55,9.7,40.7,9.3v0H39.2z M34.2,11.4c-3,2.4-5.5,6.5-7.1,11.8h-8.9
		C21.7,17.3,27.4,13,34.2,11.4 M17.4,24.7h9.4c-0.8,3.3-1.3,6.9-1.4,10.7H14.6C14.8,31.5,15.7,27.9,17.4,24.7 M17.4,47.6
		c-1.7-3.3-2.6-6.9-2.7-10.7h10.7c0.1,3.8,0.5,7.3,1.4,10.7H17.4z M39.2,47.6h-11c-0.9-3.3-1.4-6.9-1.4-10.7h12.4V47.6z M39.2,35.4
		H26.8c0.1-3.8,0.6-7.5,1.4-10.7h11V35.4z M39.2,23.2H28.7c2.2-7,6.1-11.9,10.6-12.4V23.2z M51.7,47.6h-11V36.9h12.4
		C53.1,40.6,52.6,44.2,51.7,47.6 M40.7,35.4V24.7h11c0.9,3.2,1.4,6.9,1.4,10.7H40.7z M62.6,47.6h-9.3c0.9-3.4,1.3-6.9,1.4-10.7h10.7
		C65.2,40.6,64.3,44.3,62.6,47.6 M65.4,35.4H54.7c-0.1-3.8-0.5-7.4-1.4-10.7h9.4C64.3,27.9,65.2,31.5,65.4,35.4 M61.8,23.2h-9
		c-1.6-5.2-4.1-9.4-7.1-11.8C52.6,13,58.3,17.3,61.8,23.2 M51.3,23.2H40.7V10.8C45.2,11.3,49.1,16.1,51.3,23.2"/>
</g>
</svg>
