<svg width="63" height="61" viewBox="0 0 63 61" fill="none" xmlns="http://www.w3.org/2000/svg">
<path d="M53.2 60C53.6 60 54 59.7 54 59.2V32H61.3C61.6 32 61.9 31.8 62 31.5C62.1 31.2 62.1 30.9 61.8 30.7L31.8 0.700006C31.5 0.400006 31 0.400006 30.7 0.700006L0.699985 30.7C0.499985 30.9 0.399985 31.2 0.499985 31.5C0.599985 31.8 0.899985 32 1.19998 32H8.39998V59.3C8.39998 59.7 8.69999 60.1 9.19999 60.1M24.5 58.5H9.99998V31.2C9.99998 30.8 9.69999 30.4 9.19999 30.4H2.99998L31.2 2.20001L59.4 30.4H53.2C52.8 30.4 52.4 30.7 52.4 31.2V58.5H38" fill="black"/>
</svg>
