<svg width="100" height="88" viewBox="0 0 100 88" fill="none" xmlns="http://www.w3.org/2000/svg">
<path d="M85.3552 87.887C84.8769 87.8855 84.4046 87.7806 83.9707 87.5793C83.5368 87.3781 83.1516 87.0854 82.8415 86.7213C81.6575 85.3369 80.7104 84.1712 79.9636 83.224C77.8689 80.6011 77.3224 80 76.3206 79.6903C74.6812 79.1803 71.4754 79.1803 65.6466 79.1985H22.7323C16.7031 79.1888 10.9239 76.7883 6.66233 72.5233C2.40078 68.2583 0.00481562 62.4772 0 56.448V40.4371C0.01257 35.5762 1.57559 30.846 4.46168 26.9346C7.34777 23.0231 11.4065 20.1344 16.0474 18.6885C17.0122 13.451 19.7782 8.71575 23.8665 5.30275C27.9548 1.88975 33.1079 0.0138858 38.4335 0H77.2677C83.2969 0.00964474 89.0761 2.41023 93.3377 6.6752C97.5992 10.9402 99.9952 16.7213 100 22.7504V47.1949C99.938 48.0293 99.5628 48.8094 98.9496 49.3787C98.3364 49.948 97.5307 50.2644 96.694 50.2644C95.8573 50.2644 95.0515 49.948 94.4383 49.3787C93.8251 48.8094 93.4499 48.0293 93.388 47.1949V22.7687C93.3831 18.4948 91.6832 14.3973 88.6611 11.3753C85.6391 8.35319 81.5416 6.65326 77.2677 6.64844H38.4335C34.1596 6.65326 30.0622 8.35319 27.0401 11.3753C24.018 14.3973 22.3181 18.4948 22.3133 22.7687V38.7796C22.3181 43.0534 24.018 47.1509 27.0401 50.173C30.0622 53.195 34.1596 54.895 38.4335 54.8998H85.3552C86.2329 54.9046 87.0734 55.2554 87.694 55.876C88.3147 56.4967 88.6655 57.3371 88.6703 58.2149V84.5719C88.6675 85.2474 88.4585 85.9059 88.0711 86.4593C87.6837 87.0127 87.1365 87.4346 86.5027 87.6684C86.1368 87.8109 85.7479 87.8851 85.3552 87.887ZM68.2513 72.5683C76.2295 72.5683 79.0346 72.8233 82.0401 75.6102V61.53H38.4335C32.4027 61.5204 26.6216 59.1204 22.3571 54.8559C18.0927 50.5915 15.6927 44.8104 15.6831 38.7796V26.0291C12.9587 27.369 10.6626 29.4431 9.05349 32.0177C7.44438 34.5923 6.58621 37.565 6.57562 40.6011V56.612C6.58044 60.8859 8.28037 64.9833 11.3024 68.0054C14.3245 71.0274 18.422 72.7274 22.6958 72.7322H68.2332" fill="white"/>
</svg>
