<svg width="56" height="49" viewBox="0 0 56 49" fill="none" xmlns="http://www.w3.org/2000/svg">
<path d="M47.61 48.26C47.3474 48.2592 47.0882 48.2016 46.8499 48.0911C46.6117 47.9806 46.4003 47.8199 46.23 47.62C45.58 46.86 45.06 46.22 44.65 45.7C43.5 44.26 43.2 43.93 42.65 43.76C41.75 43.48 39.99 43.48 36.79 43.49H13.23C9.92 43.4847 6.74722 42.1668 4.40762 39.8253C2.06803 37.4838 0.752644 34.31 0.75 31V22.21C0.756901 19.5413 1.615 16.9445 3.19946 14.7971C4.78393 12.6497 7.01215 11.0638 9.56003 10.27C10.0897 7.3946 11.6083 4.79496 13.8527 2.92122C16.0972 1.04748 18.9262 0.0176331 21.85 0.0100098H43.17C46.48 0.0153047 49.6528 1.33323 51.9924 3.6747C54.332 6.01617 55.6474 9.18999 55.65 12.5V25.92C55.616 26.3781 55.41 26.8064 55.0734 27.1189C54.7367 27.4315 54.2944 27.6052 53.835 27.6052C53.3757 27.6052 52.9333 27.4315 52.5966 27.1189C52.26 26.8064 52.054 26.3781 52.02 25.92V12.51C52.0174 10.1637 51.0841 7.91416 49.425 6.25504C47.7659 4.59591 45.5164 3.66265 43.17 3.66H21.85C19.5037 3.66265 17.2542 4.59591 15.595 6.25504C13.9359 7.91416 13.0026 10.1637 13 12.51V21.3C13.0026 23.6464 13.9359 25.8959 15.595 27.555C17.2542 29.2141 19.5037 30.1474 21.85 30.15H47.61C48.0919 30.1526 48.5533 30.3452 48.894 30.686C49.2348 31.0267 49.4274 31.4881 49.43 31.97V46.44C49.4285 46.8109 49.3137 47.1724 49.101 47.4762C48.8884 47.78 48.588 48.0116 48.24 48.14C48.0391 48.2182 47.8256 48.2589 47.61 48.26ZM38.22 39.85C42.6 39.85 44.14 39.99 45.79 41.52V33.79H21.85C18.5391 33.7847 15.3653 32.4671 13.0241 30.1259C10.6829 27.7847 9.3653 24.6109 9.36002 21.3V14.3C7.86433 15.0356 6.60377 16.1743 5.72037 17.5877C4.83697 19.0012 4.36583 20.6332 4.36002 22.3V31.09C4.36266 33.4364 5.29592 35.6858 6.95505 37.345C8.61417 39.0041 10.8637 39.9374 13.21 39.94H38.21" fill="#008EC7"/>
</svg>
