<svg height="512" viewBox="0 0 58 58" width="512" xmlns="http://www.w3.org/2000/svg"><g id="Page-1" fill="none" fill-rule="evenodd"><g id="025---Mail-Chat" fill-rule="nonzero"><path id="Shape" d="m54.72 3.16c-2.057195-2.02825223-4.8310824-3.16367762-7.72-3.16h-36c-2.91795078-.00185865-5.71692387 1.15646972-7.78022708 3.21977292-2.0633032 2.06330321-3.22163157 4.8622763-3.21977292 7.78022708v26c-.00185865 2.9179508 1.15646972 5.7169239 3.21977292 7.7802271 2.06330321 2.0633032 4.8622763 3.2216316 7.78022708 3.2197729h28.14c.2855008-.0014092.5581537.118558.75.33l8.38 9.35c.3045628.3224127.7851027.4056973 1.1804007.2045807.3952981-.2011165.6108974-.6385772.5295993-1.0745807l-1.29-8.01c-.0865636-.5066999.2314764-.9946516.73-1.12 1.9763748-.4760586 3.7870572-1.4781539 5.24-2.9 2.1264988-2.0301847 3.3327695-4.8400009 3.34-7.78v-26c.0037938-2.94775183-1.178255-5.77313683-3.28-7.84z" fill="#f29c1f"/><path id="Shape" d="m58 11v26c-.0072305 2.9399991-1.2135012 5.7498153-3.34 7.78l-21.57-20.78 21.63-20.84c2.101745 2.06686317 3.2837938 4.89224817 3.28 7.84z" fill="#f0c419"/><path id="Shape" d="m54.72 3.16-21.63 20.84-.62.6c-1.9354461 1.869951-5.0045539 1.869951-6.94 0l-.62-.6-18.74-18.06-2.89-2.78c2.05719503-2.02825223 4.83108239-3.16367762 7.72-3.16h36c2.8889176-.00367762 5.662805 1.13174777 7.72 3.16z" fill="#f3d55b"/><path id="Shape" d="m24.91 24-21.63 20.84c-2.10346272-2.0657001-3.285828-4.8918415-3.28-7.84v-26c-.0037938-2.94775183 1.17825503-5.77313683 3.28-7.84l2.89 2.78z" fill="#f0c419"/><g fill="#fff"><path id="Shape" d="m28 5h-14c-.5522847 0-1-.44771525-1-1s.4477153-1 1-1h14c.5522847 0 1 .44771525 1 1s-.4477153 1-1 1z"/><circle id="Oval" cx="10" cy="4" r="1"/></g></g></g></svg>