<?xml version="1.0" encoding="UTF-8" standalone="no"?>
<svg width="400" height="350" viewBox="0 0 400 350" fill="none" xmlns="http://www.w3.org/2000/svg">
    <path d="M204.649 0.000124464L199.414 5.16841L194.141 0.0411693L189.258 5.53747L183.711 0.73853L179.141 6.60393L173.32 2.13297L169.102 8.24462L163.047 4.26589L159.219 10.6236L152.891 7.01411L149.453 13.6589L142.93 10.4596L139.922 17.3095L133.203 14.5203L130.625 21.5753L123.75 19.2783L121.563 26.4562L114.61 24.6104L112.813 31.9116L105.781 30.558L104.453 37.941L97.3048 37.0387L96.4455 44.5038L89.2971 44.0527L88.8285 51.5998H81.6409L81.6796 59.147L74.5314 59.6801L75.039 67.1864L67.8516 68.1708L68.7891 75.6358L61.7579 77.1124L63.1249 84.4955L56.1719 86.3824L57.8515 93.3142H11.5234C-0.0045029 93.2984 2.74383e-09 93.3365 2.74383e-09 105.004V256.645C2.74383e-09 268.312 1.34696e-06 268.32 11.2501 268.335H63.3984L62.422 273.913L69.4922 275.307L68.5937 282.773L75.7421 283.675L75.3515 291.222L82.5 291.673L82.5388 299.22L89.7263 299.18L90.1561 306.727L97.3436 306.194L98.281 313.7L105.39 312.756L106.758 320.139L113.789 318.663L115.664 325.964L122.578 324.077L124.804 331.255L131.64 328.876L134.336 335.89L140.976 333.101L144.101 339.91L150.586 336.669L154.062 343.273L160.351 339.623L164.179 345.939L170.273 341.92L174.492 347.99L180.312 343.56L184.883 349.344L190.39 344.504L195.351 350L200.586 344.791L205.82 349.918L210.703 344.422L216.289 349.18L220.82 343.355L226.64 347.826L230.859 341.674L236.914 345.693L240.781 339.336L247.07 342.945L250.508 336.3L257.031 339.5L260.039 332.65L266.758 335.398L269.375 328.384L276.211 330.681L278.437 323.503L285.351 325.349L287.148 318.007L294.179 319.401L295.508 312.018L302.656 312.92L303.515 305.455L310.664 305.865L311.133 298.318H318.32L318.281 290.771L325.43 290.279L325 282.773L332.109 281.788L331.172 274.323L338.203 272.847L337.383 268.335H389.375C400.009 268.32 400 268.313 400 256.645V105.004C400 93.3373 399.971 93.2995 388.945 93.3145H343.476L341.445 92.6173L343.164 85.3161L336.25 83.4704L337.539 76.0463L330.469 74.6516L331.367 67.1866L324.219 66.2841L324.688 58.737L317.5 58.2858L317.461 50.7387L310.274 50.7794L309.805 43.2322L302.617 43.7244L301.719 36.2592L294.571 37.2026L293.204 29.8195L286.172 31.2552L284.375 23.9951L277.383 25.8819L275.157 18.7038L268.321 21.0419L265.625 14.0689L258.985 16.8581L255.899 10.0492L249.375 13.2895L245.938 6.68583L239.649 10.3363L235.782 3.97873L229.688 8.03933L225.469 1.96881L219.688 6.39865L215.078 0.615299L209.571 5.45533L204.649 0L204.649 0.000124464ZM199.688 11.6901C257.247 11.6901 307.472 44.5172 334.375 93.3142H329.258C302.824 47.1945 254.685 16.366 199.688 16.366C144.69 16.366 96.5901 47.1945 70.1565 93.3142H65.0002C91.9027 44.5172 142.128 11.6901 199.688 11.6901V11.6901ZM199.688 19.6474C252.863 19.6474 299.508 49.0905 325.586 93.3142H73.8283C99.907 49.0905 146.512 19.6474 199.688 19.6474V19.6474ZM200.117 40.6891L195.664 52.0099L184.024 52.338L192.891 60.2955L189.61 71.9853L199.531 65.6276L209.141 72.5596L206.406 60.6236L215.625 53.1994L204.063 52.215L200.117 40.6891V40.6891ZM149.649 50.6564L145.82 60.3364L135.899 60.6236L143.438 67.3504L140.664 77.3996L149.102 71.9033L157.305 77.8097L155 67.6786L162.852 61.3208L152.93 60.5005L149.649 50.6564ZM253.438 50.6564L249.609 60.3364L239.688 60.6236L247.227 67.3504L244.414 77.3996L252.891 71.9033L261.094 77.8097L258.75 67.6786L266.641 61.3208L256.719 60.5005L253.438 50.6564V50.6564ZM5.54712 99.1387H394.414V262.51H5.54712V99.1387V99.1387ZM22.1878 103.815C17.2787 103.815 13.3205 108.012 13.3205 113.167C13.3205 118.321 17.2787 122.477 22.1878 122.477C27.097 122.477 31.094 118.321 31.094 113.167C31.094 108.012 27.097 103.815 22.1878 103.815ZM377.773 105.004C372.864 105.004 368.867 109.16 368.867 114.315C368.867 119.47 372.864 123.667 377.773 123.667C382.683 123.667 386.641 119.47 386.641 114.315C386.641 109.16 382.683 105.004 377.773 105.004ZM72.1878 134.947C65.5892 134.947 59.9585 135.973 55.2735 138.064C50.6276 140.155 47.0695 143.193 44.5705 147.211C42.1109 151.188 40.8596 155.499 40.8596 160.09C40.8596 167.224 43.5185 173.259 48.7893 178.22C52.5373 181.746 59.0286 184.702 68.3206 187.121C75.5436 189.007 80.1964 190.32 82.2267 191.058C85.1941 192.165 87.2665 193.479 88.4378 194.996C89.6482 196.472 90.2346 198.279 90.2346 200.41C90.2346 203.731 88.8269 206.646 85.9767 209.147C83.1657 211.606 78.9428 212.838 73.3597 212.838C68.0889 212.838 63.9047 211.442 60.7815 208.655C57.6968 205.867 55.6246 201.515 54.6096 195.57L37.7735 197.293C38.9058 207.378 42.386 215.056 48.2033 220.344C54.0208 225.592 62.3495 228.22 73.2034 228.22C80.6606 228.22 86.8777 227.111 91.8752 224.938C96.8725 222.725 100.744 219.399 103.477 214.889C106.21 210.379 107.578 205.534 107.578 200.369C107.578 194.67 106.405 189.867 104.102 186.013C101.837 182.119 98.6699 179.08 94.6096 176.866C90.5881 174.611 84.3709 172.435 75.9378 170.344C67.5044 168.254 62.1863 166.242 60.0002 164.315C58.2824 162.798 57.4222 160.992 57.4222 158.86C57.4222 156.523 58.3604 154.634 60.1955 153.24C63.0456 151.068 66.995 150 72.0314 150C76.9119 150 80.5483 151.027 82.969 153.076C85.4286 155.085 87.0319 158.411 87.7737 163.043L105.117 162.223C104.844 153.942 101.95 147.332 96.4847 142.371C91.0572 137.411 82.9634 134.947 72.1878 134.947V134.947ZM160.274 134.947C153.285 134.947 147.107 136.096 141.758 138.474C137.737 140.237 134.022 142.947 130.625 146.596C127.267 150.245 124.648 154.391 122.695 158.983C120.08 165.214 118.75 172.892 118.75 182.075C118.75 196.424 122.504 207.715 130.039 215.914C137.574 224.073 147.741 228.138 160.508 228.138C173.119 228.138 183.207 224.073 190.742 215.874C198.278 207.633 202.031 196.219 202.031 181.665C202.031 166.989 198.238 155.534 190.625 147.293C183.051 139.053 172.923 134.947 160.274 134.947ZM288.75 136.464V226.62H321.406C327.809 226.62 332.893 225.963 336.719 224.692C341.834 222.97 345.9 220.589 348.906 217.514C352.889 213.456 355.978 208.159 358.125 201.6C359.882 196.229 360.742 189.824 360.742 182.404C360.742 173.958 359.803 166.855 357.93 161.116C356.055 155.335 353.319 150.449 349.727 146.472C346.135 142.496 341.833 139.745 336.797 138.187C333.049 137.039 327.613 136.465 320.469 136.464H288.75V136.464ZM215.977 137.203V226.62H276.406V211.444H233.32V137.203H215.977V137.203ZM160.469 150.492C167.614 150.492 173.323 153.038 177.617 158.121C181.951 163.205 184.102 170.883 184.102 181.214C184.102 191.668 181.873 199.551 177.422 204.799C173.01 210.005 167.379 212.592 160.469 212.592C153.558 212.592 147.849 209.965 143.359 204.717C138.869 199.429 136.601 191.668 136.602 181.46C136.602 171.088 138.791 163.369 143.164 158.244C147.537 153.079 153.324 150.492 160.469 150.492V150.492ZM306.094 151.723H313.906C320.973 151.723 325.704 152.01 328.125 152.584C331.366 153.322 334.025 154.718 336.133 156.809C338.241 158.9 339.883 161.815 341.055 165.545C342.226 169.276 342.813 174.614 342.813 181.583C342.813 188.553 342.226 194.095 341.055 198.154C339.883 202.172 338.359 205.046 336.485 206.809C334.649 208.572 332.342 209.844 329.531 210.582C327.384 211.156 323.904 211.444 319.063 211.444H306.094V151.723V151.723ZM22.1878 236.833C17.2787 236.833 13.3205 240.989 13.3205 246.144C13.3205 251.299 17.2787 255.496 22.1878 255.496C27.097 255.496 31.094 251.299 31.094 246.144C31.094 240.989 27.097 236.833 22.1878 236.833ZM377.773 237.982C372.864 237.982 368.867 242.179 368.867 247.334C368.867 252.489 372.864 256.645 377.773 256.645C382.683 256.645 386.641 252.489 386.641 247.334C386.641 242.179 382.683 237.982 377.773 237.982ZM72.0314 268.335H77.5002C104.976 307.934 149.456 333.716 199.688 333.716C249.919 333.716 294.399 307.934 321.875 268.335H327.383C299.274 310.659 252.555 338.351 199.688 338.351C146.821 338.351 100.14 310.659 72.0314 268.335V268.335ZM81.4066 268.335H318.008C291.012 306.005 248.05 330.394 199.688 330.394C151.325 330.394 108.402 306.005 81.4066 268.335V268.335ZM157.188 277.851L148.985 283.757L140.508 278.302L143.321 288.31L135.742 295.037L145.664 295.365L149.453 305.004L152.813 295.16L162.735 294.38L154.844 287.982L157.188 277.851V277.851ZM260.938 277.851L252.774 283.757L244.297 278.302L247.11 288.31L239.531 295.037L249.453 295.365L253.242 305.004L256.563 295.16L266.524 294.38L258.633 287.982L260.938 277.851V277.851ZM209.024 283.142L199.414 290.074L189.453 283.634L192.774 295.365L183.867 303.322L195.547 303.65L200 315.012L203.867 303.445L215.508 302.502L206.25 295.037L209.024 283.142V283.142Z" fill="#F30000"/>
</svg>
