<svg height="512pt" viewBox="-65 0 511 512" width="512pt" xmlns="http://www.w3.org/2000/svg"><path d="m300.890625 264.71875v-109.738281c0-60.738281-49.414063-110.152344-110.152344-110.152344s-110.152343 49.414063-110.152343 110.152344v109.738281h-44.824219v-109.738281c0-85.457031 69.519531-154.980469 154.976562-154.980469 85.453125 0 154.976563 69.523438 154.976563 154.980469v109.738281zm0 0" fill="#bebebe"/><path d="m363.871094 512h-346.265625c-9.449219 0-17.105469-7.65625-17.105469-17.105469v-247.640625c0-9.449218 7.65625-17.105468 17.105469-17.105468h346.265625c9.445312 0 17.105468 7.65625 17.105468 17.105468v247.640625c0 9.449219-7.660156 17.105469-17.105468 17.105469zm0 0" fill="#676a75"/><path d="m363.871094 230.148438h-34.777344v248.511718c0 4.929688-3.996094 8.921875-8.921875 8.921875h-319.671875v7.3125c0 9.449219 7.65625 17.105469 17.105469 17.105469h346.265625c9.445312 0 17.105468-7.65625 17.105468-17.105469v-247.640625c0-9.449218-7.660156-17.105468-17.105468-17.105468zm0 0" fill="#454851"/><path d="m324.636719 437.800781h-267.796875c-4.742188 0-8.585938-3.847656-8.585938-8.585937v-123.714844c0-4.742188 3.84375-8.585938 8.585938-8.585938h267.796875c4.742187 0 8.585937 3.84375 8.585937 8.585938v123.714844c.003906 4.738281-3.84375 8.585937-8.585937 8.585937zm0 0" fill="#a4d852"/><path d="m324.636719 296.914062h-43.296875v140.886719h43.296875c4.742187 0 8.585937-3.84375 8.585937-8.585937v-123.714844c.003906-4.742188-3.84375-8.585938-8.585937-8.585938zm0 0" fill="#97c63e"/><path d="m143.425781 384.78125c0-16.210938-34.695312-11.242188-34.695312-36.855469 0-16.105469 13.832031-21.617187 26.261719-21.617187 6.378906 0 20.539062 1.511718 20.539062 8.644531 0 2.488281-1.730469 7.457031-5.621094 7.457031-3.351562 0-5.835937-4.105468-14.917968-4.105468-7.78125 0-12.210938 3.132812-12.210938 8.324218 0 13.402344 34.695312 8.753906 34.695312 36.746094 0 15.457031-10.808593 23.457031-25.722656 23.457031-14.160156 0-24.96875-7.136719-24.96875-13.402343 0-3.027344 2.808594-7.566407 6.160156-7.566407 4.433594 0 7.351563 8.324219 18.375 8.324219 6.484376-.003906 12.105469-2.921875 12.105469-9.40625zm0 0" fill="#ededed"/><path d="m206.761719 384.78125c0-16.210938-34.695313-11.242188-34.695313-36.855469 0-16.105469 13.832032-21.617187 26.261719-21.617187 6.378906 0 20.539063 1.511718 20.539063 8.644531 0 2.488281-1.730469 7.457031-5.621094 7.457031-3.351563 0-5.835938-4.105468-14.917969-4.105468-7.78125 0-12.210937 3.132812-12.210937 8.324218 0 13.402344 34.695312 8.753906 34.695312 36.746094 0 15.457031-10.808594 23.457031-25.722656 23.457031-14.160156 0-24.96875-7.136719-24.96875-13.402343 0-3.027344 2.808594-7.566407 6.160156-7.566407 4.433594 0 7.351562 8.324219 18.375 8.324219 6.484375-.003906 12.105469-2.921875 12.105469-9.40625zm0 0" fill="#ededed"/><path d="m243.507812 405.859375c-3.136718 0-6.160156-1.515625-6.160156-4.433594v-70.253906c0-3.027344 3.457032-4.324219 7.023438-4.324219 3.460937 0 7.027344 1.296875 7.027344 4.324219v62.363281h26.371093c2.8125 0 4.214844 3.027344 4.214844 6.160156 0 3.027344-1.402344 6.160157-4.214844 6.160157h-34.261719zm0 0" fill="#ededed"/><g fill="#d6d6d6"><path d="m333.226562 401.613281h47.75v15.453125h-47.75zm0 0"/><path d="m333.226562 312.667969h47.75v15.453125h-47.75zm0 0"/><path d="m333.226562 357.140625h47.75v15.453125h-47.75zm0 0"/><path d="m.5 357.140625h47.75v15.453125h-47.75zm0 0"/><path d="m.5 312.667969h47.75v15.453125h-47.75zm0 0"/><path d="m.5 401.613281h47.75v15.453125h-47.75zm0 0"/></g></svg>