<svg id="Capa_1" enable-background="new 0 0 512 512" height="512" viewBox="0 0 512 512" width="512" xmlns="http://www.w3.org/2000/svg"><g><g><path d="m512 228.248c0-3.927-4.211-6.415-7.651-4.521l-100.328 55.237-9.29 36.648 9.29 36.707 53.989 39.015 53.99 20.433z" fill="#454d58"/><path d="m404.021 370.898 100.328 55.237c3.44 1.894 7.651-.595 7.651-4.521v-9.847l-107.979-59.449-9.29 10.145z" fill="#3c434c"/><path d="m38.85 256.345-31.479-14.912c-3.424-1.622-7.371.875-7.371 4.664v69.337l19.425.088 19.425-18.492 9.29-18.804z" fill="#a6aec4"/><path d="m7.371 330.523 31.479-14.913 9.29-9.29-9.29-9.29-38.85 18.404v10.424c0 3.79 3.947 6.287 7.371 4.665z" fill="#959db0"/><path d="m79.856 297.03-20.503 9.29-20.503-9.29v-40.685h41.006l9.291 21.881z" fill="#454d58"/><path d="m38.85 315.611h41.006l9.291-9.291-9.291-9.29h-41.006z" fill="#3c434c"/><path d="m303.205 210.224c46.789 0 89.927-45.235 89.927-90.399-4.651-45.562-43.138-81.109-89.927-81.109-46.79 0-85.276 35.548-89.927 81.109-.001 47.192 43.137 90.399 89.927 90.399z" fill="#454d58"/><path d="m151.868 210.224c40.765 0 62.673-33.917 62.673-63.358-4.495-30.586-30.839-54.067-62.673-54.067-31.835 0-58.178 23.481-62.673 54.067-.001 32.286 23.116 63.358 62.673 63.358z" fill="#454d58"/><path d="m107.691 463.995h268.495c23.289 0 27.835-21.753 27.835-37.125v-179.52c0-15.373-12.462-27.835-27.835-27.835h-268.495c-15.373 0-27.835 12.462-27.835 27.835v179.52c0 15.372 7.083 37.125 27.835 37.125z" fill="#a6aec4"/><path d="m169.429 367.624h145.021c10.323 0 10.323-13.912 10.323-19.613v-65.879c0-5.701-4.622-10.322-10.323-10.322h-145.021c-5.701 0-10.323 4.622-10.323 10.322v65.879c0 5.701 0 19.613 10.323 19.613z" fill="#bed8fb"/><path d="m303.205 151.552c23.424 0 30.343-18.113 30.343-31.728-3.972-12.989-16.053-22.438-30.343-22.438s-26.37 9.448-30.343 22.438c0 14.06 7.91 31.728 30.343 31.728z" fill="#a6aec4"/><path d="m133.997 146.866c0 7.847 2.689 20.151 17.87 20.151 16.289 0 17.871-13.324 17.871-20.151-3.36-6.45-10.095-10.861-17.871-10.861-7.775 0-14.51 4.412-17.87 10.861z" fill="#a6aec4"/><path d="m376.186 454.704h-268.495c-15.373 0-27.835-12.462-27.835-27.835v18.581c0 15.373 12.462 27.835 27.835 27.835h268.495c15.373 0 27.835-12.462 27.835-27.835v-18.581c0 15.373-12.462 27.835-27.835 27.835z" fill="#959db0"/><path d="m314.449 358.333h-145.02c-5.701 0-10.322-4.621-10.322-10.323v18.581c0 5.701 4.622 10.323 10.322 10.323h145.021c5.701 0 10.323-4.622 10.323-10.323v-18.581c-.001 5.702-4.623 10.323-10.324 10.323z" fill="#a3caf7"/><path d="m151.868 200.934c-31.835 0-58.178-23.481-62.673-54.067-.446 3.033-.685 6.133-.685 9.29 0 34.992 28.366 63.358 63.358 63.358 34.991 0 63.358-28.366 63.358-63.358 0-3.157-.239-6.257-.684-9.29-4.497 30.585-30.84 54.067-62.674 54.067z" fill="#3c434c"/><path d="m151.868 157.727c-7.775 0-14.51-4.411-17.87-10.86-1.449 2.782-2.281 5.937-2.281 9.29 0 11.129 9.022 20.151 20.151 20.151s20.151-9.022 20.151-20.151c0-3.354-.831-6.509-2.28-9.29-3.361 6.449-10.096 10.86-17.871 10.86z" fill="#959db0"/><path d="m303.205 200.934c-46.79 0-85.276-35.548-89.927-81.109-.312 3.054-.472 6.153-.472 9.29 0 49.926 40.473 90.4 90.4 90.4s90.4-40.473 90.4-90.4c0-3.137-.16-6.236-.472-9.29-4.653 45.561-43.14 81.109-89.929 81.109z" fill="#3c434c"/><path d="m303.205 142.262c-14.29 0-26.37-9.448-30.343-22.438-.899 2.939-1.385 6.057-1.385 9.29 0 17.523 14.205 31.728 31.728 31.728s31.728-14.205 31.728-31.728c0-3.233-.487-6.352-1.385-9.29-3.973 12.99-16.053 22.438-30.343 22.438z" fill="#959db0"/></g><g><path d="m283.642 411.869c-4.284 0-7.757 3.473-7.757 7.757s3.473 7.757 7.757 7.757h19.35c4.284 0 7.757-3.473 7.757-7.757 0-4.285-3.473-7.757-7.757-7.757z" fill="#b3e59f"/><path d="m232.236 411.869c-4.284 0-7.757 3.473-7.757 7.757s3.473 7.757 7.757 7.757h19.351c4.284 0 7.757-3.473 7.757-7.757 0-4.285-3.473-7.757-7.757-7.757z" fill="#df667c"/><path d="m180.83 411.869c-4.284 0-7.757 3.473-7.757 7.757s3.473 7.757 7.757 7.757h19.35c4.284 0 7.757-3.473 7.757-7.757 0-4.285-3.473-7.757-7.757-7.757z" fill="#eacc73"/></g></g></svg>