<svg height="512" viewBox="0 0 57 58" width="512" xmlns="http://www.w3.org/2000/svg"><g id="Page-1" fill="none" fill-rule="evenodd"><g id="062---Recording-Podcast" fill-rule="nonzero" transform="translate(0 -1)"><path id="Shape" d="m21 49c.5522847 0 1-.4477153 1-1v-3.27c8.1012244-1.4524221 13.9984505-8.4996073 14-16.73 0-1.1045695-.8954305-2-2-2h-.29l-1.25.71-.46.29v-2.5c.0002106-.4518817-.206033-.8791006-.56-1.16-.2612983-.2243239-.5956596-.3452631-.94-.34-.6341275-.0017822-1.1986258-.4021357-1.41-1-.0604616-.1597225-.0909711-.3292196-.09-.5v-15.15c-.3398094-.43955417-.7072169-.8570627-1.1-1.25-3.3540981-3.36570541-8.1863915-4.80041197-12.8337222-3.81032849-4.6473306.99008348-8.47524869 4.26979162-10.1662778 8.71032849-.50792593 1.2778806-.81163916 2.6277172-.9 4v1 13c0-1.1045695-.8954305-2-2-2s-2 .8954305-2 2c.00154953 8.2303927 5.89877562 15.2775779 14 16.73v3.27c0 .5522847.4477153 1 1 1h1v6h-6c-1.1045695 0-2 .8954305-2 2v1c0 .5522847.44771525 1 1 1h18c.5522847 0 1-.4477153 1-1v-1c0-1.1045695-.8954305-2-2-2h-6v-6z" fill="#3b97d3"/><path id="Shape" d="m32 24.5.0000002 2.5h-28.0000002v-12c0-.34 0-.67 0-1 .08516322-1.371742.38549791-2.7215609.89-4 1.69102911-4.44053687 5.5189472-7.72024501 10.1662778-8.71032849 4.6473307-.99008348 9.4796241.44462308 12.8337222 3.81032849.3962157.3926283.7669692.81014356 1.11 1.25v15.15c-.0009711.1707804.0295384.3402775.09.5.2113742.5978643.7758725.9982178 1.41 1 .3443404-.0052631.6787017.1156761.94.34.353967.2808994.5602106.7081183.56 1.16z" fill="#bdc3c7"/><path id="Shape" d="m28 57v1c0 .5522847-.4477153 1-1 1h-18c-.55228475 0-1-.4477153-1-1v-1c0-1.1045695.8954305-2 2-2h16c1.1045695 0 2 .8954305 2 2z" fill="#2980ba"/><path id="Rectangle-path" d="m16 49h4v6h-4z" fill="#95a5a5"/><path id="Shape" d="m22 44.73v3.27c0 .5522847-.4477153 1-1 1h-6c-.5522847 0-1-.4477153-1-1v-3.27c.9896688.1813347 1.993857.2717116 3 .27h2c1.006143.0017116 2.0103312-.0886653 3-.27z" fill="#f0c419"/><g fill="#7f8c8d"><path id="Shape" d="m11 15c0 .5522847-.4477153 1-1 1h-6v-1c0-.34 0-.67 0-1h6c.5522847 0 1 .4477153 1 1z"/><path id="Shape" d="m15 16h-1c-.5522847 0-1-.4477153-1-1s.4477153-1 1-1h1c.5522847 0 1 .4477153 1 1s-.4477153 1-1 1z"/><path id="Shape" d="m11 19c0 .5522847-.4477153 1-1 1h-6v-2h6c.5522847 0 1 .4477153 1 1z"/><path id="Shape" d="m15 20h-1c-.5522847 0-1-.4477153-1-1s.4477153-1 1-1h1c.5522847 0 1 .4477153 1 1s-.4477153 1-1 1z"/><path id="Shape" d="m29 16h-8c-.5522847 0-1-.4477153-1-1s.4477153-1 1-1h8c.5522847 0 1 .4477153 1 1s-.4477153 1-1 1z"/><path id="Shape" d="m11 11c0 .5522847-.4477153 1-1 1h-5.68c.15029065-.6817052.35425989-1.3504568.61-2h5.07c.2652165 0 .5195704.1053568.7071068.2928932s.2928932.4418903.2928932.7071068z"/><path id="Shape" d="m15 12h-1c-.5522847 0-1-.4477153-1-1s.4477153-1 1-1h1c.5522847 0 1 .4477153 1 1s-.4477153 1-1 1z"/><path id="Shape" d="m29 12h-8c-.5522847 0-1-.4477153-1-1s.4477153-1 1-1h8c.5522847 0 1 .4477153 1 1s-.4477153 1-1 1z"/><path id="Shape" d="m29 20h-8c-.5522847 0-1-.4477153-1-1s.4477153-1 1-1h8c.5522847 0 1 .4477153 1 1s-.4477153 1-1 1z"/><path id="Shape" d="m11 23c0 .5522847-.4477153 1-1 1h-6v-2h6c.5522847 0 1 .4477153 1 1z"/><path id="Shape" d="m15 24h-1c-.5522847 0-1-.4477153-1-1s.4477153-1 1-1h1c.5522847 0 1 .4477153 1 1s-.4477153 1-1 1z"/><path id="Shape" d="m30.5 24h-9.5c-.5522847 0-1-.4477153-1-1s.4477153-1 1-1h9.5c.5522847 0 1 .4477153 1 1s-.4477153 1-1 1z"/></g><path id="Shape" d="m57 2.5v19c0 .8284271-.6715729 1.5-1.5 1.5h-16c-.3503528-.0024197-.6951942.0872391-1 .26l-4.79 2.74-1.25.71-.46.29v-2.5c0-.8284271-.6715729-1.5-1.5-1.5s-1.5-.6715729-1.5-1.5v-19c0-.82842712.6715729-1.5 1.5-1.5h25c.8284271 0 1.5.67157288 1.5 1.5z" fill="#24ae5f"/><circle id="Oval" cx="43" cy="12" fill="#fff" r="2"/><circle id="Oval" cx="35" cy="12" fill="#fff" r="2"/><circle id="Oval" cx="51" cy="12" fill="#fff" r="2"/><path id="Shape" d="m11 32h-8c-.55228475 0-1-.4477153-1-1s.44771525-1 1-1h8c.5522847 0 1 .4477153 1 1s-.4477153 1-1 1z" fill="#2980ba"/><path id="Shape" d="m33 32h-18c-.5522847 0-1-.4477153-1-1s.4477153-1 1-1h18c.5522847 0 1 .4477153 1 1s-.4477153 1-1 1z" fill="#2980ba"/><path id="Shape" d="m36 28c-.0015495 8.2303927-5.8987756 15.2775779-14 16.73-.9896688.1813347-1.993857.2717116-3 .27h-2c-1.006143.0017116-2.0103312-.0886653-3-.27-8.10122438-1.4524221-13.99845047-8.4996073-14-16.73.00000002-1.1045695.89543051-2 2-2s1.99999998.8954305 2 2c0 7.1797017 5.82029825 13 13 13h2c3.4478144 0 6.7544152-1.3696389 9.1923882-3.8076118 2.4379729-2.437973 3.8076118-5.7445738 3.8076118-9.1923882.0009017-.4592062.1597978-.9041154.45-1.26l1.26-.74h.29c1.1045695 0 2 .8954305 2 2z" fill="#2980ba"/></g></g></svg>