<svg height="512pt" viewBox="0 0 512 512" width="512pt" xmlns="http://www.w3.org/2000/svg"><path d="m512 158.898438v326.617187c0 14.628906-11.855469 26.484375-26.484375 26.484375h-459.03125c-14.628906 0-26.484375-11.855469-26.484375-26.484375v-370.757813c37.167969 9.101563 74.835938 15.996094 112.816406 20.65625l282.304688 21.804688c36.28125 1.058594 75.242187 1.617188 116.878906 1.679688zm0 0" fill="#ff5364"/><path d="m512 26.484375v158.894531c-41.667969 0-80.625-.558594-116.878906-1.675781l-282.304688-21.804687c-37.980468-4.660157-75.648437-11.558594-112.816406-20.65625v-114.757813c0-14.628906 11.855469-26.484375 26.484375-26.484375h459.03125c14.628906 0 26.484375 11.855469 26.484375 26.484375zm0 0" fill="#f9eab0"/><path d="m388.414062 220.691406v35.839844c-.015624 8.136719-5.59375 15.210938-13.507812 17.125-3.972656.96875-39.457031 0-65.941406 8.828125-6.214844 2.003906-11.75 5.703125-15.976563 10.679687-5.039062 6.058594-8.304687 13.390626-9.445312 21.1875-.378907 1.742188-.613281 3.515626-.707031 5.296876-.257813 2.3125-.375 4.644531-.351563 6.972656v104.429687c0 .882813 0 1.765625-.089844 2.648438-.847656 9.46875-6.339843 17.902343-14.652343 22.511719-2.054688 1.074218-4.257813 1.847656-6.535157 2.292968-.785156.160156-1.582031.28125-2.382812.355469-.289063.070313-.585938.101563-.882813.085937-1.589844.105469-3.183594.074219-4.765625-.085937-.800781-.074219-1.597656-.195313-2.382812-.355469-2.277344-.445312-4.480469-1.21875-6.535157-2.292968-8.3125-4.609376-13.804687-13.042969-14.652343-22.511719-.089844-.882813-.089844-1.765625-.089844-2.648438v-104.429687c.023437-2.328125-.09375-4.660156-.351563-6.972656-.09375-1.78125-.328124-3.554688-.707031-5.296876-1.140625-7.796874-4.40625-15.128906-9.445312-21.1875-4.226563-4.976562-9.761719-8.675781-15.976563-10.679687-26.484375-8.828125-61.96875-7.859375-65.941406-8.828125-7.914062-1.914062-13.492188-8.988281-13.507812-17.125v-35.839844zm0 0" fill="#f0c419"/><path d="m397.242188 114.757812h-282.484376c-2.589843-.007812-5.054687 1.125-6.738281 3.097657-1.683593 1.972656-2.414062 4.585937-2 7.144531l17.566407 95.691406h264.738281l17.65625-95.691406c.414062-2.558594-.316407-5.171875-2-7.144531-1.683594-1.972657-4.148438-3.105469-6.738281-3.097657zm0 0" fill="#bdc3c7"/><path d="m317.792969 220.691406h-61.792969l-70.621094-105.933594h61.792969zm0 0" fill="#ecf0f1"/></svg>