<?xml version="1.0" encoding="iso-8859-1"?>
<!-- Generator: Adobe Illustrator 19.0.0, SVG Export Plug-In . SVG Version: 6.00 Build 0)  -->
<svg version="1.1" id="Capa_1" xmlns="http://www.w3.org/2000/svg" xmlns:xlink="http://www.w3.org/1999/xlink" x="0px" y="0px"
	 viewBox="0 0 455.601 455.601" style="enable-background:new 0 0 455.601 455.601;" xml:space="preserve">
<path style="fill:#C0D863;" d="M231.201,333.885l2.4-7.6c17.6-61.6-18-125.6-79.6-143.2c-22.8-6.4-47.2-6-69.6,2l-8,2.8v-67.2
	c0-20,16-36,36-36h249.6c20,0,36,16,36,36v43.6h-89.6c-7.6,0-15.2,2-21.6,5.6c-6,3.2-10.8,7.6-14.8,13.2c-3.6,5.2-6.4,11.2-7.6,17.6
	l-0.8,10.8l1.2,8.8c1.2,4.8,3.6,9.6,6.4,14l8,8.8l0.8,0.4l4,3.2l1.2,0.8l1.6,0.8l2.4,1.2l2,0.8l1.2,0.4l2,0.8l0.8,0.4l3.2,0.8h0.8
	l9.6,0.8h89.2v44c0,20-16,36-36,36L231.201,333.885z"/>
<g>
	<path style="fill:#99AF3E;" d="M306.001,249.885l-6.8-0.8h-0.8l-3.2-1.2l-3.2-1.6l-2-0.8l-2-1.2l-2-1.2l-5.2-4l0,0
		c-13.6-12.8-16.8-32.8-8-49.2l0.4-0.4l10-12l14.4-7.2l10.4-1.6h127.2c6,0,10.8,4.8,10.8,10.8v60c0,6-4.8,10.8-10.8,10.8
		L306.001,249.885z"/>
	<path style="fill:#99AF3E;" d="M402.001,164.285v-43.6c0-22-18-40-40-40h-249.6l-16.4,1.2l3.2-8.8c5.2-14.4,18.8-23.6,34-23.6
		h249.6c20,0,36,16,36,36v78.8L402.001,164.285L402.001,164.285z"/>
	<path style="fill:#99AF3E;" d="M402.001,253.885h16.8v6c0.4,7.6-1.6,15.6-5.6,22l-11.2,17.6L402.001,253.885L402.001,253.885z"/>
</g>
<g>
	<path style="fill:#FFE64C;" d="M122.001,381.485c-48,0-87.2-38.8-87.2-87.2s38.8-87.2,87.2-87.2s87.2,38.8,87.2,87.2
		c0,23.2-9.2,45.2-25.6,61.6S145.201,381.485,122.001,381.485z"/>
	<path style="fill:#FFE64C;" d="M105.201,287.485L105.201,287.485c-6.8-1.6-11.2-8-10.8-14.8c0-9.6,7.2-17.6,18.4-20.8l7.6-2.4v42
		L105.201,287.485z"/>
	<path style="fill:#FFE64C;" d="M124.001,294.285l7.6,2c3.6,0.8,7.2,2.4,10.8,4c6.4,3.6,10,11.2,9.2,18.8c-1.2,8.8-8.8,15.6-20,18
		l-7.6,1.2V294.285z"/>
	<path style="fill:#FFE64C;" d="M122.001,405.885c-61.6,0-111.6-50-111.6-111.6s50-111.6,111.6-111.6s111.6,50,111.6,111.6
		c0,29.6-11.6,58-32.8,78.8C180.001,394.285,151.601,405.885,122.001,405.885z M122.001,203.085c-50.4,0-91.2,40.8-91.2,91.2
		s40.8,91.2,91.2,91.2s91.2-40.8,91.2-91.2l0,0C213.201,243.885,172.401,203.085,122.001,203.085L122.001,203.085z"/>
</g>
<path style="fill:#2B2D03;" d="M399.601,243.885h34.8c1.2,0,2.4-0.4,3.2-1.2l0,0c0.8-0.8,1.2-2,1.2-3.2v-60c0-2.8-2-4.8-4.8-4.8
	h-125.6c-18.8-0.4-34.4,14.4-34.8,32.8c0,0.4,0,0.8,0,0.8c-0.4,19.2,15.2,35.2,34.8,35.6l0,0L399.601,243.885L399.601,243.885z
	 M412.801,259.885h-4.8v18.8l0.4-0.8c2.8-4.8,4.4-10,4.4-15.6V259.885z M311.601,195.885c7.6,0,13.6,6,13.6,13.6s-6,13.6-13.6,13.6
	s-13.6-6-13.6-13.6C298.401,201.885,304.401,195.885,311.601,195.885L311.601,195.885z M114.001,283.485v-26c-2.4,0.8-5.2,2-7.2,3.2
	c-4,2.4-6.4,6.8-6.8,11.6c0,2,0.4,4,1.6,5.6c1.2,1.6,3.2,2.8,5.2,3.6c2,0.8,4,1.2,6.4,2L114.001,283.485L114.001,283.485z
	 M130.001,301.885v28.8c3.2-0.4,6-1.6,8.8-3.2c4-2.4,6.8-6.8,6.8-11.2c0.4-4.4-2-8.8-6-10.8
	C136.401,303.885,133.201,302.685,130.001,301.885L130.001,301.885z M114.001,230.685c0-4.4,3.6-8,8-8s8,3.6,8,8v10.4
	c8,0.4,15.6,2,23.2,5.2c4,2,6,4.4,6,7.2c0,5.6-2.4,8.4-7.6,8.4c-3.6-0.8-7.2-1.6-10.8-2.8c-3.6-1.2-7.2-2-10.8-2.4v29.2
	c8,1.2,16,4,22.8,8c6.8,4.8,10.8,12.8,10,20.8c0.4,9.6-4,18.4-11.6,24c-6.4,4.4-13.6,7.2-21.2,8v10.8c0,4.4-3.6,8-8,8s-8-3.6-8-8
	v-10c-6.8-0.4-13.6-2-20-4c-8.4-2.8-12.8-6-12.8-9.6c0-6.4,2.8-9.6,8-9.6c4.4,0.8,8.8,2,12.8,3.6c4,1.2,8,2.4,12,2.8v-31.6l-4.4-0.8
	c-3.2-0.8-6.8-1.6-10-2.8c-3.2-1.2-6.4-2.8-9.2-4.8c-5.2-4.4-8-10.8-8-17.6c0-9.2,4.8-18,12.4-23.2c5.6-4.4,12-7.2,19.2-8.4V230.685
	z M179.201,236.685c-31.6-31.6-83.2-31.6-114.8,0s-31.6,83.2,0,114.8s83.2,31.6,114.8,0c15.2-15.2,23.6-36,23.6-57.2
	C203.201,272.685,194.401,252.285,179.201,236.685L179.201,236.685z M122.001,196.685c53.6,0,97.2,43.6,97.2,97.2
	s-43.6,97.6-97.2,97.6s-97.2-43.6-97.2-97.2c0-25.6,10.4-50.4,28.4-68.8C71.601,207.085,96.001,197.085,122.001,196.685
	L122.001,196.685z M196.401,219.485c-41.2-41.2-108-41.2-149.2,0s-41.2,108,0,149.2s108,41.2,149.2,0c19.6-19.6,30.8-46.4,30.8-74.4
	C227.601,266.285,216.401,239.485,196.401,219.485L196.401,219.485z M233.201,343.485c-27.2,61.6-98.8,89.2-160.4,62.4
	c-61.6-27.2-89.6-98.8-62.4-160.4c11.2-25.6,30.8-46.4,55.6-59.2v-65.6c0-12.4,4.8-24,13.6-32.4c2.4-2.4,4.8-4.4,7.6-6
	c1.6-24,22-42.8,46-42.8h249.6c25.6,0,46,20.8,46,46v73.2h6c11.6,0,20.8,9.2,20.8,20.8v60c0,5.6-2.4,10.8-6,14.8l0,0
	c-4,4-9.2,6-14.8,6h-6v2.4c0,8.4-2.4,16.8-6.8,24c-3.6,6-8.4,10.8-14.4,14.4c-1.6,24-22,42.8-46,42.8L233.201,343.485z
	 M243.601,299.085c-0.4,9.6-2,18.8-4.4,28h122.8c16.4,0,30-13.6,30-30v-37.2h-83.6c-20.8,0-50.8-14.4-50.8-50.8
	c0-36,30.4-50.8,50.8-50.8h83.2v-37.6c0-16.4-13.6-30-30-30h-252.8c-15.2,1.6-26.4,14.4-26.4,29.6v59.2c8-2.8,16.4-4.4,24.8-5.6
	c4.8-0.4,10-0.8,14.8-0.8c67.2,0,121.6,54.4,121.6,121.6c0,0.4,0,1.2,0,1.6v4V299.085z M112.401,74.285h249.6
	c25.6,0,46.4,20.8,46.4,46v37.6h4.8v-72.8c0-16.4-13.6-30-30-30h-250c-12.4,0-23.6,8-28,20c1.2,0,2.4-0.4,3.6-0.4L112.401,74.285
	L112.401,74.285z"/>
<g>
</g>
<g>
</g>
<g>
</g>
<g>
</g>
<g>
</g>
<g>
</g>
<g>
</g>
<g>
</g>
<g>
</g>
<g>
</g>
<g>
</g>
<g>
</g>
<g>
</g>
<g>
</g>
<g>
</g>
</svg>
