<svg height="512pt" viewBox="0 0 512 512" width="512pt" xmlns="http://www.w3.org/2000/svg"><path d="m494.894531 163.996094c-18.378906-47.492188-50.402343-88.207032-92.609375-117.738282-43.246094-30.261718-93.832031-46.257812-146.285156-46.257812s-103.039062 15.996094-146.28125 46.257812c-42.207031 29.53125-74.234375 70.246094-92.613281 117.738282-2.988281 7.726562.851562 16.414062 8.578125 19.402344 7.722656 2.992187 16.410156-.847657 19.402344-8.574219 24.003906-62.03125 74.285156-109.480469 134.914062-131.425781-1.351562 1.734374-2.691406 3.507812-4.015625 5.34375-20.765625 28.789062-36.660156 68.308593-45.964844 114.28125-1.640625 8.121093 3.609375 16.035156 11.726563 17.675781 8.121094 1.648437 16.035156-3.605469 17.679687-11.722657 8.464844-41.824218 22.601563-77.332031 40.890625-102.6875 9.375-12.996093 23.324219-27.949218 40.683594-33.777343v133.488281c0 8.285156 6.714844 15 15 15s15-6.714844 15-15v-133.488281c17.359375 5.828125 31.308594 20.78125 40.683594 33.78125 18.285156 25.351562 32.425781 60.859375 40.890625 102.683593 1.441406 7.117188 7.699219 12.027344 14.6875 12.027344.988281 0 1.988281-.097656 2.992187-.300781 8.121094-1.644531 13.371094-9.558594 11.726563-17.679687-9.304688-45.972657-25.199219-85.492188-45.964844-114.28125-1.324219-1.832032-2.664063-3.609376-4.015625-5.34375 60.628906 21.945312 110.910156 69.394531 134.914062 131.425781 2.304688 5.945312 7.980469 9.589843 13.992188 9.589843 1.800781 0 3.632812-.324218 5.414062-1.015624 7.722657-2.988282 11.5625-11.675782 8.574219-19.402344zm0 0" fill="#00c8c8"/><path d="m486.316406 328.601562c-7.722656-2.988281-16.410156.847657-19.402344 8.574219-24.003906 62.03125-74.285156 109.480469-134.914062 131.425781 1.351562-1.734374 2.691406-3.511718 4.015625-5.34375 20.765625-28.789062 36.660156-68.308593 45.964844-114.28125 1.644531-8.121093-3.605469-16.035156-11.726563-17.679687-8.125-1.640625-16.035156 3.609375-17.679687 11.726563-8.464844 41.824218-22.605469 77.332031-40.890625 102.683593-9.378906 13-23.324219 27.953125-40.683594 33.78125v-133.488281c0-8.285156-6.71875-15-15-15-8.285156 0-15 6.714844-15 15v133.488281c-17.363281-5.828125-31.308594-20.78125-40.683594-33.78125-18.289062-25.351562-32.429687-60.859375-40.894531-102.683593-1.640625-8.121094-9.554687-13.367188-17.675781-11.726563-8.121094 1.644531-13.371094 9.558594-11.726563 17.679687 9.304688 45.972657 25.199219 85.492188 45.964844 114.28125 1.324219 1.832032 2.664063 3.609376 4.015625 5.34375-60.628906-21.945312-110.910156-69.394531-134.914062-131.425781-2.992188-7.726562-11.679688-11.5625-19.402344-8.574219-7.726563 2.992188-11.566406 11.675782-8.578125 19.402344 18.378906 47.492188 50.40625 88.207032 92.613281 117.742188 43.242188 30.257812 93.828125 46.253906 146.28125 46.253906s103.039062-15.996094 146.28125-46.257812c42.207031-29.53125 74.234375-70.246094 92.613281-117.738282 2.988281-7.726562-.851562-16.414062-8.578125-19.402344zm0 0" fill="#00c8c8"/><g fill="#a3d4ff"><path d="m76 301c-5.605469 0-10.75-3.128906-13.324219-8.113281l-31-60c-3.804687-7.363281-.921875-16.410157 6.4375-20.214844 7.363281-3.800781 16.410157-.917969 20.210938 6.441406l17.457031 33.78125 16.804688-33.605469c3.703124-7.410156 12.714843-10.410156 20.125-6.707031 7.40625 3.703125 10.410156 12.714844 6.707031 20.125l-30 60c-2.527344 5.050781-7.671875 8.253907-13.316407 8.292969-.035156 0-.070312 0-.101562 0zm0 0"/><path d="m286 301c-5.683594 0-10.875-3.210938-13.417969-8.292969l-16.582031-33.167969-16.582031 33.167969c-2.542969 5.082031-7.734375 8.292969-13.417969 8.292969s-10.875-3.210938-13.417969-8.292969l-30-60c-3.703125-7.410156-.699219-16.417969 6.707031-20.125 7.410157-3.703125 16.421876-.699219 20.125 6.707031l16.585938 33.171876 16.582031-33.167969c2.542969-5.082031 7.734375-8.292969 13.417969-8.292969s10.875 3.210938 13.417969 8.292969l16.582031 33.167969 16.585938-33.167969c3.703124-7.410157 12.714843-10.414063 20.121093-6.707031 7.410157 3.703124 10.414063 12.714843 6.707031 20.125l-30 60c-2.539062 5.078124-7.730468 8.289062-13.414062 8.289062zm0 0"/><path d="m436 301c-.03125 0-.066406 0-.101562 0-5.644532-.035156-10.789063-3.242188-13.3125-8.292969l-16.585938-33.167969-16.585938 33.167969c-2.539062 5.082031-7.730468 8.292969-13.414062 8.292969s-10.875-3.210938-13.414062-8.292969l-27.949219-55.898437c-2.585938-2.507813-4.277344-5.953125-4.515625-9.835938-.507813-8.269531 5.785156-15.382812 14.054687-15.890625l.90625-.054687c6.015625-.363282 11.644531 2.882812 14.332031 8.261718l16.585938 33.171876 16.585938-33.167969c2.539062-5.082031 7.730468-8.292969 13.414062-8.292969s10.875 3.210938 13.414062 8.292969l16.804688 33.605469 17.457031-33.785157c3.800781-7.359375 12.851563-10.242187 20.210938-6.441406 7.359375 3.804687 10.242187 12.851563 6.4375 20.214844l-31 60c-2.574219 4.984375-7.71875 8.113281-13.324219 8.113281zm0 0"/><path d="m136 301c-5.683594 0-10.875-3.210938-13.417969-8.292969l-30-60c-3.703125-7.410156-.699219-16.417969 6.707031-20.125 7.410157-3.703125 16.421876-.699219 20.125 6.707031l16.585938 33.171876 16.582031-33.167969c2.691407-5.378907 8.332031-8.636719 14.335938-8.265625l.90625.058594c8.269531.503906 14.5625 7.617187 14.054687 15.886718-.238281 3.882813-1.929687 7.324219-4.515625 9.835938l-27.949219 55.902344c-2.539062 5.078124-7.730468 8.289062-13.414062 8.289062zm0 0"/></g><path d="m467 361h-422c-24.8125 0-45-20.1875-45-45v-120c0-24.8125 20.1875-45 45-45h422c24.8125 0 45 20.1875 45 45v120c0 24.8125-20.1875 45-45 45zm-422-180c-8.269531 0-15 6.730469-15 15v120c0 8.269531 6.730469 15 15 15h422c8.269531 0 15-6.730469 15-15v-120c0-8.269531-6.730469-15-15-15zm0 0" fill="#2864f0"/></svg>