<svg id="Capa_1" enable-background="new 0 0 498.306 498.306" height="512" viewBox="0 0 498.306 498.306" width="512" xmlns="http://www.w3.org/2000/svg"><g><g><g id="XMLID_440_"><path d="m249.157 0c-126.68 0-229.37 102.69-229.37 229.37 0 48.92 15.32 94.25 41.41 131.48l30.858 40.847h318.066l26.996-40.847c26.09-37.23 41.41-82.56 41.41-131.48 0-126.68-102.69-229.37-229.37-229.37z" fill="#d5e3f4"/></g><path d="m437.238 360.674-13.308-6.438c-50.89-30.213-111.317-46.182-174.773-46.182-63.572 0-124.105 16.027-175.06 46.352l-10.802 6.444h29.9c46.161-24.757 99.784-37.796 155.962-37.796s109.801 13.039 155.962 37.796h31.998c.041-.058.08-.118.121-.176z" fill="#b3ceec"/><path d="m228.427 340.847c-57.137 0-104.135-45.088-106.413-102.18-.123-3.084-.185-6.183-.185-9.297 0-109.143 76.264-200.471 178.384-223.668-16.7-3.793-34.124-5.772-51.989-5.701-127.18.509-229.046 103.318-228.434 230.496.233 48.489 15.518 93.409 41.407 130.353l33.715 37.27 59.192 3.577h256.017l26.996-40.847c4.507-6.432 8.697-13.113 12.538-20.005z" fill="#b3ceec"/><g fill="#98bce5"><path d="m162.922 318.325c-31.675 7.776-61.616 19.889-88.825 36.082l-10.802 6.444h29.9c27.018-14.49 56.594-24.959 87.74-31.156-6.395-3.19-12.425-7.008-18.013-11.37z"/><path d="m423.931 354.236c-8.137-4.831-16.52-9.293-25.118-13.389h-39.801c16.017 5.458 31.44 12.136 46.108 20.003h31.998c.041-.058.08-.118.12-.177z"/></g><path d="m427.209 84.782c-49.943 32.828-113.146 50.904-178.052 50.904-64.908 0-128.109-18.074-178.053-50.903-3.158 3.884-6.2 7.865-9.102 11.953.104.077.208.154.316.225 52.449 34.645 118.803 53.725 186.839 53.725s134.391-19.08 186.839-53.725c.043-.028.086-.057.129-.087l.191-.132c-2.904-4.09-5.948-8.074-9.107-11.96z" fill="#b3ceec"/><path d="m345.259 360.85h15.571c10.372-39.967 15.861-85.371 15.861-131.48 0-85.604-18.7-165.359-50.306-216.045-7.512-2.686-15.197-4.97-23.048-6.871l5.543 7.514c33.069 47.631 52.812 128.145 52.812 215.402 0 45.519-5.47 90.275-15.818 129.438z" fill="#b3ceec"/><path d="m350.176 340.847c-1.328 6.097-2.754 12.098-4.303 17.961l-.614 2.042h15.571c1.693-6.525 3.243-13.208 4.673-20.003z" fill="#98bce5"/><path d="m478.4 221.863-382.365.007v15h382.372c.08-2.491.12-4.99.12-7.5 0-2.511-.047-5.016-.127-7.507z" fill="#b3ceec"/><path d="m152.411 358.693c-10.328-39.136-15.787-83.849-15.787-129.323 0-87.311 19.765-167.867 52.871-215.487.076-.11.15-.222.221-.336l4.279-6.929c-7.493 1.852-14.796 4.002-21.978 6.57-31.608 50.686-50.392 130.576-50.392 216.183 0 46.109 5.489 91.513 15.861 131.48h15.65z" fill="#98bce5"/><path d="m241.657.135v360.715h15v-360.715c-2.491-.08-4.989-.135-7.5-.135s-5.008.055-7.5.135z" fill="#b3ceec"/><path d="m452.894 498.306h-407.474c-7.834 0-14.185-6.351-14.185-14.185v-109.088c0-7.834 6.351-14.185 14.185-14.185h407.475c7.834 0 14.185 6.351 14.185 14.185v109.088c0 7.834-6.351 14.185-14.186 14.185z" fill="#fd8087"/><path d="m124.686 473.033c-21.689 0-39.272-17.582-39.272-39.272v-72.915h-39.994c-7.834 0-14.185 6.351-14.185 14.185v109.089c0 7.834 6.351 14.185 14.185 14.185h407.475c7.834 0 14.185-6.351 14.185-14.185v-11.088h-342.394z" fill="#fe646f"/><g fill="#f3f0f3"><g><path d="m178.023 454.109h-14.65v-48.49c0-4.142-3.358-7.5-7.5-7.5s-7.5 3.358-7.5 7.5v55.99c0 4.142 3.358 7.5 7.5 7.5h22.15c4.142 0 7.5-3.358 7.5-7.5s-3.358-7.5-7.5-7.5z"/><path d="m214.313 398.12c-4.142 0-7.5 3.358-7.5 7.5v55.99c0 4.142 3.358 7.5 7.5 7.5s7.5-3.358 7.5-7.5v-55.99c0-4.142-3.358-7.5-7.5-7.5z"/><path d="m282.455 398.388c-3.996-1.099-8.122 1.251-9.219 5.245l-7.606 27.686-6.485-27.425c-.953-4.031-4.995-6.528-9.025-5.573-4.031.953-6.526 4.994-5.573 9.025l13.24 55.99c.789 3.335 3.738 5.711 7.164 5.773.046 0 .091.001.136.001 3.37 0 6.335-2.252 7.23-5.513l15.382-55.99c1.098-3.995-1.25-8.122-5.244-9.219z"/></g><path d="m342.15 454.109h-17.111v-11.995h9.728c4.142 0 7.5-3.358 7.5-7.5s-3.358-7.5-7.5-7.5h-9.728v-13.994h17.111c4.142 0 7.5-3.358 7.5-7.5s-3.358-7.5-7.5-7.5h-20.087c-6.63 0-12.024 5.394-12.024 12.023v46.943c0 6.63 5.394 12.023 12.024 12.023h20.087c4.142 0 7.5-3.358 7.5-7.5s-3.358-7.5-7.5-7.5z"/></g></g><g fill="#98bce5"><path d="m70.921 84.646c-3.158 3.884-6.176 7.876-9.078 11.965.104.077.367.28.475.351 24.116 15.93 51.177 28.559 79.985 37.565 2.1-4.617 4.342-9.155 6.732-13.602-28.103-8.565-54.661-20.864-78.114-36.279z"/><path d="m121.821 229.375c0-2.511.054-5.009.134-7.5h-102.041c-.08 2.491-.135 4.989-.135 7.5 0 2.51.05 5.009.131 7.5h102.041c-.08-2.491-.13-4.99-.13-7.5z"/></g></g><g fill="#98bce5"><path d="m241.657.125v27.682c4.893-2.665 9.9-5.146 15-7.456v-20.23c-2.491-.08-4.989-.121-7.5-.121s-5.008.045-7.5.125z"/><path d="m241.657 340.847h15v20.003h-15z"/></g></svg>