<svg id="Layer_1" enable-background="new 0 0 512 512" height="512" viewBox="0 0 512 512" width="512" xmlns="http://www.w3.org/2000/svg"><g><g><g><path d="m184 80h144v256h-144z" fill="#46508c" transform="matrix(0 1 -1 0 464 -48)"/></g><g><path d="m176 248h-48c-8.837 0-16 7.163-16 16v16h80v-16c0-8.837-7.163-16-16-16z" fill="#73cddc"/></g><g><path d="m280 248h-48c-8.837 0-16 7.163-16 16v16h80v-16c0-8.837-7.163-16-16-16z" fill="#73cddc"/></g><g><path d="m384 248h-48c-8.837 0-16 7.163-16 16v16h80v-16c0-8.837-7.163-16-16-16z" fill="#73cddc"/></g><g><path d="m400 280h-288v16c0 8.837 7.163 16 16 16h256c8.837 0 16-7.163 16-16z" fill="#5f78be"/></g><g><path d="m112 184h80v48h-80z" fill="#5f78be" transform="matrix(0 1 -1 0 360 56)"/></g><g><path d="m216 184h80v48h-80z" fill="#5f78be" transform="matrix(0 1 -1 0 464 -48)"/></g><g><path d="m320 184h80v48h-80z" fill="#5f78be" transform="matrix(0 1 -1 0 568 -152)"/></g><g><path d="m256 8c-10.386 0-20.491 3.369-28.8 9.6l-108.8 81.6c-4.029 3.022-6.4 7.764-6.4 12.8v24h288v-24c0-5.036-2.371-9.778-6.4-12.8l-108.8-81.6c-8.309-6.231-18.414-9.6-28.8-9.6z" fill="#73cddc"/></g><g><path d="m241.6 36.8-76.8 57.6c-1.343 1.007-2.133 2.588-2.133 4.267 0 2.946 2.388 5.333 5.333 5.333h176c2.946 0 5.333-2.388 5.333-5.333 0-1.679-.79-3.259-2.133-4.267l-76.8-57.6c-4.154-3.116-9.207-4.8-14.4-4.8-5.193 0-10.246 1.684-14.4 4.8z" fill="#5f78be"/></g><g><path d="m176 168h-48c-8.837 0-16-7.163-16-16v-16h80v16c0 8.837-7.163 16-16 16z" fill="#5f78be"/></g><g><path d="m280 168h-48c-8.837 0-16-7.163-16-16v-16h80v16c0 8.837-7.163 16-16 16z" fill="#5f78be"/></g><g><path d="m384 168h-48c-8.837 0-16-7.163-16-16v-16h80v16c0 8.837-7.163 16-16 16z" fill="#5f78be"/></g><g><path d="m152 248h-24v-64h8c8.837 0 16 7.163 16 16z" fill="#73cddc"/></g><g><path d="m256 248h-24v-64h8c8.837 0 16 7.163 16 16z" fill="#73cddc"/></g><g><path d="m360 248h-24v-64h8c8.837 0 16 7.163 16 16z" fill="#73cddc"/></g></g><path d="m146.597 424h-10.597v-80c0-4.418-3.582-8-8-8s-8 3.582-8 8v80h-10.597c-2.984 0-5.403 2.419-5.403 5.403 0 1.641.746 3.194 2.028 4.219l14.849 11.879c2.022 1.617 4.534 2.499 7.124 2.499s5.102-.881 7.124-2.499l14.849-11.879c1.282-1.025 2.028-2.578 2.028-4.219-.002-2.984-2.421-5.403-5.405-5.403z" fill="#faa019"/><path d="m402.597 424h-10.597v-80c0-4.418-3.582-8-8-8s-8 3.582-8 8v80h-10.597c-2.984 0-5.403 2.419-5.403 5.403 0 1.641.746 3.194 2.028 4.219l14.849 11.879c2.022 1.617 4.534 2.499 7.124 2.499s5.102-.881 7.124-2.499l14.849-11.879c1.282-1.025 2.028-2.578 2.028-4.219-.002-2.984-2.421-5.403-5.405-5.403z" fill="#faa019"/><g><g><path d="m326.627 294.627-38.627-38.627h-96v176c0 17.673 14.327 32 32 32v16h112v-16-146.745c0-8.487-3.371-16.627-9.373-22.628z" fill="#f0915a"/></g><g><g><g><circle cx="256" cy="296" fill="#faa51e" r="88"/></g><g><path d="m256 216c44.112 0 80 35.888 80 80s-35.888 80-80 80-80-35.888-80-80 35.888-80 80-80m0-16c-53.019 0-96 42.981-96 96s42.981 96 96 96 96-42.981 96-96-42.981-96-96-96z" fill="#f06423"/></g></g><path d="m280 288c4.418 0 8-3.582 8-8v-5.404c0-13.789-10.549-25.158-24-26.468v-8.128c0-4.418-3.582-8-8-8s-8 3.582-8 8v8.128c-13.451 1.31-24 12.679-24 26.468 0 11.466 7.309 21.606 18.186 25.231l22.568 7.523c4.334 1.445 7.246 5.485 7.246 10.053 0 5.843-4.754 10.596-10.597 10.596h-10.807c-5.843 0-10.596-4.753-10.596-10.596v-5.403c0-4.418-3.582-8-8-8s-8 3.582-8 8v5.404c0 13.789 10.549 25.158 24 26.468v8.128c0 4.418 3.582 8 8 8s8-3.582 8-8v-8.128c13.451-1.31 24-12.679 24-26.468 0-11.466-7.309-21.606-18.186-25.231l-22.569-7.523c-4.334-1.445-7.246-5.485-7.246-10.053 0-5.843 4.753-10.596 10.596-10.596h10.807c5.843 0 10.597 4.753 10.597 10.596v5.403c.001 4.418 3.583 8 8.001 8z" fill="#f06423"/></g><g><path d="m336 480h-112c-8.837 0-16 7.163-16 16v8h144v-8c0-8.837-7.163-16-16-16z" fill="#5f78be"/></g><g><path d="m336 480h-56v24h72v-8c0-8.837-7.163-16-16-16z" fill="#46508c"/></g><g><path d="m291.314 315.314c-6.248-6.248-16.379-6.248-22.627 0l-.726.726c-12.497 12.497-12.497 32.758 0 45.255l12.039 12.038v34.667c0 30.928 25.072 56 56 56v-97.373c0-4.243-1.686-8.313-4.686-11.314z" fill="#fab991"/></g><g><path d="m293.333 317.333-2.02 2.02c-6.248 6.248-6.248 16.379 0 22.627l1.696 1.696c3.124 3.124 8.19 3.124 11.314 0l7.677-7.676z" fill="#f0915a"/></g></g></g></svg>