<svg height="512" viewBox="0 0 58 58" width="512" xmlns="http://www.w3.org/2000/svg"><g id="Page-1" fill="none" fill-rule="evenodd"><g id="018---Poem" fill-rule="nonzero"><path id="Shape" d="m42 21.86v36.14h-36c-3.3137085 0-6-2.6862915-6-6v-46c0-3.3137085 2.6862915-6 6-6h36z" fill="#f0c419"/><path id="Shape" d="m26.7 12h-20.7c3.31370846 0 5.9999999-2.68629154 5.9999999-6s-2.68629144-5.99999995-5.9999999-6h36c3.3137085 0 6 2.6862915 6 6 .0002655.17377334-.009752.34741014-.03.52z" fill="#f3d55b"/><path id="Shape" d="m42 58c3.3137084-.0000001 5.9999998-2.6862916 5.9999998-6s-2.6862914-5.9999999-5.9999998-6h-36c3.3137085 0 6 2.6862915 6 6s-2.6862915 6-6 6z" fill="#f3d55b"/><path id="Shape" d="m58 4.53s-.69 11.02-7.08 13.07c-2.0670158.5815881-4.0809163 1.3376371-6.02 2.26-.7928828.3945791-1.5405949.8740537-2.23 1.43-1.2567566.9954701-2.2835279 2.2507918-3.01 3.68-.3511743.6979383-.7627438 1.3638109-1.23 1.99-.4684451.6517807-.9974658 1.2578108-1.58 1.81-4.2 3.96-9.82 3.72-12.38 1.58l-1.06-1.41c-.96-2-3.25-8.3 2.06-15.42-.01-.01-.01-.01 0-.02.6373982-.8591467 1.3358734-1.6712494 2.09-2.43.0305579-.039097.0639836-.0758652.1-.11 1.9546137-2.05083366 4.4402669-3.51868461 7.18-4.24.8171979-.2159699 1.649578-.36974293 2.49-.46h.01c1.8322681-.16837265 3.6754805-.1817535 5.51-.04.94.05 1.89.12 2.83.18.01.01.01.01.01 0 4.15.27 8.3.36 12.31-1.87z" fill="#67b9cc"/><g fill="#2fa8cc"><path id="Shape" d="m27.34 16.94c-.1090803.0392508-.2240736.0595438-.34.06-.4210301-.0001791-.7968498-.2640526-.94-.66-.321564-.9094774-.5199912-1.8578923-.59-2.82-.01-.01-.01-.01 0-.02.6373982-.8591467 1.3358734-1.6712494 2.09-2.43-.2675319 1.5373393-.1367053 3.1175867.38 4.59.1875381.5191367-.0810135 1.0920467-.6 1.28z"/><path id="Shape" d="m37.33 6.26c-.8877351 1.42019619-1.3493329 3.06528894-1.33 4.74 0 .5522847-.4477153 1-1 1s-1-.4477153-1-1c-.012433-1.46880275.2733338-2.92485223.84-4.28.8171979-.2159699 1.649578-.36974293 2.49-.46z"/><path id="Shape" d="m45.68 6.4c-1.1420399.81143319-2.0968311 1.85829353-2.8 3.07-.278857.44561782-.855124.5992542-1.3188108.35160328-.4636869-.24765093-.6564687-.81202928-.4411892-1.29160328.4598039-.85096702 1.0427594-1.62936434 1.73-2.31.94.05 1.89.12 2.83.18z"/><path id="Shape" d="m44.9 19.86c-.7928828.3945791-1.5405949.8740537-2.23 1.43-.9004783-.3590245-1.7149336-.9042665-2.39-1.6-.2788329-.2507611-.3939322-.636448-.2981312-.9990098.095801-.3625619.3863976-.6410503.7527062-.7213434.3663085-.0802931.7467507.0511068.985425.3403532.867242.843051 1.9816568 1.3862406 3.18 1.55z"/><path id="Shape" d="m38.43 26.96c-.4684451.6517807-.9974658 1.2578108-1.58 1.81-1.9047563-.269448-3.7350231-.9226287-5.38-1.92-.469442-.2927109-.6127109-.910558-.32-1.38s.910558-.6127109 1.38-.32c1.7940821 1.0654363 3.817088 1.6860534 5.9 1.81z"/></g><path id="Shape" d="m16 39h-8c-.55228475 0-1 .4477153-1 1s.44771525 1 1 1h11.117v-2z" fill="#35495e"/><path id="Shape" d="m8 36h8c.5522847 0 1-.4477153 1-1s-.4477153-1-1-1h-8c-.55228475 0-1 .4477153-1 1s.44771525 1 1 1z" fill="#35495e"/><path id="Shape" d="m8 31h10c.5522847 0 1-.4477153 1-1s-.4477153-1-1-1h-10c-.55228475 0-1 .4477153-1 1s.44771525 1 1 1z" fill="#35495e"/><path id="Shape" d="m8 26h10c.5522847 0 1-.4477153 1-1s-.4477153-1-1-1h-10c-.55228475 0-1 .4477153-1 1s.44771525 1 1 1z" fill="#35495e"/><path id="Shape" d="m8 21h10c.5522847 0 1-.4477153 1-1s-.4477153-1-1-1h-10c-.55228475 0-1 .4477153-1 1s.44771525 1 1 1z" fill="#35495e"/><path id="Shape" d="m19.117 41c-.2918958-.000066-.5691918-.1276661-.7591234-.3493171-.1899316-.2216509-.2735367-.5152238-.2288766-.8036829 1.1371123-5.6999818 3.6388668-11.039414 7.291-15.561.009-.012.017-.023.027-.034 8.123-10.064 14.3-12.493 24.274-13.877.3538716-.0498386.7074509.092897.9275482.3744394.2200972.2815425.2732743.659119.1395.9905001-.1337744.331381-.4341766.566222-.7880482.6160605-9.612 1.333-15.216 3.544-22.93 13.068-1.4470319 3.5806755-2.2552605 7.3872696-2.388 11.247-.0023498.3165273-.1544214.6132525-.41.8l-4.564 3.341c-.1720986.1237146-.3790547.1895484-.591.188z" fill="#3f5c6c"/></g></g></svg>