<?xml version="1.0" ?><svg viewBox="0 0 61.7998 61.7998" xmlns="http://www.w3.org/2000/svg"><title/><g data-name="Layer 2" id="Layer_2"><g data-name="—ÎÓÈ 1" id="_ÎÓÈ_1"><path d="M31.129 8.432c21.281 0 12.988 35.266 0 35.266-12.266 0-21.281-35.266 0-35.266z" fill="#ffe8be" fill-rule="evenodd"/><circle cx="30.8999" cy="30.8999" fill="#a9cf54" r="30.8999"/><path d="M19.012 21.716h24.504V48.29H19.013z" fill="#302e33"/><path d="M24.744 38.68l12.931.121v12.918l-12.931-.121V38.68z" fill="#f9dca4" fill-rule="evenodd"/><path d="M37.677 38.778v3.58c0 .297-.002.113-.002.513a1.602 1.602 0 0 1-.112.838c-4.369 4.164-11.618 1.982-12.73-5.131z" fill-rule="evenodd" opacity="0.11"/><path d="M52.797 52.701c-2.716-6.287-8.913-6.893-15.122-9.83 0 5.414-12.932 4.979-12.932-.264-5.568 2.52-13.63 3.72-16.026 9.801a30.896 30.896 0 0 0 44.08.293z" fill="#498bd9" fill-rule="evenodd"/><path d="M43.391 25.54c2.96 1.29.125 6.535-1.303 6.026-2.302-.822 1.164-3.584 1.303-6.027z" fill="#f9dca4" fill-rule="evenodd"/><path d="M31.114 8.666c8.722 0 12.377 6.2 12.601 13.367.307 9.81-5.675 21.43-12.6 21.43-6.56 0-12.706-12.018-12.333-21.928.26-6.953 3.814-12.869 12.332-12.869z" fill="#ffe8be" fill-rule="evenodd"/><path d="M39.736 20.216s-5.163 17.76-25.4 11.838c5.053-2.753 4.488-6.772 4.131-11.838z" fill="#464449" fill-rule="evenodd"/><path d="M33.665 20.548s2.932 9.395 13.035 10.118a11.655 11.655 0 0 1-2.868-3.36 4.54 4.54 0 0 0 2.838.308c-2.456-1.842-3.068-3.339-2.655-6.89s-10.35-.176-10.35-.176z" fill="#464449" fill-rule="evenodd"/><ellipse cx="31.26417" cy="23.7702" fill="#58b0e0" rx="15.57635" ry="3.6071"/><path d="M26.971 6.623h8.586a8.529 8.529 0 0 1 8.504 8.503v6.59H18.467v-6.59a8.529 8.529 0 0 1 8.504-8.503z" fill="#2881bb" fill-rule="evenodd"/><path d="M26.405 13.19h2.025l1.468 2.923v-1.79a.937.937 0 0 0-.026-.288.222.222 0 0 0-.097-.12.53.53 0 0 0-.236-.034h-.244v-.691h2.066v.691h-.228a.563.563 0 0 0-.245.04.222.222 0 0 0-.102.107.974.974 0 0 0-.028.294v3.876h-1.035l-1.855-3.692v2.584a.89.89 0 0 0 .027.284.202.202 0 0 0 .096.097.587.587 0 0 0 .241.035h.24v.692h-2.067v-.691h.214a.645.645 0 0 0 .244-.031.224.224 0 0 0 .106-.106.517.517 0 0 0 .039-.226v-2.875a.623.623 0 0 0-.035-.243.238.238 0 0 0-.097-.112.435.435 0 0 0-.204-.034h-.267v-.69zm5.153 0h2.485v.691h-.186a.58.58 0 0 0-.247.03.102.102 0 0 0-.05.098.615.615 0 0 0 .116.28l.659 1.091.733-1.131a7.27 7.27 0 0 0 .108-.164.239.239 0 0 0 .014-.082.105.105 0 0 0-.041-.093.395.395 0 0 0-.194-.029h-.257v-.691h1.992v.691a.568.568 0 0 0-.617.338l-1.331 1.947v.894a.945.945 0 0 0 .03.308.202.202 0 0 0 .105.104.806.806 0 0 0 .291.034h.177v.692h-2.442v-.691h.131a.926.926 0 0 0 .326-.035.228.228 0 0 0 .11-.115.918.918 0 0 0 .036-.325v-.783l-1.33-2.03a.886.886 0 0 0-.278-.299.967.967 0 0 0-.34-.039z" fill="#fff" fill-rule="evenodd"/><path d="M30.41 46.686l1.261.012v3.45H30.41v-3.462z" fill="#e6e6e6" fill-rule="evenodd"/><path d="M25.22 55.341h11.642v1.262H25.22z" fill="#fff" opacity="0.33" transform="translate(-25.06876 86.76377) rotate(-89.74558)"/><path d="M9.086 52.785a12.8 12.8 0 0 1 6.118-5.923c4.156-1.787 9.588-3.585 9.604-3.59l.32.804c-.015.005-5.457 1.79-9.588 3.566a12.647 12.647 0 0 0-5.848 5.728z" fill="#e6e6e6" fill-rule="evenodd"/><path d="M52.43 53.064a12.792 12.792 0 0 0-6.116-5.919c-4.156-1.787-8.773-3.31-8.788-3.314l-.392.777c.015.005 4.714 1.542 8.844 3.318a12.62 12.62 0 0 1 5.842 5.714l.375-.35z" fill="#e6e6e6" fill-rule="evenodd"/></g></g></svg>