<svg width="152" height="49" viewBox="0 0 152 49" fill="none" xmlns="http://www.w3.org/2000/svg">
<path d="M61.38 44.85C62.71 44.85 63.38 44.48 63.38 43.75C63.3906 43.5927 63.3533 43.4358 63.2729 43.3002C63.1926 43.1645 63.0731 43.0563 62.93 42.99C62.1492 42.6953 61.3468 42.4613 60.53 42.29C59.3908 42.09 58.305 41.6577 57.34 41.02C56.9642 40.7263 56.6638 40.3471 56.4638 39.9141C56.2638 39.4811 56.1699 39.0066 56.19 38.53C56.1714 37.9757 56.3028 37.4267 56.5704 36.9409C56.8379 36.4551 57.2316 36.0506 57.71 35.77C58.8545 35.1258 60.1586 34.8206 61.47 34.89C62.862 34.8186 64.24 35.1973 65.4 35.97C65.8115 36.2615 66.1612 36.6316 66.429 37.059C66.6967 37.4864 66.8772 37.9625 66.96 38.46H63.36C63.17 37.67 62.52 37.27 61.36 37.27C60.2 37.27 59.75 37.59 59.75 38.27C59.7508 38.4212 59.7944 38.5691 59.8759 38.6965C59.9573 38.824 60.0731 38.9257 60.21 38.99C60.8497 39.2799 61.5209 39.4946 62.21 39.63L62.64 39.75C63.6678 39.9583 64.6588 40.3189 65.58 40.82C66.0124 41.0729 66.3687 41.4376 66.6115 41.8757C66.8543 42.3139 66.9747 42.8093 66.96 43.31C66.9863 43.903 66.856 44.4925 66.5821 45.0191C66.3083 45.5457 65.9006 45.991 65.4 46.31C64.1916 47.0234 62.802 47.3708 61.4 47.31C59.932 47.3842 58.4794 46.9807 57.26 46.16C56.4254 45.5737 55.8544 44.6831 55.67 43.68H59.28C59.3247 43.8703 59.4093 44.049 59.5283 44.2041C59.6472 44.3593 59.7978 44.4874 59.97 44.58C60.3939 44.8274 60.8796 44.9489 61.37 44.93" fill="#008EC7"/>
<path d="M68.38 46.89V30.75H71.96V36.28C72.8732 35.4102 74.0813 34.9176 75.3423 34.9009C76.6034 34.8842 77.8241 35.3447 78.76 36.19C79.4675 37.09 79.823 38.2169 79.76 39.36V46.89H76.17V39.49C76.17 38.07 75.55 37.36 74.33 37.36C73.9942 37.3476 73.6597 37.4092 73.3503 37.5406C73.041 37.6719 72.7643 37.8697 72.54 38.12C72.1322 38.6101 71.9187 39.2328 71.94 39.87V46.87L68.38 46.89Z" fill="#008EC7"/>
<path d="M85.3 46.89H81.71V35.23H84.71L85.05 36.51C85.4891 35.9731 86.0482 35.5467 86.6821 35.2654C87.3161 34.984 88.0073 34.8554 88.7 34.89C89.3296 34.8486 89.9606 34.9464 90.5482 35.1762C91.1358 35.4061 91.6656 35.7624 92.1 36.22C92.8148 37.1045 93.1717 38.225 93.1 39.36V46.89H89.51V39.49C89.51 38.07 88.9 37.36 87.68 37.36C87.3378 37.347 86.9973 37.4134 86.685 37.5539C86.3728 37.6944 86.0972 37.9053 85.88 38.17C85.4717 38.6826 85.2622 39.3253 85.29 39.98L85.3 46.89Z" fill="#008EC7"/>
<path d="M98.58 38.6H94.9C95.032 38.0074 95.286 37.4488 95.6459 36.9598C96.0057 36.4709 96.4635 36.0622 96.99 35.76C98.1188 35.1521 99.3888 34.8553 100.67 34.9C102.154 34.8092 103.618 35.2725 104.78 36.2C105.198 36.5764 105.528 37.0405 105.745 37.5591C105.963 38.0777 106.064 38.638 106.04 39.2V46.91H103.24L102.8 45.7C102.296 46.2322 101.68 46.6469 100.998 46.9148C100.315 47.1827 99.5818 47.2971 98.85 47.25C97.6989 47.3139 96.5696 46.9183 95.71 46.15C95.3682 45.8126 95.1022 45.4061 94.9297 44.9578C94.7573 44.5095 94.6824 44.0295 94.71 43.55C94.6944 43.0795 94.7981 42.6127 95.0114 42.1931C95.2247 41.7735 95.5407 41.4146 95.93 41.15C97.0236 40.4644 98.2574 40.0338 99.54 39.89L102.54 39.42V38.91C102.54 37.75 101.9 37.18 100.63 37.18C100.176 37.1102 99.7126 37.2207 99.3389 37.4879C98.9653 37.7551 98.7108 38.1578 98.63 38.61M99.94 44.85C100.306 44.8707 100.673 44.8156 101.017 44.6883C101.361 44.561 101.675 44.3641 101.94 44.11C102.134 43.912 102.287 43.6775 102.39 43.42C102.493 43.1625 102.544 42.8872 102.54 42.61V41.33L100.54 41.73C99.9438 41.8085 99.373 42.0204 98.87 42.35C98.7172 42.468 98.5935 42.6195 98.5086 42.7929C98.4236 42.9663 98.3796 43.1569 98.38 43.35C98.38 44.35 98.92 44.81 100.01 44.81" fill="#008EC7"/>
<path d="M114.83 44.54V46.91C114.121 47.1155 113.388 47.2232 112.65 47.23C112.104 47.268 111.556 47.1935 111.04 47.0112C110.524 46.8288 110.051 46.5426 109.65 46.17C109.342 45.8282 109.104 45.4285 108.952 44.9942C108.799 44.5599 108.734 44.0996 108.76 43.64V37.64H106.94V35.22H108.76L108.99 32.42H112.34V35.22H116.34V37.64H112.34V43.74C112.331 43.8775 112.354 44.0151 112.408 44.1419C112.462 44.2687 112.545 44.3811 112.65 44.47C112.898 44.6531 113.202 44.7449 113.51 44.73C113.952 44.7067 114.391 44.6397 114.82 44.53" fill="#008EC7"/>
<path d="M123.29 44.54V46.91C122.581 47.1155 121.848 47.2232 121.11 47.23C120.564 47.268 120.016 47.1935 119.5 47.0112C118.984 46.8288 118.511 46.5426 118.11 46.17C117.798 45.8299 117.558 45.4308 117.404 44.9962C117.249 44.5616 117.183 44.1005 117.21 43.64V37.64H115.4V35.22H117.21L117.44 32.42H120.8V35.22H123.25V37.64H120.8V43.74C120.791 43.8775 120.814 44.0151 120.868 44.1419C120.922 44.2687 121.005 44.3811 121.11 44.47C121.357 44.6562 121.662 44.7483 121.97 44.73C122.412 44.7067 122.851 44.6397 123.28 44.53" fill="#008EC7"/>
<path d="M132.87 43.51H136.52C136.389 44.0861 136.145 44.6304 135.802 45.1111C135.458 45.5919 135.023 45.9994 134.52 46.31C133.328 46.9671 131.98 47.2853 130.62 47.23C129.742 47.2774 128.863 47.1378 128.043 46.8207C127.222 46.5035 126.478 46.0159 125.86 45.39C124.802 44.2026 124.249 42.6489 124.32 41.06C124.264 40.1715 124.406 39.2815 124.736 38.4548C125.067 37.628 125.577 36.8851 126.23 36.28C127.438 35.3153 128.955 34.8215 130.5 34.89C131.387 34.8317 132.275 34.9822 133.093 35.3296C133.911 35.6769 134.636 36.2114 135.21 36.89C136.252 38.3414 136.764 40.1065 136.66 41.89H127.95C128.18 43.81 129.13 44.76 130.8 44.76C131.275 44.7759 131.745 44.6618 132.16 44.43C132.508 44.2191 132.762 43.8827 132.87 43.49M130.43 37.07C128.98 37.07 128.15 38 127.95 39.85H132.95C132.86 38 132.01 37.07 130.4 37.07" fill="#008EC7"/>
<path d="M141.93 46.89H138.34V35.23H141.34L141.73 37C141.97 36.3704 142.399 35.8301 142.957 35.4525C143.515 35.075 144.176 34.8786 144.85 34.89C145.308 34.8835 145.766 34.9373 146.21 35.05V38.3C145.71 38.1507 145.191 38.0766 144.67 38.08C144.267 38.0825 143.871 38.1887 143.521 38.3883C143.171 38.588 142.878 38.8744 142.67 39.22C142.146 40.0679 141.892 41.0546 141.94 42.05L141.93 46.89Z" fill="#008EC7"/>
<path d="M47.61 48.26C47.3474 48.2592 47.0882 48.2016 46.8499 48.0911C46.6117 47.9806 46.4003 47.8199 46.23 47.62C45.58 46.86 45.06 46.22 44.65 45.7C43.5 44.26 43.2 43.93 42.65 43.76C41.75 43.48 39.99 43.48 36.79 43.49H13.23C9.92 43.4847 6.74722 42.1668 4.40762 39.8253C2.06803 37.4838 0.752644 34.31 0.75 31V22.21C0.756901 19.5413 1.615 16.9445 3.19946 14.7971C4.78393 12.6497 7.01215 11.0638 9.56003 10.27C10.0897 7.3946 11.6083 4.79496 13.8527 2.92122C16.0972 1.04748 18.9262 0.0176331 21.85 0.0100098H43.17C46.48 0.0153047 49.6528 1.33323 51.9924 3.6747C54.332 6.01617 55.6474 9.18999 55.65 12.5V25.92C55.616 26.3781 55.41 26.8064 55.0734 27.1189C54.7367 27.4315 54.2944 27.6052 53.835 27.6052C53.3757 27.6052 52.9333 27.4315 52.5966 27.1189C52.26 26.8064 52.054 26.3781 52.02 25.92V12.51C52.0174 10.1637 51.0841 7.91416 49.425 6.25504C47.7659 4.59591 45.5164 3.66265 43.17 3.66H21.85C19.5037 3.66265 17.2542 4.59591 15.595 6.25504C13.9359 7.91416 13.0026 10.1637 13 12.51V21.3C13.0026 23.6464 13.9359 25.8959 15.595 27.555C17.2542 29.2141 19.5037 30.1474 21.85 30.15H47.61C48.0919 30.1526 48.5533 30.3452 48.894 30.686C49.2348 31.0267 49.4274 31.4881 49.43 31.97V46.44C49.4285 46.8109 49.3137 47.1724 49.101 47.4762C48.8884 47.78 48.588 48.0116 48.24 48.14C48.0391 48.2182 47.8256 48.2589 47.61 48.26ZM38.22 39.85C42.6 39.85 44.14 39.99 45.79 41.52V33.79H21.85C18.5391 33.7847 15.3653 32.4671 13.0241 30.1259C10.6829 27.7847 9.3653 24.6109 9.36002 21.3V14.3C7.86433 15.0356 6.60377 16.1743 5.72037 17.5877C4.83697 19.0012 4.36583 20.6332 4.36002 22.3V31.09C4.36266 33.4364 5.29592 35.6858 6.95505 37.345C8.61417 39.0041 10.8637 39.9374 13.21 39.94H38.21" fill="#008EC7"/>
<path d="M147.831 33.2219C147.831 33.4208 147.863 33.5942 147.926 33.7422C147.991 33.8877 148.076 34.009 148.18 34.106C148.287 34.2006 148.407 34.2709 148.541 34.317C148.676 34.3631 148.816 34.3861 148.959 34.3861C149.102 34.3861 149.242 34.3631 149.377 34.317C149.513 34.2709 149.633 34.2006 149.738 34.106C149.844 34.009 149.929 33.8877 149.992 33.7422C150.058 33.5942 150.091 33.4208 150.091 33.2219C150.091 33.023 150.058 32.8508 149.992 32.7053C149.929 32.5573 149.844 32.436 149.738 32.3414C149.633 32.2444 149.513 32.1728 149.377 32.1268C149.242 32.0807 149.102 32.0576 148.959 32.0576C148.816 32.0576 148.676 32.0807 148.541 32.1268C148.407 32.1728 148.287 32.2444 148.18 32.3414C148.076 32.436 147.991 32.5573 147.926 32.7053C147.863 32.8508 147.831 33.023 147.831 33.2219ZM150.323 33.2219C150.323 33.462 150.283 33.6682 150.203 33.8404C150.123 34.0102 150.018 34.1509 149.887 34.2624C149.758 34.374 149.613 34.4565 149.45 34.5098C149.288 34.5608 149.124 34.5863 148.959 34.5863C148.794 34.5863 148.63 34.5608 148.468 34.5098C148.308 34.4565 148.162 34.374 148.031 34.2624C147.903 34.1509 147.798 34.0102 147.718 33.8404C147.638 33.6682 147.598 33.462 147.598 33.2219C147.598 32.9818 147.638 32.7768 147.718 32.607C147.798 32.4348 147.903 32.2929 148.031 32.1813C148.162 32.0698 148.308 31.9885 148.468 31.9376C148.63 31.8842 148.794 31.8575 148.959 31.8575C149.124 31.8575 149.288 31.8842 149.45 31.9376C149.613 31.9885 149.758 32.0698 149.887 32.1813C150.018 32.2929 150.123 32.4348 150.203 32.607C150.283 32.7768 150.323 32.9818 150.323 33.2219ZM149.581 33.4875C149.569 33.5505 149.547 33.6124 149.516 33.673C149.484 33.7313 149.442 33.7834 149.388 33.8295C149.337 33.8731 149.276 33.9083 149.203 33.935C149.132 33.9617 149.052 33.975 148.963 33.975C148.89 33.975 148.813 33.9617 148.733 33.935C148.656 33.9083 148.584 33.8659 148.519 33.8077C148.453 33.747 148.4 33.6694 148.359 33.5748C148.317 33.4778 148.297 33.3601 148.297 33.2219C148.297 33.0861 148.316 32.9696 148.355 32.8726C148.394 32.7732 148.444 32.6931 148.504 32.6325C148.567 32.5694 148.639 32.5233 148.719 32.4942C148.799 32.4651 148.88 32.4506 148.963 32.4506C149.12 32.4506 149.255 32.4906 149.367 32.5706C149.478 32.6507 149.546 32.7635 149.57 32.909H149.334C149.317 32.8217 149.276 32.7538 149.21 32.7053C149.147 32.6567 149.067 32.6325 148.97 32.6325C148.909 32.6325 148.852 32.6446 148.799 32.6689C148.746 32.6907 148.698 32.7259 148.657 32.7744C148.618 32.8205 148.587 32.8811 148.562 32.9563C148.538 33.0291 148.526 33.1164 148.526 33.2183C148.526 33.325 148.539 33.4147 148.566 33.4875C148.593 33.5603 148.627 33.6197 148.668 33.6658C148.712 33.7094 148.76 33.741 148.813 33.7604C148.867 33.7798 148.919 33.7895 148.97 33.7895C149.084 33.7895 149.172 33.7591 149.236 33.6985C149.299 33.6379 149.336 33.5675 149.348 33.4875H149.581Z" fill="#008EC7"/>
</svg>
