<svg height="16" viewBox="0 0 20 16" width="20"><path d="m19.0426025 1.89416831c-.6070809.27573601-1.2752956.44311943-1.9307418.55341384.3110854-.05242868.7695883-.61749334.9529894-.84623773.2797448-.34874781.512285-.74604069.6430647-1.17517915.0166377-.03339901.0294061-.07573031-.0042561-.10097375-.0417876-.0166995-.0688722-.00815557-.1021475.00854393-.7316699.39340928-1.4881028.67885432-2.293288.88080182-.0669375.01669951-.1164636 0-.1582512-.04194294-.0669375-.07573032-.1296189-.1468003-.2004257-.20583111-.3385569-.28894028-.7018769-.51574287-1.1112406-.68312628-.5374349-.22020046-1.1247829-.313407-1.7040054-.27534766-.5633588.03650589-1.1166575.1961221-1.616561.4582655-.5010643.26253176-.9479595.62797907-1.3039279 1.0691567-.36834997.45593533-.63996937.99459147-.77887445 1.56548154-.13426201.55108368-.12342819 1.09634195-.04140068 1.65325103.01238152.09242982.00425615.10485736-.07893213.09242982-3.15032069-.47069303-5.76165874-1.60198743-7.88121865-4.0265226-.09208749-.10524572-.14200046-.10524572-.21745029.00815558-.92745255 1.3953796-.47746201 3.63777365.68137003 4.73955264.15438196.1468003.31302007.29360061.48442661.42758501-.0626814.0128159-.83381738-.07106999-1.52099123-.42758501-.09170057-.05864245-.13813124-.02485508-.1462566.07961392-.00851229.15107227.00425614.289717.02476302.45321681.17798422 1.41479763 1.15418898 2.72318446 2.49100524 3.23349028.15863811.06718638.33391387.12582883.50532041.15534423-.3048947.06679802-.6183017.11495474-1.49158515.04621491-.10872514-.02097147-.15051274.03339901-.10872514.13825637.65622008 1.79539099 2.07274232 2.32977519 3.13368304 2.63424989.14200046.0248551.28438783.0248551.42677521.0582541-.00851229.0128159-.01702458.0128159-.02514994.0252434-.35209922.5386562-1.57206498.9394443-2.14045371 1.1386733-1.03308233.3623404-2.15825213.5254519-3.25053355.4174876-.17450193-.0256318-.21125954-.02369-.25885097 0-.04759143.0295154-.00580383.0714584.05029989.1172849.22170643.1468003.44689516.2769011.67672696.4027299.69375153.3689426 1.41690916.6629316 2.17295517.8722579 3.90481903 1.082361 8.30335081.2869985 11.23506041-2.63658 2.3025741-2.2963762 3.109307-5.46268009 3.109307-8.63286759 0-.12427538.1462566-.19301521.2329271-.25825979.5989556-.45166336 1.0752569-.99226131 1.5221521-1.59616202.1002128-.13553785.0941388-.25631799.0941388-.30563979 0-.00854393 0-.0166995 0-.0166995 0-.05087524.006074-.03534082-.0716974 0"></path></svg>